# Blender v2.74 (sub 0) OBJ File: ''
# www.blender.org
mtllib hotel.mtl
o Mesh1_Model
v 1.194690 44.240005 -19.966093
v 1.194690 -0.059997 -19.966101
v -0.805311 -0.059997 -19.966101
v -0.805311 44.240005 -19.966093
v 1.194690 -0.059997 -20.466101
v 1.194690 44.240005 -20.466093
v -0.805311 -0.059997 -20.466101
v -8.805310 -0.059997 -19.466101
v -8.805310 -0.060003 18.533899
v -0.805311 -0.060003 19.533899
v -0.805311 -0.060003 19.033899
v 1.194690 -0.060003 19.033899
v 1.194690 -0.060003 19.533899
v 9.194690 -0.060003 18.533899
v 9.194690 -0.059997 -19.466101
v -8.805310 44.240005 -19.466093
v -0.805311 44.240005 -20.466093
v -8.805310 44.239998 18.533907
v -0.805311 44.239998 19.533907
v -0.805311 44.239998 19.033907
v 1.194690 44.239998 19.033907
v 1.194690 44.239998 19.533907
v 9.194690 44.239998 18.533907
v 9.194690 44.240005 -19.466093
v 4.894690 44.240002 -11.638992
v 0.194689 44.240005 -12.226492
v -4.505310 44.240002 -11.638992
v -4.505310 44.239998 17.257408
v 0.194689 44.239998 17.844908
v 4.894690 44.239998 17.257408
v 4.894690 45.240002 -11.638992
v 4.894690 45.239998 17.257408
v 5.194690 45.240005 -11.903792
v 0.194689 45.240005 -12.226492
v 0.194689 45.240005 -12.528792
v -4.505310 45.240002 -11.638992
v -4.805310 45.240005 -11.903792
v -4.505310 45.239998 17.257408
v 0.194689 45.239998 17.844908
v 0.194689 45.239998 18.147308
v -4.805310 45.239998 17.522308
v -4.805310 48.940002 -11.903792
v -4.805310 48.939995 17.522308
v 0.194689 48.940002 -12.528792
v 5.194690 48.940002 -11.903792
v 5.194690 48.939995 17.522308
v 5.194690 45.239998 17.522308
v 0.194689 48.939995 18.147308
v 4.894690 48.939999 11.507908
v -4.505310 48.939999 11.507908
v -4.505310 48.939999 1.114478
v 4.894690 48.939999 1.114478
v 4.894690 46.770000 1.114478
v -4.505310 46.770000 1.114478
v 4.894690 46.770000 11.507908
v -4.505310 46.770000 11.507908
vt 2.437950 36.868301
vt -3.614820 36.868301
vt -3.614820 36.053299
vt 2.437950 36.053299
vt -2.437950 36.053299
vt 3.614820 36.053299
vt 3.614820 36.868301
vt -2.437950 36.868301
vt 0.024924 0.998872
vt 0.024924 0.001174
vt 0.969470 0.001174
vt 0.969470 0.998872
vt 1.000000 1.000000
vt 1.000000 0.000000
vt 2.000000 0.000000
vt 2.000000 1.000000
vt 0.868795 0.308675
vt 0.800444 0.049776
vt 0.999396 0.136239
vt 0.471726 0.180610
vt 0.576982 -0.000000
vt -0.000000 0.863663
vt 0.267932 0.485661
vt 0.198952 0.950127
vt 0.665002 0.613726
vt 0.422415 0.999903
vt 0.555556 1.000000
vt 0.761111 0.779323
vt 1.000000 0.975000
vt 0.555556 0.987500
vt 0.500000 0.794010
vt 0.444444 0.987500
vt 0.238889 0.779323
vt 0.444444 1.000000
vt 0.000000 0.975000
vt 0.238889 0.056913
vt 0.000000 0.025000
vt 0.444444 0.000000
vt 0.444444 0.012500
vt 0.500000 0.042225
vt 0.555556 0.012500
vt 0.761111 0.056913
vt 0.555556 0.000000
vt 1.000000 0.025000
vt 177.373993 1841.339966
vt 177.373993 1926.770020
vt -192.703995 1926.770020
vt -192.703995 1841.339966
vt 0.000000 -0.000000
vt 0.985163 -0.000000
vt 0.985163 0.988839
vt 0.000000 0.988839
vt -0.419543 0.048823
vt -0.422428 0.952662
vt -0.738893 0.942589
vt -0.736009 0.038749
vt -0.608291 -11.454000
vt -0.509064 -11.454000
vt -0.509064 -0.375129
vt -0.608291 -0.375129
vt 0.476829 -11.454000
vt 0.576057 -11.454000
vt 0.576057 -0.375129
vt 0.476829 -0.375129
vt 0.063562 -11.454000
vt 0.162790 -11.454000
vt 0.162790 -0.375129
vt 0.063562 -0.375129
vt 1.658740 0.366608
vt 1.724330 0.310194
vt 0.947442 7.537400
vt 0.747661 0.075026
vt 0.755103 -0.000000
vt -0.192339 0.075026
vt -0.244897 -0.000000
vt -0.903635 7.245810
vt 0.000000 7.612420
vt 0.007442 7.537400
vt -0.969231 7.302230
vt -1.606750 0.800276
vt -1.606750 -0.125043
vt -0.606747 -0.125043
vt -0.606747 0.800276
vt 0.000000 -0.125043
vt 1.000000 -0.125043
vt 1.000000 0.800276
vt 0.000000 0.800276
vt 1.000000 7.612420
vt -1.000000 0.800276
vt -1.000000 -0.125043
vt -1.575020 -11.454000
vt -1.475790 -11.454000
vt -1.475790 -0.375129
vt -1.575020 -0.375129
vt -0.002830 0.934249
vt -0.004482 0.007135
vt 0.995518 0.007135
vt 0.997170 0.934249
vt -0.000704 0.938384
vt -0.003361 -0.002032
vt 0.996639 -0.002032
vt 0.999296 0.938384
vt -31.705200 805.750000
vt -31.705200 786.065002
vt 47.035000 786.065002
vt 47.035000 805.750000
vt 361.996002 766.380005
vt 361.996002 -729.682983
vt 47.035000 -769.052979
vt 47.035000 -749.367981
vt -31.705200 -749.367981
vt -31.705200 -769.052979
vt -346.665985 -729.682983
vt -346.665985 766.380005
vt 91.732201 1781.099976
vt 91.732201 1741.729980
vt -94.747200 1741.729980
vt -94.747200 1781.099976
vt 68.787102 1781.099976
vt -129.595001 1781.099976
vt -129.595001 1926.770020
vt 68.787102 1926.770020
vt 79.535698 1781.099976
vt 79.535698 1741.729980
vt -106.944000 1741.729980
vt -106.944000 1781.099976
vt 67.310699 1781.099976
vt 67.310699 1741.729980
vt -119.168999 1741.729980
vt -119.168999 1781.099976
vt 134.380005 1781.099976
vt 134.380005 1741.729980
vt -52.099201 1741.729980
vt -52.099201 1781.099976
vt 0.996889 0.000000
vt 0.996889 1.000000
vt 0.000000 1.000000
vt 192.703995 1841.339966
vt 192.703995 1926.770020
vt -177.373993 1926.770020
vt -177.373993 1841.339966
vt 453.067993 1926.770020
vt 43.876801 1926.770020
vt 43.876801 1841.339966
vt 453.067993 1841.339966
vn 0.342400 -0.889600 -0.302200
vn 0.342400 -0.889600 0.302200
vn 0.342400 0.889600 0.302200
vn 0.342400 0.889600 -0.302200
vn -0.342400 0.889600 -0.302200
vn -0.342400 0.889600 0.302200
vn -0.342400 -0.889600 0.302200
vn -0.342400 -0.889600 -0.302200
vn 0.000000 0.000000 -1.000000
vn -0.577400 -0.577400 -0.577400
vn 0.577400 -0.577400 -0.577400
vn 0.000000 -0.000000 1.000000
vn 0.577400 -0.577400 0.577400
vn -0.577400 -0.577400 0.577400
vn 0.000000 1.000000 0.000000
vn -0.608500 0.584200 -0.537100
vn -0.000000 0.680200 -0.733000
vn 0.000000 0.736100 -0.676900
vn 0.000000 0.736100 0.676900
vn 0.543300 -0.571100 -0.615400
vn -0.608500 -0.584200 -0.537100
vn -0.124000 0.000000 -0.992300
vn -0.608500 -0.584200 0.537100
vn 0.543300 -0.571100 0.615400
vn -0.124000 -0.000000 0.992300
vn -0.543300 -0.571100 0.615400
vn 0.608500 -0.584200 0.537100
vn 0.124000 -0.000000 0.992300
vn 0.608500 -0.584200 -0.537100
vn -0.543300 -0.571100 -0.615400
vn 0.124000 0.000000 -0.992300
vn -1.000000 0.000000 0.000000
vn 1.000000 0.000000 0.000000
vn 0.000000 -1.000000 0.000000
vn 0.000000 -0.736100 -0.676900
vn 0.000000 -0.680200 -0.733000
vn 0.000000 -0.736100 0.676900
usemtl dirty_top
s 1
f 31/1/1 32/2/2 30/3/3 25/4/4
f 27/5/5 28/6/6 38/7/7 36/8/8
usemtl Material_1
f 1/9/9 2/10/10 3/11/11 4/12/9
f 20/13/12 11/14/13 12/15/14 21/16/12
usemtl Material_2
f 49/17/15 48/18/15 46/19/15
f 50/20/15 48/18/15 49/17/15
f 50/20/15 43/21/15 48/18/15
f 43/21/15 50/20/15 42/22/16
f 51/23/15 42/22/16 50/20/15
f 42/22/16 51/23/15 44/24/17
f 44/24/17 51/23/15 52/25/15
f 49/17/15 46/19/15 52/25/15
f 45/26/15 52/25/15 46/19/15
f 44/24/17 52/25/15 45/26/15
usemtl rooftop3
f 6/27/15 25/28/4 24/29/15
f 1/30/15 25/28/4 6/27/15
f 1/30/15 26/31/18 25/28/4
f 4/32/15 26/31/18 1/30/15
f 4/32/15 27/33/5 26/31/18
f 17/34/15 27/33/5 4/32/15
f 16/35/15 27/33/5 17/34/15
f 27/33/5 16/35/15 28/36/6
f 18/37/15 28/36/6 16/35/15
f 28/36/6 18/37/15 19/38/15
f 28/36/6 19/38/15 20/39/15
f 20/39/15 29/40/19 28/36/6
f 29/40/19 20/39/15 21/41/15
f 29/40/19 21/41/15 30/42/3
f 30/42/3 21/41/15 22/43/15
f 30/42/3 22/43/15 23/44/15
f 30/42/3 23/44/15 24/29/15
f 24/29/15 25/28/4 30/42/3
usemtl Color_C10
f 56/45/9 50/46/9 49/47/9 55/48/9
usemtl building_side_striped_1
f 7/49/20 8/50/21 16/51/22 17/52/22
f 9/49/23 10/50/24 19/51/25 18/52/25
f 13/49/26 14/50/27 23/51/28 22/52/28
f 15/49/29 5/50/30 6/51/31 24/52/31
usemtl rooftop1
f 53/53/15 54/54/15 56/55/15 55/56/15
usemtl buildingtex2
f 5/57/30 2/58/10 1/59/32 6/60/32
f 10/61/24 11/62/13 20/63/33 19/64/33
f 12/65/14 13/66/26 22/67/32 21/68/32
f 31/69/1 33/70/34 32/71/2
f 34/72/35 33/70/34 31/69/1
f 34/72/35 35/73/36 33/70/34
f 36/74/8 35/73/36 34/72/35
f 36/74/8 37/75/21 35/73/36
f 37/75/21 36/74/8 38/76/7
f 40/77/34 38/76/7 39/78/37
f 41/79/34 38/76/7 40/77/34
f 38/76/7 41/79/34 37/75/21
f 45/80/31 33/81/31 35/82/36 44/83/17
f 40/84/28 47/85/28 46/86/28 48/87/28
f 40/77/34 39/78/37 47/88/34
f 47/88/34 39/78/37 32/71/2
f 32/71/2 33/70/34 47/88/34
f 43/89/25 41/90/25 40/84/25 48/87/25
f 3/91/11 7/92/20 17/93/33 4/94/33
usemtl Rydges_Sign_H_Res
f 42/95/16 37/96/21 41/97/32 43/98/32
f 46/99/33 47/100/33 33/101/33 45/102/33
usemtl FrontColor
f 7/103/20 3/104/11 2/105/10 5/106/30 15/107/29 14/108/27 13/109/26 12/110/14 11/111/13 10/112/24 9/113/23 8/114/21
f 38/115/7 28/116/6 29/117/19 39/118/37
f 35/119/36 37/120/21 42/121/16 44/122/17
f 39/123/37 29/124/19 30/125/3 32/126/2
f 34/127/35 26/128/18 27/129/5 36/130/8
f 31/131/1 25/132/4 26/133/18 34/134/35
usemtl Building_Side_Main1
f 9/135/23 18/136/32 16/137/32 8/49/21
f 23/137/33 14/49/27 15/135/29 24/136/33
usemtl Color_A25
f 53/138/12 52/139/12 51/140/12 54/141/12
f 49/142/32 52/143/32 53/144/32 55/145/32
