# Alias OBJ Model File
# Exported from SketchUp, (c) 2000-2012 Trimble Navigation Limited
# File units = meters

mtllib arrowblue.mtl

g Mesh1 Model

usemtl Color_I01
v 0.0175964 0.017342 -0.19
vt 7.36669 1.48914
vn 0.742412 -0.66537 -0.0781487
v 1.0076 1.07734 0.19
vt -11.592 57.392
v 0.0575964 0.017342 0.19
vt -7.67659 1.48914
f 1/1/1 2/2/1 3/3/1

v 0.967596 1.07734 -0.19
vt 3.45132 57.392
f 2/2/1 1/1/1 4/4/1

usemtl M_0020_Red
vn -0.742412 0.66537 0.0781487
f 3/3/2 2/2/2 1/1/2

usemtl Color_I01
vt 39.6691 42.415
vn 1.17812e-032 8.51311e-016 1
v -0.892404 1.07734 0.19
vt -35.134 42.415
vt 2.26757 0.682754
f 2/5/3 5/6/3 3/7/3

v 0.707596 1.07734 0.19
vt 27.8581 42.415
f 5/6/3 2/5/3 6/8/3

usemtl M_0020_Red
vn -1.17812e-032 -8.51311e-016 -1
f 3/7/4 5/6/4 2/5/4

usemtl Color_I01
vt 3.76122 55.4331
vn -0.742412 -0.66537 0.0781487
vt -7.36669 -0.469765
vt 7.67659 -0.469765
f 5/9/5 1/10/5 3/11/5

v -0.932404 1.07734 -0.19
vt -11.2821 55.4331
f 1/10/5 5/9/5 7/12/5

usemtl M_0020_Red
vn 0.742412 0.66537 -0.0781487
f 3/11/6 1/10/6 5/9/6

f 7/12/6 5/9/6 1/10/6

v -0.632404 1.07734 -0.19
vt 24.8978 7.48031
vn -3.10461e-031 -1 1.89977e-015
vt 35.134 -7.48031
vt 36.7088 7.48031
f 8/13/7 5/14/7 7/15/7

v -0.592404 1.07734 0.19
vt 23.323 -7.48031
f 9/16/7 5/14/7 8/13/7

usemtl Color_I01
vn 3.10461e-031 1 -1.89977e-015
f 8/13/8 5/14/8 9/16/8

f 7/15/8 5/14/8 8/13/8

vt -38.0943 42.415
vn -3.76999e-032 -2.72419e-015 -1
vt 36.7088 42.415
vt 24.8978 42.415
f 4/17/9 7/18/9 8/19/9

vt -0.692771 0.682754
f 7/18/9 4/17/9 1/20/9

usemtl M_0020_Red
vn 3.76999e-032 2.72419e-015 1
f 1/20/10 4/17/10 7/18/10

f 4/4/2 1/1/2 2/2/2

vt -39.6691 -7.48031
vn 0 -1 1.89977e-015
v 0.667596 1.07734 -0.19
vt -26.2833 7.48031
vt -38.0943 7.48031
f 2/21/11 10/22/11 4/23/11

vt -27.8581 -7.48031
f 2/21/11 6/24/11 10/22/11

f 6/8/4 2/5/4 5/6/4

usemtl Color_I01
vn -0 1 -1.89977e-015
f 10/22/12 6/24/12 2/21/12

vt 4.68775 42.415
vn 0.994505 5.42522e-017 -0.104685
v 0.707596 2.81734 0.19
vt -10.3555 110.919
vt -10.3555 42.415
f 10/25/13 11/26/13 6/27/13

vn 0.994505 8.78368e-017 -0.104685
v 0.667596 2.81734 -0.19
vt 4.68775 110.919
f 10/25/14 12/28/14 11/26/14

usemtl M_0020_Red
vn -0.994505 -8.78368e-017 0.104685
f 11/26/15 12/28/15 10/25/15

usemtl Color_I01
vt 27.8581 -7.48031
vn 0 1 -0
vt 26.2833 7.48031
v -0.592404 2.81734 0.19
vt -23.323 -7.48031
f 11/29/16 12/30/16 13/31/16

usemtl M_0020_Red
vn -0 -1 0
f 13/31/17 12/30/17 11/29/17

usemtl Color_I01
v -0.632404 2.81734 -0.19
vt -24.8978 7.48031
f 12/30/16 14/32/16 13/31/16

usemtl M_0020_Red
f 13/31/17 14/32/17 12/30/17

usemtl Color_I01
vt -10.0456 110.919
vn -0.994505 -5.16687e-017 0.104685
vt 4.99765 42.415
vt 4.99765 110.919
f 14/33/18 9/34/18 13/35/18

vt -10.0456 42.415
vn -0.994505 -8.52534e-017 0.104685
f 8/36/19 9/34/19 14/33/19

usemtl M_0020_Red
vn 0.994505 8.52534e-017 -0.104685
f 14/33/20 9/34/20 8/36/20

vn 0.994505 5.16687e-017 -0.104685
f 13/35/21 9/34/21 14/33/21

usemtl Color_I01
vt -23.323 110.919
vn 1.00935e-031 -5.18615e-016 1
vt -23.323 42.415
f 13/37/22 9/38/22 6/8/22

usemtl M_0020_Red
vn -1.00935e-031 5.18615e-016 -1
f 6/8/23 9/38/23 13/37/23

usemtl Color_I01
f 5/6/3 6/8/3 9/38/3

usemtl M_0020_Red
f 9/38/4 6/8/4 5/6/4

usemtl FrontColor
vn 1.37778e-032 -1 1.89977e-015
f 9/16/24 10/22/24 6/24/24

f 10/22/24 9/16/24 8/13/24

usemtl BackColor
vn -1.37778e-032 1 -1.89977e-015
f 8/13/25 9/16/25 10/22/25

f 6/24/25 10/22/25 9/16/25

usemtl M_0020_Red
vn -0.994505 -5.42522e-017 0.104685
f 6/27/26 11/26/26 10/25/26

usemtl Color_I01
vn 0 -5.18615e-016 1
vt 27.8581 110.919
f 13/37/27 6/8/27 11/39/27

usemtl M_0020_Red
vn -0 5.18615e-016 -1
f 11/39/28 6/8/28 13/37/28

usemtl Color_I01
vt -26.2833 42.415
f 4/17/9 8/19/9 10/40/9

usemtl M_0020_Red
f 8/19/10 7/18/10 4/17/10

f 10/40/10 8/19/10 4/17/10

usemtl Color_I01
vt -26.2833 110.919
vn 2.0187e-031 8.29783e-016 -1
f 12/41/29 10/40/29 8/19/29

usemtl M_0020_Red
vn -2.0187e-031 -8.29783e-016 1
f 8/19/30 10/40/30 12/41/30

usemtl Color_I01
vt 24.8978 110.919
f 12/41/29 8/19/29 14/42/29

usemtl M_0020_Red
f 14/42/30 8/19/30 12/41/30

usemtl Color_I01
f 4/23/12 10/22/12 2/21/12

g Mesh2 Model

l 9 13

l 9 8

l 5 9

l 5 7

l 3 5

l 3 2

l 1 3

l 4 1

l 10 4

l 12 10

l 14 12

l 8 14

l 7 8

l 7 1

l 5 8

l 8 10

l 12 8

l 11 12

l 13 11

l 13 14

l 13 12

l 13 6

l 11 6

l 11 10

l 6 10

l 6 2

l 6 9

l 9 14

l 2 4

l 10 2

