# Alias OBJ Model File
# Exported from SketchUp, (c) 2000-2012 Trimble Navigation Limited
# File units = meters

mtllib arrow.mtl

g Mesh1 Model

usemtl M_0020_Red
v 0.0175964 0.017342 -0.19
vt 7.36669 1.48914
vn 0.742412 -0.66537 -0.0781487
v 1.0076 1.07734 0.19
vt -11.592 57.392
v 0.0575964 0.017342 0.19
vt -7.67659 1.48914
f 1/1/1 2/2/1 3/3/1

v 0.967596 1.07734 -0.19
vt 3.45132 57.392
f 2/2/1 1/1/1 4/4/1

vn -0.742412 0.66537 0.0781487
f 3/3/2 2/2/2 1/1/2

vt 39.6691 42.415
vn 9.82332e-032 -1.96758e-016 1
v -0.892404 1.07734 0.19
vt -35.134 42.415
vt 2.26757 0.682754
f 2/5/3 5/6/3 3/7/3

v 0.707596 1.07734 0.19
vt 27.8581 42.415
f 5/6/3 2/5/3 6/8/3

vn -9.82332e-032 1.96758e-016 -1
f 3/7/4 5/6/4 2/5/4

vt 3.76122 55.4331
vn -0.742412 -0.66537 0.0781487
vt -7.36669 -0.469765
vt 7.67659 -0.469765
f 5/9/5 1/10/5 3/11/5

v -0.932404 1.07734 -0.19
vt -11.2821 55.4331
f 1/10/5 5/9/5 7/12/5

vn 0.742412 0.66537 -0.0781487
f 3/11/6 1/10/6 5/9/6

f 7/12/6 5/9/6 1/10/6

v -0.632404 1.07734 -0.19
vt 24.8978 7.48031
vn 0 -1 1.89977e-015
vt 35.134 -7.48031
vt 36.7088 7.48031
f 8/13/7 5/14/7 7/15/7

v -0.592404 1.07734 0.19
vt 23.323 -7.48031
f 5/14/7 8/13/7 9/16/7

vn -0 1 -1.89977e-015
f 7/15/8 5/14/8 8/13/8

f 9/16/8 8/13/8 5/14/8

vt 4.99765 42.415
vn -0.994505 -6.9544e-017 0.104685
v -0.632404 2.81734 -0.19
vt -10.0456 110.919
vt -10.0456 42.415
f 9/17/9 10/18/9 8/19/9

v -0.592404 2.81734 0.19
vt 4.99765 110.919
f 10/18/9 9/17/9 11/20/9

vn 0.994505 6.9544e-017 -0.104685
f 11/20/10 9/17/10 10/18/10

vt -23.323 42.415
v 0.707596 2.81734 0.19
vt 27.8581 110.919
vt -23.323 110.919
f 9/21/3 12/22/3 11/23/3

f 12/22/3 9/21/3 6/8/3

f 6/8/4 9/21/4 12/22/4

f 5/6/3 6/8/3 9/21/3

f 6/8/4 2/5/4 5/6/4

vt -27.8581 -7.48031
vn 5.17435e-032 -1 1.89977e-015
vt -38.0943 7.48031
vt -39.6691 -7.48031
f 6/24/11 4/25/11 2/26/11

v 0.667596 1.07734 -0.19
vt -26.2833 7.48031
f 4/25/11 6/24/11 13/27/11

vn -5.17435e-032 1 -1.89977e-015
f 13/27/12 6/24/12 4/25/12

v 0.667596 2.81734 -0.19
vt 4.68775 110.919
vt -10.3555 42.415
vt 4.68775 42.415
f 14/28/10 6/29/10 13/30/10

vt -10.3555 110.919
f 6/29/10 14/28/10 12/31/10

f 12/31/9 14/28/9 6/29/9

vt 26.2833 7.48031
vn 0 1 -0
vt -23.323 -7.48031
vt 27.8581 -7.48031
f 14/32/13 11/33/13 12/34/13

vt -24.8978 7.48031
f 11/33/13 14/32/13 10/35/13

vn -0 -1 0
f 10/35/14 14/32/14 11/33/14

vt -26.2833 42.415
vn -3.35716e-031 -5.20353e-018 -1
vt 24.8978 110.919
vt -26.2833 110.919
f 13/36/15 10/37/15 14/38/15

vt 24.8978 42.415
f 10/37/15 13/36/15 8/39/15

vn 3.35716e-031 5.20353e-018 1
f 8/39/16 13/36/16 10/37/16

vt -38.0943 42.415
f 4/40/15 8/39/15 13/36/15

vt 36.7088 42.415
f 4/40/15 7/41/15 8/39/15

vt -0.692771 0.682754
f 7/41/15 4/40/15 1/42/15

f 1/42/16 4/40/16 7/41/16

f 4/4/2 1/1/2 2/2/2

f 2/26/12 4/25/12 6/24/12

f 8/39/16 7/41/16 4/40/16

f 13/36/16 8/39/16 4/40/16

f 14/38/16 10/37/16 13/36/16

f 13/30/9 6/29/9 14/28/9

f 8/19/10 10/18/10 9/17/10

f 12/34/14 11/33/14 14/32/14

f 11/23/4 12/22/4 9/21/4

f 9/21/4 6/8/4 5/6/4

g Mesh2 Model

l 9 11

l 9 8

l 5 9

l 5 7

l 3 5

l 3 2

l 1 3

l 4 1

l 13 4

l 14 13

l 10 14

l 8 10

l 7 8

l 7 1

l 11 10

l 11 12

l 12 6

l 12 14

l 6 2

l 6 13

l 2 4

