# Blender v2.74 (sub 0) OBJ File: 'car3.blend'
# www.blender.org
mtllib car3.mtl
o vehicleWagon_02_GEO_Cube.055
v -0.018719 0.109096 -0.030835
v -0.095830 0.109096 -0.030835
v -0.095830 0.109096 -0.033372
v -0.018719 0.109096 -0.033372
v -0.007250 0.109096 -0.030835
v -0.007250 0.109096 -0.033372
v -0.006525 0.108033 -0.033825
v -0.006525 0.108033 -0.030381
v -0.007250 0.111633 -0.033372
v -0.095830 0.111633 -0.033372
v -0.095830 0.111633 -0.030835
v -0.007250 0.111633 -0.030835
v -0.106761 0.108434 -0.033372
v -0.106761 0.108434 -0.030835
v -0.107747 0.106270 -0.030835
v -0.107747 0.106270 -0.033372
v -0.098324 0.108946 -0.033372
v -0.098324 0.108946 -0.030835
v -0.107524 0.110856 -0.033372
v -0.107524 0.110856 -0.030835
v -0.095671 0.106452 -0.033372
v -0.098165 0.106302 -0.033372
v -0.098165 0.106302 -0.030835
v -0.086164 0.111353 -0.030835
v -0.086164 0.113110 0.000000
v -0.080796 0.113110 0.000000
v -0.080796 0.111353 -0.030835
v -0.086164 0.110792 -0.030835
v -0.080796 0.110792 -0.030835
v -0.080796 0.112546 0.000000
v -0.086164 0.112546 0.000000
v -0.095671 0.106452 -0.030835
v -0.024986 0.111353 -0.030835
v -0.024986 0.113110 0.000000
v -0.024986 0.112546 0.000000
v -0.024986 0.110792 -0.030835
v -0.003303 0.109255 -0.033825
v -0.003303 0.109255 -0.030381
v -0.000852 0.106490 -0.030381
v -0.000852 0.106490 -0.033825
v -0.007259 0.106273 -0.033825
v -0.007259 0.106273 -0.030381
v -0.016699 0.109096 -0.030835
v -0.016699 0.109096 -0.033372
v -0.032103 0.113110 0.000000
v -0.032103 0.111353 -0.030835
v -0.032103 0.110792 -0.030835
v -0.032103 0.112546 0.000000
v -0.018719 0.106267 -0.033372
v -0.018719 0.106267 -0.030835
v -0.016699 0.106267 -0.030835
v -0.016699 0.106267 -0.033372
v -0.112318 0.105461 -0.030835
v -0.112318 0.105461 -0.033372
v 0.109426 0.030474 -0.037865
v 0.109426 0.010853 -0.037865
v 0.112052 0.020663 -0.037865
v 0.082622 0.037654 -0.037865
v 0.092432 0.001043 -0.037865
v 0.092432 0.040284 -0.037865
v 0.102242 0.003673 -0.037865
v 0.102242 0.037654 -0.037865
v 0.082622 0.003673 -0.037865
v 0.075441 0.030474 -0.037865
v 0.075441 0.010853 -0.037865
v 0.072812 0.020663 -0.037865
v 0.075441 0.010853 -0.055555
v 0.109426 0.030474 -0.055555
v 0.112052 0.020663 -0.055555
v 0.109426 0.010853 -0.055555
v 0.072812 0.020663 -0.055555
v 0.082622 0.037654 -0.055555
v 0.092432 0.001043 -0.055555
v 0.092432 0.040284 -0.055555
v 0.082622 0.003673 -0.055555
v 0.102242 0.037654 -0.055555
v 0.092432 0.020663 -0.054755
v 0.102242 0.003673 -0.055555
v 0.075441 0.030474 -0.055555
v -0.070642 0.032236 -0.038775
v -0.070642 0.011240 -0.038775
v -0.067827 0.021738 -0.038775
v -0.099321 0.039922 -0.038775
v -0.088823 0.000743 -0.038775
v -0.088823 0.042734 -0.038775
v -0.078325 0.003557 -0.038775
v -0.078325 0.039922 -0.038775
v -0.099321 0.003557 -0.038775
v -0.107007 0.032236 -0.038775
v -0.107007 0.011240 -0.038775
v -0.109821 0.021738 -0.038775
v -0.107007 0.011240 -0.057708
v -0.070642 0.032236 -0.057708
v -0.109821 0.021738 -0.057708
v -0.067827 0.021738 -0.057708
v -0.070642 0.011240 -0.057708
v -0.078325 0.003557 -0.057708
v -0.107007 0.032236 -0.057708
v -0.088823 0.000743 -0.057708
v -0.088823 0.042734 -0.057708
v -0.099321 0.003557 -0.057708
v -0.078325 0.039922 -0.057708
v -0.088823 0.021738 -0.056853
v -0.099321 0.039922 -0.057708
v -0.132912 0.025645 -0.052726
v -0.132912 0.025645 0.000000
v -0.150108 0.030370 -0.052726
v 0.136790 0.026804 0.000000
v 0.134337 0.023406 -0.051469
v 0.139116 0.026570 -0.051885
v 0.142644 0.026570 0.000000
v -0.143141 0.074150 -0.050839
v -0.054174 0.072971 -0.049813
v -0.018901 0.074355 -0.050839
v -0.142696 0.059939 -0.031080
v -0.142696 0.060291 -0.051871
v -0.142295 0.047193 -0.053477
v 0.136345 0.045239 -0.027344
v 0.137443 0.044491 0.000000
v 0.138714 0.041049 0.000000
v 0.132851 0.062805 -0.027344
v 0.071089 0.075557 0.000000
v 0.136380 0.062805 0.000000
v -0.153994 0.044491 0.000000
v -0.152090 0.046358 -0.053477
v -0.144202 0.045895 0.000000
v 0.134646 0.042916 -0.055720
v -0.139610 0.078391 -0.043338
v -0.141431 0.078325 0.000000
v -0.118776 0.104502 0.000000
v -0.118944 0.103762 -0.034120
v -0.051174 0.107614 -0.037420
v -0.115794 0.107013 -0.037507
v -0.116603 0.107013 0.000000
v -0.048357 0.108657 0.000000
v 0.071089 0.073696 -0.050839
v 0.132311 0.062805 -0.045800
v 0.133374 0.045988 -0.051741
v 0.068399 0.077103 0.000000
v 0.068399 0.075242 -0.046719
v 0.030153 0.104279 -0.035082
v -0.020039 0.108484 -0.037420
v 0.064183 0.075658 -0.049753
v -0.017112 0.075912 -0.049796
v 0.026870 0.104195 -0.038478
v 0.027463 0.105825 -0.037420
v -0.017915 0.106805 -0.038443
v -0.020944 0.075979 -0.049761
v -0.052059 0.074355 -0.049010
v -0.021750 0.106987 -0.038509
v -0.049007 0.106077 -0.038481
v 0.030153 0.104279 0.000000
v 0.026402 0.106889 0.000000
v -0.019508 0.109579 0.000000
v 0.044826 0.074176 -0.058005
v 0.039278 0.076744 -0.058011
v 0.046040 0.082313 -0.057029
v 0.047291 0.073138 -0.050117
v 0.039102 0.076666 -0.050123
v 0.042928 0.084835 -0.047129
v 0.048120 0.082506 -0.047132
v 0.041676 0.084338 -0.057026
v 0.045326 0.074294 -0.045852
v 0.041338 0.075964 -0.045855
v 0.043124 0.079019 -0.045300
v 0.046817 0.077236 -0.045306
v -0.143141 0.074150 -0.029474
v -0.145045 0.074150 0.000000
v -0.144600 0.059586 0.000000
v -0.152015 0.030370 0.000000
v 0.146354 0.038492 0.000000
v 0.142286 0.040356 -0.056139
v -0.115011 0.105539 -0.038059
v -0.052891 0.106123 -0.037995
v -0.055630 0.074467 -0.049262
v -0.139942 0.075597 -0.050267
v -0.018719 0.109096 0.030835
v -0.018719 0.109096 0.033372
v -0.095830 0.109096 0.033372
v -0.095830 0.109096 0.030835
v -0.007250 0.109096 0.030835
v -0.006525 0.108033 0.030381
v -0.006525 0.108033 0.033825
v -0.007250 0.109096 0.033372
v -0.007250 0.111633 0.033372
v -0.007250 0.111633 0.030835
v -0.095830 0.111633 0.030835
v -0.095830 0.111633 0.033372
v -0.106761 0.108434 0.033372
v -0.107747 0.106270 0.033372
v -0.107747 0.106270 0.030835
v -0.106761 0.108434 0.030835
v -0.098324 0.108946 0.033372
v -0.098324 0.108946 0.030835
v -0.107524 0.110856 0.030835
v -0.107524 0.110856 0.033372
v -0.098165 0.106302 0.033372
v -0.095671 0.106452 0.033372
v -0.098165 0.106302 0.030835
v -0.086164 0.111353 0.030835
v -0.080796 0.111353 0.030835
v -0.086164 0.110792 0.030835
v -0.080796 0.110792 0.030835
v -0.095671 0.106452 0.030835
v -0.024986 0.111353 0.030835
v -0.024986 0.110792 0.030835
v -0.003303 0.109255 0.033825
v -0.000852 0.106490 0.033825
v -0.000852 0.106490 0.030381
v -0.003303 0.109255 0.030381
v -0.007259 0.106273 0.030381
v -0.007259 0.106273 0.033825
v -0.016699 0.109096 0.033372
v -0.016699 0.109096 0.030835
v -0.032103 0.110792 0.030835
v -0.032103 0.111353 0.030835
v -0.018719 0.106267 0.030835
v -0.018719 0.106267 0.033372
v -0.016699 0.106267 0.033372
v -0.016699 0.106267 0.030835
v -0.112318 0.105461 0.030835
v -0.112318 0.105461 0.033372
v 0.109426 0.030474 0.037865
v 0.112052 0.020663 0.037865
v 0.109426 0.010853 0.037865
v 0.082622 0.037654 0.037865
v 0.092432 0.040284 0.037865
v 0.092432 0.001043 0.037865
v 0.102242 0.003673 0.037865
v 0.102242 0.037654 0.037865
v 0.082622 0.003673 0.037865
v 0.075441 0.030474 0.037865
v 0.075441 0.010853 0.037865
v 0.072812 0.020663 0.037865
v 0.075441 0.010853 0.055555
v 0.109426 0.030474 0.055555
v 0.112052 0.020663 0.055555
v 0.109426 0.010853 0.055555
v 0.072812 0.020663 0.055555
v 0.082622 0.037654 0.055555
v 0.092432 0.001043 0.055555
v 0.092432 0.040284 0.055555
v 0.082622 0.003673 0.055555
v 0.102242 0.037654 0.055555
v 0.092432 0.020663 0.054755
v 0.102242 0.003673 0.055555
v 0.075441 0.030474 0.055555
v -0.070642 0.032236 0.038775
v -0.067827 0.021738 0.038775
v -0.070642 0.011240 0.038775
v -0.099321 0.039922 0.038775
v -0.088823 0.042734 0.038775
v -0.088823 0.000743 0.038775
v -0.078325 0.003557 0.038775
v -0.078325 0.039922 0.038775
v -0.099321 0.003557 0.038775
v -0.107007 0.032236 0.038775
v -0.107007 0.011240 0.038775
v -0.109821 0.021738 0.038775
v -0.107007 0.011240 0.057708
v -0.070642 0.032236 0.057708
v -0.109821 0.021738 0.057708
v -0.067827 0.021738 0.057708
v -0.070642 0.011240 0.057708
v -0.078325 0.003557 0.057708
v -0.107007 0.032236 0.057708
v -0.088823 0.000743 0.057708
v -0.088823 0.042734 0.057708
v -0.099321 0.003557 0.057708
v -0.078325 0.039922 0.057708
v -0.088823 0.021738 0.056853
v -0.099321 0.039922 0.057708
v -0.132912 0.025645 0.052726
v -0.150108 0.030369 0.052726
v 0.139116 0.026570 0.051885
v 0.134337 0.023406 0.051469
v -0.143141 0.074150 0.050839
v -0.018901 0.074355 0.050839
v -0.054174 0.072971 0.049814
v -0.142696 0.059939 0.031080
v -0.142295 0.047193 0.053477
v -0.142696 0.060291 0.051871
v 0.136345 0.045239 0.027344
v 0.132851 0.062805 0.027344
v -0.152090 0.046358 0.053477
v 0.134646 0.042916 0.055720
v -0.139610 0.078391 0.043338
v -0.118944 0.103762 0.034120
v -0.051174 0.107614 0.037420
v -0.115794 0.107013 0.037507
v 0.071089 0.073696 0.050839
v 0.133374 0.045988 0.051741
v 0.132311 0.062805 0.045800
v 0.030153 0.104279 0.035082
v 0.068399 0.075242 0.046719
v -0.020039 0.108484 0.037420
v 0.064183 0.075658 0.049753
v 0.026870 0.104195 0.038478
v -0.017112 0.075912 0.049796
v 0.027463 0.105825 0.037420
v -0.017915 0.106805 0.038443
v -0.020944 0.075979 0.049762
v -0.052059 0.074355 0.049010
v -0.021750 0.106987 0.038509
v -0.049007 0.106077 0.038481
v 0.044826 0.074176 0.058005
v 0.046040 0.082313 0.057029
v 0.039278 0.076744 0.058011
v 0.047291 0.073138 0.050117
v 0.039102 0.076666 0.050123
v 0.042928 0.084835 0.047129
v 0.048120 0.082506 0.047132
v 0.041676 0.084338 0.057026
v 0.045326 0.074294 0.045852
v 0.041338 0.075964 0.045855
v 0.043124 0.079019 0.045300
v 0.046817 0.077236 0.045306
v -0.143141 0.074150 0.029474
v 0.142286 0.040356 0.056139
v -0.115011 0.105539 0.038059
v -0.139942 0.075597 0.050267
v -0.055630 0.074467 0.049262
v -0.052891 0.106123 0.037995
vt 0.997666 0.085953
vt 0.997666 0.276717
vt 0.991382 0.276717
vt 0.991382 0.085953
vt 0.032936 0.911227
vt 0.032936 0.904929
vt 0.035527 0.903803
vt 0.035527 0.912353
vt 0.967702 0.575195
vt 0.967257 0.792252
vt 0.960974 0.792241
vt 0.961419 0.575184
vt 0.217580 0.889136
vt 0.217580 0.882837
vt 0.222909 0.882837
vt 0.222909 0.889136
vt 0.006283 0.924570
vt 0.000000 0.924570
vt 0.000000 0.903803
vt 0.006283 0.903803
vt 0.967195 0.820598
vt 0.960912 0.820587
vt 0.973185 0.040993
vt 0.966927 0.041036
vt 0.968633 0.011993
vt 0.973511 0.034800
vt 0.978081 0.791127
vt 0.984339 0.791171
vt 0.984664 0.797364
vt 0.979786 0.820170
vt 0.990864 0.790822
vt 0.991189 0.797015
vt 0.012567 0.910825
vt 0.018850 0.910825
vt 0.018850 0.917377
vt 0.012567 0.917377
vt 0.918729 0.883957
vt 0.918032 0.807419
vt 0.931156 0.807423
vt 0.931854 0.883962
vt 0.991331 0.985258
vt 0.978081 0.985258
vt 0.978443 0.908711
vt 0.991693 0.908711
vt 0.980036 0.035149
vt 0.979710 0.041342
vt 0.975181 0.976082
vt 0.970830 0.899534
vt 0.972225 0.899534
vt 0.976569 0.976082
vt 0.912672 0.916841
vt 0.906388 0.916841
vt 0.906389 0.910273
vt 0.912672 0.910273
vt 0.968835 0.564578
vt 0.960304 0.564564
vt 0.960304 0.557459
vt 0.968835 0.557473
vt 0.039926 0.903803
vt 0.039926 0.912353
vt 0.988680 0.569501
vt 0.985723 0.561482
vt 0.992589 0.555447
vt 0.993007 0.571353
vt 0.974569 0.270682
vt 0.977526 0.262662
vt 0.981853 0.260810
vt 0.981435 0.276717
vt 0.968532 0.260929
vt 0.974582 0.232415
vt 0.203358 0.903003
vt 0.203358 0.926379
vt 0.197074 0.926379
vt 0.197074 0.903003
vt 0.146992 0.907006
vt 0.151342 0.830459
vt 0.152730 0.830458
vt 0.148388 0.907006
vt 0.051267 0.983553
vt 0.046917 0.907006
vt 0.048312 0.907006
vt 0.052656 0.983553
vt 0.997431 0.908711
vt 0.993081 0.985258
vt 0.991693 0.985258
vt 0.996036 0.908711
vt 0.900467 0.730863
vt 0.918032 0.730863
vt 0.917670 0.807410
vt 0.900105 0.807410
vt 0.205711 0.882831
vt 0.205014 0.806293
vt 0.222412 0.806299
vt 0.223110 0.882837
vt 0.906388 0.917294
vt 0.900105 0.917294
vt 0.900105 0.910273
vt 0.979685 0.571234
vt 0.985736 0.599748
vt 0.012567 0.903803
vt 0.018850 0.903803
vt 0.974619 0.237429
vt 0.981560 0.232367
vt 0.981597 0.237381
vt 0.985772 0.594734
vt 0.992751 0.594783
vt 0.992714 0.599797
vt 0.974620 0.013845
vt 0.985773 0.818318
vt 0.981853 0.000000
vt 0.979940 0.011362
vt 0.211297 0.896506
vt 0.205014 0.896506
vt 0.205014 0.882837
vt 0.211297 0.882837
vt 0.991094 0.820801
vt 0.993007 0.832163
vt 0.974790 0.260886
vt 0.985944 0.571278
vt 0.794067 0.743428
vt 0.747310 0.730898
vt 0.772366 0.730863
vt 0.794058 0.812302
vt 0.713076 0.765392
vt 0.806590 0.790452
vt 0.725609 0.743541
vt 0.806590 0.765243
vt 0.713076 0.790600
vt 0.772359 0.824939
vt 0.725601 0.812409
vt 0.747300 0.824981
vt 0.606701 0.921779
vt 0.606701 0.902531
vt 0.650512 0.902531
vt 0.656667 0.922990
vt 0.656640 0.902531
vt 0.700452 0.902540
vt 0.403760 0.969808
vt 0.403760 0.945614
vt 0.447571 0.969808
vt 0.153263 0.969303
vt 0.153263 0.944868
vt 0.197074 0.944868
vt 0.153263 0.920600
vt 0.197074 0.920600
vt 0.403760 0.921114
vt 0.447571 0.945614
vt 0.153263 0.903003
vt 0.403760 0.902874
vt 0.447571 0.902874
vt 0.606701 0.970318
vt 0.606701 0.946592
vt 0.650512 0.946592
vt 0.656640 0.971068
vt 0.656667 0.948076
vt 0.700478 0.948085
vt 0.650512 0.921779
vt 0.700478 0.923000
vt 0.725599 0.837546
vt 0.759661 0.872078
vt 0.794065 0.906527
vt 0.772366 0.919099
vt 0.713076 0.859361
vt 0.806590 0.884718
vt 0.713076 0.884570
vt 0.806590 0.859510
vt 0.725609 0.906420
vt 0.794058 0.837659
vt 0.747308 0.919057
vt 0.772357 0.825016
vt 0.526332 0.818128
vt 0.576367 0.831539
vt 0.549551 0.831584
vt 0.526338 0.744433
vt 0.613000 0.794638
vt 0.512931 0.767816
vt 0.599586 0.818019
vt 0.512924 0.794790
vt 0.613000 0.767662
vt 0.549566 0.730907
vt 0.599601 0.744319
vt 0.576382 0.730863
vt 0.100076 0.882399
vt 0.100076 0.903003
vt 0.053187 0.903003
vt 0.146964 0.881916
vt 0.146992 0.903802
vt 0.100104 0.903793
vt 0.559813 0.903216
vt 0.559813 0.877327
vt 0.606701 0.877327
vt 0.653590 0.902531
vt 0.653590 0.876382
vt 0.700478 0.876382
vt 0.653590 0.850413
vt 0.700478 0.850413
vt 0.559813 0.851109
vt 0.653590 0.831584
vt 0.700478 0.831584
vt 0.559813 0.831584
vt 0.606701 0.851109
vt 0.100076 0.830458
vt 0.100076 0.855847
vt 0.053187 0.855847
vt 0.146992 0.830468
vt 0.146964 0.855074
vt 0.100076 0.855064
vt 0.053187 0.882399
vt 0.100076 0.881906
vt 0.113484 0.743193
vt 0.136703 0.729737
vt 0.149933 0.780135
vt 0.186752 0.817003
vt 0.163533 0.830458
vt 0.100076 0.766531
vt 0.200152 0.793659
vt 0.100083 0.793505
vt 0.200152 0.766683
vt 0.113490 0.816888
vt 0.186737 0.743302
vt 0.136718 0.830414
vt 0.163518 0.729782
vt 0.261164 0.048235
vt 0.130582 0.048236
vt 0.261164 0.004718
vt 0.130582 0.715206
vt 0.258051 0.709839
vt 0.259082 0.721009
vt 0.130582 0.729737
vt 1.000000 0.777919
vt 0.996504 0.557074
vt 1.000000 0.469494
vt 0.394806 0.847273
vt 0.395679 0.898885
vt 0.363272 0.902874
vt 0.271615 0.707800
vt 0.269727 0.775682
vt 0.261164 0.775682
vt 0.670047 0.706563
vt 0.722850 0.682824
vt 0.711533 0.725608
vt 0.451439 0.007198
vt 0.387069 0.165024
vt 0.383553 0.000000
vt 0.350091 0.770116
vt 0.354823 0.902874
vt 0.315353 0.901009
vt 0.956157 0.690221
vt 0.960304 0.822987
vt 0.936689 0.822975
vt 0.675653 0.019015
vt 0.440674 0.877702
vt 0.440403 0.770115
vt 0.506533 0.770115
vt 0.504692 0.854819
vt 0.486419 0.475327
vt 0.489935 0.633393
vt 0.397108 0.637357
vt 0.393635 0.470817
vt 0.970830 0.992203
vt 0.932775 0.842777
vt 0.970830 0.822987
vt 0.387228 0.172229
vt 0.502880 0.169020
vt 0.476421 0.274883
vt 0.484836 0.399396
vt 0.594957 0.194553
vt 0.595936 0.396367
vt 0.522814 0.287671
vt 0.599901 0.177378
vt 0.518549 0.286225
vt 0.600042 0.400784
vt 0.517249 0.398901
vt 0.595840 0.405880
vt 0.603923 0.488310
vt 0.600291 0.483081
vt 0.516890 0.408424
vt 0.519664 0.476069
vt 0.515681 0.481471
vt 0.512924 0.404199
vt 0.482368 0.281965
vt 0.389556 0.276737
vt 0.389783 0.286964
vt 0.392171 0.400506
vt 0.131984 0.903803
vt 0.146992 0.905740
vt 0.135185 0.924109
vt 0.538874 0.913812
vt 0.559813 0.913805
vt 0.545191 0.933389
vt 0.913631 0.908690
vt 0.902238 0.885290
vt 0.604559 0.922776
vt 0.583702 0.928963
vt 0.586476 0.904517
vt 0.559813 0.909275
vt 0.583702 0.913858
vt 0.563150 0.933618
vt 0.543951 0.903219
vt 0.554137 0.903216
vt 0.100360 0.913972
vt 0.113636 0.906315
vt 0.605529 0.933449
vt 0.597795 0.934362
vt 0.572190 0.903216
vt 0.579538 0.903696
vt 0.315225 0.707800
vt 0.315114 0.775682
vt 0.315242 0.661984
vt 0.273562 0.647235
vt 0.265915 0.637357
vt 0.512924 0.161597
vt 0.497163 0.007547
vt 0.429966 0.843284
vt 0.429966 0.896324
vt 0.429855 0.770115
vt 0.393823 0.770116
vt 0.447571 0.921114
vt 0.197074 0.969303
vt 0.650512 0.970318
vt 0.700452 0.971077
vt 0.606701 0.903216
vt 0.606701 0.831584
vt 0.053187 0.830458
vt 0.130582 0.000000
vt 0.963154 0.279763
vt 0.952467 0.418094
vt 0.932775 0.418100
vt 0.943461 0.278730
vt 0.602988 0.709195
vt 0.359948 0.770116
vt 0.672300 0.730863
vt 0.315242 0.770116
vt 0.932775 0.690205
vt 0.722850 0.019347
vt 0.713076 0.831584
vt 0.713076 1.000000
vt 0.703570 0.836614
vt 0.146992 0.925647
vt 0.559413 0.933389
vt 0.913631 0.883957
vt 0.605529 0.903216
vt 0.583407 0.933618
vt 0.113636 0.920435
vt 0.522193 0.639903
vt 0.519519 0.485706
vt 0.600138 0.491951
vt 0.599228 0.701280
vt 0.966927 0.000000
vt 0.962183 0.139365
vt 0.932887 0.010559
vt 0.932775 0.139365
vt 0.681910 0.000000
vt 0.715043 0.007551
vt 0.512877 0.770115
vt 0.512924 0.863226
vt 0.518451 0.641872
vt 0.999290 0.469494
vt 0.993007 0.469494
vt 0.993007 0.278730
vt 0.999291 0.278730
vt 0.039926 0.904929
vt 0.042517 0.903803
vt 0.042517 0.912353
vt 0.039926 0.911227
vt 0.969949 0.575184
vt 0.976232 0.575195
vt 0.975787 0.792252
vt 0.969504 0.792241
vt 0.222909 0.895434
vt 0.217580 0.895434
vt 0.012567 0.924570
vt 0.975725 0.820598
vt 0.969442 0.820587
vt 0.969413 0.514454
vt 0.969738 0.520647
vt 0.964860 0.543454
vt 0.963154 0.514410
vt 0.978081 0.319766
vt 0.979786 0.290723
vt 0.984664 0.313529
vt 0.984339 0.319722
vt 0.991189 0.313878
vt 0.990864 0.320071
vt 0.025133 0.910825
vt 0.025133 0.917377
vt 0.918729 0.730863
vt 0.931854 0.730867
vt 0.991331 0.832163
vt 0.978081 0.832163
vt 0.975937 0.514105
vt 0.976263 0.520298
vt 0.975181 0.822987
vt 0.976569 0.822987
vt 0.031416 0.910825
vt 0.031416 0.917393
vt 0.977365 0.557473
vt 0.977365 0.564578
vt 0.046917 0.903803
vt 0.046917 0.912353
vt 0.988680 0.541392
vt 0.993007 0.539540
vt 0.985723 0.549411
vt 0.970796 0.284765
vt 0.977662 0.278730
vt 0.978081 0.294636
vt 0.973753 0.292784
vt 0.964759 0.294517
vt 0.970809 0.323031
vt 0.527933 0.903216
vt 0.534216 0.903216
vt 0.534216 0.926592
vt 0.527933 0.926592
vt 0.152730 0.983553
vt 0.151342 0.983553
vt 0.051267 0.830458
vt 0.052656 0.830458
vt 0.991693 0.832163
vt 0.993081 0.832163
vt 0.900467 0.883957
vt 0.918032 0.883957
vt 0.205711 0.729737
vt 0.223109 0.729743
vt 0.031416 0.903803
vt 0.025133 0.903803
vt 0.985736 0.511145
vt 0.979685 0.539659
vt 0.970846 0.318017
vt 0.977824 0.318066
vt 0.977788 0.323080
vt 0.992714 0.511096
vt 0.992751 0.516110
vt 0.985772 0.516159
vt 0.970847 0.541601
vt 0.985773 0.292575
vt 0.976168 0.544085
vt 0.978081 0.555447
vt 0.217580 0.896506
vt 0.991094 0.290092
vt 0.971017 0.294561
vt 0.985944 0.539615
vt 0.819114 0.837546
vt 0.840815 0.824981
vt 0.865871 0.825016
vt 0.819123 0.906420
vt 0.806590 0.884570
vt 0.900105 0.859510
vt 0.887572 0.837659
vt 0.806590 0.859361
vt 0.900105 0.884718
vt 0.840822 0.919057
vt 0.887580 0.906527
vt 0.865881 0.919099
vt 0.359948 0.951412
vt 0.403760 0.970661
vt 0.359948 0.970661
vt 0.261164 0.919422
vt 0.217326 0.898953
vt 0.261138 0.898962
vt 0.316137 0.902874
vt 0.359948 0.902874
vt 0.316137 0.927067
vt 0.491382 0.969174
vt 0.447571 0.944739
vt 0.491382 0.944739
vt 0.447571 0.920470
vt 0.491382 0.920470
vt 0.359948 0.927067
vt 0.316137 0.951568
vt 0.491382 0.902874
vt 0.359948 0.969808
vt 0.316137 0.969808
vt 0.403760 0.926599
vt 0.359948 0.926599
vt 0.261137 0.967500
vt 0.217353 0.944498
vt 0.261164 0.944507
vt 0.403760 0.951412
vt 0.217353 0.919413
vt 0.819114 0.812416
vt 0.853176 0.777884
vt 0.887580 0.743435
vt 0.865881 0.730863
vt 0.806590 0.790600
vt 0.900105 0.765243
vt 0.806590 0.765392
vt 0.900105 0.790452
vt 0.819123 0.743541
vt 0.887572 0.812302
vt 0.840822 0.730904
vt 0.865871 0.824946
vt 0.013408 0.743193
vt 0.036627 0.729737
vt 0.063443 0.729782
vt 0.013414 0.816888
vt 0.000007 0.793505
vt 0.100076 0.766683
vt 0.086662 0.743302
vt 0.000000 0.766531
vt 0.100076 0.793659
vt 0.036642 0.830414
vt 0.086676 0.817003
vt 0.063457 0.830458
vt 0.200152 0.851062
vt 0.153263 0.830458
vt 0.200152 0.830458
vt 0.000000 0.881906
vt 0.512924 0.831584
vt 0.559813 0.857474
vt 0.512924 0.857474
vt 0.606701 0.876382
vt 0.606701 0.850413
vt 0.512924 0.883692
vt 0.559813 0.883692
vt 0.512924 0.903216
vt 0.200152 0.903003
vt 0.153263 0.877615
vt 0.200152 0.877615
vt 0.000028 0.830458
vt 0.046888 0.855074
vt 0.000000 0.855064
vt 0.153263 0.851062
vt 0.046888 0.881916
vt 0.626408 0.818128
vt 0.662857 0.781186
vt 0.649627 0.831584
vt 0.699676 0.744319
vt 0.676457 0.730863
vt 0.613000 0.794790
vt 0.713076 0.767662
vt 0.613007 0.767816
vt 0.713076 0.794638
vt 0.626414 0.744433
vt 0.699662 0.818019
vt 0.649642 0.730907
vt 0.676443 0.831539
vt 0.000000 0.048235
vt 0.000000 0.004718
vt 0.002083 0.721009
vt 0.003113 0.709839
vt 0.996504 0.469494
vt 0.996504 0.777919
vt 0.993007 0.690339
vt 0.394806 0.692958
vt 0.363272 0.637357
vt 0.395679 0.641346
vt 0.271615 0.843564
vt 0.879973 0.024300
vt 0.921459 0.005255
vt 0.932775 0.048039
vt 0.316028 0.010089
vt 0.315353 0.639222
vt 0.354823 0.637357
vt 0.936689 0.557459
vt 0.885578 0.711848
vt 0.440674 0.662529
vt 0.504692 0.685412
vt 0.301112 0.479282
vt 0.304198 0.637357
vt 0.261164 0.729737
vt 0.261164 0.898953
vt 0.223110 0.879163
vt 0.302690 0.278591
vt 0.271525 0.173958
vt 0.299529 0.403351
vt 0.804883 0.536310
vt 0.732739 0.443191
vt 0.805861 0.334495
vt 0.809826 0.553485
vt 0.728475 0.444637
vt 0.809968 0.330079
vt 0.727175 0.331962
vt 0.805765 0.324983
vt 0.810216 0.247782
vt 0.813849 0.242553
vt 0.726815 0.322439
vt 0.725607 0.249391
vt 0.729589 0.254794
vt 0.722850 0.326664
vt 0.297061 0.285920
vt 0.512924 0.925060
vt 0.516125 0.904754
vt 0.527933 0.923123
vt 0.512924 0.913470
vt 0.506607 0.933047
vt 0.491986 0.913463
vt 0.217326 0.900521
vt 0.205932 0.923941
vt 0.203798 0.898953
vt 0.075216 0.914589
vt 0.057132 0.932848
vt 0.054359 0.908402
vt 0.100076 0.909062
vt 0.096738 0.933405
vt 0.076186 0.913645
vt 0.507847 0.902877
vt 0.497661 0.902874
vt 0.118708 0.910266
vt 0.131984 0.917923
vt 0.118424 0.920435
vt 0.076186 0.903916
vt 0.068451 0.903003
vt 0.087698 0.903003
vt 0.080351 0.903483
vt 0.315225 0.843564
vt 0.315242 0.889381
vt 0.273562 0.904129
vt 0.265915 0.914007
vt 0.261164 0.166970
vt 0.270359 0.012388
vt 0.429966 0.696947
vt 0.429966 0.643907
vt 0.359948 0.951568
vt 0.447571 0.969174
vt 0.217326 0.967490
vt 0.046917 0.830468
vt 0.963154 0.556412
vt 0.943461 0.557459
vt 0.812914 0.021667
vt 0.882225 0.000000
vt 0.932775 0.711515
vt 0.981853 0.271673
vt 0.991382 0.108286
vt 0.492385 0.933047
vt 0.217326 0.925260
vt 0.076186 0.934149
vt 0.076481 0.933405
vt 0.732118 0.090960
vt 0.809154 0.029583
vt 0.810064 0.238912
vt 0.729445 0.245156
vt 0.966927 0.278730
vt 0.932887 0.268171
vt 0.924968 0.723311
vt 0.891836 0.730863
vt 0.512924 0.677005
vt 0.728377 0.088990
vn 0.000000 -1.000000 0.000000
vn -0.826100 -0.563500 0.000000
vn 0.000000 1.000000 0.000000
vn 0.910500 -0.413500 0.000000
vn 0.060500 -0.998200 0.000000
vn -0.066300 0.997800 0.000000
vn 0.000000 -0.000000 1.000000
vn 0.000000 0.000000 -1.000000
vn -0.998200 -0.060500 -0.000000
vn 0.000000 0.998400 -0.056900
vn 0.000000 -0.998400 0.056800
vn 1.000000 0.000000 0.000000
vn 0.998200 0.060600 0.000000
vn 0.748400 0.663200 0.000000
vn -0.922900 0.384900 0.000000
vn -1.000000 0.000000 0.000000
vn -0.747500 0.664200 0.000000
vn 0.516100 0.856600 0.000000
vn -0.117600 0.100800 0.987900
vn -0.117600 0.100800 -0.987900
vn -0.707100 -0.707100 -0.000000
vn 0.707000 0.707200 0.000000
vn -0.965900 -0.258900 -0.000000
vn 0.966000 0.258600 0.000000
vn 0.965900 0.259000 0.000000
vn 0.965900 -0.259000 -0.000000
vn 0.966000 -0.258600 -0.000000
vn -0.965900 0.258900 0.000000
vn 0.707000 -0.707200 -0.000000
vn -0.707100 0.707100 0.000000
vn 0.258900 -0.965900 -0.000000
vn -0.258900 0.965900 0.000000
vn -0.258900 -0.965900 -0.000000
vn 0.258900 0.965900 0.000000
vn -0.040800 -0.010900 -0.999100
vn 0.040800 0.010900 -0.999100
vn -0.029800 -0.029800 -0.999100
vn 0.029800 0.029800 -0.999100
vn -0.010900 -0.040800 -0.999100
vn 0.010900 0.040800 -0.999100
vn 0.010900 -0.040800 -0.999100
vn -0.010900 0.040800 -0.999100
vn 0.029800 -0.029800 -0.999100
vn -0.029800 0.029800 -0.999100
vn -0.040800 0.010900 -0.999100
vn 0.040800 -0.010900 -0.999100
vn -0.707000 -0.707200 -0.000000
vn 0.707200 0.707000 0.000000
vn -0.965900 -0.259000 -0.000000
vn -0.965900 0.259000 0.000000
vn 0.707100 -0.707100 -0.000000
vn 0.259000 -0.965900 -0.000000
vn -0.258700 0.966000 0.000000
vn -0.259000 -0.965900 -0.000000
vn 0.258700 0.966000 0.000000
vn -0.040700 -0.010900 -0.999100
vn 0.040700 0.010900 -0.999100
vn -0.010900 -0.040700 -0.999100
vn 0.010900 0.040700 -0.999100
vn 0.010900 -0.040700 -0.999100
vn -0.010900 0.040700 -0.999100
vn -0.040700 0.010900 -0.999100
vn 0.040700 -0.010900 -0.999100
vn -0.264900 -0.964300 -0.000000
vn 0.266200 -0.963800 0.016300
vn -0.001000 0.612300 0.790600
vn -0.999500 -0.030600 -0.000500
vn 0.937700 0.346400 -0.028200
vn -0.010900 -0.039600 -0.999200
vn 0.191600 0.981200 -0.024700
vn -0.991400 -0.124800 -0.039700
vn -0.085200 0.996100 0.021200
vn -0.008700 -0.038600 -0.999200
vn -0.763400 0.645500 -0.021900
vn -0.016900 0.999800 -0.013500
vn 0.004300 -1.000000 -0.000000
vn 0.136700 0.337600 -0.931300
vn 0.598200 0.800700 -0.031900
vn -0.027900 0.999300 -0.025800
vn 0.001700 0.369300 -0.929300
vn -0.059900 0.314500 -0.947400
vn 0.002200 0.554800 -0.832000
vn 0.030600 0.537100 -0.843000
vn 0.234000 0.340800 -0.910600
vn -0.046700 0.530900 -0.846200
vn -0.019200 0.549800 -0.835100
vn 0.281500 0.333800 -0.899600
vn 0.497700 0.866700 -0.034500
vn 0.574800 0.808300 -0.127600
vn 0.571100 0.820900 0.000000
vn 0.055900 0.998000 -0.030000
vn 0.052600 0.111300 -0.992400
vn -0.395700 -0.918400 0.002900
vn 0.407000 0.907600 -0.103300
vn -0.914500 0.393100 0.095900
vn 0.978500 -0.021200 -0.205300
vn -0.385400 -0.920000 0.071800
vn 0.142600 0.292400 0.945600
vn -0.793400 0.377100 0.477800
vn 0.748300 -0.466800 0.471300
vn 0.973000 0.193500 -0.125500
vn 0.980400 0.195000 -0.028700
vn 0.872400 0.480200 -0.091500
vn 0.991200 0.112900 -0.068600
vn 0.186800 0.981700 -0.035900
vn 0.175600 0.984500 -0.005100
vn -0.999500 -0.031300 0.000000
vn -0.999500 -0.031500 -0.000100
vn -0.999500 -0.031600 -0.000200
vn -0.997500 -0.030500 -0.064400
vn 0.001200 0.158900 -0.987300
vn -0.240100 -0.970700 -0.008700
vn 0.317800 0.948100 0.008500
vn -0.000200 0.097400 -0.995200
vn -0.997700 -0.029100 -0.061500
vn -0.998900 0.029900 -0.034900
vn 0.004000 -0.046400 -0.998900
vn -0.989700 -0.138700 -0.035800
vn -0.141900 0.989400 0.029500
vn 0.002800 -0.212900 -0.977100
vn -0.006100 0.124200 -0.992200
vn 0.130100 0.506800 -0.852200
vn -0.012400 0.340800 -0.940100
vn -0.008700 -0.997800 0.066300
vn 0.345800 0.793300 -0.501200
vn 0.579200 0.815200 0.000000
vn -0.031900 0.999100 -0.028800
vn 0.019400 0.345300 -0.938300
vn 0.003600 0.494600 -0.869100
vn 0.030700 0.548700 -0.835400
vn -0.161900 0.356400 -0.920200
vn -0.016800 0.601300 -0.798800
vn -0.202400 0.352500 -0.913700
vn -0.998900 -0.034500 0.032800
vn 0.460100 0.887300 -0.032500
vn 0.610300 0.785300 0.103800
vn 0.504900 0.863100 -0.010200
vn 0.058500 0.997900 -0.026700
vn 0.051600 0.112500 -0.992300
vn -0.420100 -0.907300 -0.018700
vn 0.419000 0.902700 -0.098300
vn -0.952700 0.303200 -0.018600
vn 0.945400 -0.103600 -0.309100
vn -0.395100 -0.916900 0.056200
vn 0.135700 0.301400 0.943800
vn -0.794800 0.157500 0.586100
vn 0.960500 -0.158100 0.229200
vn 0.997600 0.057900 -0.038500
vn 0.987700 0.103800 -0.117100
vn -0.999500 -0.032100 -0.000500
vn -0.997800 -0.024300 -0.061400
vn 0.008100 0.352900 -0.935600
vn -0.039500 0.318200 -0.947200
vn -0.045200 0.329800 -0.943000
vn 0.966000 -0.246200 -0.078200
vn 0.952800 -0.296500 -0.064800
vn -0.053400 -0.241900 -0.968800
vn -0.793300 0.607500 -0.040000
vn -0.738400 0.674200 -0.013600
vn -0.768600 0.639800 0.000000
vn -0.765100 0.643100 -0.031700
vn 0.008200 0.370800 -0.928700
vn 0.015600 0.349100 -0.937000
vn 0.008100 0.335500 -0.942000
vn -0.002200 0.355900 -0.934500
vn -0.825900 -0.563700 -0.000000
vn 0.000000 0.998400 0.056900
vn 0.000000 -0.998400 -0.056800
vn -0.040800 -0.010900 0.999100
vn 0.040800 0.010900 0.999100
vn -0.029800 -0.029800 0.999100
vn 0.029800 0.029800 0.999100
vn -0.010900 -0.040800 0.999100
vn 0.010900 0.040800 0.999100
vn 0.010900 -0.040800 0.999100
vn -0.010900 0.040800 0.999100
vn 0.029800 -0.029800 0.999100
vn -0.029800 0.029800 0.999100
vn -0.040800 0.010900 0.999100
vn 0.040800 -0.010900 0.999100
vn -0.040700 -0.010900 0.999100
vn 0.040700 0.010900 0.999100
vn -0.010900 -0.040700 0.999100
vn 0.010900 0.040700 0.999100
vn 0.010900 -0.040700 0.999100
vn -0.010900 0.040700 0.999100
vn -0.040700 0.010900 0.999100
vn 0.040700 -0.010900 0.999100
vn 0.266200 -0.963800 -0.016300
vn -0.001000 0.612300 -0.790600
vn -0.999500 -0.031300 0.000300
vn -0.999500 -0.030600 0.000500
vn -0.999500 -0.031300 0.000500
vn 0.937700 0.346400 0.028200
vn -0.010900 -0.039600 0.999200
vn 0.191600 0.981200 0.024700
vn -0.991400 -0.124800 0.039700
vn -0.085200 0.996100 -0.021200
vn -0.008700 -0.038600 0.999200
vn -0.763400 0.645500 0.021900
vn -0.016900 0.999800 0.013500
vn 0.136700 0.337600 0.931300
vn 0.598200 0.800700 0.031900
vn -0.027900 0.999300 0.025800
vn 0.001700 0.369300 0.929300
vn -0.059900 0.314500 0.947400
vn 0.002200 0.554800 0.832000
vn 0.030600 0.537100 0.843000
vn 0.234000 0.340800 0.910600
vn -0.046700 0.530900 0.846200
vn -0.046700 0.530800 0.846200
vn -0.019200 0.549800 0.835100
vn 0.281500 0.333800 0.899600
vn 0.497700 0.866700 0.034500
vn 0.574800 0.808300 0.127600
vn 0.055900 0.998000 0.030000
vn 0.052600 0.111300 0.992400
vn -0.395700 -0.918400 -0.002900
vn 0.407000 0.907600 0.103300
vn -0.914500 0.393200 -0.095900
vn 0.978500 -0.021200 0.205300
vn -0.385400 -0.920000 -0.071800
vn 0.142600 0.292400 -0.945600
vn -0.793400 0.377100 -0.477800
vn 0.748300 -0.466800 -0.471300
vn 0.973000 0.193500 0.125500
vn 0.980400 0.195000 0.028700
vn 0.872400 0.480200 0.091500
vn 0.991200 0.112900 0.068600
vn 0.186800 0.981700 0.035900
vn 0.175600 0.984500 0.005100
vn -0.999500 -0.031500 0.000100
vn -0.997500 -0.030500 0.064400
vn 0.001200 0.158900 0.987300
vn -0.240100 -0.970700 0.008700
vn 0.317800 0.948100 -0.008500
vn -0.000200 0.097400 0.995200
vn -0.997700 -0.029100 0.061500
vn -0.998900 0.029900 0.034900
vn 0.004000 -0.046400 0.998900
vn -0.989700 -0.138700 0.035800
vn -0.141900 0.989400 -0.029500
vn 0.002800 -0.212900 0.977100
vn -0.006100 0.124200 0.992200
vn 0.130100 0.506800 0.852200
vn -0.012400 0.340800 0.940100
vn -0.008700 -0.997800 -0.066300
vn 0.345800 0.793300 0.501200
vn -0.031900 0.999100 0.028800
vn 0.019400 0.345300 0.938300
vn 0.003600 0.494600 0.869100
vn 0.030700 0.548700 0.835400
vn -0.161900 0.356400 0.920200
vn -0.016800 0.601300 0.798900
vn -0.202400 0.352500 0.913700
vn -0.998900 -0.034500 -0.032800
vn 0.460100 0.887300 0.032500
vn 0.610300 0.785300 -0.103800
vn 0.504900 0.863100 0.010200
vn 0.058500 0.997900 0.026700
vn 0.051600 0.112500 0.992300
vn -0.420100 -0.907300 0.018700
vn 0.419000 0.902700 0.098300
vn -0.952700 0.303200 0.018600
vn 0.945400 -0.103600 0.309100
vn -0.395100 -0.916900 -0.056200
vn 0.135700 0.301400 -0.943800
vn -0.794800 0.157500 -0.586100
vn 0.960500 -0.158100 -0.229200
vn 0.997600 0.057900 0.038500
vn 0.987700 0.103800 0.117100
vn -0.997800 -0.024300 0.061400
vn 0.008100 0.352900 0.935600
vn -0.039500 0.318200 0.947200
vn -0.045300 0.329800 0.943000
vn 0.966000 -0.246200 0.078200
vn 0.952800 -0.296500 0.064800
vn -0.053400 -0.241900 0.968800
vn -0.793300 0.607500 0.040000
vn -0.738400 0.674200 0.013600
vn -0.765100 0.643100 0.031700
vn 0.008200 0.370800 0.928700
vn 0.015600 0.349000 0.937000
vn 0.008000 0.335500 0.942000
vn -0.002200 0.355900 0.934500
usemtl vertexColorShader
s 1
f 1/1/1 2/2/1 3/3/1 4/4/1
f 5/5/2 6/6/2 7/7/2 8/8/2
f 9/9/3 10/10/3 11/11/3 12/12/3
f 13/13/4 14/14/4 15/15/4 16/16/4
f 17/17/5 18/18/5 14/19/5 13/20/5
f 11/11/6 10/10/6 19/21/6 20/22/6
f 2/23/7 11/24/7 20/25/7 18/26/7
f 10/27/8 3/28/8 17/29/8 19/30/8
f 17/29/8 3/28/8 21/31/8 22/32/8
f 18/33/9 17/34/9 22/35/9 23/36/9
f 24/37/10 25/38/10 26/39/10 27/40/10
f 28/41/11 29/42/11 30/43/11 31/44/11
f 2/23/7 18/26/7 23/45/7 32/46/7
f 33/47/12 34/48/12 35/49/12 36/50/12
f 3/51/13 2/52/13 32/53/13 21/54/13
f 37/55/14 38/56/14 39/57/14 40/58/14
f 8/8/15 7/7/15 41/59/15 42/60/15
f 7/61/8 37/62/8 40/63/8 41/64/8
f 38/65/7 8/66/7 42/67/7 39/68/7
f 12/69/7 11/24/7 2/23/7 1/70/7
f 5/71/1 43/72/1 44/73/1 6/74/1
f 25/75/16 24/76/16 28/77/16 31/78/16
f 27/79/12 26/80/12 30/81/12 29/82/12
f 45/83/16 46/84/16 47/85/16 48/86/16
f 47/87/11 36/88/11 35/89/11 48/90/11
f 46/91/10 45/92/10 34/93/10 33/94/10
f 1/95/16 4/96/16 49/97/16 50/53/16
f 10/27/8 9/98/8 4/99/8 3/28/8
f 44/34/12 43/33/12 51/100/12 52/101/12
f 43/102/7 1/70/7 50/103/7 51/104/7
f 4/99/8 44/105/8 52/106/8 49/107/8
f 18/26/7 20/25/7 14/108/7
f 19/30/8 17/29/8 13/109/8
f 14/108/7 20/25/7 53/110/7 15/111/7
f 20/112/17 19/113/17 54/114/17 53/115/17
f 19/30/8 13/109/8 16/116/8 54/117/8
f 9/9/18 12/12/18 38/56/18 37/55/18
f 12/69/19 5/118/19 8/66/19 38/65/19
f 6/119/20 9/98/20 37/62/20 7/61/20
f 9/98/8 6/119/8 44/105/8
f 12/69/7 43/102/7 5/118/7
f 9/98/8 44/105/8 4/99/8
f 12/69/7 1/70/7 43/102/7
f 55/120/7 56/121/7 57/122/7
f 58/123/7 59/124/7 60/125/7
f 59/124/7 61/126/7 60/125/7
f 60/125/7 61/126/7 62/127/7
f 61/126/7 56/121/7 62/127/7
f 62/127/7 56/121/7 55/120/7
f 58/123/7 63/128/7 59/124/7
f 64/129/7 63/128/7 58/123/7
f 64/129/7 65/130/7 63/128/7
f 66/131/7 65/130/7 64/129/7
f 63/132/21 65/133/21 67/134/21
f 62/135/22 55/136/22 68/137/22
f 65/138/23 66/139/23 67/140/23
f 55/141/24 57/142/24 69/143/25
f 57/142/26 56/144/27 70/145/27
f 66/139/28 64/146/28 71/147/28
f 56/144/29 61/148/29 70/145/29
f 64/146/30 58/149/30 72/150/30
f 61/151/31 59/152/31 73/153/31
f 58/154/32 60/155/32 74/156/32
f 59/152/33 63/132/33 75/157/33
f 60/155/34 62/135/34 76/158/34
f 68/159/35 69/131/35 77/160/35
f 67/161/36 71/162/36 77/160/36
f 76/163/37 68/159/37 77/160/37
f 75/164/38 67/161/38 77/160/38
f 74/165/39 76/163/39 77/160/39
f 73/166/40 75/164/40 77/160/40
f 72/167/41 74/165/41 77/160/41
f 78/168/42 73/166/42 77/160/42
f 79/169/43 72/167/43 77/160/43
f 70/170/44 78/168/44 77/160/44
f 69/131/45 70/170/45 77/160/45
f 71/162/46 79/169/46 77/160/46
f 80/171/7 81/172/7 82/173/7
f 83/174/7 84/175/7 85/176/7
f 84/175/7 86/177/7 85/176/7
f 85/176/7 86/177/7 87/178/7
f 86/177/7 81/172/7 87/178/7
f 87/178/7 81/172/7 80/171/7
f 83/174/7 88/179/7 84/175/7
f 89/180/7 88/179/7 83/174/7
f 89/180/7 90/181/7 88/179/7
f 91/182/7 90/181/7 89/180/7
f 88/183/47 90/184/47 92/185/47
f 87/186/48 80/187/48 93/188/48
f 90/189/49 91/190/49 94/191/49
f 80/192/25 82/193/25 95/194/25
f 82/193/26 81/195/26 96/196/26
f 91/190/50 89/197/50 94/191/50
f 81/195/51 86/198/51 97/199/51
f 89/197/30 83/200/30 98/201/30
f 86/202/52 84/203/52 99/204/52
f 83/205/53 85/206/53 100/207/53
f 84/203/54 88/183/54 101/208/54
f 85/206/55 87/186/55 102/209/55
f 93/210/56 95/211/56 103/212/56
f 92/213/57 94/214/57 103/212/57
f 102/215/37 93/210/37 103/212/37
f 101/216/38 92/213/38 103/212/38
f 100/217/58 102/215/58 103/212/58
f 99/218/59 101/216/59 103/212/59
f 104/219/60 100/217/60 103/212/60
f 97/220/61 99/218/61 103/212/61
f 98/221/43 104/219/43 103/212/43
f 96/222/44 97/220/44 103/212/44
f 95/211/62 96/222/62 103/212/62
f 94/214/63 98/221/63 103/212/63
f 105/223/64 106/224/64 107/225/64
f 108/226/65 109/227/65 110/228/65 111/229/65
f 112/230/66 113/231/66 114/232/66
f 115/233/67 116/234/67 117/235/67
f 118/236/68 119/237/68 120/238/68
f 117/239/69 105/240/69 107/241/69
f 121/242/70 122/243/70 123/244/70
f 124/245/71 125/246/71 107/247/71
f 126/248/72 117/249/72 125/250/72
f 117/239/73 127/251/73 105/240/73
f 128/252/74 129/253/74 130/254/74 131/255/74
f 132/256/75 133/257/75 134/258/75 135/259/75
f 108/226/76 106/224/76 105/223/76
f 136/260/77 137/261/77 138/262/77
f 139/263/78 140/264/78 141/265/78
f 142/266/79 132/256/79 135/259/79
f 143/267/80 144/268/80 145/269/80
f 136/270/81 143/267/81 146/271/81
f 144/268/82 143/267/82 114/272/82
f 145/269/83 147/273/83 146/271/83
f 147/273/84 144/268/84 114/272/84
f 148/274/85 114/272/85 113/275/85 149/276/85
f 150/277/86 151/278/86 132/279/86
f 148/274/87 150/277/87 142/280/87
f 140/264/88 139/263/88 122/243/88
f 141/265/89 140/264/89 146/281/89
f 152/282/90 141/265/90 153/283/90
f 146/281/91 142/266/91 154/284/91
f 155/285/92 156/286/92 157/287/92
f 158/288/93 159/289/93 155/290/93
f 160/291/94 161/97/94 157/292/94
f 159/293/95 160/294/95 162/295/95
f 161/296/96 158/297/96 157/298/96
f 163/299/97 164/300/97 158/288/97
f 165/301/98 166/188/98 161/302/98
f 164/303/99 165/304/99 159/293/99
f 166/305/100 163/306/100 158/297/100
f 121/307/101 123/308/101 118/236/101
f 137/309/102 121/307/102 118/236/102
f 138/310/103 118/236/103 127/311/103
f 127/311/104 118/236/104 120/238/104
f 136/312/105 122/243/105 121/242/105
f 137/313/106 136/312/106 121/242/106
f 167/314/107 112/315/108 115/233/109
f 168/316/110 167/314/110 169/317/110
f 75/157/21 63/132/21 67/134/21
f 76/158/22 62/135/22 68/137/22
f 64/146/28 79/318/28 71/147/28
f 68/319/24 55/141/24 69/143/25
f 69/143/27 57/142/26 70/145/27
f 61/148/29 78/74/29 70/145/29
f 89/197/50 98/201/50 94/191/50
f 79/318/30 64/146/30 72/150/30
f 78/320/31 61/151/31 73/153/31
f 72/321/32 58/154/32 74/156/32
f 73/153/33 59/152/33 75/157/33
f 74/156/34 60/155/34 76/158/34
f 101/208/47 88/183/47 92/185/47
f 102/209/48 87/186/48 93/188/48
f 92/322/49 90/189/49 94/191/49
f 93/137/25 80/192/25 95/194/25
f 95/194/26 82/193/26 96/196/26
f 83/200/30 104/323/30 98/201/30
f 96/196/51 81/195/51 97/199/51
f 114/272/111 136/270/111 127/251/111
f 97/324/52 86/202/52 99/204/52
f 104/202/53 83/205/53 100/207/53
f 99/204/54 84/203/54 101/208/54
f 100/207/55 85/206/55 102/209/55
f 106/224/112 170/325/112 107/225/112
f 127/326/113 120/327/113 171/328/113 172/329/113
f 112/330/114 114/272/114 117/239/114
f 169/317/115 115/233/115 126/331/115
f 115/233/116 117/235/116 126/331/116
f 125/332/117 117/239/117 107/241/117
f 170/333/118 124/245/118 107/247/118
f 124/334/119 126/248/119 125/250/119
f 127/251/120 109/335/120 105/240/120
f 117/239/121 114/272/121 127/251/121
f 143/267/122 145/269/122 146/271/122
f 150/277/123 148/274/123 151/278/123
f 109/227/124 108/226/124 105/223/124
f 127/336/125 136/337/125 138/338/125
f 152/282/126 139/263/126 141/265/126
f 154/284/127 142/266/127 135/259/127
f 144/268/128 147/273/128 145/269/128
f 143/267/129 136/270/129 114/272/129
f 147/273/130 142/280/130 146/271/130
f 142/280/131 147/273/131 114/272/131
f 142/280/132 150/277/132 132/279/132
f 114/272/133 148/274/133 142/280/133
f 112/315/134 117/235/134 116/234/134
f 136/312/135 140/264/135 122/243/135
f 140/264/136 136/312/136 146/281/136
f 141/265/137 146/281/137 153/283/137
f 153/283/138 146/281/138 154/284/138
f 156/286/139 162/339/139 157/287/139
f 159/289/140 156/340/140 155/290/140
f 162/341/141 160/291/141 157/292/141
f 156/342/142 159/293/142 162/295/142
f 158/297/143 155/343/143 157/298/143
f 164/300/144 159/289/144 158/288/144
f 160/344/145 165/301/145 161/302/145
f 165/304/146 160/294/146 159/293/146
f 161/296/147 166/305/147 158/297/147
f 123/308/148 119/237/148 118/236/148
f 138/310/149 137/309/149 118/236/149
f 112/315/108 116/234/150 115/233/109
f 167/314/151 115/233/151 169/317/151
f 66/139/23 71/147/23 67/140/23
f 173/345/152 174/346/152 175/347/152 176/348/152
f 151/278/153 148/274/153 149/276/153
f 151/278/154 149/276/154 113/275/154 132/279/154
f 172/349/155 171/350/155 110/351/155
f 171/350/156 111/352/156 110/351/156
f 109/335/157 127/251/157 172/353/157 110/354/157
f 129/253/158 128/252/158 167/314/158 168/316/158
f 131/255/159 130/254/159 134/355/159 133/356/159
f 128/252/160 112/315/160 167/314/160
f 128/252/161 131/255/161 133/356/161 112/315/161
f 173/345/162 176/348/162 112/330/162 133/357/162
f 176/348/163 175/347/163 113/275/163 112/330/163
f 175/347/164 174/346/164 132/279/164 113/275/164
f 174/346/165 173/345/165 133/357/165 132/279/165
f 177/358/1 178/359/1 179/360/1 180/361/1
f 181/362/166 182/363/166 183/364/166 184/365/166
f 185/366/3 186/367/3 187/368/3 188/369/3
f 189/13/4 190/16/4 191/370/4 192/371/4
f 193/17/5 189/20/5 192/100/5 194/372/5
f 187/368/6 195/373/6 196/374/6 188/369/6
f 180/375/8 194/376/8 195/377/8 187/378/8
f 188/379/7 196/380/7 193/381/7 179/382/7
f 193/381/7 197/383/7 198/384/7 179/382/7
f 194/385/9 199/386/9 197/35/9 193/34/9
f 200/387/167 201/388/167 26/39/167 25/38/167
f 202/389/168 31/44/168 30/43/168 203/390/168
f 180/375/8 204/391/8 199/392/8 194/376/8
f 205/393/12 206/394/12 35/49/12 34/48/12
f 179/386/13 198/385/13 204/395/13 180/396/13
f 207/55/14 208/58/14 209/397/14 210/398/14
f 182/363/15 211/399/15 212/400/15 183/364/15
f 183/401/7 212/402/7 208/63/7 207/403/7
f 210/404/8 209/405/8 211/406/8 182/407/8
f 186/408/8 177/409/8 180/375/8 187/378/8
f 181/410/1 184/411/1 213/412/1 214/413/1
f 25/75/16 31/78/16 202/414/16 200/415/16
f 201/416/12 203/417/12 30/81/12 26/80/12
f 45/83/16 48/86/16 215/418/16 216/419/16
f 215/420/168 48/90/168 35/89/168 206/421/168
f 216/422/167 205/423/167 34/93/167 45/92/167
f 177/424/16 217/395/16 218/385/16 178/425/16
f 188/379/7 179/382/7 178/426/7 185/427/7
f 213/425/12 219/385/12 220/34/12 214/101/12
f 214/428/8 220/429/8 217/430/8 177/409/8
f 178/426/7 218/431/7 219/432/7 213/433/7
f 194/376/8 192/434/8 195/377/8
f 196/380/7 189/435/7 193/381/7
f 192/434/8 191/436/8 221/437/8 195/377/8
f 195/112/17 221/115/17 222/14/17 196/438/17
f 196/380/7 222/360/7 190/439/7 189/435/7
f 185/366/18 207/55/18 210/398/18 186/367/18
f 186/408/20 210/404/20 182/407/20 181/440/20
f 184/441/19 183/401/19 207/403/19 185/427/19
f 185/427/7 213/433/7 184/441/7
f 186/408/8 181/440/8 214/428/8
f 185/427/7 178/426/7 213/433/7
f 186/408/8 214/428/8 177/409/8
f 223/442/8 224/443/8 225/444/8
f 226/445/8 227/446/8 228/447/8
f 228/447/8 227/446/8 229/448/8
f 227/446/8 230/449/8 229/448/8
f 229/448/8 230/449/8 225/444/8
f 230/449/8 223/442/8 225/444/8
f 226/445/8 228/447/8 231/450/8
f 232/451/8 226/445/8 231/450/8
f 232/451/8 231/450/8 233/452/8
f 234/453/8 232/451/8 233/452/8
f 231/454/21 235/455/21 233/456/21
f 230/457/22 236/458/22 223/459/22
f 233/460/23 235/461/23 234/462/23
f 223/463/24 237/464/25 224/465/24
f 224/465/26 238/466/27 225/467/27
f 234/462/28 239/468/28 232/469/28
f 225/467/29 238/466/29 229/470/29
f 232/469/30 240/471/30 226/472/30
f 229/461/31 241/473/31 228/474/31
f 226/475/32 242/476/32 227/477/32
f 228/474/33 243/478/33 231/454/33
f 227/477/34 244/479/34 230/457/34
f 236/480/169 245/481/169 237/443/169
f 235/482/170 245/481/170 239/483/170
f 244/484/171 245/481/171 236/480/171
f 243/485/172 245/481/172 235/482/172
f 242/486/173 245/481/173 244/484/173
f 241/487/174 245/481/174 243/485/174
f 240/488/175 245/481/175 242/486/175
f 246/489/176 245/481/176 241/487/176
f 247/490/177 245/481/177 240/488/177
f 238/491/178 245/481/178 246/489/178
f 237/443/179 245/481/179 238/491/179
f 239/483/180 245/481/180 247/490/180
f 248/492/8 249/493/8 250/494/8
f 251/495/8 252/496/8 253/497/8
f 253/497/8 252/496/8 254/498/8
f 252/496/8 255/499/8 254/498/8
f 254/498/8 255/499/8 250/494/8
f 255/499/8 248/492/8 250/494/8
f 251/495/8 253/497/8 256/500/8
f 257/501/8 251/495/8 256/500/8
f 257/501/8 256/500/8 258/502/8
f 259/503/8 257/501/8 258/502/8
f 256/504/47 260/505/47 258/506/47
f 255/507/48 261/399/48 248/19/48
f 258/508/49 262/509/49 259/510/49
f 248/192/25 263/511/25 249/193/25
f 249/193/26 264/512/26 250/195/26
f 259/510/50 262/509/50 257/513/50
f 250/195/51 265/323/51 254/198/51
f 257/513/30 266/514/30 251/515/30
f 254/516/52 267/517/52 253/518/52
f 251/519/53 268/520/53 252/521/53
f 253/518/54 269/522/54 256/504/54
f 252/521/55 270/523/55 255/507/55
f 261/524/181 271/525/181 263/526/181
f 260/527/182 271/525/182 262/528/182
f 270/529/171 271/525/171 261/524/171
f 269/530/172 271/525/172 260/527/172
f 268/531/183 271/525/183 270/529/183
f 267/532/184 271/525/184 269/530/184
f 272/533/185 271/525/185 268/531/185
f 265/534/186 271/525/186 267/532/186
f 266/535/177 271/525/177 272/533/177
f 264/536/178 271/525/178 265/534/178
f 263/526/187 271/525/187 264/536/187
f 262/528/188 271/525/188 266/535/188
f 273/537/64 274/538/64 106/224/64
f 108/226/189 111/229/189 275/539/189 276/540/189
f 277/541/190 278/542/190 279/543/190
f 280/544/191 281/545/192 282/546/193
f 283/547/194 120/238/194 119/237/194
f 281/548/195 274/549/195 273/550/195
f 284/551/196 123/244/196 122/243/196
f 124/245/197 274/552/197 285/553/197
f 126/248/198 285/554/198 281/57/198
f 281/548/199 273/550/199 286/555/199
f 287/556/200 288/557/200 130/254/200 129/253/200
f 289/558/201 135/259/201 134/258/201 290/559/201
f 108/226/76 273/537/76 106/224/76
f 291/560/202 292/561/202 293/562/202
f 139/263/203 294/563/203 295/564/203
f 296/565/204 135/259/204 289/558/204
f 297/566/205 298/567/205 299/568/205
f 291/569/206 300/570/206 297/566/206
f 299/568/207 278/571/207 297/566/207
f 298/567/208 300/570/208 301/572/208
f 301/572/209 278/571/209 299/568/209
f 302/573/210 303/574/211 279/575/210 278/571/211
f 304/576/212 289/577/212 305/578/212
f 302/573/213 296/579/213 304/576/213
f 295/564/214 122/243/214 139/263/214
f 294/563/215 300/580/215 295/564/215
f 152/282/90 153/283/90 294/563/90
f 300/580/216 154/284/216 296/565/216
f 306/581/217 307/582/217 308/583/217
f 309/584/218 306/585/218 310/586/218
f 311/587/219 307/588/219 312/589/219
f 310/590/220 313/591/220 311/592/220
f 312/593/221 307/594/221 309/595/221
f 314/596/222 309/584/222 315/597/222
f 316/598/223 312/599/223 317/600/223
f 315/601/224 310/590/224 316/602/224
f 317/603/225 309/595/225 314/604/225
f 284/605/226 283/547/226 123/308/226
f 293/606/227 283/547/227 284/605/227
f 292/607/228 286/608/228 283/547/228
f 286/608/229 120/238/229 283/547/229
f 291/609/230 284/551/230 122/243/230
f 293/610/231 284/551/231 291/609/231
f 318/611/107 280/544/191 277/612/232
f 168/316/233 169/317/233 318/611/233
f 243/478/21 235/455/21 231/454/21
f 244/479/22 236/458/22 230/457/22
f 232/469/28 239/468/28 247/613/28
f 236/614/24 237/464/25 223/463/24
f 237/464/27 238/466/27 224/465/26
f 229/470/29 238/466/29 246/150/29
f 257/513/50 262/509/50 266/514/50
f 247/613/30 240/471/30 232/469/30
f 246/149/31 241/473/31 229/461/31
f 240/615/32 242/476/32 226/475/32
f 241/473/33 243/478/33 228/474/33
f 242/476/34 244/479/34 227/477/34
f 269/522/47 260/505/47 256/504/47
f 270/523/48 261/399/48 255/507/48
f 260/200/49 262/509/49 258/508/49
f 261/133/25 263/511/25 248/192/25
f 263/511/26 264/512/26 249/193/26
f 251/515/30 266/514/30 272/189/30
f 264/512/51 265/323/51 250/195/51
f 278/571/234 286/555/234 291/569/234
f 265/148/52 267/517/52 254/516/52
f 272/616/53 268/520/53 251/519/53
f 267/517/54 269/522/54 253/518/54
f 268/520/55 270/523/55 252/521/55
f 106/224/235 274/538/235 170/325/235
f 286/617/236 319/618/236 171/328/236 120/327/236
f 277/619/237 281/548/237 278/571/237
f 169/317/238 126/331/238 280/544/238
f 280/544/239 126/331/239 281/545/239
f 285/620/240 274/549/240 281/548/240
f 170/333/241 274/552/241 124/245/241
f 124/334/242 285/554/242 126/248/242
f 286/555/243 273/550/243 276/621/243
f 281/548/244 286/555/244 278/571/244
f 297/566/245 300/570/245 298/567/245
f 304/576/246 305/578/246 302/573/246
f 276/540/247 273/537/247 108/226/247
f 286/3/248 292/622/248 291/623/248
f 152/282/126 294/563/126 139/263/126
f 154/284/249 135/259/249 296/565/249
f 299/568/250 298/567/250 301/572/250
f 297/566/251 278/571/251 291/569/251
f 301/572/252 300/570/252 296/579/252
f 296/579/253 278/571/253 301/572/253
f 296/579/254 289/577/254 304/576/254
f 278/571/255 296/579/255 302/573/255
f 277/612/256 282/546/256 281/545/256
f 291/609/257 122/243/257 295/564/257
f 295/564/258 300/580/258 291/609/258
f 294/563/259 153/283/259 300/580/259
f 153/283/260 154/284/260 300/580/260
f 308/583/261 307/582/261 313/410/261
f 310/586/262 306/585/262 308/624/262
f 313/625/263 307/588/263 311/587/263
f 308/626/264 313/591/264 310/590/264
f 309/595/265 307/594/265 306/627/265
f 315/597/266 309/584/266 310/586/266
f 311/285/267 312/599/267 316/598/267
f 316/602/268 310/590/268 311/592/268
f 312/593/269 309/595/269 317/603/269
f 123/308/270 283/547/270 119/237/270
f 292/607/271 283/547/271 293/606/271
f 277/612/232 280/544/191 282/546/193
f 318/611/272 169/317/272 280/544/272
f 234/462/23 235/461/23 239/468/23
f 320/628/273 321/629/273 322/630/273 323/631/273
f 305/578/274 303/574/274 302/573/274
f 305/578/275 289/577/275 279/575/275 303/574/275
f 319/632/276 275/633/276 171/350/276
f 171/350/277 275/633/277 111/352/277
f 276/621/278 275/634/278 319/635/278 286/555/278
f 129/253/279 168/316/279 318/611/279 287/556/279
f 288/557/280 290/636/280 134/355/280 130/254/280
f 287/556/160 318/611/160 277/612/160
f 287/556/281 277/612/281 290/636/281 288/557/281
f 320/628/282 290/637/282 277/619/282 321/629/282
f 321/629/283 277/619/283 279/575/283 322/630/283
f 322/630/284 279/575/284 289/577/284 323/631/284
f 323/631/285 289/577/285 290/637/285 320/628/285
