# Blender v2.74 (sub 0) OBJ File: 'car4.blend'
# www.blender.org
mtllib car4.mtl
o vehicleCar_GEO_Cube.000
v 0.127189 0.035420 -0.044012
v 0.127189 0.012615 -0.044012
v 0.130241 0.024018 -0.044012
v 0.096034 0.043767 -0.044012
v 0.107437 0.001213 -0.044012
v 0.107437 0.046823 -0.044012
v 0.118839 0.004269 -0.044012
v 0.118839 0.043767 -0.044012
v 0.096034 0.004269 -0.044012
v 0.087688 0.035420 -0.044012
v 0.087688 0.012615 -0.044012
v 0.084631 0.024018 -0.044012
v 0.087688 0.012615 -0.064573
v 0.127189 0.035420 -0.064573
v 0.130241 0.024018 -0.064573
v 0.127189 0.012615 -0.064573
v 0.084631 0.024018 -0.064573
v 0.096034 0.043767 -0.064573
v 0.107437 0.001213 -0.064573
v 0.107437 0.046823 -0.064573
v 0.096034 0.004269 -0.064573
v 0.118839 0.043767 -0.064573
v 0.107437 0.024018 -0.063643
v 0.118839 0.004269 -0.064573
v 0.087688 0.035420 -0.064573
v -0.082109 0.037469 -0.045069
v -0.082109 0.013065 -0.045069
v -0.078838 0.025267 -0.045069
v -0.115444 0.046403 -0.045069
v -0.103241 0.000863 -0.045069
v -0.103241 0.049671 -0.045069
v -0.091040 0.004135 -0.045069
v -0.091040 0.046403 -0.045069
v -0.115444 0.004135 -0.045069
v -0.124377 0.037469 -0.045069
v -0.124377 0.013065 -0.045069
v -0.127649 0.025267 -0.045069
v -0.124377 0.013065 -0.067075
v -0.082109 0.037469 -0.067075
v -0.127649 0.025267 -0.067075
v -0.078838 0.025267 -0.067075
v -0.082109 0.013065 -0.067075
v -0.091040 0.004135 -0.067075
v -0.124377 0.037469 -0.067075
v -0.103241 0.000863 -0.067075
v -0.103241 0.049671 -0.067075
v -0.115444 0.004135 -0.067075
v -0.091040 0.046403 -0.067075
v -0.103241 0.025267 -0.066081
v -0.115444 0.046403 -0.067075
v -0.153759 0.016958 -0.061286
v -0.153759 0.016958 0.000000
v -0.168577 0.024568 -0.061286
v 0.172607 0.042776 -0.064765
v 0.173236 0.040606 0.000000
v 0.168953 0.016474 -0.059825
v -0.137450 0.082058 0.000000
v -0.164594 0.079681 -0.034258
v -0.166807 0.079680 0.000000
v -0.166122 0.064382 -0.036126
v -0.166122 0.064973 -0.059021
v -0.165914 0.052634 -0.062158
v 0.171758 0.045476 -0.031783
v 0.171758 0.044606 0.000000
v 0.161833 0.060785 -0.031783
v 0.084490 0.071617 0.000000
v 0.161833 0.060785 0.000000
v -0.175718 0.043256 0.000000
v -0.173504 0.045426 -0.062158
v -0.168127 0.050464 0.000000
v -0.164594 0.079681 -0.055283
v -0.137450 0.082058 -0.055283
v -0.015325 0.075946 -0.055283
v -0.017700 0.077836 -0.054030
v -0.128586 0.083425 -0.054091
v -0.068973 0.105404 -0.036159
v 0.168953 0.016474 0.000000
v 0.084490 0.070955 -0.055283
v 0.161202 0.060785 -0.051965
v 0.171130 0.046346 -0.060140
v 0.081363 0.073410 0.000000
v 0.081363 0.072748 -0.050494
v 0.026221 0.104414 -0.032209
v -0.131135 0.084393 -0.046399
v -0.131135 0.084393 0.000000
v -0.075767 0.104857 -0.029824
v -0.020159 0.109881 -0.034927
v -0.069454 0.107191 -0.034927
v -0.068218 0.108403 0.000000
v 0.076463 0.073232 -0.054020
v -0.013243 0.077756 -0.054074
v 0.022402 0.104319 -0.036156
v 0.023091 0.106210 -0.034927
v -0.017690 0.107930 -0.036115
v -0.022144 0.108142 -0.036193
v -0.075767 0.104857 0.000000
v 0.026221 0.104414 0.000000
v 0.021858 0.107447 0.000000
v -0.019537 0.111155 0.000000
v 0.059360 0.072194 -0.067932
v 0.051827 0.072762 -0.067939
v 0.057335 0.080984 -0.066723
v 0.062666 0.072047 -0.058175
v 0.051652 0.072617 -0.058182
v 0.052653 0.082415 -0.054477
v 0.059673 0.081958 -0.054481
v 0.051411 0.081438 -0.066719
v 0.059891 0.072503 -0.052895
v 0.054551 0.072728 -0.052902
v 0.055337 0.076527 -0.052217
v 0.060382 0.076070 -0.052223
v -0.168336 0.063791 0.000000
v -0.170791 0.024568 0.000000
v 0.127189 0.035420 0.044012
v 0.130241 0.024017 0.044012
v 0.127189 0.012615 0.044012
v 0.096034 0.043767 0.044012
v 0.107437 0.046823 0.044012
v 0.107437 0.001213 0.044012
v 0.118839 0.004269 0.044012
v 0.118839 0.043767 0.044012
v 0.096034 0.004269 0.044012
v 0.087688 0.035420 0.044012
v 0.087688 0.012615 0.044012
v 0.084631 0.024017 0.044012
v 0.087688 0.012615 0.064573
v 0.127189 0.035420 0.064573
v 0.130241 0.024017 0.064573
v 0.127189 0.012615 0.064573
v 0.084631 0.024017 0.064573
v 0.096034 0.043767 0.064573
v 0.107437 0.001213 0.064573
v 0.107437 0.046823 0.064573
v 0.096034 0.004269 0.064573
v 0.118839 0.043767 0.064573
v 0.107437 0.024017 0.063643
v 0.118839 0.004269 0.064573
v 0.087688 0.035420 0.064573
v -0.082109 0.037469 0.045069
v -0.078838 0.025267 0.045069
v -0.082109 0.013065 0.045069
v -0.115444 0.046403 0.045069
v -0.103241 0.049671 0.045069
v -0.103241 0.000863 0.045069
v -0.091040 0.004135 0.045069
v -0.091040 0.046403 0.045069
v -0.115444 0.004135 0.045069
v -0.124377 0.037469 0.045069
v -0.124377 0.013065 0.045069
v -0.127649 0.025267 0.045069
v -0.124377 0.013065 0.067075
v -0.082109 0.037469 0.067075
v -0.127649 0.025267 0.067075
v -0.078838 0.025267 0.067075
v -0.082109 0.013065 0.067075
v -0.091040 0.004135 0.067075
v -0.124377 0.037469 0.067075
v -0.103241 0.000863 0.067075
v -0.103241 0.049671 0.067075
v -0.115444 0.004135 0.067075
v -0.091040 0.046403 0.067075
v -0.103241 0.025267 0.066081
v -0.115444 0.046403 0.067075
v -0.153759 0.016958 0.061286
v -0.168577 0.024568 0.061286
v 0.172607 0.042776 0.064765
v 0.168953 0.016474 0.059825
v -0.164594 0.079680 0.034258
v -0.166122 0.064382 0.036126
v -0.165914 0.052634 0.062158
v -0.166122 0.064973 0.059021
v 0.171758 0.045476 0.031783
v 0.161833 0.060785 0.031783
v -0.173504 0.045426 0.062158
v -0.164594 0.079680 0.055283
v -0.137450 0.082058 0.055283
v -0.015325 0.075946 0.055283
v -0.017700 0.077836 0.054030
v -0.068973 0.105404 0.036159
v -0.128586 0.083425 0.054091
v 0.084490 0.070955 0.055283
v 0.171130 0.046346 0.060140
v 0.161202 0.060785 0.051965
v 0.026221 0.104414 0.032210
v 0.081363 0.072748 0.050494
v -0.131135 0.084393 0.046399
v -0.075767 0.104857 0.029824
v -0.020159 0.109881 0.034927
v -0.069454 0.107191 0.034927
v 0.076463 0.073232 0.054020
v 0.022402 0.104319 0.036156
v -0.013243 0.077756 0.054074
v 0.023091 0.106210 0.034927
v -0.017690 0.107930 0.036115
v -0.022144 0.108142 0.036193
v 0.059360 0.072194 0.067932
v 0.057335 0.080984 0.066723
v 0.051827 0.072762 0.067939
v 0.062666 0.072047 0.058175
v 0.051652 0.072617 0.058182
v 0.052653 0.082415 0.054478
v 0.059673 0.081958 0.054481
v 0.051411 0.081437 0.066720
v 0.059891 0.072503 0.052896
v 0.054551 0.072728 0.052902
v 0.055337 0.076527 0.052217
v 0.060382 0.076070 0.052224
vt 0.797653 0.767337
vt 0.749389 0.754612
vt 0.775253 0.754544
vt 0.797644 0.837631
vt 0.714053 0.789863
vt 0.810580 0.815313
vt 0.726989 0.767546
vt 0.810580 0.789585
vt 0.714053 0.815592
vt 0.775246 0.850558
vt 0.726982 0.837833
vt 0.749381 0.850634
vt 0.142428 0.909422
vt 0.142428 0.928846
vt 0.097076 0.928846
vt 0.811677 0.919804
vt 0.811677 0.900188
vt 0.857029 0.900188
vt 0.526821 0.925342
vt 0.526821 0.900501
vt 0.572173 0.925342
vt 0.811677 0.874871
vt 0.857029 0.874871
vt 0.811677 0.850634
vt 0.857029 0.850634
vt 0.526821 0.875623
vt 0.572173 0.900501
vt 0.142428 0.842938
vt 0.142428 0.859825
vt 0.097076 0.842938
vt 0.526821 0.857375
vt 0.572173 0.857374
vt 0.142428 0.884156
vt 0.097076 0.884156
vt 0.414505 0.916528
vt 0.414505 0.941065
vt 0.369153 0.941065
vt 0.097076 0.909422
vt 0.414505 0.966197
vt 0.369153 0.966197
vt 0.894180 0.837841
vt 0.871781 0.850634
vt 0.859081 0.802538
vt 0.823509 0.767345
vt 0.845909 0.754544
vt 0.907108 0.815592
vt 0.907108 0.789865
vt 0.894171 0.767547
vt 0.823516 0.837632
vt 0.871774 0.754620
vt 0.845916 0.850566
vt 0.013840 0.829236
vt 0.065485 0.842858
vt 0.037807 0.842938
vt 0.013848 0.754022
vt 0.103301 0.805149
vt 0.000008 0.777905
vt 0.089453 0.829029
vt 0.000000 0.805435
vt 0.103301 0.777616
vt 0.037825 0.740188
vt 0.089470 0.753810
vt 0.065504 0.740108
vt 0.048538 0.863729
vt 0.048538 0.842938
vt 0.617525 0.924657
vt 0.617525 0.903661
vt 0.666063 0.903661
vt 0.714601 0.923371
vt 0.714601 0.896791
vt 0.763139 0.896791
vt 0.617525 0.876568
vt 0.666063 0.876568
vt 0.617525 0.850634
vt 0.666063 0.850634
vt 0.714601 0.870169
vt 0.048538 0.934864
vt 0.048538 0.916803
vt 0.097076 0.916803
vt 0.714601 0.850634
vt 0.763139 0.870169
vt 0.048538 0.890766
vt 0.097076 0.890766
vt 0.902381 0.956936
vt 0.902381 0.930679
vt 0.950918 0.930679
vt 0.097076 0.863729
vt 0.902381 0.903785
vt 0.950918 0.903785
vt 0.117141 0.753810
vt 0.141107 0.740108
vt 0.154703 0.791574
vt 0.192771 0.829236
vt 0.168805 0.842938
vt 0.206602 0.805430
vt 0.206602 0.777897
vt 0.117149 0.829024
vt 0.192754 0.754017
vt 0.141126 0.842858
vt 0.168786 0.740188
vt 0.270352 0.038201
vt 0.135176 0.038201
vt 0.270352 0.004814
vt 0.327516 0.717607
vt 0.322634 0.858804
vt 0.270352 0.728378
vt 0.392288 0.063706
vt 0.316725 0.004819
vt 0.392288 0.000000
vt 0.966247 0.214273
vt 0.967551 0.264188
vt 0.940335 0.271028
vt 0.333605 0.789513
vt 0.331693 0.858804
vt 0.646990 0.738019
vt 0.724880 0.711393
vt 0.708242 0.743723
vt 0.322186 0.717608
vt 0.392288 0.548099
vt 0.392288 0.717608
vt 0.976723 0.406542
vt 0.981523 0.542056
vt 0.935550 0.540153
vt 0.951549 0.677569
vt 0.956211 0.813083
vt 0.940198 0.813083
vt 0.668545 0.000000
vt 0.585961 0.735162
vt 0.580696 0.675991
vt 0.619149 0.738482
vt 0.593826 0.409726
vt 0.589365 0.414897
vt 0.577373 0.656659
vt 0.524454 0.526585
vt 0.135176 0.740108
vt 0.498824 0.914185
vt 0.472454 0.747589
vt 0.498824 0.717607
vt 0.392288 0.541114
vt 0.280915 0.541179
vt 0.321245 0.417987
vt 0.289946 0.077230
vt 0.392288 0.077230
vt 0.326505 0.195818
vt 0.315251 0.316440
vt 0.315251 0.209341
vt 0.392288 0.211915
vt 0.599249 0.209595
vt 0.589543 0.405181
vt 0.526636 0.327374
vt 0.604548 0.192102
vt 0.522174 0.325866
vt 0.518801 0.414791
vt 0.520220 0.527627
vt 0.518368 0.424501
vt 0.514225 0.420167
vt 0.392288 0.195818
vt 0.315251 0.410994
vt 0.392288 0.417987
vt 0.392288 0.408189
vt 0.392288 0.317669
vt 0.144711 0.871240
vt 0.161250 0.873245
vt 0.148244 0.890768
vt 0.240684 0.794151
vt 0.216364 0.794167
vt 0.233362 0.772888
vt 0.161250 0.869756
vt 0.145810 0.871240
vt 0.148212 0.844190
vt 0.928534 0.775804
vt 0.907107 0.784360
vt 0.908662 0.757628
vt 0.240684 0.836282
vt 0.218923 0.826841
vt 0.240684 0.809537
vt 0.234524 0.805669
vt 0.222740 0.805669
vt 0.907386 0.800036
vt 0.907107 0.788996
vt 0.920461 0.791381
vt 0.928534 0.787317
vt 0.920187 0.788996
vt 0.227324 0.840372
vt 0.219680 0.838422
vt 0.369040 0.789513
vt 0.369040 0.858804
vt 0.369153 0.745513
vt 0.335630 0.727690
vt 0.270352 0.548164
vt 0.277670 0.716232
vt 1.000000 0.210202
vt 1.000000 0.256039
vt 0.999986 0.135514
vt 0.964928 0.135514
vt 0.857029 0.919804
vt 0.572173 0.875623
vt 0.097076 0.859825
vt 0.369153 0.916528
vt 0.666063 0.924657
vt 0.763139 0.923371
vt 0.763139 0.850634
vt 0.097076 0.934864
vt 0.950918 0.956936
vt 0.135176 0.000000
vt 0.270352 0.858804
vt 0.270352 0.063706
vt 0.935536 0.135514
vt 0.662793 0.754544
vt 0.935536 0.406542
vt 0.935536 0.677569
vt 0.724880 0.007828
vt 0.267129 0.740108
vt 0.216364 0.740108
vt 0.216364 0.935871
vt 0.206602 0.744720
vt 0.161250 0.892361
vt 0.216699 0.772895
vt 0.161250 0.842938
vt 0.927730 0.754544
vt 0.221207 0.805669
vt 0.920461 0.806717
vt 0.701126 0.837841
vt 0.678724 0.850634
vt 0.652861 0.850566
vt 0.701117 0.767546
vt 0.617526 0.815315
vt 0.630461 0.837631
vt 0.617525 0.789585
vt 0.678719 0.754620
vt 0.630455 0.767345
vt 0.652852 0.754544
vt 0.206602 0.862363
vt 0.206602 0.842938
vt 0.902381 0.870249
vt 0.857029 0.870249
vt 0.617525 0.925342
vt 0.617525 0.900502
vt 0.902381 0.895568
vt 0.857029 0.895568
vt 0.902381 0.919804
vt 0.617525 0.875623
vt 0.206602 0.928846
vt 0.161250 0.928846
vt 0.206602 0.911959
vt 0.617525 0.857374
vt 0.161250 0.887628
vt 0.206602 0.887628
vt 0.472454 0.914185
vt 0.517806 0.938721
vt 0.472454 0.938721
vt 0.161250 0.862363
vt 0.517806 0.963853
vt 0.472454 0.963853
vt 0.452753 0.833232
vt 0.417652 0.868534
vt 0.430352 0.820438
vt 0.382082 0.903727
vt 0.404480 0.916528
vt 0.465680 0.855480
vt 0.369153 0.881487
vt 0.465680 0.881208
vt 0.369153 0.855758
vt 0.452744 0.903526
vt 0.382089 0.833441
vt 0.430347 0.916453
vt 0.404489 0.820506
vt 0.528065 0.768246
vt 0.552031 0.754544
vt 0.579710 0.754624
vt 0.528073 0.843461
vt 0.514232 0.819578
vt 0.617525 0.792333
vt 0.603677 0.768454
vt 0.514225 0.792048
vt 0.617525 0.819866
vt 0.552050 0.857294
vt 0.603695 0.843672
vt 0.579729 0.857375
vt 0.000000 0.914073
vt 0.000000 0.934864
vt 0.714601 0.924657
vt 0.714601 0.903661
vt 0.811677 0.923371
vt 0.811677 0.896791
vt 0.714601 0.876568
vt 0.811677 0.870169
vt 0.000000 0.842938
vt 0.048538 0.860999
vt 0.000000 0.860999
vt 0.048538 0.887036
vt 0.000000 0.887036
vt 0.902381 0.877528
vt 0.950918 0.877528
vt 0.048538 0.914073
vt 0.902381 0.850634
vt 0.950918 0.850634
vt 0.382993 0.806736
vt 0.420555 0.768971
vt 0.406960 0.820438
vt 0.458623 0.731310
vt 0.434657 0.717607
vt 0.369153 0.782934
vt 0.472454 0.755116
vt 0.369161 0.755405
vt 0.472454 0.782649
vt 0.383001 0.731521
vt 0.458606 0.806529
vt 0.406978 0.717688
vt 0.434638 0.820358
vt 0.000000 0.038201
vt 0.000000 0.004814
vt 0.327516 1.000000
vt 0.270352 0.989229
vt 0.467851 0.004819
vt 0.966247 0.056754
vt 0.940335 0.000000
vt 0.967551 0.006839
vt 0.333605 0.928095
vt 0.857646 0.016525
vt 0.918897 0.010821
vt 0.935536 0.043151
vt 0.462391 0.717608
vt 0.935550 0.272931
vt 0.981523 0.271028
vt 0.940198 0.542056
vt 0.956211 0.542056
vt 0.879201 0.754544
vt 0.796617 0.019382
vt 0.829804 0.016062
vt 0.791351 0.078553
vt 0.804482 0.344818
vt 0.800021 0.339647
vt 0.735109 0.227958
vt 0.788028 0.097885
vt 0.270352 0.740108
vt 0.270352 0.936685
vt 0.243982 0.906704
vt 0.463332 0.417987
vt 0.503662 0.541179
vt 0.494630 0.077230
vt 0.458071 0.195818
vt 0.469325 0.316440
vt 0.469325 0.209341
vt 0.809905 0.544949
vt 0.737292 0.427170
vt 0.800199 0.349363
vt 0.815203 0.562442
vt 0.732829 0.428678
vt 0.729456 0.339753
vt 0.730875 0.226917
vt 0.729023 0.330042
vt 0.724880 0.334377
vt 0.469325 0.410994
vt 0.510283 0.906796
vt 0.513815 0.887269
vt 0.526822 0.904792
vt 0.216364 0.761371
vt 0.223686 0.740108
vt 0.240684 0.761386
vt 0.526821 0.858860
vt 0.513784 0.884425
vt 0.511381 0.857374
vt 0.240350 0.888266
vt 0.220480 0.906441
vt 0.218923 0.879711
vt 0.240684 0.844460
vt 0.240684 0.871205
vt 0.218923 0.853901
vt 0.222524 0.772888
vt 0.234309 0.772888
vt 0.907386 0.813399
vt 0.920461 0.822054
vt 0.907107 0.824439
vt 0.240350 0.876753
vt 0.232002 0.875073
vt 0.219680 0.842320
vt 0.369040 0.928095
vt 0.369153 0.972095
vt 0.335630 0.989918
vt 0.514225 0.548164
vt 0.506906 0.716232
vt 1.000000 0.060826
vt 1.000000 0.014989
vt 0.161250 0.911959
vt 0.517806 0.914185
vt 0.514224 0.063706
vt 0.514224 0.004819
vt 0.873449 0.000000
vt 0.935536 0.746716
vt 0.003223 0.740108
vt 0.508586 0.913371
vt 0.498824 0.908759
vt 0.508586 0.717607
vt 0.526822 0.885677
vt 0.240349 0.740114
vt 0.239545 0.909525
vt 0.221207 0.875073
vn -0.000000 -0.000000 1.000000
vn -0.707100 -0.707100 -0.000000
vn 0.706900 0.707300 0.000000
vn -0.965900 -0.258900 -0.000000
vn 0.966000 0.258600 0.000000
vn 0.965900 0.259100 0.000000
vn 0.965900 -0.259000 -0.000000
vn 0.966000 -0.258600 -0.000000
vn -0.965900 0.258900 0.000000
vn 0.706900 -0.707300 -0.000000
vn -0.707100 0.707100 0.000000
vn 0.258900 -0.965900 -0.000000
vn -0.258900 0.965900 0.000000
vn -0.258900 -0.965900 -0.000000
vn 0.258900 0.965900 0.000000
vn -0.040800 -0.010900 -0.999100
vn 0.040800 0.010900 -0.999100
vn -0.029800 -0.029800 -0.999100
vn 0.029800 0.029800 -0.999100
vn -0.010900 -0.040800 -0.999100
vn 0.010900 0.040800 -0.999100
vn 0.010900 -0.040800 -0.999100
vn -0.010900 0.040800 -0.999100
vn 0.029800 -0.029800 -0.999100
vn -0.029800 0.029800 -0.999100
vn -0.040800 0.010900 -0.999100
vn 0.040800 -0.010900 -0.999100
vn -0.707000 -0.707200 -0.000000
vn 0.707300 0.707000 0.000000
vn 0.965900 0.258900 0.000000
vn 0.965900 -0.258900 -0.000000
vn 0.707100 -0.707100 -0.000000
vn 0.259000 -0.965900 -0.000000
vn -0.258700 0.966000 0.000000
vn -0.259000 -0.965900 -0.000000
vn 0.258700 0.966000 0.000000
vn -0.040700 -0.010900 -0.999100
vn 0.040700 0.010900 -0.999100
vn -0.010900 -0.040700 -0.999100
vn 0.010900 0.040700 -0.999100
vn 0.010900 -0.040700 -0.999100
vn -0.010900 0.040700 -0.999100
vn -0.040700 0.010900 -0.999100
vn 0.040700 -0.010900 -0.999100
vn -0.456900 -0.889500 -0.000000
vn 0.990000 -0.140200 -0.014300
vn -0.080700 0.996700 -0.005200
vn -0.999900 -0.016800 -0.000400
vn 0.938000 0.346500 0.009500
vn -0.015200 -0.029600 -0.999400
vn 0.138700 0.990300 0.000000
vn -0.971900 -0.231400 -0.042700
vn -0.688600 0.725200 0.000800
vn -0.008500 -0.027300 -0.999600
vn -0.021800 0.248400 -0.968400
vn 0.010900 0.217500 -0.976000
vn 0.029800 0.582100 -0.812500
vn -0.001500 -1.000000 -0.000000
vn 0.108200 0.545100 -0.831400
vn 0.495100 0.868800 -0.011400
vn -0.346700 0.938000 -0.000000
vn -0.346700 0.938000 0.000100
vn -0.054500 0.998000 -0.032700
vn 0.027400 0.533500 -0.845400
vn 0.027400 0.533900 -0.845100
vn 0.011000 0.514300 -0.857500
vn 0.027400 0.534200 -0.844900
vn 0.047100 0.532300 -0.845200
vn 0.049000 0.516100 -0.855100
vn 0.034700 0.573600 -0.818400
vn 0.027500 0.549700 -0.834900
vn -0.033400 0.562000 -0.826500
vn 0.092500 0.515100 -0.852100
vn -0.346800 0.937900 0.000000
vn -0.425200 0.905100 0.000000
vn 0.497500 0.867400 -0.011400
vn 0.497900 0.867200 -0.000300
vn 0.498000 0.867200 0.000100
vn 0.497900 0.867200 -0.000200
vn 0.571300 0.820700 0.000000
vn 0.570800 0.821100 0.000000
vn 0.571200 0.820800 0.000000
vn 0.084500 0.995700 -0.037800
vn 0.011400 0.138800 -0.990300
vn 0.010900 0.139100 -0.990200
vn 0.010600 0.139300 -0.990200
vn -0.051800 -0.998700 0.002400
vn 0.064700 0.993700 -0.091400
vn -0.993300 0.065300 0.095600
vn 0.914000 0.351500 -0.202500
vn -0.042300 -0.997100 0.063900
vn 0.033800 0.361400 0.931800
vn -0.873500 0.094500 0.477600
vn 0.858500 -0.207000 0.469100
vn 0.839100 0.544000 0.000000
vn 0.838800 0.543800 -0.026200
vn 0.920100 0.391700 -0.008400
vn 0.955900 0.293700 0.000600
vn 0.133900 0.990900 -0.011900
vn 0.131600 0.991300 -0.004100
vn -0.995100 0.099400 0.000000
vn -0.993400 0.095500 -0.064200
vn 0.018500 0.370400 -0.928700
vn -0.407900 -0.912900 -0.014700
vn 0.984600 -0.174700 -0.000000
vn -0.087300 0.996200 0.000000
vn -0.998000 -0.015600 -0.061400
vn -0.997800 0.056700 -0.033600
vn 0.032400 -0.034100 -0.998900
vn -0.966400 -0.254800 -0.034900
vn 0.004200 -0.185200 -0.982700
vn -0.020300 0.246000 -0.969100
vn 0.000700 0.278600 -0.960400
vn 0.030200 0.537000 -0.843000
vn -0.030100 0.503800 -0.863300
vn 0.197600 0.805700 -0.558300
vn 0.490100 0.871700 0.000000
vn -0.056400 0.997800 -0.035400
vn 0.045600 0.515900 -0.855500
vn 0.027900 0.558200 -0.829200
vn 0.013100 0.607800 -0.794000
vn 0.047800 0.563700 -0.824600
vn -0.007200 0.513600 -0.858000
vn 0.029600 0.578700 -0.815000
vn -0.033400 0.613400 -0.789000
vn -0.049800 0.508600 -0.859600
vn -0.360700 0.932500 -0.019600
vn 0.485400 0.874200 -0.010500
vn 0.498000 0.867200 -0.000100
vn 0.506000 0.862500 -0.012700
vn 0.089200 0.995500 -0.032100
vn 0.010100 0.139700 -0.990100
vn -0.075100 -0.997000 -0.016100
vn 0.076000 0.993300 -0.087000
vn -0.998800 -0.045300 -0.018600
vn 0.917300 0.253600 -0.306900
vn -0.051600 -0.997400 0.049600
vn 0.024500 0.367900 0.929500
vn -0.798900 -0.139600 0.585000
vn 0.952300 0.202500 0.228200
vn 0.852300 0.522800 0.014300
vn 0.823800 0.566900 -0.000900
vn -0.994700 0.102600 0.002700
vn -0.992600 0.106300 -0.059100
vn 0.000000 0.000000 -1.000000
vn 0.965900 0.259000 0.000000
vn 0.965900 -0.259100 -0.000000
vn -0.040800 -0.010900 0.999100
vn 0.040800 0.010900 0.999100
vn -0.029800 -0.029800 0.999100
vn 0.029800 0.029800 0.999100
vn -0.010900 -0.040800 0.999100
vn 0.010900 0.040800 0.999100
vn 0.010900 -0.040800 0.999100
vn -0.010900 0.040800 0.999100
vn 0.029800 -0.029800 0.999100
vn -0.029800 0.029800 0.999100
vn -0.040800 0.010900 0.999100
vn 0.040800 -0.010900 0.999100
vn -0.040700 -0.010900 0.999100
vn 0.040700 0.010900 0.999100
vn -0.010900 -0.040700 0.999100
vn 0.010900 0.040700 0.999100
vn 0.010900 -0.040700 0.999100
vn -0.010900 0.040700 0.999100
vn -0.040700 0.010900 0.999100
vn 0.040700 -0.010900 0.999100
vn 0.990000 -0.140200 0.014300
vn -0.080700 0.996700 0.005200
vn -0.999900 -0.016800 0.000400
vn 0.938000 0.346500 -0.009500
vn -0.015200 -0.029600 0.999400
vn -0.971900 -0.231400 0.042700
vn -0.688600 0.725200 -0.000800
vn -0.008500 -0.027300 0.999600
vn -0.021800 0.248400 0.968400
vn 0.010900 0.217500 0.976000
vn 0.029800 0.582100 0.812500
vn 0.108200 0.545100 0.831400
vn 0.495100 0.868800 0.011400
vn -0.346700 0.938000 -0.000100
vn -0.054500 0.998000 0.032700
vn 0.027400 0.533500 0.845400
vn 0.027400 0.533900 0.845100
vn 0.011000 0.514300 0.857500
vn 0.027400 0.534200 0.844900
vn 0.047100 0.532300 0.845200
vn 0.049000 0.516100 0.855100
vn 0.034700 0.573600 0.818400
vn 0.027500 0.549700 0.834900
vn -0.033400 0.562000 0.826500
vn 0.092500 0.515100 0.852100
vn 0.497500 0.867400 0.011400
vn 0.497900 0.867200 0.000300
vn 0.497900 0.867200 0.000200
vn 0.084500 0.995700 0.037800
vn 0.011400 0.138800 0.990300
vn 0.010600 0.139300 0.990200
vn 0.010500 0.139200 0.990200
vn -0.051800 -0.998700 -0.002400
vn 0.064700 0.993700 0.091400
vn -0.993300 0.065300 -0.095600
vn 0.914000 0.351500 0.202500
vn -0.042300 -0.997100 -0.063900
vn 0.033900 0.361300 -0.931800
vn -0.873500 0.094500 -0.477600
vn 0.858500 -0.207000 -0.469100
vn 0.838800 0.543800 0.026200
vn 0.920100 0.391700 0.008400
vn 0.955900 0.293700 -0.000600
vn 0.133900 0.990900 0.011900
vn 0.131600 0.991300 0.004100
vn -0.993400 0.095500 0.064200
vn 0.018500 0.370400 0.928700
vn -0.407900 -0.912900 0.014700
vn -0.998000 -0.015600 0.061400
vn -0.997800 0.056700 0.033600
vn 0.032400 -0.034100 0.998900
vn -0.966400 -0.254800 0.034900
vn 0.004200 -0.185200 0.982700
vn -0.020300 0.246000 0.969100
vn 0.000700 0.278600 0.960400
vn 0.030200 0.537000 0.843000
vn -0.030100 0.503700 0.863300
vn 0.197600 0.805700 0.558300
vn -0.056400 0.997800 0.035400
vn 0.045600 0.515900 0.855500
vn 0.027900 0.558200 0.829200
vn 0.013100 0.607800 0.794000
vn 0.047800 0.563700 0.824600
vn -0.007200 0.513600 0.858000
vn 0.029600 0.578700 0.815000
vn -0.033400 0.613400 0.789000
vn -0.049800 0.508600 0.859600
vn -0.360700 0.932500 0.019600
vn 0.485400 0.874200 0.010500
vn 0.506000 0.862500 0.012700
vn 0.089200 0.995500 0.032100
vn 0.010000 0.139700 0.990100
vn -0.075100 -0.997000 0.016100
vn 0.075800 0.993300 0.087100
vn -0.998800 -0.045600 0.018700
vn 0.917300 0.253600 0.306900
vn -0.051600 -0.997400 -0.049600
vn 0.024400 0.368000 -0.929500
vn -0.798900 -0.139600 -0.585000
vn 0.952300 0.202400 -0.228200
vn 0.852300 0.522800 -0.014300
vn 0.823800 0.566900 0.000900
vn -0.994700 0.102600 -0.002700
vn -0.992600 0.106300 0.059100
usemtl vertexColorShader.003
s 1
f 1/1/1 2/2/1 3/3/1
f 4/4/1 5/5/1 6/6/1
f 5/5/1 7/7/1 6/6/1
f 6/6/1 7/7/1 8/8/1
f 7/7/1 2/2/1 8/8/1
f 8/8/1 2/2/1 1/1/1
f 4/4/1 9/9/1 5/5/1
f 10/10/1 9/9/1 4/4/1
f 10/10/1 11/11/1 9/9/1
f 12/12/1 11/11/1 10/10/1
f 9/13/2 11/14/2 13/15/2
f 8/16/3 1/17/3 14/18/3
f 11/19/4 12/20/4 13/21/4
f 1/17/5 3/22/5 15/23/6
f 3/22/7 2/24/8 16/25/8
f 12/20/9 10/26/9 17/27/9
f 2/28/10 7/29/10 16/30/10
f 10/26/11 4/31/11 18/32/11
f 7/29/12 5/33/12 19/34/12
f 4/35/13 6/36/13 20/37/13
f 5/33/14 9/13/14 21/38/14
f 6/36/15 8/39/15 22/40/15
f 14/41/16 15/42/16 23/43/16
f 13/44/17 17/45/17 23/43/17
f 22/46/18 14/41/18 23/43/18
f 21/8/19 13/44/19 23/43/19
f 20/47/20 22/46/20 23/43/20
f 19/6/21 21/8/21 23/43/21
f 18/48/22 20/47/22 23/43/22
f 24/49/23 19/6/23 23/43/23
f 25/50/24 18/48/24 23/43/24
f 16/51/25 24/49/25 23/43/25
f 15/42/26 16/51/26 23/43/26
f 17/45/27 25/50/27 23/43/27
f 26/52/1 27/53/1 28/54/1
f 29/55/1 30/56/1 31/57/1
f 30/56/1 32/58/1 31/57/1
f 31/57/1 32/58/1 33/59/1
f 32/58/1 27/53/1 33/59/1
f 33/59/1 27/53/1 26/52/1
f 29/55/1 34/60/1 30/56/1
f 35/61/1 34/60/1 29/55/1
f 35/61/1 36/62/1 34/60/1
f 37/63/1 36/62/1 35/61/1
f 34/64/28 36/65/28 38/30/28
f 33/66/29 26/67/29 39/68/29
f 36/69/4 37/70/4 40/71/4
f 26/67/30 28/72/30 41/73/30
f 28/72/31 27/74/31 42/75/31
f 37/70/9 35/76/9 40/71/9
f 27/77/32 32/78/32 43/79/32
f 35/76/11 29/80/11 44/81/11
f 32/78/33 30/82/33 45/83/33
f 29/84/34 31/85/34 46/86/34
f 30/82/35 34/64/35 47/87/35
f 31/85/36 33/88/36 48/89/36
f 39/90/37 41/91/37 49/92/37
f 38/93/38 40/94/38 49/92/38
f 48/60/18 39/90/18 49/92/18
f 47/95/19 38/93/19 49/92/19
f 46/56/39 48/60/39 49/92/39
f 45/96/40 47/95/40 49/92/40
f 50/97/41 46/56/41 49/92/41
f 43/98/42 45/96/42 49/92/42
f 44/99/24 50/97/24 49/92/24
f 42/100/25 43/98/25 49/92/25
f 41/91/43 42/100/43 49/92/43
f 40/94/44 44/99/44 49/92/44
f 51/101/45 52/102/45 53/103/45
f 54/104/46 55/105/46 56/106/46
f 57/107/47 58/108/47 59/109/47
f 60/110/48 61/111/48 62/112/48
f 63/113/49 64/114/49 55/105/49
f 62/115/50 51/116/50 53/117/50
f 65/118/51 66/119/51 67/120/51
f 68/121/52 69/122/52 53/123/52
f 70/124/53 62/125/53 69/126/53
f 62/115/54 54/127/54 51/116/54
f 71/128/55 72/129/55 61/130/55
f 72/129/56 73/131/56 62/115/56
f 74/132/57 75/133/57 76/134/57
f 77/135/58 52/102/58 51/101/58
f 78/136/59 79/137/59 80/138/59
f 81/139/60 82/140/60 83/141/60
f 84/142/61 85/143/61 86/144/62
f 87/145/63 88/146/63 89/147/63
f 90/148/64 91/149/65 92/150/64
f 78/151/66 90/148/66 93/152/66
f 91/149/65 90/148/64 73/131/67
f 92/150/68 94/153/68 93/152/68
f 94/153/69 91/149/69 73/131/69
f 76/134/70 75/133/70 88/154/70
f 72/129/71 75/133/71 73/131/71
f 95/155/72 76/134/72 88/154/72
f 74/132/73 95/155/73 87/156/73
f 84/142/61 86/144/62 88/146/62
f 85/143/61 84/142/61 57/107/74
f 86/144/75 96/157/75 89/147/75
f 82/140/76 81/139/76 66/119/76
f 83/141/77 82/140/78 93/158/79
f 97/159/80 83/141/81 98/160/82
f 93/158/83 87/145/83 99/161/83
f 100/162/84 101/163/85 102/164/86
f 103/165/87 104/166/87 100/167/87
f 105/168/88 106/169/88 102/170/88
f 104/171/89 105/172/89 107/173/89
f 106/174/90 103/175/90 102/176/90
f 108/177/91 109/178/91 103/165/91
f 110/179/92 111/180/92 106/181/92
f 109/182/93 110/183/93 104/171/93
f 111/184/94 108/185/94 103/175/94
f 65/186/95 67/187/95 63/113/95
f 79/188/96 65/186/96 63/113/96
f 80/189/97 63/113/97 54/104/97
f 54/104/98 63/113/98 55/105/98
f 78/190/99 66/119/99 65/118/99
f 79/191/100 78/190/100 65/118/100
f 58/192/101 71/193/101 60/110/101
f 59/194/102 58/192/102 112/195/102
f 21/38/2 9/13/2 13/15/2
f 22/196/3 8/16/3 14/18/3
f 10/26/9 25/197/9 17/27/9
f 14/18/5 1/17/5 15/23/6
f 15/23/8 3/22/7 16/25/8
f 7/29/10 24/198/10 16/30/10
f 35/76/9 44/81/9 40/71/9
f 25/197/11 10/26/11 18/32/11
f 24/198/12 7/29/12 19/34/12
f 18/199/13 4/35/13 20/37/13
f 19/34/14 5/33/14 21/38/14
f 20/37/15 6/36/15 22/40/15
f 47/87/28 34/64/28 38/30/28
f 48/200/29 33/66/29 39/68/29
f 38/201/4 36/69/4 40/71/4
f 39/68/30 26/67/30 41/73/30
f 41/73/31 28/72/31 42/75/31
f 29/80/11 50/202/11 44/81/11
f 42/203/32 27/77/32 43/79/32
f 73/131/103 78/151/103 54/127/103
f 43/79/33 32/78/33 45/83/33
f 50/204/34 29/84/34 46/86/34
f 45/83/35 30/82/35 47/87/35
f 46/86/36 31/85/36 48/89/36
f 52/102/104 113/205/104 53/103/104
f 55/105/105 77/206/105 56/106/105
f 72/207/106 71/103/106 58/108/106
f 57/107/106 72/207/106 58/108/106
f 112/195/107 60/110/107 70/208/107
f 60/110/108 62/112/108 70/208/108
f 69/209/109 62/115/109 53/117/109
f 113/210/110 68/121/110 53/123/110
f 68/211/53 70/124/53 69/126/53
f 54/127/111 56/212/111 51/116/111
f 72/129/112 62/115/112 61/130/112
f 62/115/113 73/131/113 54/127/113
f 90/148/114 92/150/114 93/152/114
f 95/155/115 74/132/115 76/134/115
f 56/213/58 77/135/58 51/101/58
f 54/214/116 78/215/116 80/216/116
f 97/159/117 81/139/117 83/141/117
f 85/143/61 96/157/61 86/144/62
f 99/161/118 87/145/118 89/147/118
f 91/149/119 94/153/119 92/150/119
f 90/148/120 78/151/120 73/131/120
f 75/133/121 72/129/121 88/154/121
f 94/153/122 87/156/122 93/152/122
f 87/156/123 94/153/123 73/131/123
f 75/133/124 74/132/124 73/131/124
f 87/156/125 95/155/125 88/154/125
f 73/131/126 74/132/126 87/156/126
f 72/207/61 84/142/61 88/146/62
f 84/142/61 72/207/61 57/107/74
f 88/146/127 86/144/127 89/147/127
f 78/190/128 82/140/128 66/119/128
f 82/140/78 78/190/129 93/158/79
f 83/141/130 93/158/130 98/160/130
f 98/160/131 93/158/131 99/161/131
f 101/163/85 107/217/132 102/164/86
f 104/166/133 101/218/133 100/167/133
f 107/219/134 105/168/134 102/170/134
f 101/220/135 104/171/135 107/173/135
f 103/175/136 100/221/136 102/176/136
f 109/178/137 104/166/137 103/165/137
f 105/222/138 110/179/138 106/181/138
f 110/183/139 105/172/139 104/171/139
f 106/174/140 111/184/140 103/175/140
f 67/187/141 64/114/141 63/113/141
f 80/189/142 79/188/142 63/113/142
f 71/193/143 61/111/143 60/110/143
f 58/192/144 60/110/144 112/195/144
f 12/20/4 17/27/4 13/21/4
f 114/223/145 115/224/145 116/225/145
f 117/226/145 118/5/145 119/227/145
f 119/227/145 118/5/145 120/228/145
f 118/5/145 121/9/145 120/228/145
f 120/228/145 121/9/145 116/225/145
f 121/9/145 114/223/145 116/225/145
f 117/226/145 119/227/145 122/229/145
f 123/230/145 117/226/145 122/229/145
f 123/230/145 122/229/145 124/231/145
f 125/232/145 123/230/145 124/231/145
f 122/233/2 126/219/2 124/234/2
f 121/25/3 127/235/3 114/236/3
f 124/237/4 126/21/4 125/238/4
f 114/236/5 128/239/146 115/240/5
f 115/240/147 129/241/8 116/196/8
f 125/238/9 130/27/9 123/242/9
f 116/243/10 129/244/10 120/245/10
f 123/242/11 131/32/11 117/246/11
f 120/245/12 132/247/12 119/248/12
f 117/249/13 133/250/13 118/251/13
f 119/248/14 134/252/14 122/233/14
f 118/251/15 135/253/15 121/254/15
f 127/255/148 136/256/148 128/257/148
f 126/258/149 136/256/149 130/259/149
f 135/260/150 136/256/150 127/255/150
f 134/261/151 136/256/151 126/258/151
f 133/262/152 136/256/152 135/260/152
f 132/263/153 136/256/153 134/261/153
f 131/264/154 136/256/154 133/262/154
f 137/265/155 136/256/155 132/263/155
f 138/266/156 136/256/156 131/264/156
f 129/267/157 136/256/157 137/265/157
f 128/257/158 136/256/158 129/267/158
f 130/259/159 136/256/159 138/266/159
f 139/268/145 140/269/145 141/270/145
f 142/271/145 143/272/145 144/273/145
f 144/273/145 143/272/145 145/274/145
f 143/272/145 146/275/145 145/274/145
f 145/274/145 146/275/145 141/270/145
f 146/275/145 139/268/145 141/270/145
f 142/271/145 144/273/145 147/276/145
f 148/277/145 142/271/145 147/276/145
f 148/277/145 147/276/145 149/278/145
f 150/279/145 148/277/145 149/278/145
f 147/280/28 151/77/28 149/281/28
f 146/282/29 152/68/29 139/283/29
f 149/284/4 153/71/4 150/285/4
f 139/283/30 154/73/30 140/286/30
f 140/286/31 155/75/31 141/80/31
f 150/285/9 153/71/9 148/287/9
f 141/288/32 156/289/32 145/290/32
f 148/287/11 157/81/11 142/24/11
f 145/290/33 158/291/33 144/292/33
f 142/89/34 159/293/34 143/294/34
f 144/292/35 160/295/35 147/280/35
f 143/294/36 161/296/36 146/297/36
f 152/298/160 162/299/160 154/300/160
f 151/301/161 162/299/161 153/302/161
f 161/303/150 162/299/150 152/298/150
f 160/304/151 162/299/151 151/301/151
f 159/305/162 162/299/162 161/303/162
f 158/306/163 162/299/163 160/304/163
f 163/307/164 162/299/164 159/305/164
f 156/308/165 162/299/165 158/306/165
f 157/309/156 162/299/156 163/307/156
f 155/310/157 162/299/157 156/308/157
f 154/300/166 162/299/166 155/310/166
f 153/302/167 162/299/167 157/309/167
f 164/311/45 165/312/45 52/102/45
f 166/313/168 167/314/168 55/105/168
f 57/107/169 59/109/169 168/315/169
f 169/316/170 170/317/170 171/318/170
f 172/319/171 55/105/171 64/114/171
f 170/320/172 165/321/172 164/322/172
f 173/323/51 67/120/51 66/119/51
f 68/121/173 165/324/173 174/325/173
f 70/124/174 174/326/174 170/327/174
f 170/320/175 164/322/175 166/328/175
f 175/329/176 171/330/176 176/331/176
f 176/331/177 170/320/177 177/332/177
f 178/333/178 179/334/178 180/335/178
f 77/135/58 164/311/58 52/102/58
f 181/336/179 182/337/179 183/338/179
f 81/139/180 184/339/180 185/340/180
f 186/341/61 187/342/181 85/143/61
f 188/343/182 89/147/182 189/344/182
f 190/345/183 191/346/183 192/347/184
f 181/348/185 193/349/185 190/345/185
f 192/347/184 177/332/186 190/345/183
f 191/346/187 193/349/187 194/350/187
f 194/350/188 177/332/188 192/347/188
f 179/334/189 189/351/189 180/335/189
f 176/331/190 177/332/190 180/335/190
f 195/352/191 189/351/191 179/334/191
f 178/333/192 188/353/192 195/352/192
f 186/341/61 189/344/181 187/342/181
f 85/143/61 57/107/74 186/341/61
f 187/342/75 89/147/75 96/157/75
f 185/340/193 66/119/193 81/139/193
f 184/339/194 193/354/195 185/340/129
f 97/159/80 98/160/82 184/339/81
f 193/354/196 99/161/196 188/343/196
f 196/355/197 197/356/198 198/357/199
f 199/358/200 196/359/200 200/360/200
f 201/361/201 197/362/201 202/363/201
f 200/364/202 203/365/202 201/366/202
f 202/367/203 197/368/203 199/369/203
f 204/370/204 199/358/204 205/371/204
f 206/372/205 202/373/205 207/374/205
f 205/375/206 200/364/206 206/376/206
f 207/184/207 199/369/207 204/377/207
f 173/378/95 172/319/95 67/187/95
f 183/379/208 172/319/208 173/378/208
f 182/380/209 166/313/209 172/319/209
f 166/313/210 55/105/210 172/319/210
f 181/381/211 173/323/211 66/119/211
f 183/382/212 173/323/212 181/381/212
f 168/383/101 169/316/101 175/384/101
f 59/194/213 112/195/213 168/383/213
f 134/252/2 126/219/2 122/233/2
f 135/296/3 127/235/3 121/25/3
f 123/242/9 130/27/9 138/197/9
f 127/235/5 128/239/146 114/236/5
f 128/239/8 129/241/8 115/240/147
f 120/245/10 129/244/10 137/385/10
f 148/287/9 153/71/9 157/81/9
f 138/197/11 131/32/11 123/242/11
f 137/385/12 132/247/12 120/245/12
f 131/386/13 133/250/13 117/249/13
f 132/247/14 134/252/14 119/248/14
f 133/250/15 135/253/15 118/251/15
f 160/295/28 151/77/28 147/280/28
f 161/200/29 152/68/29 146/282/29
f 151/201/4 153/71/4 149/284/4
f 152/68/30 154/73/30 139/283/30
f 154/73/31 155/75/31 140/286/31
f 142/24/11 157/81/11 163/202/11
f 155/65/32 156/289/32 141/288/32
f 177/332/214 166/328/214 181/348/214
f 156/289/33 158/291/33 145/290/33
f 163/88/34 159/293/34 142/89/34
f 158/291/35 160/295/35 144/292/35
f 159/293/36 161/296/36 143/294/36
f 52/102/215 165/312/215 113/205/215
f 55/105/105 167/314/105 77/206/105
f 176/387/106 168/315/106 175/388/106
f 57/107/106 168/315/106 176/387/106
f 112/195/216 70/208/216 169/316/216
f 169/316/217 70/208/217 170/317/217
f 174/389/218 165/321/218 170/320/218
f 113/210/219 165/324/219 68/121/219
f 68/211/174 174/326/174 70/124/174
f 166/328/220 164/322/220 167/390/220
f 176/331/221 171/330/221 170/320/221
f 170/320/222 166/328/222 177/332/222
f 190/345/223 193/349/223 191/346/223
f 195/352/224 179/334/224 178/333/224
f 167/391/58 164/311/58 77/135/58
f 166/392/225 182/393/225 181/394/225
f 97/159/117 184/339/117 81/139/117
f 85/143/61 187/342/181 96/157/61
f 99/161/226 89/147/226 188/343/226
f 192/347/227 191/346/227 194/350/227
f 190/345/228 177/332/228 181/348/228
f 180/335/229 189/351/229 176/331/229
f 194/350/230 193/349/230 188/353/230
f 188/353/231 177/332/231 194/350/231
f 180/335/232 177/332/232 178/333/232
f 188/353/233 189/351/233 195/352/233
f 177/332/234 188/353/234 178/333/234
f 176/387/61 189/344/181 186/341/61
f 186/341/61 57/107/74 176/387/61
f 189/344/235 89/147/235 187/342/235
f 181/381/236 66/119/236 185/340/236
f 185/340/129 193/354/195 181/381/78
f 184/339/237 98/160/237 193/354/237
f 98/160/238 99/161/238 193/354/238
f 198/357/199 197/356/198 203/395/239
f 200/360/240 196/359/240 198/396/240
f 203/395/241 197/362/241 201/361/241
f 198/397/242 203/365/242 200/364/242
f 199/369/243 197/368/243 196/398/243
f 205/371/244 199/358/244 200/360/244
f 201/222/245 202/373/245 206/372/245
f 206/376/246 200/364/246 201/366/246
f 202/367/247 199/369/247 207/184/247
f 67/187/248 172/319/248 64/114/248
f 182/380/249 172/319/249 183/379/249
f 175/384/250 169/316/250 171/318/250
f 168/383/251 112/195/251 169/316/251
f 125/238/4 126/21/4 130/27/4
