# Blender v2.74 (sub 0) OBJ File: 'car5.blend'
# www.blender.org
mtllib car5.mtl
o vehicleWagon_GEO_Cube.078
v 0.046525 0.080113 -0.057050
v 0.047348 0.089214 -0.054019
v 0.046326 0.088311 -0.064044
v 0.164532 0.059567 -0.054156
v 0.165190 0.059567 -0.033123
v 0.175011 0.043613 -0.033123
v 0.046669 0.080250 -0.065045
v 0.171413 0.044519 -0.062675
v 0.172953 0.040799 -0.067495
v 0.177882 0.038538 0.000000
v 0.163790 0.017169 -0.062346
v -0.164336 0.075703 -0.057614
v -0.077873 0.079070 -0.056371
v -0.015972 0.079147 -0.057614
v -0.165925 0.064614 -0.037648
v -0.165925 0.065045 -0.061509
v -0.165708 0.056102 -0.064779
v 0.175011 0.043613 -0.033123
v 0.176341 0.042706 0.000000
v 0.165190 0.059567 -0.033123
v 0.085847 0.075580 0.000000
v 0.169460 0.059567 0.000000
v -0.152592 0.020147 -0.063869
v -0.164336 0.075703 -0.035702
v -0.166642 0.075703 0.000000
v -0.153761 0.108056 0.000000
v -0.152781 0.108056 -0.036507
v -0.074506 0.111710 -0.036399
v -0.071093 0.112973 0.000000
v 0.168063 0.017169 0.000000
v -0.152592 0.020147 0.000000
v 0.085847 0.074891 -0.057617
v 0.164532 0.059567 -0.054156
v 0.171413 0.044519 -0.062675
v -0.019748 0.110103 -0.036399
v 0.077481 0.077264 -0.056298
v 0.025009 0.105017 -0.036399
v -0.013801 0.081034 -0.056354
v 0.024292 0.103047 -0.037680
v -0.017176 0.108070 -0.037638
v -0.018446 0.081118 -0.056308
v -0.075314 0.080747 -0.055398
v -0.021817 0.108290 -0.037718
v -0.071881 0.109848 -0.037683
v 0.082588 0.076760 -0.052622
v 0.082588 0.077450 0.000000
v 0.028271 0.103145 -0.033567
v 0.028271 0.103145 0.000000
v 0.023725 0.106305 0.000000
v -0.019101 0.111430 0.000000
v 0.052839 0.079721 -0.065038
v 0.046669 0.080250 -0.065045
v 0.051180 0.087887 -0.064047
v 0.055545 0.079585 -0.057047
v 0.046525 0.080113 -0.057050
v 0.047348 0.089214 -0.054019
v 0.053095 0.088794 -0.054022
v 0.053273 0.080008 -0.052724
v 0.048898 0.080218 -0.052727
v 0.049546 0.083746 -0.052167
v 0.053676 0.083323 -0.052171
v -0.168235 0.064187 0.000000
v -0.168014 0.054527 0.000000
v 0.046326 0.088311 -0.064044
v -0.152592 0.020147 -0.063869
v -0.152592 0.020147 0.000000
v -0.163986 0.025604 -0.063869
v -0.165708 0.056102 -0.064779
v -0.176149 0.043504 0.000000
v -0.173842 0.045765 -0.064779
v -0.168014 0.054527 0.000000
v -0.166292 0.025604 0.000000
v 0.132547 0.036913 -0.045867
v 0.132547 0.013147 -0.045867
v 0.135732 0.025030 -0.045867
v 0.100082 0.045611 -0.045867
v 0.111965 0.001264 -0.045867
v 0.111965 0.048797 -0.045867
v 0.123849 0.004449 -0.045867
v 0.123849 0.045611 -0.045867
v 0.100082 0.004449 -0.045867
v 0.091384 0.036913 -0.045867
v 0.091384 0.013147 -0.045867
v 0.088199 0.025030 -0.045867
v 0.091384 0.013147 -0.067295
v 0.132547 0.036913 -0.067295
v 0.135732 0.025030 -0.067295
v 0.132547 0.013147 -0.067295
v 0.088199 0.025030 -0.067295
v 0.100082 0.045611 -0.067295
v 0.111965 0.001264 -0.067295
v 0.111965 0.048797 -0.067295
v 0.100082 0.004449 -0.067295
v 0.123849 0.045611 -0.067295
v 0.111965 0.025030 -0.066326
v 0.123849 0.004449 -0.067295
v 0.091384 0.036913 -0.067295
v -0.085570 0.039049 -0.046970
v -0.085570 0.013616 -0.046970
v -0.082161 0.026332 -0.046970
v -0.120310 0.048359 -0.046970
v -0.107593 0.000900 -0.046970
v -0.107593 0.051765 -0.046970
v -0.094877 0.004309 -0.046970
v -0.094877 0.048359 -0.046970
v -0.120310 0.004309 -0.046970
v -0.129620 0.039049 -0.046970
v -0.129620 0.013616 -0.046970
v -0.133030 0.026332 -0.046970
v -0.129620 0.013616 -0.069903
v -0.085570 0.039049 -0.069903
v -0.133030 0.026332 -0.069903
v -0.082161 0.026332 -0.069903
v -0.085570 0.013616 -0.069903
v -0.094877 0.004309 -0.069903
v -0.129620 0.039049 -0.069903
v -0.107593 0.000900 -0.069903
v -0.107593 0.051765 -0.069903
v -0.120310 0.004309 -0.069903
v -0.094877 0.048359 -0.069903
v -0.107593 0.026332 -0.068867
v -0.120310 0.048359 -0.069903
v 0.082588 0.077450 0.000000
v 0.082588 0.076760 -0.052622
v 0.028271 0.103145 -0.033567
v 0.077481 0.077264 -0.056298
v -0.013801 0.081034 -0.056354
v 0.024292 0.103047 -0.037680
v -0.021817 0.108290 -0.037718
v -0.018446 0.081118 -0.056308
v -0.071881 0.109848 -0.037683
v 0.028271 0.103145 0.000000
v -0.017176 0.108070 -0.037638
v -0.075314 0.080747 -0.055398
v -0.164336 0.075703 -0.035702
v -0.164336 0.075703 -0.057614
v -0.165925 0.064614 -0.037648
v -0.165925 0.065045 -0.061509
v 0.046525 0.080113 0.057050
v 0.046326 0.088311 0.064044
v 0.047348 0.089214 0.054019
v 0.164532 0.059567 0.054156
v 0.175011 0.043613 0.033123
v 0.165190 0.059567 0.033123
v 0.046669 0.080250 0.065045
v 0.171413 0.044519 0.062675
v 0.172953 0.040799 0.067498
v 0.163790 0.017169 0.062346
v -0.164336 0.075703 0.057614
v -0.015972 0.079147 0.057614
v -0.077873 0.079070 0.056371
v -0.165925 0.064614 0.037648
v -0.165708 0.056102 0.064779
v -0.165925 0.065045 0.061510
v 0.175011 0.043613 0.033123
v 0.165190 0.059567 0.033123
v -0.152592 0.020147 0.063869
v -0.164336 0.075703 0.035702
v -0.152781 0.108056 0.036507
v -0.074506 0.111710 0.036399
v 0.085847 0.074891 0.057617
v 0.171413 0.044519 0.062675
v 0.164532 0.059567 0.054156
v -0.019748 0.110103 0.036399
v 0.025009 0.105017 0.036399
v 0.077481 0.077264 0.056298
v -0.013801 0.081034 0.056354
v 0.024292 0.103047 0.037680
v -0.017176 0.108070 0.037638
v -0.018446 0.081118 0.056308
v -0.075314 0.080747 0.055398
v -0.021817 0.108290 0.037718
v -0.071881 0.109848 0.037683
v 0.082588 0.076760 0.052622
v 0.028271 0.103145 0.033567
v 0.052839 0.079721 0.065038
v 0.051180 0.087887 0.064047
v 0.046669 0.080250 0.065045
v 0.055545 0.079585 0.057047
v 0.046525 0.080113 0.057050
v 0.047348 0.089214 0.054019
v 0.053095 0.088794 0.054023
v 0.053273 0.080008 0.052724
v 0.048898 0.080218 0.052727
v 0.049546 0.083746 0.052167
v 0.053676 0.083323 0.052171
v 0.046326 0.088311 0.064044
v -0.152592 0.020147 0.063869
v -0.163986 0.025604 0.063869
v -0.165708 0.056102 0.064779
v -0.173842 0.045765 0.064779
v 0.132547 0.036913 0.045867
v 0.135732 0.025030 0.045867
v 0.132547 0.013147 0.045867
v 0.100082 0.045611 0.045867
v 0.111965 0.048797 0.045867
v 0.111965 0.001264 0.045867
v 0.123849 0.004449 0.045867
v 0.123849 0.045611 0.045867
v 0.100082 0.004449 0.045867
v 0.091384 0.036913 0.045867
v 0.091384 0.013147 0.045867
v 0.088199 0.025030 0.045867
v 0.091384 0.013147 0.067295
v 0.132547 0.036913 0.067295
v 0.135732 0.025030 0.067295
v 0.132547 0.013147 0.067295
v 0.088199 0.025030 0.067295
v 0.100082 0.045611 0.067295
v 0.111965 0.001264 0.067295
v 0.111965 0.048797 0.067295
v 0.100082 0.004449 0.067295
v 0.123849 0.045611 0.067295
v 0.111965 0.025030 0.066326
v 0.123849 0.004449 0.067295
v 0.091384 0.036913 0.067295
v -0.085570 0.039049 0.046970
v -0.082161 0.026332 0.046970
v -0.085570 0.013616 0.046970
v -0.120310 0.048359 0.046970
v -0.107593 0.051765 0.046970
v -0.107593 0.000900 0.046970
v -0.094877 0.004309 0.046970
v -0.094877 0.048359 0.046970
v -0.120310 0.004309 0.046970
v -0.129620 0.039049 0.046970
v -0.129620 0.013616 0.046970
v -0.133030 0.026332 0.046970
v -0.129620 0.013616 0.069903
v -0.085570 0.039049 0.069903
v -0.133030 0.026332 0.069903
v -0.082161 0.026332 0.069903
v -0.085570 0.013616 0.069903
v -0.094877 0.004309 0.069903
v -0.129620 0.039049 0.069903
v -0.107593 0.000900 0.069903
v -0.107593 0.051765 0.069903
v -0.120310 0.004309 0.069903
v -0.094877 0.048359 0.069903
v -0.107593 0.026332 0.068867
v -0.120310 0.048359 0.069903
v 0.028271 0.103145 0.033567
v 0.082588 0.076760 0.052622
v 0.077481 0.077264 0.056298
v 0.024292 0.103047 0.037680
v -0.013801 0.081034 0.056354
v -0.021817 0.108290 0.037718
v -0.071881 0.109848 0.037683
v -0.018446 0.081118 0.056308
v -0.017176 0.108070 0.037638
v -0.075314 0.080747 0.055398
v -0.164336 0.075703 0.035702
v -0.165925 0.064614 0.037648
v -0.164336 0.075703 0.057614
v -0.165925 0.065045 0.061510
vt 0.970315 0.040278
vt 0.950702 0.046381
vt 0.953293 0.025004
vt 0.740121 0.952881
vt 0.740437 0.997829
vt 0.711979 0.997829
vt 0.970315 0.023190
vt 0.712135 0.934674
vt 0.309998 0.986482
vt 0.312331 0.842243
vt 0.363543 0.975479
vt 0.600577 0.721427
vt 0.591537 0.536724
vt 0.590406 0.404447
vt 0.177169 0.902963
vt 0.178081 0.953955
vt 0.159196 0.960941
vt 0.303156 0.913027
vt 0.304402 0.842243
vt 0.461698 0.007113
vt 0.395589 0.181849
vt 0.390787 0.000000
vt 0.643561 0.723994
vt 0.670097 0.000000
vt 0.719624 0.695266
vt 0.201075 0.898804
vt 0.200467 0.822507
vt 0.272388 0.822507
vt 0.272646 0.900524
vt 0.482515 0.530549
vt 0.487059 0.693872
vt 0.409219 0.697996
vt 0.404674 0.525893
vt 0.136323 0.000000
vt 0.136323 0.684072
vt 0.000000 0.684072
vt 0.150543 0.878325
vt 0.123947 0.709216
vt 0.150543 0.684072
vt 0.479457 0.414749
vt 0.597507 0.186784
vt 0.592387 0.204704
vt 0.530846 0.317332
vt 0.586129 0.399844
vt 0.535278 0.318829
vt 0.525382 0.407540
vt 0.586031 0.409771
vt 0.587750 0.531287
vt 0.201075 0.945630
vt 0.525016 0.417463
vt 0.522657 0.524477
vt 0.518519 0.530120
vt 0.520887 0.413075
vt 0.508061 0.186170
vt 0.395789 0.189398
vt 0.470679 0.311302
vt 0.476921 0.318699
vt 0.399058 0.313198
vt 0.399341 0.323935
vt 0.401771 0.415934
vt 0.259533 0.960941
vt 0.272646 0.962621
vt 0.262331 0.978642
vt 0.131258 0.887572
vt 0.150543 0.887557
vt 0.137059 0.904642
vt 0.576450 0.977326
vt 0.564257 0.978353
vt 0.566125 0.956695
vt 0.740437 0.938289
vt 0.758205 0.945300
vt 0.742586 0.959788
vt 0.136147 0.878328
vt 0.145494 0.878325
vt 0.155509 0.969810
vt 0.155252 0.960941
vt 0.167094 0.963044
vt 0.366572 0.919728
vt 0.367846 0.912087
vt 0.375062 0.923444
vt 0.751651 0.934674
vt 0.758698 0.936073
vt 0.274698 0.913027
vt 0.272646 0.842243
vt 0.303000 0.976182
vt 0.518519 0.178339
vt 0.506612 0.007310
vt 0.175655 0.822507
vt 0.361489 0.842243
vt 0.155252 0.822507
vt 0.719624 0.019112
vt 0.003250 0.009112
vt 1.000000 0.724624
vt 1.000000 0.921725
vt 0.990266 0.730322
vt 0.623966 0.724624
vt 0.272646 0.979981
vt 0.150276 0.904642
vt 0.576450 0.955826
vt 0.758698 0.962400
vt 0.167094 0.975359
vt 0.375062 0.902880
vt 0.527812 0.697320
vt 0.950702 0.000000
vt 0.950702 0.136490
vt 0.925641 0.000000
vt 0.450608 0.892249
vt 0.450608 0.973644
vt 0.431776 0.954345
vt 0.483203 0.836431
vt 0.477806 0.697996
vt 0.517911 0.699941
vt 0.457713 0.836431
vt 0.453769 0.697996
vt 0.920729 0.136490
vt 0.426736 0.906926
vt 0.518519 0.836431
vt 0.598925 0.914677
vt 0.647765 0.927747
vt 0.621590 0.927788
vt 0.598933 0.842866
vt 0.683521 0.891788
vt 0.585842 0.865649
vt 0.670430 0.914571
vt 0.585842 0.891936
vt 0.683521 0.865502
vt 0.621598 0.829691
vt 0.670438 0.842760
vt 0.647772 0.829649
vt 0.977208 0.978458
vt 0.977208 0.998280
vt 0.931471 0.998280
vt 0.631579 0.977808
vt 0.631579 0.999339
vt 0.585842 0.999339
vt 0.839996 0.998931
vt 0.839996 0.974571
vt 0.885733 0.998931
vt 0.950702 0.122102
vt 0.950702 0.098891
vt 0.996439 0.098891
vt 0.950702 0.072616
vt 0.996439 0.072616
vt 0.839996 0.948530
vt 0.885733 0.974571
vt 0.950702 0.050320
vt 0.839996 0.927788
vt 0.885733 0.927788
vt 0.977208 0.927788
vt 0.977208 0.952656
vt 0.931470 0.952656
vt 0.631579 0.927788
vt 0.631579 0.951617
vt 0.585842 0.951617
vt 0.931470 0.978458
vt 0.585842 0.977808
vt 0.801137 0.842760
vt 0.823802 0.829649
vt 0.836727 0.878759
vt 0.872650 0.914677
vt 0.849985 0.927788
vt 0.788054 0.865502
vt 0.885733 0.891936
vt 0.788054 0.891788
vt 0.885733 0.865649
vt 0.801145 0.914571
vt 0.872642 0.842866
vt 0.823810 0.927747
vt 0.849977 0.829691
vt 0.802059 0.815616
vt 0.854322 0.829604
vt 0.826312 0.829649
vt 0.802065 0.738771
vt 0.892586 0.791128
vt 0.788061 0.763152
vt 0.878575 0.815508
vt 0.788054 0.791280
vt 0.892586 0.762999
vt 0.826328 0.724669
vt 0.878590 0.738657
vt 0.854337 0.724624
vt 0.950702 0.143319
vt 0.999651 0.122102
vt 0.375062 0.925920
vt 0.424012 0.902880
vt 0.048950 0.985121
vt 0.048950 0.959053
vt 0.097900 0.959053
vt 0.920729 0.724624
vt 0.920729 0.699787
vt 0.969679 0.699787
vt 0.920729 0.671669
vt 0.969679 0.671669
vt 0.048950 0.931186
vt 0.920729 0.647812
vt 0.969679 0.647812
vt 0.048950 0.908984
vt 0.097900 0.931186
vt 0.950702 0.197541
vt 0.950702 0.170930
vt 0.999651 0.170930
vt 0.375062 0.979447
vt 0.375062 0.953946
vt 0.424012 0.953946
vt 0.999651 0.143319
vt 0.424012 0.925920
vt 0.592994 0.738657
vt 0.617247 0.724624
vt 0.631081 0.777177
vt 0.669525 0.815616
vt 0.645272 0.829649
vt 0.578988 0.762994
vt 0.683521 0.791274
vt 0.578996 0.791121
vt 0.683521 0.763145
vt 0.593000 0.815502
vt 0.669509 0.738766
vt 0.617262 0.829604
vt 0.645256 0.724669
vt 0.123692 0.796528
vt 0.123947 0.908984
vt 0.000000 0.868263
vt 0.578988 0.724624
vt 0.578988 0.919864
vt 0.525567 0.840525
vt 0.885733 0.948530
vt 0.996439 0.122102
vt 0.996439 0.050320
vt 0.931470 0.927788
vt 0.585842 0.927788
vt 0.097900 0.985121
vt 0.969679 0.724624
vt 0.097900 0.908984
vt 0.999651 0.197541
vt 0.424012 0.979447
vt 0.924602 0.401333
vt 0.985719 0.394507
vt 0.920729 0.508303
vt 0.000000 0.796528
vt 0.518519 0.929509
vt 0.985719 0.516035
vt 0.920729 0.571000
vt 0.921566 0.524182
vt 0.944705 0.567270
vt 0.944705 0.516270
vt 0.970315 0.006103
vt 0.953293 0.021377
vt 0.683837 0.952881
vt 0.683521 0.997829
vt 0.711823 0.934674
vt 0.309998 0.697996
vt 0.363543 0.709007
vt 0.801682 0.003197
vt 0.791511 0.320177
vt 0.792642 0.187900
vt 0.177169 0.742050
vt 0.159196 0.684072
vt 0.178081 0.691058
vt 0.303156 0.771458
vt 0.320352 0.010855
vt 0.844666 0.000631
vt 0.920729 0.029358
vt 0.871202 0.724624
vt 0.201075 0.746209
vt 0.272646 0.744489
vt 0.327188 0.534661
vt 0.331269 0.697996
vt 0.272646 0.684072
vt 0.450608 0.697996
vt 0.424012 0.867105
vt 0.324130 0.418861
vt 0.798612 0.537840
vt 0.731951 0.407293
vt 0.793492 0.519920
vt 0.787234 0.324780
vt 0.736382 0.405795
vt 0.726487 0.317084
vt 0.787136 0.314853
vt 0.788855 0.193338
vt 0.201075 0.699384
vt 0.726121 0.307161
vt 0.719624 0.194504
vt 0.723762 0.200147
vt 0.721991 0.311549
vt 0.283503 0.192114
vt 0.327436 0.315094
vt 0.321594 0.322811
vt 0.246421 0.979981
vt 0.249218 0.962281
vt 0.259533 0.978302
vt 0.583541 0.938755
vt 0.577741 0.955826
vt 0.564257 0.938741
vt 0.980875 0.517297
vt 0.970550 0.537928
vt 0.968682 0.516270
vt 0.769793 0.958785
vt 0.771941 0.937286
vt 0.787560 0.951774
vt 0.578653 0.929512
vt 0.569305 0.929509
vt 0.234836 0.966490
vt 0.246421 0.973256
vt 0.234578 0.975359
vt 0.366572 0.927159
vt 0.367846 0.934800
vt 0.781006 0.962400
vt 0.788054 0.961001
vt 0.274698 0.771458
vt 0.303000 0.708304
vt 0.272646 0.184848
vt 0.275511 0.013427
vt 0.920729 0.705512
vt 0.269396 0.009112
vt 0.995461 0.470082
vt 0.985720 0.464383
vt 0.995461 0.272980
vt 0.825070 0.000000
vt 0.564523 0.955826
vt 0.980875 0.538797
vt 0.788054 0.934674
vt 0.246421 0.960941
vt 0.375062 0.944007
vt 0.728917 0.027304
vt 0.950702 0.272980
vt 0.925641 0.272980
vt 0.993550 0.647812
vt 0.974718 0.585716
vt 0.993550 0.566417
vt 0.517911 0.972921
vt 0.477806 0.974865
vt 0.453769 0.974865
vt 0.969679 0.633135
vt 0.905670 0.737735
vt 0.928335 0.724624
vt 0.954509 0.724666
vt 0.905678 0.809546
vt 0.892586 0.786763
vt 0.990266 0.760625
vt 0.977175 0.737841
vt 0.892586 0.760477
vt 0.990266 0.786911
vt 0.928343 0.822722
vt 0.977183 0.809652
vt 0.954517 0.822763
vt 0.518519 0.980178
vt 0.564257 1.000000
vt 0.518519 1.000000
vt 0.683521 0.949319
vt 0.637784 0.927788
vt 0.683521 0.927788
vt 0.794258 0.998931
vt 0.931470 0.999570
vt 0.885733 0.976360
vt 0.931470 0.976360
vt 0.885733 0.950085
vt 0.931470 0.950084
vt 0.794258 0.974571
vt 0.794258 0.927788
vt 0.564257 0.954376
vt 0.518519 0.954376
vt 0.683521 0.999339
vt 0.637784 0.975510
vt 0.683521 0.975510
vt 0.564257 0.980178
vt 0.637784 0.949319
vt 0.898816 0.914677
vt 0.934406 0.878678
vt 0.921482 0.927788
vt 0.970329 0.842760
vt 0.947664 0.829649
vt 0.983413 0.865502
vt 0.983413 0.891788
vt 0.898824 0.842866
vt 0.970321 0.914571
vt 0.921490 0.829691
vt 0.947656 0.927747
vt 0.697526 0.738657
vt 0.721779 0.724624
vt 0.749789 0.724669
vt 0.697533 0.815502
vt 0.683528 0.791121
vt 0.788054 0.763145
vt 0.774042 0.738766
vt 0.683521 0.762994
vt 0.721795 0.829604
vt 0.774058 0.815616
vt 0.749804 0.829649
vt 0.950702 0.251763
vt 0.999651 0.272980
vt 0.000000 0.962511
vt 0.048950 0.985551
vt 0.000000 0.985551
vt 0.146850 0.935052
vt 0.097900 0.935052
vt 0.920729 0.622975
vt 0.969679 0.622975
vt 0.920729 0.594857
vt 0.969679 0.594857
vt 0.097900 0.962919
vt 0.969679 0.571000
vt 0.146850 0.962919
vt 0.999651 0.224151
vt 0.950702 0.224151
vt 0.000000 0.908984
vt 0.048950 0.934485
vt 0.000000 0.934485
vt 0.999651 0.251763
vt 0.048950 0.962511
vt 0.697526 0.920641
vt 0.735613 0.882122
vt 0.721779 0.934674
vt 0.774058 0.843682
vt 0.683521 0.896304
vt 0.788054 0.868024
vt 0.683528 0.868177
vt 0.788054 0.896153
vt 0.697533 0.843796
vt 0.774042 0.920533
vt 0.721795 0.829694
vt 0.749789 0.934629
vt 0.000000 0.724794
vt 0.123947 0.684072
vt 0.370590 0.786979
vt 0.424012 0.707640
vt 0.794258 0.948530
vt 0.885733 0.999570
vt 0.564257 0.929509
vt 0.637784 0.999339
vt 0.146850 0.908984
vt 0.146850 0.985121
vt 0.924602 0.387682
vt 0.920729 0.280712
vt 0.363543 0.697996
vt 0.985720 0.272980
vt 0.968682 0.519999
vt 0.945543 0.563088
vt 0.968682 0.571000
vn -0.993700 0.057500 0.095700
vn 0.851300 0.524100 -0.026600
vn -0.999000 -0.040200 -0.018600
vn 0.884300 0.457400 -0.093600
vn 0.923400 -0.375500 -0.080000
vn -0.015700 0.675100 -0.737600
vn -0.999700 -0.024100 -0.000400
vn 0.937700 0.346400 -0.028200
vn 0.188000 0.981900 -0.024200
vn -0.009300 -0.028700 -0.999500
vn -0.934800 0.352500 -0.042600
vn -0.053200 0.998500 -0.015500
vn -0.009400 -1.000000 -0.000000
vn -0.009300 -1.000000 -0.000000
vn -0.009400 -1.000000 0.000500
vn 0.141000 0.535800 -0.832500
vn 0.029500 0.998900 -0.037100
vn 0.029300 0.998900 -0.037400
vn 0.029800 0.998900 -0.037100
vn 0.073700 0.669400 -0.739300
vn 0.022700 0.538200 -0.842500
vn 0.063100 0.527700 -0.847100
vn -0.014300 0.567900 -0.823000
vn -0.017400 0.530500 -0.847500
vn -0.941700 0.336300 0.000000
vn 0.017700 0.585200 -0.810700
vn 0.028900 0.566800 -0.823300
vn 0.497900 0.867100 -0.011400
vn 0.454200 0.888600 0.064400
vn 0.571200 0.820800 0.000000
vn 0.112700 0.992900 -0.038700
vn 0.011400 0.122600 -0.992400
vn -0.058500 -0.998300 0.002800
vn 0.072900 0.992000 -0.103500
vn 0.926900 0.314100 -0.205400
vn -0.048200 -0.996200 0.072100
vn 0.034000 0.323600 0.945600
vn -0.874300 0.083500 0.478100
vn 0.862700 -0.183400 0.471300
vn 0.846500 0.521100 -0.109100
vn 0.872600 0.479800 -0.091500
vn 0.991200 0.112900 -0.068600
vn 0.193100 0.981100 -0.011700
vn 0.191400 0.981500 -0.006000
vn -0.988500 0.136700 -0.063900
vn 0.012900 0.308400 -0.951200
vn 0.906900 -0.416700 -0.062200
vn -0.008000 0.343800 -0.939000
vn -0.997900 -0.022500 -0.061400
vn -0.996100 0.081300 -0.033500
vn 0.002700 -0.214200 -0.976800
vn 0.004500 0.270200 -0.962800
vn -0.024700 0.551200 -0.834000
vn -0.009400 -1.000000 0.000600
vn 0.253200 0.803200 -0.539200
vn 0.029700 0.998900 -0.036900
vn 0.022800 0.545100 -0.838100
vn 0.065800 0.579200 -0.812500
vn 0.053900 0.569000 -0.820500
vn 0.016900 0.576100 -0.817200
vn 0.015300 0.566600 -0.823900
vn -0.000200 0.343300 -0.939200
vn 0.485700 0.874100 -0.010500
vn 0.426000 0.902700 -0.060300
vn 0.506000 0.862400 -0.012700
vn 0.118800 0.992400 -0.030900
vn 0.009900 0.123400 -0.992300
vn -0.085300 -0.996200 -0.018500
vn 0.086400 0.991400 -0.098100
vn 0.924000 0.225200 -0.309000
vn -0.058400 -0.996700 0.056300
vn 0.024700 0.329600 0.943800
vn -0.800500 -0.123200 0.586500
vn 0.956700 0.179200 0.229300
vn 0.925500 0.377700 -0.026800
vn -0.986700 0.151700 -0.058800
vn -0.016000 0.536800 -0.843500
vn -0.032400 0.523300 -0.851500
vn -0.432000 -0.901900 -0.000000
vn -0.014700 -0.030700 -0.999400
vn -0.896500 -0.440400 -0.047300
vn -0.785800 0.618400 -0.012900
vn -0.370000 -0.928900 -0.013400
vn 0.035300 -0.027800 -0.999000
vn -0.875500 -0.482100 -0.031600
vn -0.804600 0.593800 -0.007900
vn 0.000000 -0.000000 1.000000
vn -0.707100 -0.707100 -0.000000
vn 0.707100 0.707100 0.000000
vn -0.965900 -0.258900 -0.000000
vn 0.965900 0.258900 0.000000
vn 0.965900 -0.258900 -0.000000
vn -0.965900 0.258900 0.000000
vn 0.707100 -0.707100 -0.000000
vn -0.707100 0.707100 0.000000
vn 0.258900 -0.965900 -0.000000
vn -0.258900 0.965900 0.000000
vn -0.258900 -0.965900 -0.000000
vn 0.258900 0.965900 0.000000
vn -0.040800 -0.010900 -0.999100
vn 0.040800 0.010900 -0.999100
vn -0.029800 -0.029800 -0.999100
vn 0.029800 0.029800 -0.999100
vn -0.010900 -0.040800 -0.999100
vn 0.010900 0.040800 -0.999100
vn 0.010900 -0.040800 -0.999100
vn -0.010900 0.040800 -0.999100
vn 0.029800 -0.029800 -0.999100
vn -0.029800 0.029800 -0.999100
vn -0.040800 0.010900 -0.999100
vn 0.040800 -0.010900 -0.999100
vn -0.707000 -0.707200 -0.000000
vn 0.707200 0.707000 0.000000
vn -0.965900 -0.259000 -0.000000
vn 0.965900 0.259000 0.000000
vn 0.965900 -0.259000 -0.000000
vn -0.965900 0.259000 0.000000
vn 0.259000 -0.965900 -0.000000
vn -0.258700 0.966000 0.000000
vn -0.259000 -0.965900 -0.000000
vn 0.258700 0.966000 0.000000
vn -0.040700 -0.010900 -0.999100
vn 0.040700 0.010900 -0.999100
vn -0.010900 -0.040700 -0.999100
vn 0.010900 0.040700 -0.999100
vn 0.010900 -0.040700 -0.999100
vn -0.010900 0.040700 -0.999100
vn -0.040700 0.010900 -0.999100
vn 0.040700 -0.010900 -0.999100
vn 0.433600 0.901100 -0.011800
vn 0.026100 0.620000 -0.784100
vn 0.017000 0.566000 -0.824200
vn 0.427600 0.904000 0.000000
vn 0.068700 0.573600 -0.816200
vn -0.017100 0.521400 -0.853200
vn -0.989900 0.141900 0.000000
vn -0.989200 0.146800 0.002600
vn -0.993700 0.057500 -0.095700
vn 0.851300 0.524100 0.026600
vn -0.999000 -0.040200 0.018600
vn 0.884300 0.457400 0.093600
vn 0.923400 -0.375500 0.080000
vn -0.015700 0.675100 0.737600
vn -0.999700 -0.024100 0.000400
vn 0.937700 0.346400 0.028200
vn 0.188000 0.981900 0.024200
vn -0.009300 -0.028700 0.999500
vn -0.934800 0.352500 0.042600
vn -0.053200 0.998500 0.015500
vn -0.009400 -1.000000 -0.000500
vn 0.141000 0.535800 0.832500
vn 0.029500 0.998900 0.037100
vn 0.029800 0.998900 0.037100
vn 0.029300 0.998900 0.037400
vn 0.073700 0.669400 0.739300
vn 0.022700 0.538200 0.842500
vn 0.063100 0.527700 0.847100
vn -0.014300 0.567900 0.823000
vn -0.017400 0.530600 0.847400
vn 0.017700 0.585200 0.810700
vn 0.028900 0.566800 0.823300
vn 0.497900 0.867100 0.011400
vn 0.454200 0.888600 -0.064400
vn 0.112700 0.992900 0.038700
vn 0.011400 0.122600 0.992400
vn -0.058500 -0.998300 -0.002800
vn 0.072900 0.992000 0.103500
vn 0.926900 0.314100 0.205400
vn -0.048200 -0.996200 -0.072100
vn 0.034000 0.323600 -0.945600
vn -0.874300 0.083500 -0.478100
vn 0.862700 -0.183400 -0.471300
vn 0.846500 0.521100 0.109100
vn 0.872600 0.479800 0.091500
vn 0.991200 0.112900 0.068600
vn 0.193100 0.981100 0.011700
vn 0.191400 0.981500 0.006000
vn -0.988500 0.136700 0.063900
vn 0.012900 0.308500 0.951100
vn 0.906900 -0.416700 0.062200
vn -0.008000 0.343800 0.939000
vn -0.997900 -0.022500 0.061400
vn -0.996100 0.081300 0.033500
vn 0.002700 -0.214000 0.976800
vn 0.004500 0.270200 0.962800
vn -0.024700 0.551200 0.834000
vn -0.009400 -1.000000 -0.000600
vn 0.253300 0.803400 0.538900
vn 0.029700 0.998900 0.036900
vn 0.022800 0.545100 0.838100
vn 0.065800 0.579200 0.812500
vn 0.053900 0.569000 0.820500
vn 0.016900 0.576100 0.817200
vn 0.015300 0.566600 0.823900
vn -0.000200 0.343300 0.939200
vn 0.485700 0.874100 0.010500
vn 0.426000 0.902700 0.060300
vn 0.506000 0.862400 0.012700
vn 0.118800 0.992400 0.030900
vn 0.009900 0.123400 0.992300
vn -0.085300 -0.996200 0.018500
vn 0.086400 0.991400 0.098100
vn 0.924000 0.225200 0.309000
vn -0.058400 -0.996700 -0.056300
vn 0.024700 0.329600 -0.943800
vn -0.800500 -0.123200 -0.586500
vn 0.956700 0.179200 -0.229300
vn 0.925500 0.377700 0.026800
vn -0.986700 0.151700 0.058800
vn -0.016000 0.536800 0.843500
vn -0.032400 0.523300 0.851500
vn -0.014700 -0.030700 0.999400
vn -0.896500 -0.440400 0.047300
vn -0.785800 0.618400 0.012900
vn -0.370000 -0.928900 0.013400
vn 0.035300 -0.027800 0.999000
vn -0.875500 -0.482100 0.031600
vn -0.804600 0.593800 0.007900
vn 0.000000 0.000000 -1.000000
vn -0.040800 -0.010900 0.999100
vn 0.040800 0.010900 0.999100
vn -0.029800 -0.029800 0.999100
vn 0.029800 0.029800 0.999100
vn -0.010900 -0.040800 0.999100
vn 0.010900 0.040800 0.999100
vn 0.010900 -0.040800 0.999100
vn -0.010900 0.040800 0.999100
vn 0.029800 -0.029800 0.999100
vn -0.029800 0.029800 0.999100
vn -0.040800 0.010900 0.999100
vn 0.040800 -0.010900 0.999100
vn -0.040700 -0.010900 0.999100
vn 0.040700 0.010900 0.999100
vn -0.010900 -0.040700 0.999100
vn 0.010900 0.040700 0.999100
vn 0.010900 -0.040700 0.999100
vn -0.010900 0.040700 0.999100
vn -0.040700 0.010900 0.999100
vn 0.040700 -0.010900 0.999100
vn 0.433600 0.901100 0.011800
vn 0.026100 0.620000 0.784100
vn 0.017000 0.566000 0.824200
vn 0.068700 0.573600 0.816200
vn -0.017100 0.521400 0.853200
vn -0.989200 0.146800 -0.002600
usemtl vertexColorShader
s 1
f 1/1/1 2/2/1 3/3/1
f 4/4/2 5/5/2 6/6/2
f 7/7/3 1/1/3 3/3/3
f 8/8/4 4/4/4 6/6/4
f 9/9/5 10/10/5 11/11/5
f 12/12/6 13/13/6 14/14/6
f 15/15/7 16/16/7 17/17/7
f 18/18/8 19/19/8 10/10/8
f 20/20/9 21/21/9 22/22/9
f 17/23/10 9/24/10 23/25/10
f 24/26/11 25/27/11 26/28/11 27/29/11
f 28/30/12 27/31/12 26/32/12 29/33/12
f 30/34/13 31/35/14 23/36/15
f 32/37/16 33/38/16 34/39/16
f 35/40/17 28/30/18 29/33/19
f 32/41/20 36/42/20 37/43/20
f 38/44/21 36/42/21 14/14/21
f 39/45/22 40/46/22 37/43/22
f 40/46/23 38/44/23 14/14/23
f 41/47/24 14/14/24 13/13/24 42/48/24
f 12/49/25 24/26/25 27/29/25
f 43/50/26 44/51/26 28/52/26
f 41/47/27 43/50/27 35/53/27
f 45/54/28 46/55/28 21/21/28
f 47/56/29 45/54/29 37/57/29
f 48/58/30 47/56/30 49/59/30
f 37/57/31 35/40/31 50/60/31
f 51/61/32 52/62/32 53/63/32
f 54/64/33 55/65/33 51/66/33
f 56/67/34 57/68/34 53/69/34
f 57/70/35 54/71/35 53/72/35
f 58/73/36 59/74/36 54/64/36
f 60/75/37 61/76/37 57/77/37
f 59/78/38 60/79/38 55/80/38
f 61/81/39 58/82/39 54/71/39
f 20/83/40 22/84/40 18/18/40
f 34/85/41 18/18/41 9/9/41
f 9/9/42 18/18/42 10/10/42
f 32/86/43 21/21/43 20/20/43
f 33/87/44 32/86/44 20/20/44
f 25/27/45 24/26/45 62/88/45
f 14/14/46 32/41/46 9/24/46
f 10/10/47 30/89/47 11/11/47
f 12/12/48 14/14/48 17/23/48
f 62/88/49 15/15/49 63/90/49
f 15/15/50 17/17/50 63/90/50
f 9/24/51 11/91/51 23/25/51
f 17/23/52 14/14/52 9/24/52
f 36/42/53 39/45/53 37/43/53
f 11/92/54 30/34/13 23/36/15
f 9/93/55 32/94/55 34/95/55
f 50/60/56 35/40/17 29/33/19
f 36/42/57 32/41/57 14/14/57
f 40/46/58 35/53/58 37/43/58
f 35/53/59 40/46/59 14/14/59
f 35/53/60 43/50/60 28/52/60
f 14/14/61 41/47/61 35/53/61
f 12/12/62 17/23/62 16/96/62
f 32/86/63 45/54/63 21/21/63
f 45/54/64 32/86/64 37/57/64
f 47/56/65 37/57/65 49/59/65
f 49/59/66 37/57/66 50/60/66
f 52/62/67 64/97/67 53/63/67
f 55/65/68 52/98/68 51/66/68
f 64/99/69 56/67/69 53/69/69
f 54/71/70 51/100/70 53/72/70
f 59/74/71 55/65/71 54/64/71
f 56/101/72 60/75/72 57/77/72
f 60/79/73 56/102/73 55/80/73
f 57/70/74 61/81/74 54/71/74
f 22/84/75 19/19/75 18/18/75
f 24/26/76 15/15/76 62/88/76
f 27/103/77 28/52/77 13/13/77 12/12/77
f 44/51/78 42/48/78 13/13/78 28/52/78
f 65/104/79 66/105/79 67/106/79
f 68/107/80 65/108/80 67/109/80
f 69/110/81 70/111/81 67/112/81
f 71/113/82 68/114/82 70/111/82
f 66/105/83 72/115/83 67/106/83
f 70/116/84 68/107/84 67/109/84
f 72/117/85 69/110/85 67/112/85
f 69/110/86 71/113/86 70/111/86
f 73/118/87 74/119/87 75/120/87
f 76/121/87 77/122/87 78/123/87
f 77/122/87 79/124/87 78/123/87
f 78/123/87 79/124/87 80/125/87
f 79/124/87 74/119/87 80/125/87
f 80/125/87 74/119/87 73/118/87
f 76/121/87 81/126/87 77/122/87
f 82/127/87 81/126/87 76/121/87
f 82/127/87 83/128/87 81/126/87
f 84/129/87 83/128/87 82/127/87
f 81/130/88 83/131/88 85/132/88
f 80/133/89 73/134/89 86/135/89
f 83/136/90 84/137/90 85/138/90
f 73/139/91 75/140/91 87/141/91
f 75/140/92 74/142/92 88/143/92
f 84/137/93 82/144/93 89/145/93
f 74/142/94 79/146/94 88/143/94
f 82/144/95 76/147/95 90/148/95
f 79/149/96 77/150/96 91/151/96
f 76/152/97 78/153/97 92/154/97
f 77/150/98 81/130/98 93/155/98
f 78/153/99 80/133/99 94/156/99
f 86/157/100 87/158/100 95/159/100
f 85/160/101 89/161/101 95/159/101
f 94/162/102 86/157/102 95/159/102
f 93/163/103 85/160/103 95/159/103
f 92/164/104 94/162/104 95/159/104
f 91/165/105 93/163/105 95/159/105
f 90/166/106 92/164/106 95/159/106
f 96/167/107 91/165/107 95/159/107
f 97/168/108 90/166/108 95/159/108
f 88/169/109 96/167/109 95/159/109
f 87/158/110 88/169/110 95/159/110
f 89/161/111 97/168/111 95/159/111
f 98/170/87 99/171/87 100/172/87
f 101/173/87 102/174/87 103/175/87
f 102/174/87 104/176/87 103/175/87
f 103/175/87 104/176/87 105/177/87
f 104/176/87 99/171/87 105/177/87
f 105/177/87 99/171/87 98/170/87
f 101/173/87 106/178/87 102/174/87
f 107/179/87 106/178/87 101/173/87
f 107/179/87 108/180/87 106/178/87
f 109/181/87 108/180/87 107/179/87
f 106/182/112 108/139/112 110/183/112
f 105/184/113 98/102/113 111/185/113
f 108/186/114 109/187/114 112/188/114
f 98/189/115 100/190/115 113/191/115
f 100/190/116 99/192/116 114/193/116
f 109/187/117 107/194/117 112/188/117
f 99/192/94 104/195/94 115/196/94
f 107/194/95 101/197/95 116/198/95
f 104/199/118 102/200/118 117/201/118
f 101/202/119 103/203/119 118/204/119
f 102/200/120 106/182/120 119/205/120
f 103/203/121 105/184/121 120/206/121
f 111/207/122 113/208/122 121/209/122
f 110/210/123 112/211/123 121/209/123
f 120/212/102 111/207/102 121/209/102
f 119/213/103 110/210/103 121/209/103
f 118/214/124 120/212/124 121/209/124
f 117/215/125 119/213/125 121/209/125
f 122/216/126 118/214/126 121/209/126
f 115/217/127 117/215/127 121/209/127
f 116/218/108 122/216/108 121/209/108
f 114/219/109 115/217/109 121/209/109
f 113/208/128 114/219/128 121/209/128
f 112/211/129 116/218/129 121/209/129
f 123/220/130 124/221/130 125/222/130
f 126/223/131 127/224/131 128/225/131
f 93/155/88 81/130/88 85/132/88
f 94/156/89 80/133/89 86/135/89
f 82/144/93 97/226/93 89/145/93
f 86/227/91 73/139/91 87/141/91
f 87/141/92 75/140/92 88/143/92
f 79/146/94 96/228/94 88/143/94
f 107/194/117 116/198/117 112/188/117
f 97/226/95 82/144/95 90/148/95
f 96/229/96 79/149/96 91/151/96
f 90/230/97 76/152/97 92/154/97
f 91/151/98 77/150/98 93/155/98
f 92/154/99 78/153/99 94/156/99
f 119/205/112 106/182/112 110/183/112
f 120/206/113 105/184/113 111/185/113
f 110/231/114 108/186/114 112/188/114
f 111/232/115 98/189/115 113/191/115
f 113/191/116 100/190/116 114/193/116
f 101/197/95 122/233/95 116/198/95
f 114/193/94 99/192/94 115/196/94
f 115/234/118 104/199/118 117/201/118
f 122/235/119 101/202/119 118/204/119
f 117/201/120 102/200/120 119/205/120
f 118/204/121 103/203/121 120/206/121
f 129/236/132 130/237/132 131/238/132
f 132/239/133 123/220/133 125/222/133
f 127/224/134 133/240/134 128/225/134
f 84/137/90 89/145/90 85/138/90
f 131/238/135 130/237/135 134/241/135
f 135/242/136 136/243/136 137/244/136
f 136/243/137 138/245/137 137/244/137
f 139/246/138 140/247/138 141/104/138
f 142/248/139 143/6/139 144/249/139
f 145/7/140 140/247/140 139/246/140
f 146/250/141 143/6/141 142/248/141
f 147/251/142 148/252/142 10/10/142
f 149/253/143 150/254/143 151/255/143
f 152/256/144 153/257/144 154/258/144
f 155/259/145 10/10/145 19/19/145
f 156/260/146 22/22/146 21/21/146
f 153/261/147 157/262/147 147/263/147
f 158/264/148 159/265/148 26/28/148 25/27/148
f 160/266/149 29/33/149 26/32/149 159/267/149
f 30/34/13 157/268/150 31/35/14
f 161/269/151 162/107/151 163/270/151
f 164/271/152 29/33/153 160/266/154
f 161/272/155 165/273/155 166/274/155
f 167/275/156 150/254/156 166/274/156
f 168/276/157 165/273/157 169/277/157
f 169/277/158 150/254/158 167/275/158
f 170/278/159 171/279/159 151/255/159 150/254/159
f 149/280/25 159/265/25 158/264/25
f 172/281/160 160/282/160 173/283/160
f 170/278/161 164/284/161 172/281/161
f 174/285/162 21/21/162 46/55/162
f 175/286/163 165/287/163 174/285/163
f 48/58/30 49/59/30 175/286/30
f 165/287/164 50/60/164 164/271/164
f 176/288/165 177/289/165 178/290/165
f 179/291/166 176/292/166 180/293/166
f 181/294/167 177/295/167 182/296/167
f 182/297/168 177/298/168 179/299/168
f 183/300/169 179/291/169 184/301/169
f 185/302/170 182/303/170 186/304/170
f 184/305/171 180/80/171 185/306/171
f 186/307/172 179/299/172 183/308/172
f 156/309/173 155/259/173 22/84/173
f 162/310/174 147/251/174 155/259/174
f 147/251/175 10/10/175 155/259/175
f 161/311/176 156/260/176 21/21/176
f 163/312/177 156/260/177 161/311/177
f 25/27/178 62/88/178 158/264/178
f 150/254/179 147/263/179 161/272/179
f 10/10/180 148/252/180 30/89/180
f 149/253/181 153/261/181 150/254/181
f 62/88/182 63/90/182 152/256/182
f 152/256/183 63/90/183 153/257/183
f 147/263/184 157/262/184 148/313/184
f 153/261/185 147/263/185 150/254/185
f 166/274/186 165/273/186 168/276/186
f 148/314/187 157/268/150 30/34/13
f 147/315/188 162/316/188 161/317/188
f 50/60/189 29/33/153 164/271/152
f 166/274/190 150/254/190 161/272/190
f 169/277/191 165/273/191 164/284/191
f 164/284/192 150/254/192 169/277/192
f 164/284/193 160/282/193 172/281/193
f 150/254/194 164/284/194 170/278/194
f 149/253/195 154/318/195 153/261/195
f 161/311/196 21/21/196 174/285/196
f 174/285/197 165/287/197 161/311/197
f 175/286/198 49/59/198 165/287/198
f 49/59/199 50/60/199 165/287/199
f 178/290/200 177/289/200 187/61/200
f 180/293/201 176/292/201 178/319/201
f 187/320/202 177/295/202 181/294/202
f 179/299/203 177/298/203 176/321/203
f 184/301/204 179/291/204 180/293/204
f 181/322/205 182/303/205 185/302/205
f 185/306/206 180/80/206 181/323/206
f 182/297/207 179/299/207 186/307/207
f 22/84/208 155/259/208 19/19/208
f 158/264/209 62/88/209 152/256/209
f 159/324/210 149/253/210 151/255/210 160/282/210
f 173/283/211 160/282/211 151/255/211 171/279/211
f 188/325/79 189/326/79 66/105/79
f 190/327/212 189/328/212 188/329/212
f 69/110/213 189/330/213 191/331/213
f 71/113/214 191/331/214 190/332/214
f 66/105/215 189/326/215 72/115/215
f 191/333/216 189/328/216 190/327/216
f 72/117/217 189/330/217 69/110/217
f 69/110/218 191/331/218 71/113/218
f 192/334/219 193/335/219 194/336/219
f 195/337/219 196/338/219 197/339/219
f 197/339/219 196/338/219 198/340/219
f 196/338/219 199/341/219 198/340/219
f 198/340/219 199/341/219 194/336/219
f 199/341/219 192/334/219 194/336/219
f 195/337/219 197/339/219 200/342/219
f 201/343/219 195/337/219 200/342/219
f 201/343/219 200/342/219 202/344/219
f 203/345/219 201/343/219 202/344/219
f 200/346/88 204/347/88 202/348/88
f 199/349/89 205/350/89 192/351/89
f 202/136/90 204/352/90 203/137/90
f 192/353/91 206/354/91 193/355/91
f 193/355/92 207/356/92 194/357/92
f 203/137/93 208/358/93 201/144/93
f 194/357/94 207/356/94 198/229/94
f 201/144/95 209/359/95 195/147/95
f 198/240/96 210/360/96 197/361/96
f 195/362/97 211/363/97 196/364/97
f 197/361/98 212/365/98 200/346/98
f 196/364/99 213/366/99 199/349/99
f 205/367/220 214/368/220 206/369/220
f 204/370/221 214/368/221 208/371/221
f 213/163/222 214/368/222 205/367/222
f 212/372/223 214/368/223 204/370/223
f 211/165/224 214/368/224 213/163/224
f 210/373/225 214/368/225 212/372/225
f 209/374/226 214/368/226 211/165/226
f 215/375/227 214/368/227 210/373/227
f 216/376/228 214/368/228 209/374/228
f 207/377/229 214/368/229 215/375/229
f 206/369/230 214/368/230 207/377/230
f 208/371/231 214/368/231 216/376/231
f 217/378/219 218/379/219 219/380/219
f 220/381/219 221/382/219 222/383/219
f 222/383/219 221/382/219 223/384/219
f 221/382/219 224/385/219 223/384/219
f 223/384/219 224/385/219 219/380/219
f 224/385/219 217/378/219 219/380/219
f 220/381/219 222/383/219 225/177/219
f 226/386/219 220/381/219 225/177/219
f 226/386/219 225/177/219 227/387/219
f 228/388/219 226/386/219 227/387/219
f 225/389/112 229/390/112 227/325/112
f 224/391/113 230/392/113 217/393/113
f 227/233/114 231/394/114 228/395/114
f 217/196/115 232/396/115 218/397/115
f 218/397/116 233/398/116 219/399/116
f 228/395/117 231/394/117 226/400/117
f 219/399/94 234/242/94 223/401/94
f 226/400/95 235/402/95 220/231/95
f 223/199/118 236/403/118 222/404/118
f 220/405/119 237/406/119 221/407/119
f 222/404/120 238/408/120 225/389/120
f 221/407/121 239/409/121 224/391/121
f 230/410/232 240/411/232 232/412/232
f 229/413/233 240/411/233 231/388/233
f 239/414/222 240/411/222 230/410/222
f 238/415/223 240/411/223 229/413/223
f 237/416/234 240/411/234 239/414/234
f 236/417/235 240/411/235 238/415/235
f 241/418/236 240/411/236 237/416/236
f 234/419/237 240/411/237 236/417/237
f 235/420/228 240/411/228 241/418/228
f 233/421/229 240/411/229 234/419/229
f 232/412/238 240/411/238 233/421/238
f 231/388/239 240/411/239 235/420/239
f 123/220/240 242/422/240 243/423/240
f 244/185/241 245/424/241 246/425/241
f 212/365/88 204/347/88 200/346/88
f 213/366/89 205/350/89 199/349/89
f 201/144/93 208/358/93 216/426/93
f 205/427/91 206/354/91 192/353/91
f 206/354/92 207/356/92 193/355/92
f 198/229/94 207/356/94 215/148/94
f 226/400/117 231/394/117 235/402/117
f 216/426/95 209/359/95 201/144/95
f 215/428/96 210/360/96 198/240/96
f 209/429/97 211/363/97 195/362/97
f 210/360/98 212/365/98 197/361/98
f 211/363/99 213/366/99 196/364/99
f 238/408/112 229/390/112 225/389/112
f 239/409/113 230/392/113 224/391/113
f 229/430/114 231/394/114 227/233/114
f 230/195/115 232/396/115 217/196/115
f 232/396/116 233/398/116 218/397/116
f 220/231/95 235/402/95 241/431/95
f 233/398/94 234/242/94 219/399/94
f 234/234/118 236/403/118 223/199/118
f 241/197/119 237/406/119 220/405/119
f 236/403/120 238/408/120 222/404/120
f 237/406/121 239/409/121 221/407/121
f 247/432/242 248/433/242 249/237/242
f 132/239/133 242/422/133 123/220/133
f 246/425/243 245/424/243 250/434/243
f 203/137/90 204/352/90 208/358/90
f 248/433/244 251/435/244 249/237/244
f 252/245/136 253/436/136 254/437/136
f 254/437/245 253/436/245 255/438/245
