# Blender v2.74 (sub 0) OBJ File: 'police.blend'
# www.blender.org
mtllib police.mtl
o vehiclePolice_GEO_Cube.054
v -0.026600 0.123269 -0.037899
v -0.026600 0.123591 0.000000
v -0.040523 0.123591 0.000000
v -0.040523 0.123269 -0.037899
v -0.026149 0.125461 -0.037958
v -0.041214 0.126625 -0.037991
v -0.041181 0.131637 -0.036908
v -0.030385 0.131637 -0.036908
v -0.026149 0.125805 0.000000
v -0.041214 0.126977 0.000000
v -0.041181 0.131988 0.000000
v -0.030385 0.131988 0.000000
v -0.026600 0.123269 0.037899
v -0.040523 0.123269 0.037899
v -0.026149 0.125461 0.037958
v -0.030385 0.131637 0.036908
v -0.041181 0.131637 0.036908
v -0.041214 0.126625 0.037991
v 0.108478 0.038978 -0.048433
v 0.108478 0.013882 -0.048433
v 0.111841 0.026430 -0.048433
v 0.074197 0.048163 -0.048433
v 0.086745 0.001334 -0.048433
v 0.086745 0.051526 -0.048433
v 0.099293 0.004698 -0.048433
v 0.099293 0.048163 -0.048433
v 0.074197 0.004698 -0.048433
v 0.065009 0.038978 -0.048433
v 0.065009 0.013882 -0.048433
v 0.061650 0.026430 -0.048433
v 0.065009 0.013882 -0.071060
v 0.108478 0.038978 -0.071060
v 0.111841 0.026430 -0.071060
v 0.108478 0.013882 -0.071060
v 0.061650 0.026430 -0.071060
v 0.074197 0.048163 -0.071060
v 0.086745 0.001334 -0.071060
v 0.086745 0.051526 -0.071060
v 0.074197 0.004698 -0.071060
v 0.099293 0.048163 -0.071060
v 0.086745 0.026430 -0.070036
v 0.099293 0.004698 -0.071060
v 0.065009 0.038978 -0.071060
v -0.090356 0.041233 -0.049597
v -0.090356 0.014377 -0.049597
v -0.086757 0.027805 -0.049597
v -0.127039 0.051064 -0.049597
v -0.113612 0.000950 -0.049597
v -0.113612 0.054660 -0.049597
v -0.100184 0.004550 -0.049597
v -0.100184 0.051064 -0.049597
v -0.127039 0.004550 -0.049597
v -0.136871 0.041233 -0.049597
v -0.136871 0.014377 -0.049597
v -0.140471 0.027805 -0.049597
v -0.136871 0.014378 -0.073813
v -0.090356 0.041233 -0.073813
v -0.140471 0.027805 -0.073813
v -0.086757 0.027805 -0.073813
v -0.090356 0.014378 -0.073813
v -0.100184 0.004550 -0.073813
v -0.136871 0.041233 -0.073813
v -0.113612 0.000950 -0.073813
v -0.113612 0.054660 -0.073813
v -0.127039 0.004550 -0.073813
v -0.100184 0.051064 -0.073813
v -0.113612 0.027805 -0.072719
v -0.127039 0.051064 -0.073813
v -0.169203 0.018661 -0.067441
v -0.169203 0.018661 0.000000
v -0.185510 0.027036 -0.067441
v 0.158459 0.047072 -0.071270
v 0.159154 0.044685 0.000000
v 0.154442 0.018129 -0.065833
v -0.111675 0.089225 0.000000
v -0.181127 0.087684 -0.037699
v -0.183563 0.087684 0.000000
v -0.182809 0.070849 -0.039754
v -0.182809 0.071499 -0.064950
v -0.182579 0.057920 -0.068402
v 0.157528 0.050044 -0.034975
v 0.157528 0.049087 0.000000
v 0.146602 0.066890 -0.034975
v 0.081257 0.078925 0.000000
v 0.146602 0.066890 0.000000
v -0.193368 0.047601 0.000000
v -0.190932 0.049989 -0.068402
v -0.185015 0.055533 0.000000
v -0.073721 0.054494 -0.069308
v 0.081837 0.049601 -0.070605
v -0.073776 0.018502 -0.066964
v -0.181127 0.087684 -0.060836
v -0.111675 0.089225 -0.060836
v -0.095531 0.088039 -0.060836
v -0.028585 0.083693 -0.060836
v -0.091070 0.081966 -0.062370
v -0.031198 0.085770 -0.059458
v -0.100742 0.090153 -0.059524
v -0.081734 0.118328 -0.039791
v 0.154442 0.018129 0.000000
v 0.081257 0.078197 -0.060836
v 0.145911 0.066890 -0.057185
v 0.156833 0.051001 -0.066181
v 0.077816 0.080902 0.000000
v 0.077816 0.080174 -0.055566
v 0.017135 0.115016 -0.035445
v -0.107306 0.091983 -0.051060
v -0.107306 0.091983 0.000000
v -0.085807 0.118032 -0.032821
v -0.033904 0.121033 -0.038435
v -0.082258 0.120290 -0.038435
v -0.080902 0.121628 0.000000
v 0.072423 0.080706 -0.059447
v -0.026293 0.085681 -0.059506
v 0.012932 0.114913 -0.039788
v 0.013690 0.116994 -0.038435
v -0.031187 0.118886 -0.039743
v -0.036088 0.119123 -0.039828
v -0.085807 0.118032 0.000000
v 0.017135 0.115016 0.000000
v 0.012334 0.118357 0.000000
v -0.033220 0.122438 0.000000
v 0.053603 0.079564 -0.074756
v 0.045313 0.080189 -0.074763
v 0.051375 0.089237 -0.073425
v 0.057240 0.079401 -0.064019
v 0.045121 0.080026 -0.064026
v 0.046222 0.090807 -0.059949
v 0.053947 0.090308 -0.059953
v 0.044855 0.089736 -0.073421
v 0.054187 0.079900 -0.058208
v 0.048311 0.080152 -0.058216
v 0.049175 0.084328 -0.057462
v 0.054727 0.083829 -0.057469
v -0.185244 0.070198 0.000000
v -0.187946 0.027036 0.000000
v 0.076644 0.018255 -0.066218
v -0.037404 0.125576 0.000000
v -0.037404 0.123269 -0.034805
v -0.037404 0.120209 -0.034099
v -0.037404 0.120982 0.000000
v -0.029720 0.123269 -0.034805
v -0.029720 0.120209 -0.034099
v -0.029720 0.125576 0.000000
v -0.029720 0.120982 0.000000
v 0.108478 0.038978 0.048433
v 0.111841 0.026430 0.048433
v 0.108478 0.013882 0.048433
v 0.074197 0.048163 0.048433
v 0.086745 0.051526 0.048433
v 0.086745 0.001334 0.048433
v 0.099293 0.004698 0.048433
v 0.099293 0.048163 0.048433
v 0.074197 0.004698 0.048433
v 0.065009 0.038978 0.048433
v 0.065009 0.013882 0.048433
v 0.061650 0.026430 0.048433
v 0.065009 0.013882 0.071060
v 0.108478 0.038978 0.071060
v 0.111841 0.026430 0.071060
v 0.108478 0.013882 0.071060
v 0.061650 0.026430 0.071060
v 0.074197 0.048163 0.071060
v 0.086745 0.001334 0.071060
v 0.086745 0.051526 0.071060
v 0.074197 0.004698 0.071060
v 0.099293 0.048163 0.071060
v 0.086745 0.026430 0.070036
v 0.099293 0.004698 0.071060
v 0.065009 0.038978 0.071060
v -0.090356 0.041233 0.049597
v -0.086757 0.027805 0.049597
v -0.090356 0.014377 0.049597
v -0.127039 0.051064 0.049597
v -0.113612 0.054660 0.049597
v -0.113612 0.000950 0.049597
v -0.100184 0.004550 0.049597
v -0.100184 0.051064 0.049597
v -0.127039 0.004550 0.049597
v -0.136871 0.041233 0.049597
v -0.136871 0.014377 0.049597
v -0.140471 0.027805 0.049597
v -0.136871 0.014377 0.073813
v -0.090356 0.041233 0.073813
v -0.140471 0.027805 0.073813
v -0.086757 0.027805 0.073813
v -0.090356 0.014377 0.073813
v -0.100184 0.004550 0.073813
v -0.136871 0.041233 0.073813
v -0.113612 0.000950 0.073813
v -0.113612 0.054660 0.073813
v -0.127039 0.004550 0.073813
v -0.100184 0.051064 0.073813
v -0.113612 0.027805 0.072719
v -0.127039 0.051064 0.073813
v -0.169203 0.018661 0.067441
v -0.185510 0.027036 0.067441
v 0.158459 0.047072 0.071270
v 0.154442 0.018129 0.065833
v -0.181127 0.087684 0.037699
v -0.182809 0.070849 0.039754
v -0.182579 0.057920 0.068402
v -0.182809 0.071499 0.064950
v 0.157528 0.050044 0.034975
v 0.146602 0.066890 0.034975
v -0.190932 0.049989 0.068402
v -0.073721 0.054494 0.069308
v -0.073776 0.018502 0.066964
v 0.081837 0.049600 0.070605
v -0.181127 0.087684 0.060836
v -0.111675 0.089225 0.060836
v -0.095531 0.088039 0.060836
v -0.091070 0.081966 0.062370
v -0.028585 0.083693 0.060836
v -0.031198 0.085770 0.059458
v -0.081734 0.118328 0.039791
v -0.100742 0.090153 0.059524
v 0.081257 0.078197 0.060836
v 0.156833 0.051001 0.066181
v 0.145911 0.066890 0.057185
v 0.017135 0.115016 0.035445
v 0.077816 0.080174 0.055566
v -0.107306 0.091983 0.051060
v -0.085807 0.118032 0.032821
v -0.033904 0.121033 0.038435
v -0.082258 0.120290 0.038435
v 0.072423 0.080706 0.059447
v 0.012932 0.114913 0.039788
v -0.026293 0.085681 0.059506
v 0.013690 0.116994 0.038435
v -0.031187 0.118886 0.039743
v -0.036088 0.119123 0.039828
v 0.053603 0.079564 0.074756
v 0.051375 0.089237 0.073425
v 0.045313 0.080189 0.074763
v 0.057240 0.079401 0.064019
v 0.045121 0.080026 0.064026
v 0.046222 0.090807 0.059949
v 0.053947 0.090308 0.059953
v 0.044855 0.089735 0.073421
v 0.054187 0.079900 0.058209
v 0.048311 0.080152 0.058216
v 0.049175 0.084328 0.057462
v 0.054727 0.083829 0.057469
v 0.076644 0.018255 0.066218
v -0.037404 0.120209 0.034099
v -0.037404 0.123269 0.034805
v -0.029720 0.120209 0.034099
v -0.029720 0.123269 0.034805
vt 0.155608 0.714372
vt 0.155563 0.793482
vt 0.126423 0.793482
vt 0.126467 0.714372
vt 0.923588 0.829339
vt 0.926008 0.797891
vt 0.936704 0.797966
vt 0.936704 0.820502
vt 0.997131 0.079233
vt 0.997804 0.158343
vt 0.993274 0.158467
vt 0.992554 0.079233
vt 0.997340 0.158665
vt 0.996666 0.237774
vt 0.989575 0.237769
vt 0.990312 0.158467
vt 0.919031 0.828401
vt 0.919031 0.799339
vt 1.000000 0.983417
vt 0.977674 0.983452
vt 0.977551 0.906406
vt 0.999877 0.906371
vt 0.979798 0.156275
vt 0.979063 0.079233
vt 0.979063 0.237769
vt 0.979799 0.160727
vt 0.155608 0.872592
vt 0.126467 0.872592
vt 0.905910 0.797891
vt 0.919031 0.806729
vt 0.919031 0.829264
vt 0.908328 0.829339
vt 0.993274 0.000000
vt 0.997804 0.000123
vt 0.997340 0.316884
vt 0.990312 0.317071
vt 0.901357 0.798829
vt 0.901357 0.827891
vt 1.000000 0.829339
vt 0.977674 0.829374
vt 0.979798 0.002191
vt 0.979799 0.314810
vt 0.384688 0.851119
vt 0.334162 0.837697
vt 0.361240 0.837624
vt 0.384680 0.925178
vt 0.297171 0.874823
vt 0.398223 0.901666
vt 0.310714 0.851311
vt 0.398223 0.874557
vt 0.297171 0.901932
vt 0.361230 0.938799
vt 0.310704 0.925378
vt 0.334154 0.938865
vt 0.926757 0.958387
vt 0.926757 0.978786
vt 0.879296 0.978786
vt 0.926757 0.926654
vt 0.926883 0.904545
vt 0.974341 0.904504
vt 0.611910 0.987088
vt 0.611964 0.960948
vt 0.659370 0.987135
vt 0.822298 0.925403
vt 0.822298 0.951978
vt 0.774838 0.951978
vt 0.822298 0.977689
vt 0.774838 0.977689
vt 0.611964 0.934705
vt 0.659424 0.960995
vt 0.822298 0.995646
vt 0.611910 0.915394
vt 0.659370 0.915441
vt 0.926757 0.906116
vt 0.926757 0.931790
vt 0.879296 0.931790
vt 0.926883 0.978301
vt 0.926757 0.953651
vt 0.974215 0.953611
vt 0.879296 0.958387
vt 0.974215 0.926613
vt 0.411767 0.851125
vt 0.435230 0.837624
vt 0.448554 0.888291
vt 0.485798 0.925367
vt 0.462333 0.938861
vt 0.499340 0.901917
vt 0.499340 0.874807
vt 0.411775 0.925186
vt 0.485788 0.851298
vt 0.435240 0.938802
vt 0.462325 0.837690
vt 0.522067 0.823187
vt 0.576134 0.837553
vt 0.547157 0.837631
vt 0.522073 0.743937
vt 0.615720 0.797828
vt 0.507585 0.769098
vt 0.601225 0.822987
vt 0.507578 0.798106
vt 0.615720 0.768818
vt 0.547173 0.729365
vt 0.601241 0.743730
vt 0.576150 0.729287
vt 0.659424 0.893567
vt 0.608630 0.915394
vt 0.875905 0.805637
vt 0.875771 0.829295
vt 0.824979 0.829339
vt 0.774714 0.851657
vt 0.774656 0.879630
vt 0.723863 0.879580
vt 0.977551 0.829339
vt 0.977551 0.857777
vt 0.926757 0.857777
vt 0.977551 0.885290
vt 0.926757 0.885290
vt 0.774656 0.907713
vt 0.977551 0.904504
vt 0.926757 0.904504
vt 0.774714 0.928384
vt 0.723863 0.907663
vt 0.659424 0.837631
vt 0.659424 0.865105
vt 0.608630 0.865105
vt 0.875771 0.750370
vt 0.875905 0.776748
vt 0.825113 0.776792
vt 0.608630 0.893567
vt 0.825113 0.805681
vt 0.405627 0.743735
vt 0.430734 0.729284
vt 0.444995 0.783502
vt 0.484851 0.823173
vt 0.459745 0.837624
vt 0.391129 0.768821
vt 0.499340 0.798081
vt 0.391136 0.797830
vt 0.499340 0.769070
vt 0.405634 0.822987
vt 0.484835 0.743914
vt 0.430749 0.837553
vt 0.459729 0.729355
vt 0.282918 0.040188
vt 0.141459 0.040188
vt 0.282918 0.005073
vt 0.940126 0.496150
vt 0.935038 0.644919
vt 0.880050 0.507499
vt 0.871983 0.623134
vt 0.728899 0.702076
vt 0.723863 0.623394
vt 0.247581 0.940138
vt 0.248945 0.992731
vt 0.220467 0.999934
vt 0.946468 0.571911
vt 0.944463 0.644919
vt 0.642246 0.711878
vt 0.723859 0.683813
vt 0.706433 0.717880
vt 0.924825 0.000000
vt 0.851449 0.138682
vt 0.851467 0.000000
vt 0.198658 0.857238
vt 0.203703 1.000000
vt 0.155645 0.997950
vt 0.215422 0.857172
vt 0.649345 0.484648
vt 0.659485 0.159940
vt 0.723862 0.484616
vt 0.578461 0.708870
vt 0.575087 0.563904
vt 0.613148 0.712367
vt 0.577524 0.530201
vt 0.586433 0.390446
vt 0.590524 0.520885
vt 0.581794 0.395893
vt 0.572829 0.541073
vt 0.509553 0.501287
vt 0.141459 0.714372
vt 0.101142 0.882304
vt 0.075940 0.747727
vt 0.101142 0.714372
vt 0.851422 0.146454
vt 0.967982 0.146199
vt 0.925312 0.283245
vt 0.059757 0.734813
vt 0.059757 0.841395
vt 0.004791 0.773056
vt 0.931634 0.390382
vt 0.931804 0.489636
vt 0.851160 0.487312
vt 0.592111 0.179581
vt 0.581979 0.385656
vt 0.516455 0.303673
vt 0.597640 0.161148
vt 0.511807 0.302084
vt 0.508262 0.395779
vt 0.505154 0.502375
vt 0.507800 0.406011
vt 0.503494 0.401443
vt 0.000000 0.761365
vt 0.880050 0.623068
vt 0.880050 0.729646
vt 0.920083 0.496150
vt 0.851244 0.496150
vt 0.931557 0.291025
vt 0.850969 0.283245
vt 0.850921 0.294292
vt 0.850991 0.389465
vt 0.380915 0.938861
vt 0.398223 0.940973
vt 0.384612 0.959430
vt 0.901357 0.817203
vt 0.875905 0.817219
vt 0.893694 0.794800
vt 0.952793 0.826142
vt 0.936704 0.827537
vt 0.939186 0.799069
vt 0.443258 0.961255
vt 0.420854 0.970346
vt 0.422399 0.942165
vt 0.088529 0.952430
vt 0.065898 0.942401
vt 0.088529 0.924245
vt 0.894914 0.829339
vt 0.882579 0.829339
vt 0.485667 0.950492
vt 0.485376 0.938861
vt 0.499340 0.941363
vt 0.443258 0.973412
vt 0.434528 0.975216
vt 0.074543 0.956685
vt 0.066511 0.954598
vt 0.983146 0.571911
vt 0.983146 0.644919
vt 0.983235 0.525552
vt 0.948561 0.506773
vt 0.979063 0.138427
vt 0.971410 0.001422
vt 0.282918 0.935836
vt 0.282918 0.984131
vt 0.282881 0.857163
vt 0.246180 0.857175
vt 0.659424 0.934752
vt 0.774838 0.925403
vt 0.774838 0.995646
vt 0.879296 0.906116
vt 0.974341 0.978260
vt 0.723920 0.851607
vt 0.926757 0.829339
vt 0.723920 0.928334
vt 0.608630 0.837631
vt 0.824979 0.750413
vt 0.141459 0.000000
vt 0.880050 0.644919
vt 0.871983 0.750118
vt 0.728899 0.750370
vt 0.658804 0.729287
vt 0.155608 0.857194
vt 0.279546 0.714372
vt 0.281918 0.238973
vt 0.280352 0.552313
vt 0.075940 0.714372
vt 0.075940 0.885555
vt 0.065898 0.720433
vt 0.004791 0.841565
vt 0.065606 0.714372
vt 0.398223 0.961110
vt 0.876257 0.794807
vt 0.952793 0.797891
vt 0.442338 0.938861
vt 0.068227 0.920094
vt 0.499340 0.957521
vt 0.664731 0.000000
vt 0.723858 0.008230
vt 0.723863 0.170626
vt 0.282918 0.910275
vt 0.287756 0.837624
vt 0.294174 0.839097
vt 0.292554 0.910276
vt 0.507578 0.729287
vt 0.507578 0.745326
vt 0.501357 0.745337
vt 0.501357 0.729298
vt 0.717456 0.982936
vt 0.712627 0.910284
vt 0.722245 0.910284
vt 0.723863 0.981462
vt 0.995762 0.462369
vt 0.979872 0.462394
vt 0.979063 0.389701
vt 0.994953 0.389676
vt 0.737406 0.763871
vt 0.760869 0.750370
vt 0.787964 0.750436
vt 0.737414 0.837932
vt 0.723863 0.814424
vt 0.824979 0.787553
vt 0.811427 0.764044
vt 0.723863 0.787314
vt 0.824979 0.814663
vt 0.760879 0.851548
vt 0.811437 0.838113
vt 0.787972 0.851607
vt 0.824979 0.960580
vt 0.872439 0.980979
vt 0.824979 0.980979
vt 0.822172 0.873716
vt 0.774840 0.851648
vt 0.822298 0.851607
vt 0.659478 0.915394
vt 0.706938 0.915441
vt 0.659424 0.941535
vt 0.774714 0.998626
vt 0.727253 0.972052
vt 0.774714 0.972052
vt 0.727253 0.946340
vt 0.774714 0.946340
vt 0.706884 0.941582
vt 0.659424 0.967778
vt 0.706938 0.987135
vt 0.659478 0.987088
vt 0.824979 0.908308
vt 0.872439 0.933982
vt 0.824979 0.933982
vt 0.774714 0.900754
vt 0.822172 0.900713
vt 0.872439 0.960580
vt 0.774714 0.873756
vt 0.595095 0.851126
vt 0.558344 0.888304
vt 0.571647 0.837631
vt 0.521111 0.925385
vt 0.544561 0.938873
vt 0.608630 0.874564
vt 0.507578 0.901940
vt 0.608630 0.901673
vt 0.507578 0.874831
vt 0.595087 0.925185
vt 0.521121 0.851319
vt 0.571637 0.938807
vt 0.544569 0.837705
vt 0.297416 0.743735
vt 0.322523 0.729284
vt 0.351518 0.729355
vt 0.297423 0.822987
vt 0.282926 0.797830
vt 0.391129 0.769070
vt 0.376624 0.743914
vt 0.282918 0.768821
vt 0.391129 0.798081
vt 0.322539 0.837553
vt 0.376640 0.823173
vt 0.351534 0.837624
vt 0.710218 0.859458
vt 0.710218 0.837631
vt 0.825113 0.884650
vt 0.875771 0.908265
vt 0.875963 0.829339
vt 0.926699 0.857363
vt 0.875905 0.857312
vt 0.151936 0.910751
vt 0.101142 0.910751
vt 0.151936 0.938265
vt 0.101142 0.938265
vt 0.875905 0.885395
vt 0.151936 0.957479
vt 0.101142 0.957479
vt 0.926699 0.885445
vt 0.875963 0.906066
vt 0.710218 0.915394
vt 0.659424 0.887920
vt 0.710218 0.887920
vt 0.824979 0.829383
vt 0.875905 0.855717
vt 0.825113 0.855761
vt 0.659424 0.859458
vt 0.875905 0.884607
vt 0.630209 0.823188
vt 0.669539 0.783408
vt 0.655300 0.837631
vt 0.709383 0.743730
vt 0.684292 0.729287
vt 0.615720 0.798105
vt 0.723862 0.768818
vt 0.615728 0.769098
vt 0.723862 0.797828
vt 0.630215 0.743937
vt 0.709367 0.822987
vt 0.655316 0.729365
vt 0.684276 0.837553
vt 0.000000 0.040188
vt 0.000000 0.005073
vt 0.940126 0.793687
vt 0.880050 0.782339
vt 0.728899 0.544696
vt 0.247581 0.774173
vt 0.220467 0.714372
vt 0.248946 0.721581
vt 0.946468 0.717926
vt 0.421942 0.017408
vt 0.486075 0.011409
vt 0.503491 0.045477
vt 0.778108 0.000000
vt 0.155645 0.716400
vt 0.203703 0.714438
vt 0.429055 0.244637
vt 0.503494 0.244674
vt 0.439214 0.569344
vt 0.358105 0.020419
vt 0.392820 0.016920
vt 0.354738 0.165384
vt 0.357174 0.199087
vt 0.370185 0.208403
vt 0.366081 0.338842
vt 0.361428 0.333396
vt 0.288988 0.228014
vt 0.352466 0.188216
vt 0.126423 0.714372
vt 0.126423 0.882313
vt 0.101142 0.848928
vt 0.776626 0.283245
vt 0.734891 0.146199
vt 0.059757 0.947977
vt 0.004791 0.910074
vt 0.770405 0.390382
vt 0.770575 0.489636
vt 0.371745 0.549709
vt 0.295891 0.425628
vt 0.361614 0.343633
vt 0.377287 0.568141
vt 0.291230 0.427217
vt 0.287700 0.333521
vt 0.284575 0.226926
vt 0.287239 0.323289
vt 0.282918 0.327858
vt 0.000000 0.921821
vt 0.880050 0.516489
vt 0.782405 0.496150
vt 0.770329 0.291025
vt 0.465661 0.961112
vt 0.469358 0.940540
vt 0.482969 0.959001
vt 0.065898 0.907958
vt 0.073561 0.885555
vt 0.091350 0.907974
vt 0.968884 0.799336
vt 0.955275 0.826380
vt 0.952793 0.797969
vt 0.465661 0.952758
vt 0.444801 0.971840
vt 0.443258 0.943681
vt 0.420854 0.943115
vt 0.420854 0.971301
vt 0.398223 0.953145
vt 0.072342 0.920094
vt 0.084676 0.920094
vt 0.367264 0.945890
vt 0.380915 0.955019
vt 0.366973 0.957521
vt 0.465661 0.940652
vt 0.456931 0.938861
vt 0.406868 0.938861
vt 0.398836 0.940948
vt 0.983146 0.717926
vt 0.983235 0.764285
vt 0.948561 0.783064
vt 0.723863 0.138427
vt 0.731528 0.001422
vt 0.282918 0.778450
vt 0.282918 0.730155
vt 0.706884 0.967825
vt 0.727253 0.998626
vt 0.727253 0.928384
vt 0.872439 0.908308
vt 0.926757 0.829389
vt 0.151936 0.882313
vt 0.871983 0.496150
vt 0.728899 0.496402
vt 0.438489 0.000000
vt 0.003372 0.714372
vt 0.002566 0.552313
vt 0.001000 0.238973
vt 0.993162 0.793687
vt 0.983235 0.787684
vt 0.993162 0.622591
vt 0.065606 0.968349
vt 0.482969 0.938861
vt 0.090998 0.885562
vt 0.968884 0.827537
vt 0.464739 0.975155
vt 0.400552 0.975452
vt 0.444469 0.729284
vt 0.503494 0.558664
vt 0.503489 0.721060
vt 0.294174 0.981454
vt 0.287756 0.982927
vt 0.507565 0.761388
vt 0.501357 0.761376
vt 0.717456 0.837631
vt 0.723863 0.839105
vt 0.995762 0.317071
vt 0.979872 0.317095
vn 0.000000 -1.000000 0.008500
vn 0.009900 0.190800 -0.981600
vn 0.979600 -0.200800 0.001800
vn -0.979600 -0.200800 0.001800
vn 0.000000 -0.027600 -0.999600
vn 0.000000 1.000000 -0.009500
vn 0.824400 0.566000 -0.005200
vn -1.000000 0.006300 -0.000100
vn -1.000000 0.006200 0.000000
vn 0.000000 -1.000000 -0.008500
vn 0.009900 0.190800 0.981600
vn 0.979700 -0.200500 -0.001800
vn -0.979600 -0.200800 -0.001800
vn 0.000000 -0.027600 0.999600
vn 0.000000 1.000000 0.009500
vn 0.824400 0.566000 0.005200
vn -1.000000 0.006300 0.000100
vn 0.000000 -0.000000 1.000000
vn -0.707000 -0.707200 -0.000000
vn -0.707300 -0.706900 0.000000
vn 0.707100 0.707100 0.000000
vn -0.966000 -0.258600 -0.000000
vn -0.965900 -0.259000 -0.000000
vn 0.965900 0.258900 0.000000
vn 0.965900 -0.258900 -0.000000
vn -0.966000 0.258600 0.000000
vn 0.707100 -0.707100 -0.000000
vn -0.707000 0.707200 0.000000
vn 0.258900 -0.965900 -0.000000
vn -0.258900 0.965900 0.000000
vn -0.258900 -0.965900 -0.000000
vn 0.258900 0.965900 0.000000
vn -0.040800 -0.010900 -0.999100
vn 0.040800 0.010900 -0.999100
vn -0.029800 -0.029800 -0.999100
vn 0.029800 0.029800 -0.999100
vn -0.010900 -0.040800 -0.999100
vn 0.010900 0.040800 -0.999100
vn 0.010900 -0.040800 -0.999100
vn -0.010900 0.040800 -0.999100
vn 0.029800 -0.029800 -0.999100
vn -0.029800 0.029800 -0.999100
vn -0.040800 0.010900 -0.999100
vn 0.040800 -0.010900 -0.999100
vn 0.707200 0.707000 0.000000
vn 0.965900 0.259000 0.000000
vn 0.965900 -0.259000 -0.000000
vn -0.965900 0.259000 0.000000
vn -0.707100 0.707100 0.000000
vn 0.259000 -0.965900 -0.000000
vn -0.258700 0.966000 0.000000
vn -0.259000 -0.965900 -0.000000
vn 0.258700 0.966000 0.000000
vn -0.040700 -0.010900 -0.999100
vn 0.040700 0.010900 -0.999100
vn -0.010900 -0.040700 -0.999100
vn 0.010900 0.040700 -0.999100
vn 0.010900 -0.040700 -0.999100
vn -0.010900 0.040700 -0.999100
vn -0.040700 0.010900 -0.999100
vn 0.040700 -0.010900 -0.999100
vn -0.456900 -0.889500 -0.000000
vn 0.990000 -0.140100 -0.014300
vn -0.021400 0.999800 -0.001400
vn -0.999900 -0.016800 -0.000400
vn 0.938000 0.346500 0.009500
vn -0.015200 -0.029700 -0.999400
vn 0.181100 0.983500 0.000000
vn -0.971900 -0.231400 -0.042700
vn -0.688600 0.725200 0.000800
vn -0.010400 -0.064900 -0.997800
vn -0.005500 0.246900 -0.969000
vn -0.005400 0.246600 -0.969100
vn -0.005400 0.246500 -0.969100
vn 0.016600 0.256300 -0.966400
vn 0.035900 0.556900 -0.829800
vn -0.001600 -1.000000 -0.000000
vn 0.144100 0.560700 -0.815400
vn 0.495100 0.868800 -0.011400
vn -0.771200 0.636500 0.000000
vn -0.015400 0.999300 -0.034200
vn 0.027400 0.534100 -0.845000
vn 0.027400 0.533500 -0.845400
vn 0.011100 0.514500 -0.857400
vn 0.027400 0.533900 -0.845100
vn 0.047100 0.532300 -0.845200
vn 0.049100 0.516100 -0.855100
vn 0.008600 0.569700 -0.821800
vn 0.044400 0.604200 -0.795600
vn -0.010500 0.566600 -0.823900
vn 0.092900 0.515100 -0.852100
vn -0.701300 0.693700 -0.164200
vn -0.533700 0.845700 0.000000
vn -0.591300 0.806400 0.000000
vn 0.498200 0.867000 -0.011400
vn 0.497900 0.867200 -0.000100
vn 0.498000 0.867200 -0.000000
vn 0.571200 0.820800 0.000000
vn 0.084500 0.995700 -0.037900
vn 0.011300 0.138800 -0.990300
vn -0.051500 -0.998700 0.002300
vn 0.064400 0.993700 -0.091500
vn -0.993300 0.065300 0.095600
vn 0.914000 0.351500 -0.202500
vn -0.042500 -0.997100 0.063500
vn 0.033500 0.361800 0.931700
vn -0.873500 0.094700 0.477500
vn 0.858600 -0.207000 0.469100
vn 0.839000 0.544100 0.000000
vn 0.838700 0.543900 -0.026100
vn 0.920000 0.391800 -0.008500
vn 0.956000 0.293400 0.000500
vn 0.175000 0.984500 -0.011800
vn 0.172500 0.985000 -0.005400
vn -0.995000 0.099400 0.000000
vn -0.993400 0.095500 -0.064200
vn 0.038600 0.594500 -0.803100
vn -0.407900 -0.912900 -0.014700
vn 0.984600 -0.174700 -0.000000
vn -0.022200 0.999800 0.000000
vn -0.998000 -0.015900 -0.061400
vn -0.997800 0.056700 -0.033600
vn 0.032400 -0.034200 -0.998900
vn -0.966400 -0.254800 -0.034900
vn 0.016200 0.323500 -0.946100
vn -0.005300 0.246300 -0.969200
vn 0.030200 0.537000 -0.843000
vn -0.009500 0.506200 -0.862400
vn 0.251100 0.803600 -0.539600
vn 0.490100 0.871700 0.000000
vn -0.017000 0.999200 -0.036200
vn 0.045600 0.515900 -0.855500
vn 0.027900 0.558200 -0.829300
vn 0.053300 0.550400 -0.833200
vn 0.047800 0.563800 -0.824600
vn -0.007800 0.513600 -0.858000
vn 0.037700 0.585000 -0.810100
vn -0.009200 0.596000 -0.802900
vn -0.049600 0.508600 -0.859600
vn -0.774900 0.607300 0.175200
vn -0.548200 0.836300 -0.009700
vn 0.485800 0.874000 -0.010500
vn 0.497900 0.867300 -0.000300
vn 0.506100 0.862400 -0.012700
vn 0.089200 0.995500 -0.032200
vn 0.010100 0.139600 -0.990200
vn -0.075100 -0.997000 -0.016400
vn 0.076000 0.993300 -0.086700
vn -0.998800 -0.045800 -0.018700
vn 0.917300 0.253600 -0.306900
vn -0.051600 -0.997400 0.049500
vn 0.024200 0.367900 0.929500
vn -0.799000 -0.139600 0.585000
vn 0.952300 0.202300 0.228700
vn 0.852200 0.523000 0.014300
vn 0.823800 0.566800 -0.001000
vn -0.994700 0.102700 0.002700
vn -0.992600 0.106400 -0.059100
vn 0.005000 0.271500 -0.962400
vn -0.000400 0.244600 -0.969600
vn 0.002500 0.323300 -0.946300
vn -0.004500 -0.160100 -0.987100
vn 0.019000 0.257900 -0.966000
vn 0.005800 0.222500 -0.974900
vn 0.004700 -0.139400 -0.990200
vn -0.002900 -0.044400 -0.999000
vn -1.000000 0.000000 0.000000
vn -0.000000 -0.225200 -0.974300
vn 1.000000 0.000000 0.000000
vn 0.000000 0.997800 -0.066100
vn 0.000000 0.000000 -1.000000
vn -0.040800 -0.010900 0.999100
vn 0.040800 0.010900 0.999100
vn -0.029800 -0.029800 0.999100
vn 0.029800 0.029800 0.999100
vn -0.010900 -0.040800 0.999100
vn 0.010900 0.040800 0.999100
vn 0.010900 -0.040800 0.999100
vn -0.010900 0.040800 0.999100
vn 0.029800 -0.029800 0.999100
vn -0.029800 0.029800 0.999100
vn -0.040800 0.010900 0.999100
vn 0.040800 -0.010900 0.999100
vn -0.040700 -0.010900 0.999100
vn 0.040700 0.010900 0.999100
vn -0.010900 -0.040700 0.999100
vn 0.010900 0.040700 0.999100
vn 0.010900 -0.040700 0.999100
vn -0.010900 0.040700 0.999100
vn -0.040700 0.010900 0.999100
vn 0.040700 -0.010900 0.999100
vn 0.990000 -0.140100 0.014300
vn -0.021400 0.999800 0.001400
vn -0.999900 -0.016800 0.000400
vn 0.938000 0.346500 -0.009500
vn -0.015200 -0.029700 0.999400
vn -0.971900 -0.231400 0.042700
vn -0.688600 0.725200 -0.000800
vn -0.010400 -0.064900 0.997800
vn -0.005500 0.246900 0.969000
vn -0.005400 0.246500 0.969100
vn -0.005400 0.246600 0.969100
vn 0.016600 0.256300 0.966400
vn 0.035900 0.556900 0.829800
vn 0.144100 0.560700 0.815400
vn 0.495100 0.868800 0.011400
vn -0.015400 0.999300 0.034200
vn 0.027400 0.534100 0.845000
vn 0.027400 0.533500 0.845400
vn 0.011100 0.514500 0.857400
vn 0.027400 0.533900 0.845100
vn 0.047100 0.532300 0.845200
vn 0.049100 0.516100 0.855100
vn 0.008600 0.569700 0.821800
vn 0.044400 0.604200 0.795600
vn -0.010500 0.566600 0.823900
vn 0.092900 0.515100 0.852100
vn -0.701300 0.693700 0.164200
vn 0.498200 0.867000 0.011400
vn 0.497900 0.867200 0.000100
vn 0.084500 0.995700 0.037900
vn 0.011300 0.138800 0.990300
vn -0.051500 -0.998700 -0.002300
vn 0.064400 0.993700 0.091500
vn -0.993300 0.065300 -0.095600
vn 0.914000 0.351500 0.202500
vn -0.042500 -0.997100 -0.063500
vn 0.033500 0.361800 -0.931700
vn -0.873500 0.094700 -0.477500
vn 0.858600 -0.207000 -0.469100
vn 0.838700 0.543900 0.026100
vn 0.920000 0.391800 0.008500
vn 0.956000 0.293400 -0.000500
vn 0.175000 0.984500 0.011800
vn 0.172500 0.985000 0.005400
vn -0.993400 0.095500 0.064200
vn 0.038600 0.594600 0.803100
vn -0.407900 -0.912900 0.014700
vn -0.998000 -0.015900 0.061400
vn -0.997800 0.056700 0.033600
vn 0.032400 -0.034200 0.998900
vn -0.966400 -0.254800 0.034900
vn 0.016200 0.323500 0.946100
vn -0.005300 0.246300 0.969200
vn 0.030200 0.537000 0.843000
vn -0.009500 0.506200 0.862400
vn 0.251100 0.803600 0.539600
vn -0.017000 0.999200 0.036200
vn 0.045600 0.515900 0.855500
vn 0.027900 0.558200 0.829300
vn 0.053300 0.550400 0.833200
vn 0.047800 0.563800 0.824600
vn -0.007800 0.513600 0.858000
vn 0.037700 0.585000 0.810100
vn -0.009200 0.596000 0.802900
vn -0.049600 0.508600 0.859600
vn -0.774900 0.607300 -0.175200
vn -0.548200 0.836300 0.009700
vn 0.485800 0.874000 0.010500
vn 0.497900 0.867300 0.000300
vn 0.506100 0.862400 0.012700
vn 0.089200 0.995500 0.032200
vn 0.010100 0.139600 0.990200
vn -0.075100 -0.997000 0.016400
vn 0.076000 0.993300 0.086700
vn -0.998800 -0.045800 0.018700
vn 0.917300 0.253600 0.306900
vn -0.051600 -0.997400 -0.049500
vn 0.024200 0.367900 -0.929500
vn -0.799000 -0.139600 -0.585000
vn 0.952300 0.202400 -0.228400
vn 0.852200 0.523000 -0.014300
vn 0.823800 0.566800 0.001000
vn -0.994700 0.102700 -0.002700
vn -0.992600 0.106400 0.059100
vn 0.005000 0.271500 0.962400
vn -0.000400 0.244600 0.969600
vn 0.002500 0.323300 0.946300
vn -0.004500 -0.160100 0.987100
vn 0.019000 0.257900 0.966000
vn 0.005800 0.222500 0.974900
vn 0.004700 -0.139400 0.990200
vn -0.002900 -0.044400 0.999000
vn 0.000000 -0.225200 0.974300
vn 0.000000 0.997800 0.066100
usemtl vertexColorShader
s 1
f 1/1/1 2/2/1 3/3/1 4/4/1
f 5/5/2 6/6/2 7/7/2 8/8/2
f 2/9/3 1/10/3 5/11/3 9/12/3
f 4/13/4 3/14/4 10/15/4 6/16/4
f 1/17/5 4/18/5 6/6/5 5/5/5
f 8/19/6 7/20/6 11/21/6 12/22/6
f 9/12/7 5/11/7 8/23/7 12/24/7
f 6/16/8 10/15/9 11/25/9 7/26/8
f 13/27/10 14/28/10 3/3/10 2/2/10
f 15/29/11 16/30/11 17/31/11 18/32/11
f 2/9/12 9/12/12 15/33/12 13/34/12
f 14/35/13 18/36/13 10/15/13 3/14/13
f 13/37/14 15/29/14 18/32/14 14/38/14
f 16/39/15 12/22/15 11/21/15 17/40/15
f 9/12/16 12/24/16 16/41/16 15/33/16
f 18/36/17 17/42/17 11/25/9 10/15/9
f 19/43/18 20/44/18 21/45/18
f 22/46/18 23/47/18 24/48/18
f 23/47/18 25/49/18 24/48/18
f 24/48/18 25/49/18 26/50/18
f 25/49/18 20/44/18 26/50/18
f 26/50/18 20/44/18 19/43/18
f 22/46/18 27/51/18 23/47/18
f 28/52/18 27/51/18 22/46/18
f 28/52/18 29/53/18 27/51/18
f 30/54/18 29/53/18 28/52/18
f 27/55/19 29/56/19 31/57/20
f 26/58/21 19/59/21 32/60/21
f 29/61/22 30/62/22 31/63/23
f 19/64/24 21/65/24 33/66/24
f 21/65/25 20/67/25 34/68/25
f 30/62/26 28/69/26 35/70/26
f 20/67/27 25/71/27 34/68/27
f 28/69/28 22/72/28 36/73/28
f 25/74/29 23/75/29 37/76/29
f 22/77/30 24/78/30 38/79/30
f 23/75/31 27/55/31 39/80/31
f 24/78/32 26/58/32 40/81/32
f 32/82/33 33/83/33 41/84/33
f 31/85/34 35/86/34 41/84/34
f 40/50/35 32/82/35 41/84/35
f 39/87/36 31/85/36 41/84/36
f 38/48/37 40/50/37 41/84/37
f 37/88/38 39/87/38 41/84/38
f 36/89/39 38/48/39 41/84/39
f 42/90/40 37/88/40 41/84/40
f 43/91/41 36/89/41 41/84/41
f 34/92/42 42/90/42 41/84/42
f 33/83/43 34/92/43 41/84/43
f 35/86/44 43/91/44 41/84/44
f 44/93/18 45/94/18 46/95/18
f 47/96/18 48/97/18 49/98/18
f 48/97/18 50/99/18 49/98/18
f 49/98/18 50/99/18 51/100/18
f 50/99/18 45/94/18 51/100/18
f 51/100/18 45/94/18 44/93/18
f 47/96/18 52/101/18 48/97/18
f 53/102/18 52/101/18 47/96/18
f 53/102/18 54/103/18 52/101/18
f 55/104/18 54/103/18 53/102/18
f 52/105/19 54/73/19 56/106/19
f 51/107/45 44/108/45 57/109/45
f 54/110/23 55/111/23 58/112/23
f 44/113/46 46/114/46 59/115/46
f 46/114/47 45/116/47 60/117/47
f 55/111/48 53/118/48 58/112/48
f 45/116/27 50/119/27 61/120/27
f 53/118/49 47/121/49 62/122/49
f 50/123/50 48/124/50 63/125/50
f 47/126/51 49/127/51 64/128/51
f 48/124/52 52/105/52 65/129/52
f 49/127/53 51/107/53 66/130/53
f 57/131/54 59/132/54 67/133/54
f 56/134/55 58/135/55 67/133/55
f 66/136/35 57/131/35 67/133/35
f 65/137/36 56/134/36 67/133/36
f 64/138/56 66/136/56 67/133/56
f 63/139/57 65/137/57 67/133/57
f 68/140/58 64/138/58 67/133/58
f 61/141/59 63/139/59 67/133/59
f 62/142/41 68/140/41 67/133/41
f 60/143/42 61/141/42 67/133/42
f 59/132/60 60/143/60 67/133/60
f 58/135/61 62/142/61 67/133/61
f 69/144/62 70/145/62 71/146/62
f 72/147/63 73/148/63 74/149/63
f 75/150/64 76/151/64 77/152/64
f 78/153/65 79/154/65 80/155/65
f 81/156/66 82/157/66 73/148/66
f 80/158/67 69/159/67 71/160/67
f 83/161/68 84/162/68 85/163/68
f 86/164/69 87/165/69 71/166/69
f 88/167/70 80/155/70 87/165/70
f 89/168/71 90/169/71 91/170/71
f 92/171/72 93/172/73 79/173/74
f 94/174/75 95/175/75 96/176/75
f 97/177/76 98/178/76 99/179/76
f 100/180/77 70/145/77 69/144/77
f 101/181/78 102/182/78 103/183/78
f 104/184/79 105/185/79 106/186/79
f 107/187/80 108/188/80 109/189/80
f 110/190/81 111/191/81 112/192/81
f 113/193/82 114/194/82 115/195/83
f 101/196/84 113/193/84 116/197/84
f 114/194/82 113/193/82 95/175/85
f 115/195/86 117/198/86 116/197/86
f 117/198/87 114/194/87 95/175/87
f 99/179/88 98/178/88 111/199/88
f 93/172/89 98/178/89 94/174/89
f 118/200/90 99/179/90 111/199/90
f 97/177/91 118/200/91 110/201/91
f 107/187/92 109/189/92 111/202/92
f 108/203/93 107/204/93 75/150/93
f 109/205/94 119/206/94 112/192/94
f 105/185/95 104/184/95 84/162/95
f 106/186/96 105/185/97 116/207/96
f 120/208/98 106/186/98 121/209/98
f 116/207/99 110/190/99 122/210/99
f 123/211/100 124/212/100 125/213/100
f 126/214/101 127/215/101 123/216/101
f 128/217/102 129/218/102 125/219/102
f 127/220/103 128/221/103 130/222/103
f 129/223/104 126/224/104 125/225/104
f 131/226/105 132/227/105 126/214/105
f 133/228/106 134/229/106 129/230/106
f 132/231/107 133/232/107 127/220/107
f 134/233/108 131/234/108 126/224/108
f 83/235/109 85/236/109 81/156/109
f 102/237/110 83/235/110 81/156/110
f 103/238/111 81/156/111 72/147/111
f 72/147/112 81/156/112 73/148/112
f 101/239/113 84/162/113 83/161/113
f 102/240/114 101/239/114 83/161/114
f 76/241/115 92/242/115 78/153/115
f 77/243/116 76/241/116 135/244/116
f 39/80/19 27/55/19 31/57/20
f 40/81/21 26/58/21 32/60/21
f 28/69/26 43/245/26 35/70/26
f 32/246/24 19/64/24 33/66/24
f 33/66/25 21/65/25 34/68/25
f 25/71/27 42/247/27 34/68/27
f 53/118/48 62/122/48 58/112/48
f 43/245/28 28/69/28 36/73/28
f 42/248/29 25/74/29 37/76/29
f 36/249/30 22/77/30 38/79/30
f 37/76/31 23/75/31 39/80/31
f 38/79/32 24/78/32 40/81/32
f 65/129/19 52/105/19 56/106/19
f 66/130/45 51/107/45 57/109/45
f 56/250/23 54/110/23 58/112/23
f 57/251/46 44/113/46 59/115/46
f 59/115/47 46/114/47 60/117/47
f 47/121/49 68/252/49 62/122/49
f 60/117/27 45/116/27 61/120/27
f 98/178/117 95/175/117 94/174/117
f 61/253/50 50/123/50 63/125/50
f 68/254/51 47/126/51 64/128/51
f 63/125/52 48/124/52 65/129/52
f 64/128/53 49/127/53 66/130/53
f 70/145/118 136/255/118 71/146/118
f 73/148/119 100/256/119 74/149/119
f 93/257/120 92/258/120 76/151/120
f 75/150/120 93/257/120 76/151/120
f 135/244/121 78/153/121 88/167/121
f 78/153/122 80/155/122 88/167/122
f 87/259/123 80/158/123 71/160/123
f 136/260/124 86/164/124 71/166/124
f 86/164/70 88/167/70 87/165/70
f 95/175/125 101/196/125 90/169/125
f 93/172/73 80/158/126 79/173/74
f 113/193/127 115/195/127 116/197/127
f 118/200/128 97/177/128 99/179/128
f 74/261/77 100/180/77 69/144/77 91/262/77 137/263/77
f 72/264/129 101/265/129 103/266/129
f 120/208/130 104/184/130 106/186/130
f 108/188/80 119/267/80 109/189/80
f 122/210/131 110/190/131 112/192/131
f 114/194/132 117/198/132 115/195/132
f 113/193/133 101/196/133 95/175/133
f 98/178/134 93/172/134 111/199/134
f 117/198/135 110/201/135 116/197/135
f 110/201/136 117/198/136 95/175/136
f 98/178/137 97/177/137 95/175/137
f 110/201/138 118/200/138 111/199/138
f 95/175/139 97/177/139 110/201/139
f 93/268/140 107/187/140 111/202/140
f 107/204/93 93/257/93 75/150/93
f 111/191/141 109/205/141 112/192/141
f 101/239/142 105/185/142 84/162/142
f 105/185/97 101/239/143 116/207/96
f 106/186/144 116/207/144 121/209/144
f 121/209/145 116/207/145 122/210/145
f 124/212/146 130/269/146 125/213/146
f 127/215/147 124/270/147 123/216/147
f 130/271/148 128/217/148 125/219/148
f 124/272/149 127/220/149 130/222/149
f 126/224/150 123/273/150 125/225/150
f 132/227/151 127/215/151 126/214/151
f 128/274/152 133/228/152 129/230/152
f 133/232/153 128/221/153 127/220/153
f 129/223/154 134/233/154 126/224/154
f 85/236/155 82/157/155 81/156/155
f 103/238/156 102/237/156 81/156/156
f 92/242/157 79/154/157 78/153/157
f 76/241/158 78/153/158 135/244/158
f 30/62/22 35/70/23 31/63/23
f 96/176/159 95/175/159 90/169/159 89/168/159
f 80/158/160 96/176/160 89/168/160
f 101/196/161 72/275/161 90/169/161
f 72/275/162 74/276/162 137/277/162 90/169/162
f 93/172/163 94/174/163 96/176/163
f 80/158/164 93/172/164 96/176/164
f 90/169/165 137/277/165 91/170/165
f 80/158/166 89/168/166 91/170/166 69/159/166
f 138/278/167 139/279/167 140/280/167 141/281/167
f 139/282/168 142/283/168 143/284/168 140/285/168
f 142/286/169 144/287/169 145/288/169 143/289/169
f 142/290/170 139/291/170 138/292/170 144/293/170
f 146/294/171 147/295/171 148/296/171
f 149/297/171 150/298/171 151/299/171
f 151/299/171 150/298/171 152/300/171
f 150/298/171 153/301/171 152/300/171
f 152/300/171 153/301/171 148/296/171
f 153/301/171 146/294/171 148/296/171
f 149/297/171 151/299/171 154/302/171
f 155/303/171 149/297/171 154/302/171
f 155/303/171 154/302/171 156/304/171
f 157/305/171 155/303/171 156/304/171
f 154/306/19 158/307/20 156/308/19
f 153/309/21 159/310/21 146/311/21
f 156/312/22 158/313/23 157/314/22
f 146/315/24 160/316/24 147/317/24
f 147/317/25 161/318/25 148/319/25
f 157/314/26 162/320/26 155/321/26
f 148/319/27 161/318/27 152/121/27
f 155/321/28 163/322/28 149/323/28
f 152/324/29 164/325/29 151/326/29
f 149/64/30 165/327/30 150/328/30
f 151/326/31 166/329/31 154/306/31
f 150/328/32 167/330/32 153/309/32
f 159/331/172 168/332/172 160/333/172
f 158/334/173 168/332/173 162/335/173
f 167/336/174 168/332/174 159/331/174
f 166/337/175 168/332/175 158/334/175
f 165/338/176 168/332/176 167/336/176
f 164/339/177 168/332/177 166/337/177
f 163/340/178 168/332/178 165/338/178
f 169/341/179 168/332/179 164/339/179
f 170/342/180 168/332/180 163/340/180
f 161/343/181 168/332/181 169/341/181
f 160/333/182 168/332/182 161/343/182
f 162/335/183 168/332/183 170/342/183
f 171/344/171 172/345/171 173/346/171
f 174/347/171 175/348/171 176/349/171
f 176/349/171 175/348/171 177/350/171
f 175/348/171 178/351/171 177/350/171
f 177/350/171 178/351/171 173/346/171
f 178/351/171 171/344/171 173/346/171
f 174/347/171 176/349/171 179/352/171
f 180/353/171 174/347/171 179/352/171
f 180/353/171 179/352/171 181/354/171
f 182/355/171 180/353/171 181/354/171
f 179/356/19 183/123/19 181/357/19
f 178/358/45 184/359/45 171/324/45
f 181/360/23 185/361/23 182/362/23
f 171/181/46 186/363/46 172/364/46
f 172/364/47 187/365/47 173/366/47
f 182/362/48 185/361/48 180/367/48
f 173/366/27 188/368/27 177/369/27
f 180/367/49 189/370/49 174/371/49
f 177/372/50 190/373/50 176/374/50
f 174/375/51 191/376/51 175/377/51
f 176/374/52 192/378/52 179/356/52
f 175/377/53 193/379/53 178/358/53
f 184/380/184 194/381/184 186/382/184
f 183/383/185 194/381/185 185/384/185
f 193/385/174 194/381/174 184/380/174
f 192/386/175 194/381/175 183/383/175
f 191/387/186 194/381/186 193/385/186
f 190/388/187 194/381/187 192/386/187
f 195/389/188 194/381/188 191/387/188
f 188/390/189 194/381/189 190/388/189
f 189/391/180 194/381/180 195/389/180
f 187/392/181 194/381/181 188/390/181
f 186/382/190 194/381/190 187/392/190
f 185/384/191 194/381/191 189/391/191
f 196/393/62 197/394/62 70/145/62
f 198/395/192 199/396/192 73/148/192
f 75/150/193 77/152/193 200/397/193
f 201/398/194 202/399/194 203/400/194
f 204/401/195 73/148/195 82/157/195
f 202/402/196 197/403/196 196/404/196
f 205/405/68 85/163/68 84/162/68
f 86/164/197 197/406/197 206/407/197
f 88/167/198 206/407/198 202/399/198
f 207/408/199 208/409/199 209/410/199
f 210/411/200 203/412/201 211/413/202
f 212/414/203 213/415/203 214/416/203
f 215/417/204 216/418/204 217/419/204
f 100/180/77 196/393/77 70/145/77
f 218/420/205 219/421/205 220/422/205
f 104/184/206 221/423/206 222/424/206
f 223/425/80 224/426/80 108/188/80
f 225/427/207 112/192/207 226/428/207
f 227/429/208 228/430/209 229/431/208
f 218/432/210 230/433/210 227/429/210
f 229/431/208 214/416/211 227/429/208
f 228/430/212 230/433/212 231/434/212
f 231/434/213 214/416/213 229/431/213
f 216/418/214 226/435/214 217/419/214
f 211/413/215 212/414/215 217/419/215
f 232/436/216 226/435/216 216/418/216
f 215/417/217 225/437/217 232/436/217
f 223/425/218 226/438/218 224/426/218
f 108/203/93 75/150/93 223/439/93
f 224/440/94 112/192/94 119/206/94
f 222/424/219 84/162/219 104/184/219
f 221/423/220 230/441/220 222/424/97
f 120/208/98 121/209/98 221/423/98
f 230/441/221 122/210/221 225/427/221
f 233/442/222 234/443/222 235/444/222
f 236/445/223 233/446/223 237/447/223
f 238/448/224 234/449/224 239/450/224
f 237/451/225 240/452/225 238/453/225
f 239/454/226 234/455/226 236/456/226
f 241/457/227 236/445/227 242/458/227
f 243/459/228 239/460/228 244/461/228
f 242/462/229 237/451/229 243/463/229
f 244/464/230 236/456/230 241/465/230
f 205/466/109 204/401/109 85/236/109
f 220/467/231 204/401/231 205/466/231
f 219/468/232 198/395/232 204/401/232
f 198/395/233 73/148/233 204/401/233
f 218/469/234 205/405/234 84/162/234
f 220/470/235 205/405/235 218/469/235
f 200/471/115 201/398/115 210/472/115
f 77/243/236 135/244/236 200/471/236
f 166/329/19 158/307/20 154/306/19
f 167/330/21 159/310/21 153/309/21
f 155/321/26 162/320/26 170/473/26
f 159/474/24 160/316/24 146/315/24
f 160/316/25 161/318/25 147/317/25
f 152/121/27 161/318/27 169/475/27
f 180/367/48 185/361/48 189/370/48
f 170/473/28 163/322/28 155/321/28
f 169/476/29 164/325/29 152/324/29
f 163/246/30 165/327/30 149/64/30
f 164/325/31 166/329/31 151/326/31
f 165/327/32 167/330/32 150/328/32
f 192/378/19 183/123/19 179/356/19
f 193/379/45 184/359/45 178/358/45
f 183/477/23 185/361/23 181/360/23
f 184/478/46 186/363/46 171/181/46
f 186/363/47 187/365/47 172/364/47
f 174/371/49 189/370/49 195/74/49
f 187/365/27 188/368/27 173/366/27
f 217/419/237 212/414/237 214/416/237
f 188/73/50 190/373/50 177/372/50
f 195/108/51 191/376/51 174/375/51
f 190/373/52 192/378/52 176/374/52
f 191/376/53 193/379/53 175/377/53
f 70/145/238 197/394/238 136/255/238
f 73/148/119 199/396/119 100/256/119
f 211/479/120 200/397/120 210/480/120
f 75/150/120 200/397/120 211/479/120
f 135/244/239 88/167/239 201/398/239
f 201/398/240 88/167/240 202/399/240
f 206/481/241 197/403/241 202/402/241
f 136/260/242 197/406/242 86/164/242
f 86/164/198 206/407/198 88/167/198
f 214/416/243 209/410/243 218/432/243
f 211/413/202 203/412/201 202/402/244
f 227/429/245 230/433/245 228/430/245
f 232/436/246 216/418/246 215/417/246
f 199/482/77 245/483/77 208/484/77 196/393/77 100/180/77
f 198/485/247 219/486/247 218/487/247
f 120/208/130 221/423/130 104/184/130
f 108/188/80 224/426/80 119/267/80
f 122/210/248 112/192/248 225/427/248
f 229/431/249 228/430/249 231/434/249
f 227/429/250 214/416/250 218/432/250
f 217/419/251 226/435/251 211/413/251
f 231/434/252 230/433/252 225/437/252
f 225/437/253 214/416/253 231/434/253
f 217/419/254 214/416/254 215/417/254
f 225/437/255 226/435/255 232/436/255
f 214/416/256 225/437/256 215/417/256
f 211/488/257 226/438/257 223/425/257
f 223/439/93 75/150/93 211/479/93
f 226/428/258 112/192/258 224/440/258
f 218/469/259 84/162/259 222/424/259
f 222/424/97 230/441/220 218/469/260
f 221/423/261 121/209/261 230/441/261
f 121/209/262 122/210/262 230/441/262
f 235/444/263 234/443/263 240/489/263
f 237/447/264 233/446/264 235/490/264
f 240/491/265 234/449/265 238/448/265
f 235/492/266 240/452/266 237/451/266
f 236/456/267 234/455/267 233/493/267
f 242/458/268 236/445/268 237/447/268
f 238/211/269 239/460/269 243/459/269
f 243/463/270 237/451/270 238/453/270
f 239/454/271 236/456/271 244/464/271
f 85/236/272 204/401/272 82/157/272
f 219/468/273 204/401/273 220/467/273
f 210/472/274 201/398/274 203/400/274
f 200/471/275 135/244/275 201/398/275
f 157/314/22 158/313/23 162/320/23
f 213/415/276 207/408/276 209/410/276 214/416/276
f 202/402/277 207/408/277 213/415/277
f 218/432/278 209/410/278 198/494/278
f 198/494/279 209/410/279 245/495/279 199/496/279
f 211/413/280 213/415/280 212/414/280
f 202/402/281 213/415/281 211/413/281
f 209/410/282 208/409/282 245/495/282
f 202/402/283 196/404/283 208/409/283 207/408/283
f 138/278/167 141/281/167 246/497/167 247/498/167
f 247/499/284 246/500/284 248/284/284 249/283/284
f 249/501/169 248/502/169 145/288/169 144/287/169
f 249/503/285 144/293/285 138/292/285 247/504/285
