# Blender v2.74 (sub 0) OBJ File: 'car2.blend'
# www.blender.org
mtllib car2.mtl
o vehiclePickup_GEO_Cube.057
v -0.096081 0.019472 0.065054
v -0.092473 0.015860 0.065054
v -0.091856 0.016926 0.062818
v -0.095015 0.020085 0.062818
v 0.113251 0.032941 -0.065054
v 0.116859 0.029329 -0.065054
v 0.115793 0.028716 -0.062818
v 0.112637 0.031872 -0.062818
v -0.092473 0.015860 -0.065054
v -0.096081 0.019472 -0.065054
v -0.095015 0.020085 -0.062818
v -0.091856 0.016926 -0.062818
v -0.077682 0.024399 0.065054
v -0.079004 0.029329 0.065054
v -0.080069 0.028716 0.062818
v -0.078915 0.024399 0.062818
v 0.098463 0.024399 0.065054
v 0.099781 0.019472 0.065054
v 0.100847 0.020085 0.062818
v 0.099693 0.024399 0.062818
v -0.079004 0.029329 -0.065054
v -0.077682 0.024399 -0.065054
v -0.078915 0.024399 -0.062818
v -0.080069 0.028716 -0.062818
v -0.096081 0.029329 0.065054
v -0.097403 0.024399 0.065054
v -0.096173 0.024399 0.062818
v -0.095015 0.028716 0.062818
v 0.116859 0.019472 0.065054
v 0.118181 0.024399 0.065054
v 0.116951 0.024399 0.062818
v 0.115793 0.020085 0.062818
v -0.097403 0.024399 -0.065054
v -0.096081 0.029329 -0.065054
v -0.095015 0.028716 -0.062818
v -0.096173 0.024399 -0.062818
v 0.103390 0.032941 0.065054
v 0.099781 0.029329 0.065054
v 0.100847 0.028716 0.062818
v 0.104007 0.031872 0.062818
v -0.087542 0.000699 0.046006
v -0.067017 0.012549 0.046006
v -0.075692 0.003874 0.046006
v -0.063842 0.024399 0.046006
v -0.108070 0.012549 0.046006
v -0.111246 0.024399 0.046006
v -0.067017 0.036252 0.046006
v -0.108070 0.036252 0.046006
v -0.075692 0.044927 0.046006
v -0.099392 0.044927 0.046006
v -0.087542 0.048102 0.046006
v -0.099392 0.003874 0.046006
v -0.067017 0.036252 0.065743
v -0.063842 0.024399 0.065743
v -0.067017 0.012549 0.065743
v -0.111246 0.024399 0.065743
v -0.108070 0.036252 0.065743
v -0.075692 0.003874 0.065743
v -0.099392 0.044927 0.065743
v -0.087542 0.000699 0.065743
v -0.087542 0.048102 0.065743
v -0.099392 0.003874 0.065743
v -0.075692 0.044927 0.065743
v -0.108070 0.012549 0.065743
v 0.116859 0.019472 -0.065054
v 0.113251 0.015860 -0.065054
v 0.112637 0.016926 -0.062818
v 0.115793 0.020085 -0.062818
v -0.087542 0.014541 0.065054
v -0.082612 0.015860 0.065054
v -0.083229 0.016926 0.062818
v -0.087542 0.015772 0.062818
v 0.103390 0.032941 -0.065054
v 0.108320 0.034260 -0.065054
v 0.108320 0.033030 -0.062818
v 0.104007 0.031872 -0.062818
v -0.082612 0.015860 -0.065054
v -0.087542 0.014541 -0.065054
v -0.087542 0.015772 -0.062818
v -0.083229 0.016926 -0.062818
v -0.082612 0.032941 0.065054
v -0.087542 0.034260 0.065054
v -0.087542 0.033030 0.062818
v -0.083229 0.031872 0.062818
v 0.103390 0.015860 0.065054
v 0.108320 0.014541 0.065054
v 0.108320 0.015772 0.062818
v 0.104007 0.016926 0.062818
v -0.087542 0.034260 -0.065054
v -0.082612 0.032941 -0.065054
v -0.083229 0.031872 -0.062818
v -0.087542 0.033030 -0.062818
v 0.116859 0.029329 0.065054
v 0.113251 0.032941 0.065054
v 0.112637 0.031872 0.062818
v 0.115793 0.028716 0.062818
v 0.103390 0.015860 -0.065054
v 0.099781 0.019472 -0.065054
v 0.100847 0.020085 -0.062818
v 0.104007 0.016926 -0.062818
v 0.108320 0.000699 0.046006
v 0.128848 0.012549 0.046006
v 0.120174 0.003874 0.046006
v 0.132024 0.024399 0.046006
v 0.087795 0.012549 0.046006
v 0.084620 0.024399 0.046006
v 0.128848 0.036252 0.046006
v 0.087795 0.036252 0.046006
v 0.120174 0.044927 0.046006
v 0.096470 0.044927 0.046006
v 0.108320 0.048102 0.046006
v 0.096470 0.003874 0.046006
v 0.128848 0.036252 0.065743
v 0.132024 0.024399 0.065743
v 0.128848 0.012549 0.065743
v 0.084620 0.024399 0.065743
v 0.087795 0.036252 0.065743
v 0.120174 0.003874 0.065743
v 0.096470 0.044927 0.065743
v 0.108320 0.000699 0.065743
v 0.108320 0.048102 0.065743
v 0.096470 0.003874 0.065743
v 0.120174 0.044927 0.065743
v 0.087795 0.012549 0.065743
v 0.118181 0.024399 -0.065054
v 0.116951 0.024399 -0.062818
v -0.079004 0.019472 0.065054
v -0.080069 0.020085 0.062818
v 0.098463 0.024399 -0.065054
v 0.099781 0.029329 -0.065054
v 0.100847 0.028716 -0.062818
v 0.099693 0.024399 -0.062818
v -0.079004 0.019472 -0.065054
v -0.080069 0.020085 -0.062818
v -0.092473 0.032941 0.065054
v -0.091856 0.031872 0.062818
v 0.113251 0.015860 0.065054
v 0.112637 0.016926 0.062818
v -0.092473 0.032941 -0.065054
v -0.091856 0.031872 -0.062818
v 0.108320 0.034260 0.065054
v 0.108320 0.033030 0.062818
v 0.108320 0.014541 -0.065054
v 0.108320 0.015772 -0.062818
v 0.108320 0.000699 -0.046006
v 0.120174 0.003874 -0.046006
v 0.128848 0.012549 -0.046006
v 0.132024 0.024399 -0.046006
v 0.087795 0.012549 -0.046006
v 0.084620 0.024399 -0.046006
v 0.128848 0.036252 -0.046006
v 0.087795 0.036252 -0.046006
v 0.120174 0.044927 -0.046006
v 0.096470 0.044927 -0.046006
v 0.108320 0.048102 -0.046006
v 0.096470 0.003874 -0.046006
v 0.132024 0.024399 -0.065743
v 0.128848 0.036252 -0.065743
v 0.128848 0.012549 -0.065743
v 0.087795 0.036252 -0.065743
v 0.084620 0.024399 -0.065743
v 0.120174 0.003874 -0.065743
v 0.096470 0.044927 -0.065743
v 0.108320 0.000699 -0.065743
v 0.108320 0.048102 -0.065743
v 0.096470 0.003874 -0.065743
v 0.120174 0.044927 -0.065743
v 0.087795 0.012549 -0.065743
v -0.087542 0.000699 -0.046006
v -0.075692 0.003874 -0.046006
v -0.067017 0.012549 -0.046006
v -0.063842 0.024399 -0.046006
v -0.108070 0.012549 -0.046006
v -0.111246 0.024399 -0.046006
v -0.067017 0.036252 -0.046006
v -0.108070 0.036252 -0.046006
v -0.075692 0.044927 -0.046006
v -0.099392 0.044927 -0.046006
v -0.087542 0.048102 -0.046006
v -0.099392 0.003874 -0.046006
v -0.063842 0.024399 -0.065743
v -0.067017 0.036252 -0.065743
v -0.067017 0.012549 -0.065743
v -0.108070 0.036252 -0.065743
v -0.111246 0.024399 -0.065743
v -0.075692 0.003874 -0.065743
v -0.099392 0.044927 -0.065743
v -0.087542 0.000699 -0.065743
v -0.087542 0.048102 -0.065743
v -0.099392 0.003874 -0.065743
v -0.075692 0.044927 -0.065743
v -0.108070 0.012549 -0.065743
v 0.162352 0.041809 0.060598
v -0.153738 0.045028 0.060598
v -0.153814 0.031730 0.054627
v 0.153469 0.022011 0.054627
v -0.163431 0.045054 0.054627
v -0.157912 0.031752 0.054627
v -0.153738 0.045028 -0.060598
v 0.162352 0.041809 -0.060598
v 0.153469 0.022011 -0.054627
v -0.153814 0.031730 -0.054627
v -0.026578 0.078330 0.048450
v -0.026578 0.078330 -0.048450
v -0.026977 0.060433 -0.048450
v -0.026977 0.060433 0.048450
v -0.020405 0.078191 0.054627
v -0.153529 0.081239 0.054627
v -0.153589 0.070367 0.056420
v -0.153589 0.070367 0.035111
v -0.153589 0.070367 -0.035111
v -0.153589 0.070367 -0.056420
v 0.062346 0.081110 -0.054627
v 0.151812 0.072090 -0.054627
v 0.155199 0.062359 -0.056546
v 0.151812 0.072090 -0.039595
v 0.159104 0.061521 -0.039861
v -0.157912 0.031752 -0.054627
v -0.163431 0.045054 -0.054627
v 0.062346 0.081110 0.054627
v 0.151812 0.072090 0.054627
v 0.151812 0.072090 0.038608
v 0.058346 0.082757 -0.053864
v -0.017286 0.083083 -0.052546
v -0.010642 0.111850 -0.040462
v 0.032669 0.111072 -0.040430
v 0.033602 0.112836 -0.039655
v -0.012207 0.113646 -0.039655
v -0.012207 0.113646 0.039655
v 0.033602 0.112836 0.039655
v 0.060319 0.083346 0.050376
v 0.060319 0.083346 -0.050376
v 0.035626 0.110601 -0.037514
v 0.035626 0.110600 0.037514
v -0.017052 0.083052 0.052555
v 0.057862 0.082957 0.053773
v 0.032555 0.110857 0.040525
v -0.010452 0.111635 0.040560
v -0.019111 0.083782 -0.046793
v -0.019111 0.083782 0.046793
v -0.012957 0.110404 0.037426
v -0.012957 0.110404 -0.037426
v -0.020405 0.078191 -0.054627
v -0.153529 0.081239 -0.054627
v 0.155528 0.061417 0.056730
v -0.147352 0.081097 0.048450
v -0.147352 0.081097 -0.048450
v -0.153529 0.081239 -0.035111
v -0.153529 0.081239 0.035111
v -0.147751 0.063197 -0.048450
v -0.147751 0.063197 0.048450
v 0.051657 0.088577 -0.050987
v 0.048428 0.088577 -0.050987
v 0.048428 0.079804 -0.054608
v 0.051657 0.079804 -0.054608
v 0.048428 0.088393 -0.063235
v 0.048428 0.081657 -0.064684
v 0.050205 0.088393 -0.063235
v 0.050205 0.081657 -0.064684
v 0.051657 0.088577 0.050987
v 0.051657 0.079804 0.054608
v 0.048428 0.079804 0.054608
v 0.048428 0.088577 0.050987
v 0.048428 0.081657 0.064684
v 0.048428 0.088393 0.063235
v 0.050205 0.081657 0.064684
v 0.050205 0.088393 0.063235
v 0.159275 0.061024 0.038469
vt 0.071932 0.907066
vt 0.071938 0.915744
vt 0.066944 0.913423
vt 0.066939 0.905831
vt 0.026652 0.774343
vt 0.026652 0.782531
vt 0.021657 0.780120
vt 0.021657 0.772959
vt 0.021662 0.890835
vt 0.021657 0.882157
vt 0.026655 0.880924
vt 0.026659 0.888516
vt 0.829941 0.918727
vt 0.829941 0.929801
vt 0.824945 0.928343
vt 0.824945 0.918646
vt 0.076931 0.895742
vt 0.076931 0.907066
vt 0.071938 0.905831
vt 0.071938 0.895916
vt 0.071938 0.946469
vt 0.071938 0.935395
vt 0.076933 0.935314
vt 0.076933 0.945011
vt 0.071938 0.884787
vt 0.071932 0.895741
vt 0.066939 0.895916
vt 0.066944 0.886325
vt 0.071935 0.924155
vt 0.066939 0.935314
vt 0.066939 0.925474
vt 0.021657 0.870832
vt 0.021662 0.859878
vt 0.026659 0.861418
vt 0.026655 0.871009
vt 0.021657 0.713339
vt 0.021657 0.705184
vt 0.026652 0.707600
vt 0.026652 0.714741
vt 0.634441 0.907118
vt 0.620740 0.855277
vt 0.634441 0.879337
vt 0.597008 0.841387
vt 0.597007 0.945077
vt 0.569604 0.945078
vt 0.569599 0.841386
vt 0.545866 0.931185
vt 0.545868 0.855277
vt 0.532167 0.907119
vt 0.532167 0.879337
vt 0.620740 0.931178
vt 0.125204 0.905633
vt 0.169302 0.905641
vt 0.169302 0.932883
vt 0.125204 0.932876
vt 0.169290 0.959211
vt 0.125191 0.959203
vt 0.980889 0.971187
vt 0.936790 0.971187
vt 0.936790 0.944149
vt 0.980889 0.944149
vt 0.736748 0.822479
vt 0.780846 0.822479
vt 0.780846 0.842085
vt 0.736748 0.842085
vt 0.936790 0.923946
vt 0.980889 0.923946
vt 0.780846 0.868905
vt 0.736748 0.868905
vt 0.346375 0.998746
vt 0.302277 0.998746
vt 0.302277 0.971980
vt 0.346375 0.971980
vt 0.780846 0.895755
vt 0.736748 0.895755
vt 0.302277 0.945078
vt 0.346375 0.945078
vt 0.780846 0.915446
vt 0.736748 0.915446
vt 0.125191 0.884787
vt 0.169290 0.884795
vt 0.980889 0.997804
vt 0.936790 0.997804
vt 0.021657 0.899246
vt 0.026652 0.893208
vt 0.026652 0.900565
vt 0.878544 0.285590
vt 0.878544 0.274454
vt 0.883539 0.275873
vt 0.883539 0.285616
vt 0.026652 0.752013
vt 0.026652 0.763172
vt 0.021657 0.763178
vt 0.021657 0.753414
vt 0.880359 0.552739
vt 0.880359 0.563875
vt 0.875364 0.563902
vt 0.875364 0.554159
vt 0.021657 0.813017
vt 0.021657 0.801846
vt 0.026652 0.801851
vt 0.026652 0.811625
vt 0.865372 0.575068
vt 0.865372 0.563875
vt 0.870368 0.563902
vt 0.870368 0.573695
vt 0.026652 0.840519
vt 0.026652 0.851690
vt 0.021657 0.850299
vt 0.021657 0.840525
vt 0.021657 0.743858
vt 0.021657 0.735670
vt 0.026652 0.734285
vt 0.026652 0.741447
vt 0.824950 0.899077
vt 0.824945 0.890398
vt 0.829943 0.889165
vt 0.829947 0.896757
vt 0.244103 0.775646
vt 0.257802 0.827494
vt 0.244101 0.803435
vt 0.281534 0.841385
vt 0.281535 0.737695
vt 0.308938 0.737694
vt 0.308943 0.841386
vt 0.332676 0.751586
vt 0.332674 0.827494
vt 0.346377 0.775645
vt 0.346377 0.803427
vt 0.257804 0.751586
vt 0.081093 0.905633
vt 0.081093 0.932875
vt 0.081081 0.959203
vt 0.634443 0.952759
vt 0.678542 0.952759
vt 0.678542 0.979797
vt 0.634443 0.979797
vt 0.532167 0.934353
vt 0.488068 0.934353
vt 0.488068 0.914747
vt 0.532167 0.914747
vt 0.678542 1.000000
vt 0.634443 1.000000
vt 0.488068 0.887919
vt 0.532167 0.887919
vt 0.532167 0.988028
vt 0.488068 0.988028
vt 0.488068 0.961262
vt 0.532167 0.961262
vt 0.488068 0.861070
vt 0.532167 0.861070
vt 0.488068 0.841386
vt 0.532167 0.841386
vt 0.081081 0.884787
vt 0.634443 0.926142
vt 0.678542 0.926142
vt 0.021657 0.921560
vt 0.021657 0.910486
vt 0.026652 0.910406
vt 0.026652 0.920102
vt 0.829941 0.907487
vt 0.824945 0.908807
vt 0.824945 0.879074
vt 0.824950 0.868119
vt 0.829947 0.869659
vt 0.829943 0.879251
vt 0.076933 0.925474
vt 0.021657 0.790686
vt 0.021657 0.782531
vt 0.026652 0.784948
vt 0.026652 0.792088
vt 0.066939 0.918117
vt 0.026652 0.821205
vt 0.026652 0.829360
vt 0.021657 0.830761
vt 0.021657 0.823621
vt 0.021657 0.724499
vt 0.026652 0.724504
vt 0.875364 0.552739
vt 0.870368 0.554151
vt 0.467309 0.737695
vt 0.494726 0.737694
vt 0.518463 0.751582
vt 0.532167 0.775636
vt 0.429864 0.775633
vt 0.429862 0.803407
vt 0.532167 0.803416
vt 0.443567 0.827467
vt 0.518460 0.827469
vt 0.467304 0.841356
vt 0.494714 0.841357
vt 0.443571 0.751580
vt 0.824957 0.936300
vt 0.824957 0.963542
vt 0.780858 0.963535
vt 0.780858 0.936292
vt 0.824945 0.989870
vt 0.780846 0.989862
vt 0.692649 0.973383
vt 0.692649 0.946345
vt 0.736748 0.946345
vt 0.736748 0.973383
vt 0.429862 0.737694
vt 0.429862 0.757299
vt 0.385763 0.757299
vt 0.385763 0.737694
vt 0.692649 0.926142
vt 0.736748 0.926142
vt 0.429862 0.784127
vt 0.385763 0.784127
vt 0.346375 0.998753
vt 0.390474 0.971988
vt 0.390474 0.998753
vt 0.429862 0.810977
vt 0.385763 0.810977
vt 0.390474 0.945078
vt 0.429862 0.830661
vt 0.385763 0.830661
vt 0.824945 0.915454
vt 0.692649 1.000000
vt 0.736748 1.000000
vt 0.878544 0.296783
vt 0.883539 0.295410
vt 0.880359 0.575068
vt 0.875364 0.573695
vt 0.021657 0.821205
vt 0.026652 0.818794
vt 0.076936 0.915744
vt 0.071942 0.913423
vt 0.026652 0.859878
vt 0.021657 0.857468
vt 0.066939 0.945011
vt 0.076936 0.884787
vt 0.071942 0.886325
vt 0.346377 0.907118
vt 0.346377 0.879337
vt 0.360078 0.855277
vt 0.383810 0.841387
vt 0.383811 0.945077
vt 0.411214 0.945078
vt 0.411219 0.841386
vt 0.434952 0.931186
vt 0.434950 0.855277
vt 0.448651 0.907119
vt 0.448651 0.879337
vt 0.360078 0.931179
vt 0.936790 0.903093
vt 0.936790 0.875850
vt 0.980889 0.875858
vt 0.980889 0.903100
vt 0.936802 0.849522
vt 0.980901 0.849530
vt 0.736748 0.962687
vt 0.736748 0.935649
vt 0.780846 0.935649
vt 0.780846 0.962687
vt 0.824945 0.822479
vt 0.824945 0.842085
vt 0.824945 0.868905
vt 0.288200 0.945078
vt 0.288200 0.971843
vt 0.244101 0.971843
vt 0.244101 0.945078
vt 0.824945 0.895755
vt 0.288200 0.998746
vt 0.244101 0.998746
vt 0.824945 0.915446
vt 0.736748 0.989304
vt 0.780846 0.989304
vt 0.394758 0.737694
vt 0.409646 0.022021
vt 0.439035 0.022707
vt 0.439272 0.718903
vt 0.409960 0.000000
vt 0.439272 0.013429
vt 0.604817 0.715673
vt 0.589929 0.000000
vt 0.634443 0.018791
vt 0.634206 0.714987
vt 0.903524 0.849522
vt 0.903524 0.575069
vt 0.946416 0.588610
vt 0.946416 0.836021
vt 0.000000 0.705184
vt 0.000000 0.009282
vt 0.244101 0.009282
vt 0.244101 0.705184
vt 0.946416 0.794505
vt 0.946416 0.575069
vt 0.986411 0.575069
vt 0.986411 0.794505
vt 0.325990 0.321393
vt 0.328481 0.019861
vt 0.352852 0.020516
vt 0.902830 0.264993
vt 0.902830 0.216737
vt 0.902830 0.057717
vt 0.902830 0.009461
vt 0.959429 0.000000
vt 0.959429 0.274454
vt 0.508864 0.229206
vt 0.522753 0.026072
vt 0.544341 0.017694
vt 0.834516 0.836018
vt 0.834516 0.801978
vt 0.859112 0.802566
vt 0.856692 0.840359
vt 0.000000 0.000000
vt 0.244101 0.000000
vt 0.634443 0.724265
vt 0.605131 0.737694
vt 0.021657 0.979638
vt 0.000000 0.966116
vt 0.000000 0.718706
vt 0.970648 0.522753
vt 0.970648 0.275343
vt 1.000000 0.275343
vt 1.000000 0.522753
vt 0.834516 0.822479
vt 0.634443 0.822479
vt 0.634443 0.575069
vt 0.834516 0.575069
vt 0.834516 0.611343
vt 0.834516 0.788439
vt 0.505426 0.238387
vt 0.509914 0.409616
vt 0.444606 0.396765
vt 0.443317 0.298680
vt 0.066939 0.705184
vt 0.169302 0.705184
vt 0.066939 0.884787
vt 0.238829 0.714813
vt 0.238829 0.942973
vt 0.174574 0.913891
vt 0.174573 0.743985
vt 0.314797 0.328610
vt 0.309840 0.498196
vt 0.248639 0.438773
vt 0.249907 0.341375
vt 0.918085 0.319260
vt 0.918085 0.531191
vt 0.858232 0.509978
vt 0.858232 0.340473
vt 0.521161 0.416301
vt 0.523652 0.717833
vt 0.548022 0.717178
vt 0.313694 0.508488
vt 0.327582 0.711621
vt 0.351261 0.720813
vt 0.864744 0.287538
vt 0.864744 0.013989
vt 0.878544 0.000000
vt 0.878544 0.301520
vt 0.648243 0.013990
vt 0.634443 0.000000
vt 0.678047 0.000000
vt 0.834940 0.000000
vt 0.648243 0.287538
vt 0.634443 0.301520
vt 0.850944 0.301520
vt 0.850944 0.575068
vt 0.026946 0.978772
vt 0.026954 0.705204
vt 0.066939 0.978752
vt 0.999286 0.055017
vt 0.999286 0.274454
vt 0.959429 0.055014
vt 0.930662 0.548911
vt 0.930655 0.275343
vt 0.970648 0.275363
vt 0.970648 0.548931
vt 0.858158 0.555380
vt 0.865372 0.555397
vt 0.858158 0.575052
vt 0.365031 0.840866
vt 0.370382 0.813660
vt 0.385763 0.813192
vt 0.385763 0.836391
vt 0.346631 0.813192
vt 0.350603 0.813196
vt 0.350603 0.828522
vt 0.346631 0.828518
vt 0.456206 0.971762
vt 0.450828 0.944562
vt 0.471567 0.948865
vt 0.471567 0.972104
vt 0.832159 0.822482
vt 0.832159 0.845299
vt 0.828188 0.845298
vt 0.361056 0.813192
vt 0.365027 0.813192
vt 0.357817 0.840929
vt 0.850944 0.555397
vt 0.450828 0.916888
vt 0.471561 0.921362
vt 0.471561 0.944562
vt 0.456179 0.944093
vt 0.829947 0.883450
vt 0.829947 0.868123
vt 0.833918 0.868119
vt 0.833918 0.883446
vt 0.619082 0.945417
vt 0.634443 0.945078
vt 0.634443 0.968312
vt 0.613704 0.972612
vt 0.824945 0.868119
vt 0.832159 0.868117
vt 0.354577 0.813192
vt 0.350603 0.840929
vt 0.440664 0.400446
vt 0.439272 0.296703
vt 0.244101 0.952595
vt 0.169302 0.918743
vt 0.169302 0.739141
vt 0.244101 0.440991
vt 0.245493 0.337248
vt 0.930655 0.301520
vt 0.850944 0.515027
vt 0.850944 0.335424
vt 0.879919 0.879803
vt 0.870046 0.885584
vt 0.848215 0.863414
vt 0.871953 0.849522
vt 0.864340 0.895594
vt 0.834516 0.887480
vt 0.864345 0.907151
vt 0.834516 0.915262
vt 0.870040 0.917163
vt 0.848217 0.939322
vt 0.879919 0.922940
vt 0.871948 0.953214
vt 0.891320 0.922942
vt 0.899357 0.953213
vt 0.901187 0.917163
vt 0.923089 0.939322
vt 0.906893 0.907153
vt 0.936790 0.915263
vt 0.906888 0.895595
vt 0.936790 0.887481
vt 0.901192 0.885583
vt 0.923089 0.863421
vt 0.891314 0.879807
vt 0.899356 0.849523
vt 0.664319 0.880120
vt 0.670015 0.890129
vt 0.648148 0.912253
vt 0.634443 0.888192
vt 0.679891 0.895913
vt 0.671885 0.926141
vt 0.691294 0.895908
vt 0.699295 0.926142
vt 0.701172 0.890136
vt 0.723041 0.912254
vt 0.706872 0.880124
vt 0.736748 0.888202
vt 0.706875 0.868568
vt 0.736748 0.860421
vt 0.701173 0.858567
vt 0.723044 0.836367
vt 0.691298 0.852783
vt 0.699307 0.822479
vt 0.679894 0.852788
vt 0.671890 0.822480
vt 0.670016 0.858560
vt 0.648151 0.836366
vt 0.664316 0.868572
vt 0.634445 0.860418
vt 0.598913 0.773749
vt 0.589038 0.767975
vt 0.597003 0.737694
vt 0.620742 0.751586
vt 0.604619 0.783759
vt 0.634443 0.775645
vt 0.604614 0.795316
vt 0.634443 0.803427
vt 0.598918 0.805328
vt 0.620740 0.827494
vt 0.589040 0.811105
vt 0.577638 0.811107
vt 0.567772 0.805328
vt 0.545868 0.827494
vt 0.562066 0.795318
vt 0.562071 0.783760
vt 0.567766 0.773748
vt 0.545870 0.751586
vt 0.577644 0.767972
vt 0.569601 0.737694
vt 0.279631 0.909016
vt 0.289504 0.914797
vt 0.281538 0.945078
vt 0.257800 0.931186
vt 0.273925 0.899006
vt 0.244101 0.907119
vt 0.273930 0.887448
vt 0.244101 0.879337
vt 0.279626 0.877436
vt 0.257802 0.855277
vt 0.289504 0.871660
vt 0.300906 0.871658
vt 0.310772 0.877437
vt 0.332674 0.855277
vt 0.316478 0.887447
vt 0.316473 0.899004
vt 0.310778 0.909016
vt 0.332674 0.931179
vt 0.300899 0.914793
vt 0.308941 0.945077
vt 0.450835 0.892953
vt 0.455822 0.884195
vt 0.464468 0.879137
vt 0.474442 0.879141
vt 0.455815 0.911827
vt 0.464452 0.916888
vt 0.483088 0.884197
vt 0.474435 0.916888
vt 0.488068 0.892958
vt 0.483074 0.911828
vt 0.488068 0.903072
vt 0.450828 0.903064
vt 0.362154 0.775454
vt 0.372138 0.775447
vt 0.380778 0.780505
vt 0.385772 0.789259
vt 0.348523 0.789269
vt 0.348528 0.799378
vt 0.385772 0.799377
vt 0.353517 0.808141
vt 0.380787 0.808129
vt 0.362161 0.813190
vt 0.372140 0.813192
vt 0.353513 0.780508
vt 0.348528 0.761624
vt 0.362159 0.775443
vt 0.353516 0.770390
vt 0.353512 0.742751
vt 0.362151 0.737698
vt 0.380780 0.770386
vt 0.372133 0.737694
vt 0.385763 0.761633
vt 0.380770 0.742755
vt 0.385763 0.751512
vt 0.348523 0.751513
vt 0.450835 0.865321
vt 0.455822 0.874079
vt 0.455815 0.846447
vt 0.464452 0.841386
vt 0.483088 0.874076
vt 0.474435 0.841386
vt 0.488068 0.865315
vt 0.483074 0.846446
vt 0.488068 0.855202
vt 0.450828 0.855209
vt 0.875364 0.575068
vt 0.865372 0.552739
vt 0.076933 0.918116
vt 0.026652 0.743858
vt 0.021657 0.746274
vt 0.829941 0.899076
vt 0.824945 0.901449
vt 0.860243 0.625183
vt 0.834516 0.624881
vt 0.834516 0.588607
vt 0.858840 0.583838
vt 0.878544 0.057717
vt 0.878544 0.013521
vt 0.878544 0.260932
vt 0.878544 0.216737
vn 0.624500 0.624200 0.469400
vn -0.624500 -0.624200 -0.469400
vn 0.624500 0.624200 -0.469400
vn -0.852900 -0.228500 0.469500
vn 0.853000 0.228300 0.469300
vn -0.852700 -0.228400 -0.469800
vn 0.852900 -0.228700 0.469300
vn -0.852900 0.228800 0.469300
vn 0.852900 -0.228700 -0.469300
vn 0.624400 -0.624400 0.469400
vn -0.000000 0.000000 -1.000000
vn 0.965900 0.258800 0.000000
vn 0.965900 -0.258800 -0.000000
vn -0.965900 0.258800 0.000000
vn 0.707100 -0.707100 -0.000000
vn -0.707000 0.707200 0.000000
vn 0.258800 -0.965900 -0.000000
vn -0.258800 0.965900 0.000000
vn -0.258800 -0.965900 -0.000000
vn 0.258800 0.965900 0.000000
vn -0.707000 -0.707200 -0.000000
vn 0.707100 0.707100 0.000000
vn -0.965900 -0.258800 -0.000000
vn -0.624500 0.624300 -0.469400
vn -0.228200 0.853000 0.469400
vn 0.228500 -0.852900 -0.469500
vn -0.228200 0.853000 -0.469400
vn -0.228500 -0.852900 0.469500
vn 0.228200 0.853000 0.469400
vn -0.228500 -0.852900 -0.469500
vn -0.624500 -0.624200 0.469400
vn 0.852900 0.228800 0.469300
vn -0.707100 0.707100 0.000000
vn -0.707100 -0.707100 -0.000000
vn -0.852900 -0.228700 -0.469300
vn 0.852900 0.228800 -0.469300
vn -0.852700 0.228500 0.469800
vn 0.853100 -0.228100 -0.469300
vn -0.852700 0.228500 -0.469800
vn 0.624200 -0.624200 0.469700
vn -0.624500 0.624300 0.469400
vn 0.624200 -0.624200 -0.469700
vn 0.228500 -0.852900 0.469500
vn -0.228100 0.853100 -0.469300
vn 0.000000 -0.000000 1.000000
vn -0.228400 -0.852700 -0.469800
vn 0.228200 0.853000 -0.469400
vn -0.624400 -0.624400 0.469400
vn -0.624400 -0.624400 -0.469400
vn -0.852900 -0.228700 0.469300
vn 0.853000 0.228300 -0.469300
vn 0.852800 -0.228500 0.469500
vn -0.852900 0.228800 -0.469300
vn -0.007000 -0.337700 0.941200
vn -0.382600 -0.276200 0.881600
vn -0.007000 -0.337700 -0.941200
vn 0.912400 -0.409400 -0.000000
vn -0.031600 -0.999500 -0.000000
vn -0.999800 0.022300 0.000000
vn 0.003700 0.162700 0.986700
vn -1.000000 0.005700 0.000000
vn -1.000000 0.006000 0.000000
vn -1.000000 0.005900 0.000000
vn 0.020200 0.200200 -0.979600
vn 0.876700 0.471500 -0.095500
vn -0.005400 -1.000000 -0.000000
vn -0.382800 -0.276500 -0.881500
vn 0.002600 1.000000 0.000000
vn -0.923700 -0.383200 -0.000000
vn 0.100300 0.995000 0.000000
vn -0.006100 0.406400 -0.913700
vn 0.017700 0.999800 0.000000
vn 0.741000 0.671500 -0.000100
vn 0.741000 0.671500 0.000100
vn 0.741200 0.671300 0.000100
vn 0.741200 0.671300 -0.000100
vn -0.006200 0.406300 0.913700
vn -0.974300 0.225300 0.000000
vn -0.974300 0.225200 -0.000000
vn 0.000100 0.162500 -0.986700
vn 0.003700 0.162700 -0.986700
vn 0.000100 0.162500 0.986700
vn 0.020200 0.200200 0.979600
vn 0.022700 0.999700 -0.000100
vn 0.023000 0.999700 -0.000100
vn 0.023000 0.999700 0.000100
vn 0.023000 0.999700 0.000000
vn 0.022700 0.999700 0.000100
vn 0.022900 0.999700 0.000000
vn 0.999800 -0.022300 -0.000000
vn 0.000000 -0.381500 0.924400
vn -1.000000 -0.000000 0.000000
vn 0.000000 0.210200 -0.977700
vn 0.991200 0.041100 -0.125800
vn 0.000000 -0.983500 -0.180900
vn 0.000000 0.999900 -0.015000
vn 0.000000 -0.381500 -0.924400
vn 0.000000 0.210200 0.977700
vn 0.991200 0.041100 0.125800
vn 0.000000 -0.983500 0.180900
vn 0.000000 0.999900 0.015000
vn -0.014100 0.397000 -0.917700
vn 0.007600 0.407400 -0.913200
vn -0.007400 0.389600 -0.920900
vn -0.007200 0.422300 -0.906400
vn 0.741000 0.671500 -0.000200
vn 0.741000 0.671500 0.000200
vn 0.741300 0.671200 0.000200
vn 0.741300 0.671200 -0.000200
vn -0.014200 0.397300 0.917600
vn 0.007600 0.407300 0.913200
vn -0.007200 0.422500 0.906300
vn -0.007200 0.389500 0.921000
vn 0.049700 -0.013300 0.998700
vn 0.036400 -0.036400 0.998700
vn 0.013300 -0.049700 0.998700
vn -0.013300 -0.049700 0.998700
vn -0.036400 -0.036400 0.998700
vn -0.049700 -0.013300 0.998700
vn -0.049700 0.013300 0.998700
vn -0.036400 0.036400 0.998700
vn -0.013300 0.049700 0.998700
vn 0.013300 0.049700 0.998700
vn 0.036400 0.036400 0.998700
vn 0.049700 0.013300 0.998700
vn 0.049700 -0.013300 -0.998700
vn 0.036400 -0.036400 -0.998700
vn 0.013300 -0.049700 -0.998700
vn -0.013300 -0.049700 -0.998700
vn -0.036400 -0.036400 -0.998700
vn -0.049700 -0.013300 -0.998700
vn -0.049700 0.013300 -0.998700
vn -0.036400 0.036400 -0.998700
vn -0.013300 0.049700 -0.998700
vn 0.013300 0.049700 -0.998700
vn 0.036400 0.036400 -0.998700
vn 0.049700 0.013300 -0.998700
vn -0.228400 -0.852700 0.469800
vn 0.228400 -0.852700 -0.469900
vn -0.228500 0.852800 0.469500
vn 0.228400 -0.852700 0.469900
vn -0.624500 0.624200 -0.469400
vn 0.624400 -0.624400 -0.469400
vn -0.624500 0.624200 0.469400
vn 0.987100 0.160400 -0.000400
vn 0.882200 0.461900 0.091200
vn 0.917300 0.354900 0.180600
vn 0.826300 0.563200 0.000900
vn 0.913500 0.356600 -0.195900
vn -1.000000 0.005500 0.000000
usemtl vertexColorShader
s 1
f 1/1/1 2/2/1 3/3/1 4/4/1
f 5/5/2 6/6/2 7/7/2 8/8/2
f 9/9/3 10/10/3 11/11/3 12/12/3
f 13/13/4 14/14/4 15/15/4 16/16/4
f 17/17/5 18/18/5 19/19/5 20/20/5
f 21/21/6 22/22/6 23/23/6 24/24/6
f 25/25/7 26/26/7 27/27/7 28/28/7
f 29/29/8 30/22/8 31/30/8 32/31/8
f 33/32/9 34/33/9 35/34/9 36/35/9
f 37/36/10 38/37/10 39/38/10 40/39/10
f 41/40/11 42/41/11 43/42/11
f 41/40/11 44/43/11 42/41/11
f 45/44/11 44/43/11 41/40/11
f 46/45/11 44/43/11 45/44/11
f 46/45/11 47/46/11 44/43/11
f 46/45/11 48/47/11 47/46/11
f 47/46/11 48/47/11 49/48/11
f 50/49/11 51/50/11 48/47/11
f 51/50/11 49/48/11 48/47/11
f 52/51/11 45/44/11 41/40/11
f 47/52/12 53/53/12 54/54/12 44/55/12
f 44/55/13 54/54/13 55/56/13 42/57/13
f 46/58/14 56/59/14 57/60/14 48/61/14
f 42/62/15 55/63/15 58/64/15 43/65/15
f 48/61/16 57/60/16 59/66/16 50/67/16
f 43/65/17 58/64/17 60/68/17 41/69/17
f 50/70/18 59/71/18 61/72/18 51/73/18
f 41/69/19 60/68/19 62/74/19 52/75/19
f 51/73/20 61/72/20 63/76/20 49/77/20
f 52/75/21 62/74/21 64/78/21 45/79/21
f 49/80/22 63/81/22 53/53/22 47/52/22
f 45/82/23 64/83/23 56/59/23 46/58/23
f 65/84/24 66/9/24 67/85/24 68/86/24
f 69/87/25 70/88/25 71/89/25 72/90/25
f 73/91/26 74/92/26 75/93/26 76/94/26
f 77/95/27 78/96/27 79/97/27 80/98/27
f 81/99/28 82/100/28 83/101/28 84/102/28
f 85/103/29 86/104/29 87/105/29 88/106/29
f 89/107/30 90/108/30 91/109/30 92/110/30
f 93/111/31 94/112/31 95/113/31 96/114/31
f 97/115/3 98/116/3 99/117/3 100/118/3
f 26/26/32 1/1/32 4/4/32 27/27/32
f 101/119/11 102/120/11 103/121/11
f 101/119/11 104/122/11 102/120/11
f 105/123/11 104/122/11 101/119/11
f 106/124/11 104/122/11 105/123/11
f 106/124/11 107/125/11 104/122/11
f 106/124/11 108/126/11 107/125/11
f 107/125/11 108/126/11 109/127/11
f 110/128/11 111/129/11 108/126/11
f 111/129/11 109/127/11 108/126/11
f 112/130/11 105/123/11 101/119/11
f 107/131/12 113/52/12 114/55/12 104/132/12
f 104/132/13 114/55/13 115/57/13 102/133/13
f 106/134/14 116/135/14 117/136/14 108/137/14
f 102/138/15 115/139/15 118/140/15 103/141/15
f 108/137/33 117/136/33 119/142/33 110/143/33
f 103/141/17 118/140/17 120/144/17 101/145/17
f 110/146/18 119/147/18 121/148/18 111/149/18
f 101/145/19 120/144/19 122/150/19 112/151/19
f 111/149/20 121/148/20 123/139/20 109/138/20
f 112/151/34 122/150/34 124/152/34 105/153/34
f 109/154/22 123/80/22 113/52/22 107/131/22
f 105/155/23 124/156/23 116/135/23 106/134/23
f 6/157/35 125/158/35 126/159/35 7/160/35
f 10/10/36 33/32/36 36/35/36 11/11/36
f 127/161/37 13/13/37 16/16/37 128/162/37
f 129/163/38 130/164/38 131/165/38 132/166/38
f 22/22/39 133/29/39 134/167/39 23/23/39
f 135/168/40 25/169/40 28/170/40 136/171/40
f 137/2/41 29/29/41 32/31/41 138/172/41
f 34/173/42 139/174/42 140/175/42 35/176/42
f 141/177/43 37/36/43 40/39/43 142/178/43
f 66/179/44 143/97/44 144/105/44 67/180/44
f 145/181/45 146/182/45 147/183/45
f 145/181/45 147/183/45 148/184/45
f 149/185/45 145/181/45 148/184/45
f 150/186/45 149/185/45 148/184/45
f 150/186/45 148/184/45 151/187/45
f 150/186/45 151/187/45 152/188/45
f 151/187/45 153/189/45 152/188/45
f 154/190/45 152/188/45 155/191/45
f 155/191/45 152/188/45 153/189/45
f 156/192/45 145/181/45 149/185/45
f 151/193/12 148/194/12 157/195/12 158/196/12
f 148/194/13 147/197/13 159/198/13 157/195/13
f 150/199/14 152/200/14 160/201/14 161/202/14
f 147/203/15 146/204/15 162/205/15 159/206/15
f 152/200/33 154/207/33 163/208/33 160/201/33
f 146/204/17 145/209/17 164/210/17 162/205/17
f 154/211/18 155/73/18 165/212/18 163/213/18
f 145/209/19 156/214/19 166/215/19 164/210/19
f 155/73/20 153/77/20 167/216/20 165/212/20
f 156/214/34 149/217/34 168/218/34 166/215/34
f 153/219/22 151/193/22 158/196/22 167/78/22
f 149/220/23 150/199/23 161/202/23 168/221/23
f 2/222/29 69/87/29 72/90/29 3/223/29
f 74/92/46 5/5/46 8/8/46 75/93/46
f 78/96/47 9/224/47 12/225/47 79/97/47
f 14/226/48 81/99/48 84/102/48 15/227/48
f 18/18/1 85/228/1 88/229/1 19/19/1
f 90/108/49 21/230/49 24/231/49 91/109/49
f 30/22/50 93/21/50 96/232/50 31/30/50
f 98/116/51 129/163/51 132/166/51 99/117/51
f 38/233/52 17/17/52 20/20/52 39/234/52
f 125/158/53 65/84/53 68/86/53 126/159/53
f 169/235/45 170/236/45 171/237/45
f 169/235/45 171/237/45 172/238/45
f 173/239/45 169/235/45 172/238/45
f 174/240/45 173/239/45 172/238/45
f 174/240/45 172/238/45 175/241/45
f 174/240/45 175/241/45 176/242/45
f 175/241/45 177/243/45 176/242/45
f 178/244/45 176/242/45 179/245/45
f 179/245/45 176/242/45 177/243/45
f 180/246/45 169/235/45 173/239/45
f 175/247/12 172/248/12 181/249/12 182/250/12
f 172/248/13 171/251/13 183/252/13 181/249/13
f 174/253/14 176/254/14 184/255/14 185/256/14
f 171/257/15 170/258/15 186/64/15 183/63/15
f 176/254/16 178/79/16 187/78/16 184/255/16
f 170/258/17 169/259/17 188/68/17 186/64/17
f 178/260/18 179/261/18 189/262/18 187/263/18
f 169/259/19 180/264/19 190/74/19 188/68/19
f 179/261/20 177/265/20 191/266/20 189/262/20
f 180/264/21 173/267/21 192/78/21 190/74/21
f 177/66/22 175/247/22 182/250/22 191/67/22
f 173/268/23 174/253/23 185/256/23 192/269/23
f 193/270/54 194/271/54 195/272/54 196/273/54
f 195/272/55 194/271/55 197/274/55 198/275/55
f 199/276/56 200/277/56 201/278/56 202/279/56
f 200/280/57 193/281/57 196/282/57 201/283/57
f 196/284/58 195/285/58 202/286/58 201/287/58
f 203/288/59 204/289/59 205/290/59 206/291/59
f 194/271/60 207/292/60 208/293/60 209/294/60
f 209/295/61 210/296/61 211/297/62 212/298/61 199/299/63 194/300/63
f 200/277/64 213/301/64 214/302/64 215/303/64
f 214/304/65 216/305/65 217/306/65 215/307/65
f 202/286/66 195/285/66 198/308/66 218/309/66
f 199/276/67 202/279/67 218/310/67 219/311/67
f 194/37/68 199/312/68 219/313/68 197/314/68
f 197/315/69 219/316/69 218/317/69 198/318/69
f 214/319/70 213/320/70 220/321/70 221/322/70 222/323/70 216/324/70
f 223/325/71 224/326/71 225/327/71 226/328/71
f 227/329/72 228/330/72 229/81/72 230/331/72
f 231/332/73 232/333/74 233/334/75 234/335/76
f 235/336/77 236/337/77 237/338/77 238/339/77
f 239/340/78 240/341/78 241/342/79 242/343/79
f 243/344/80 213/301/80 200/277/80 199/276/80
f 244/345/81 243/344/81 199/276/81 212/346/81
f 220/347/82 207/292/82 194/271/82 193/270/82
f 221/348/83 220/347/83 193/270/83 245/349/83
f 203/350/84 246/351/85 208/352/85 207/353/84
f 246/351/85 247/354/86 244/355/86 248/356/87 249/357/87 208/352/85
f 247/354/86 204/358/88 243/359/88 244/355/86
f 204/358/88 203/350/84 207/353/84 243/359/88
f 205/321/89 250/359/89 251/360/89 206/361/89
f 246/362/11 203/363/11 206/329/11 251/364/11
f 247/365/90 246/366/90 251/300/90 250/367/90
f 204/368/45 247/369/45 250/370/45 205/371/45
f 252/372/91 253/373/91 254/103/91 255/374/91
f 253/375/92 256/376/92 257/377/92 254/378/92
f 256/379/93 258/380/93 259/381/93 257/382/93
f 258/383/94 252/384/94 255/385/94 259/386/94
f 255/257/95 254/387/95 257/388/95 259/389/95
f 258/390/96 256/391/96 253/375/96 252/392/96
f 260/372/97 261/374/97 262/361/97 263/393/97
f 263/394/92 262/395/92 264/396/92 265/397/92
f 265/398/98 264/399/98 266/400/98 267/401/98
f 267/402/99 266/403/99 261/404/99 260/405/99
f 261/406/100 266/389/100 264/388/100 262/407/100
f 267/408/101 260/392/101 263/409/101 265/380/101
f 224/326/102 223/325/102 213/301/102 243/344/102
f 226/328/103 225/327/103 228/410/103 227/411/103
f 225/327/104 224/326/104 243/344/104 228/410/104
f 223/325/105 226/328/105 227/411/105 213/301/105
f 232/333/74 231/332/73 220/287/106 213/412/107
f 234/335/76 233/334/75 227/413/108 230/414/109
f 233/334/75 232/333/74 213/412/107 227/413/108
f 231/332/73 234/335/76 230/414/109 220/287/106
f 236/337/110 235/336/110 207/292/110 220/347/110
f 238/339/111 237/338/111 230/415/111 229/416/111
f 237/338/112 236/337/112 220/347/112 230/415/112
f 235/336/113 238/339/113 229/416/113 207/292/113
f 240/341/78 239/340/78 243/417/78 207/368/78
f 242/343/79 241/342/79 229/418/79 228/419/79
f 239/340/78 242/343/79 228/419/79 243/417/78
f 241/342/79 240/341/78 207/368/78 229/418/79
f 26/420/114 25/421/114 57/422/114 56/423/114
f 25/421/115 135/424/115 59/425/115 57/422/115
f 135/424/116 82/426/116 61/427/116 59/425/116
f 82/426/117 81/428/117 63/429/117 61/427/117
f 81/428/118 14/430/118 53/431/118 63/429/118
f 14/430/119 13/432/119 54/433/119 53/431/119
f 13/432/120 127/434/120 55/435/120 54/433/120
f 127/434/121 70/436/121 58/437/121 55/435/121
f 70/436/122 69/438/122 60/439/122 58/437/122
f 69/438/123 2/440/123 62/441/123 60/439/123
f 2/440/124 1/442/124 64/443/124 62/441/124
f 1/442/125 26/420/125 56/423/125 64/443/125
f 17/444/114 38/445/114 117/446/114 116/447/114
f 38/445/115 37/448/115 119/449/115 117/446/115
f 37/448/116 141/450/116 121/451/116 119/449/116
f 141/450/117 94/452/117 123/453/117 121/451/117
f 94/452/118 93/454/118 113/455/118 123/453/118
f 93/454/119 30/456/119 114/457/119 113/455/119
f 30/456/120 29/458/120 115/459/120 114/457/120
f 29/458/121 137/460/121 118/461/121 115/459/121
f 137/460/122 86/462/122 120/463/122 118/461/122
f 86/462/123 85/464/123 122/465/123 120/463/123
f 85/464/124 18/466/124 124/467/124 122/465/124
f 18/466/125 17/444/125 116/447/125 124/467/125
f 130/468/126 129/469/126 161/470/126 160/471/126
f 73/472/127 130/468/127 160/471/127 163/473/127
f 74/474/128 73/472/128 163/473/128 165/475/128
f 5/476/129 74/474/129 165/475/129 167/477/129
f 6/478/130 5/476/130 167/477/130 158/43/130
f 125/479/131 6/478/131 158/43/131 157/46/131
f 65/480/132 125/479/132 157/46/132 159/481/132
f 66/482/133 65/480/133 159/481/133 162/187/133
f 143/483/134 66/482/134 162/187/134 164/184/134
f 97/484/135 143/483/135 164/184/135 166/485/135
f 98/486/136 97/484/136 166/485/136 168/487/136
f 129/469/137 98/486/137 168/487/137 161/470/137
f 34/488/126 33/489/126 185/490/126 184/491/126
f 139/492/127 34/488/127 184/491/127 187/493/127
f 89/494/128 139/492/128 187/493/128 189/495/128
f 90/496/129 89/494/129 189/495/129 191/497/129
f 21/498/130 90/496/130 191/497/130 182/122/130
f 22/499/131 21/498/131 182/122/131 181/125/131
f 133/500/132 22/499/132 181/125/132 183/501/132
f 77/502/133 133/500/133 183/501/133 186/236/133
f 78/503/134 77/502/134 186/236/134 188/235/134
f 9/504/135 78/503/135 188/235/135 190/505/135
f 10/506/136 9/504/136 190/505/136 192/507/136
f 33/489/137 10/506/137 192/507/137 185/490/137
f 72/508/45 71/509/45 128/510/45
f 72/508/45 128/510/45 16/511/45
f 4/512/45 72/508/45 16/511/45
f 27/513/45 4/512/45 16/511/45
f 27/513/45 16/511/45 15/514/45
f 27/513/45 15/514/45 28/515/45
f 15/514/45 84/516/45 28/515/45
f 136/517/45 28/515/45 83/518/45
f 83/518/45 28/515/45 84/516/45
f 3/519/45 72/508/45 4/512/45
f 87/520/45 138/521/45 32/522/45
f 87/520/45 32/522/45 31/523/45
f 19/524/45 87/520/45 31/523/45
f 20/525/45 19/524/45 31/523/45
f 20/525/45 31/523/45 96/526/45
f 20/525/45 96/526/45 39/527/45
f 96/526/45 95/528/45 39/527/45
f 40/529/45 39/527/45 142/530/45
f 142/530/45 39/527/45 95/528/45
f 88/531/45 87/520/45 19/524/45
f 144/532/11 68/533/11 67/534/11
f 144/532/11 126/521/11 68/533/11
f 99/535/11 126/521/11 144/532/11
f 132/536/11 126/521/11 99/535/11
f 132/536/11 7/537/11 126/521/11
f 132/536/11 131/538/11 7/537/11
f 7/537/11 131/538/11 8/539/11
f 76/540/11 75/541/11 131/538/11
f 75/541/11 8/539/11 131/538/11
f 100/542/11 99/535/11 144/532/11
f 79/543/11 134/510/11 80/544/11
f 79/543/11 23/511/11 134/510/11
f 11/545/11 23/511/11 79/543/11
f 36/546/11 23/511/11 11/545/11
f 36/546/11 24/547/11 23/511/11
f 36/546/11 35/548/11 24/547/11
f 24/547/11 35/548/11 91/549/11
f 140/550/11 92/551/11 35/548/11
f 92/551/11 91/549/11 35/548/11
f 12/552/11 11/545/11 79/543/11
f 143/97/47 97/553/47 100/106/47 144/105/47
f 94/112/138 141/177/138 142/178/138 95/113/138
f 139/174/139 89/107/139 92/110/139 140/175/139
f 86/104/140 137/554/140 138/180/140 87/105/140
f 82/100/141 135/168/141 136/171/141 83/101/141
f 133/29/142 77/2/142 80/555/142 134/167/142
f 130/556/143 73/91/143 76/94/143 131/557/143
f 70/558/144 127/161/144 128/162/144 71/559/144
f 217/306/145 268/560/145 193/281/145 200/280/145
f 222/561/146 221/562/146 245/563/146 268/560/146
f 193/281/147 268/560/147 245/563/147
f 216/305/148 222/561/148 268/560/148 217/306/148
f 215/307/149 217/306/149 200/280/149
f 248/564/150 244/565/150 212/298/61 211/297/62
f 208/566/150 249/567/150 210/296/61 209/295/61
f 249/567/150 248/564/150 211/297/62 210/296/61
