# Alias OBJ Model File
# Exported from SketchUp, (c) 2000-2012 Trimble Navigation Limited
# File units = meters

mtllib cupalt.mtl

g Mesh1 Model

usemtl Leder2
v -0.243978 -3.60956e-016 -0.11298
vt 2.43978 1.49195
vn -0.84189 -0.490237 -0.225584
v -0.243978 -3.60956e-016 0.0503249
vt 2.43978 -0.664565
vn -0.84189 -0.490237 0.225584
v -0.254727 -3.60956e-016 -0.0313273
vt 2.54727 0.413693
vn -0.871589 -0.490237 -2.66392e-015
f 1/1/1 2/2/2 3/3/3

v -0.212461 -3.60956e-016 0.126413
vt 2.12461 -1.66934
vn -0.754818 -0.490237 0.435795
f 2/2/2 1/1/1 4/4/4

v -0.212461 -3.60956e-016 -0.189067
vt 2.12461 2.49673
vn -0.754818 -0.490237 -0.435795
f 4/4/4 1/1/1 5/5/5

v -0.276703 0.590911 -0.121748
vt -0.0659106 8.01721
vn -0.959563 -0.114595 -0.257114
vt -0.933701 0.201334
vt -0.110133 0.201334
f 6/6/6 5/7/5 1/8/1

v -0.273319 0.590911 -0.12992
vt -0.154355 8.01721
vn -0.917896 -0.113627 -0.380205
f 5/7/5 6/6/6 7/9/7

v -0.354267 1.05204 -0.142532
vt 0.0389019 14.548
vn -0.951605 -0.171556 -0.254982
vt -0.154355 8.36853
vt -0.0659106 8.36853
f 8/10/8 7/11/7 6/12/6

v -0.241802 0.590911 -0.206007
vt -0.977923 8.36853
vn -0.86032 -0.114595 -0.496706
f 7/11/7 8/10/8 9/13/9

v -0.311344 1.05204 -0.246157
vt -1.08274 14.548
vn -0.853186 -0.171556 -0.492587
f 9/13/9 8/10/8 10/14/10

vt -0.0575559 14.5818
v -0.186282 0.590911 -0.278362
vt -1.07438 8.40226
vn -0.702449 -0.114595 -0.702449
vt -0.162368 8.40226
f 10/15/10 11/16/11 9/17/9

v -0.243063 1.05204 -0.335143
vt -1.17919 14.5818
vn -0.696623 -0.171556 -0.696623
f 11/16/11 10/15/10 12/18/12

vt -0.111872 14.62
v -0.113927 0.590911 -0.333882
vt -1.1287 8.44044
vn -0.496706 -0.114595 -0.86032
vt -0.216685 8.44044
f 12/19/12 13/20/13 11/21/11

v -0.154077 1.05204 -0.403424
vt -1.23351 14.62
vn -0.492587 -0.171556 -0.853186
f 13/20/13 12/19/12 14/22/14

vt -0.120346 14.66
v -0.0296685 0.590911 -0.368783
vt -1.13717 8.48049
vn -0.257114 -0.114595 -0.959563
vt -0.225159 8.48049
f 14/23/14 15/24/15 13/25/13

v -0.0504516 1.05204 -0.446347
vt -1.24198 14.66
vn -0.254982 -0.171556 -0.951605
f 15/24/15 14/23/14 16/26/16

vt -0.0823997 14.6992
v 0.0607526 0.590911 -0.380687
vt -1.09922 8.51966
vn -3.64489e-016 -0.114595 -0.993412
vt -0.187212 8.51966
f 16/27/16 17/28/17 15/29/15

v 0.0607526 1.05204 -0.460987
vt -1.20404 14.6992
vn -9.79582e-016 -0.171556 -0.985174
f 17/28/17 16/27/16 18/30/18

v -0.0401283 1.05204 -0.447706
vt -0.186524 14.6992
vn -0.128623 -0.170131 -0.976991
f 18/30/18 16/27/16 19/31/19

vt -0.000618886 14.7348
v 0.151174 0.590911 -0.368783
vt -1.01744 8.55529
vn 0.257114 -0.114595 -0.959563
vt -0.105431 8.55529
f 18/32/18 20/33/20 17/34/17

v 0.171957 1.05204 -0.446347
vt -1.12226 14.7348
vn 0.254982 -0.171556 -0.951605
f 20/33/20 18/32/18 21/35/21

v 0.0815357 1.05204 -0.458251
vt -0.210244 14.7348
vn 0.128623 -0.170131 -0.976991
f 21/35/21 18/32/18 22/36/22

vt 0.119423 14.7645
v 0.235433 0.590911 -0.333882
vt -0.897402 8.58495
vn 0.496706 -0.114595 -0.86032
vt 0.0146104 8.58495
f 21/37/21 23/38/23 20/39/20

v 0.275583 1.05204 -0.403424
vt -1.00221 14.7645
vn 0.492587 -0.171556 -0.853186
f 23/38/23 21/37/21 24/40/24

vt 0.269545 14.7861
v 0.307787 0.590911 -0.278362
vt -0.74728 8.60662
vn 0.702449 -0.114595 -0.702449
vt 0.164733 8.60662
f 24/41/24 25/42/25 23/43/23

v 0.364568 1.05204 -0.335143
vt -0.852092 14.7861
vn 0.696623 -0.171556 -0.696623
f 25/42/25 24/41/24 26/44/26

v 0.37911 1.05204 -0.316191
vt 0.200634 14.7983
vn 0.781787 -0.170131 -0.599887
vt 0.334705 8.61883
vt 0.439517 14.7983
f 27/45/27 25/46/25 26/47/26

v 0.410113 1.05204 -0.275788
vt -0.308633 14.7983
f 28/48/27 25/46/25 27/45/27

v 0.432849 1.05204 -0.246157
vt -0.68212 14.7983
vn 0.853186 -0.171556 -0.492587
f 29/49/28 25/46/25 28/48/27

v 0.363307 0.590911 -0.206007
vt -0.577308 8.61883
vn 0.86032 -0.114595 -0.496706
f 25/46/25 29/49/28 30/50/29

v 0.475772 1.05204 -0.142532
vt -0.503882 14.8002
vn 0.951605 -0.171556 -0.254982
vt 0.512943 8.62073
vt 0.617756 14.8002
f 31/51/30 30/52/29 29/53/28

v 0.398208 0.590911 -0.121748
vt -0.399069 8.62073
vn 0.959563 -0.114595 -0.257114
f 30/52/29 31/51/30 32/54/31

v 0.490413 1.05204 -0.0313273
vt -0.329523 14.7917
vn 0.985174 -0.171556 -1.1615e-015
vt 0.687302 8.61221
vt 0.792114 14.7917
f 33/55/32 32/56/31 31/57/30

v 0.410113 0.590911 -0.0313273
vt -0.224711 8.61221
vn 0.993412 -0.114595 -1.1145e-015
f 32/56/31 33/55/32 34/58/33

vt 0.95071 14.7733
v 0.398208 0.590911 0.0590937
vt -0.0661149 8.59383
vn 0.959563 -0.114595 0.257114
vt 0.845898 8.59383
vn 0.993412 -0.114595 -1.1215e-015
f 33/59/32 35/60/34 34/61/35

v 0.475772 1.05204 0.0798768
vt -0.170927 14.7733
vn 0.951605 -0.171556 0.254982
f 35/60/34 33/59/32 36/62/36

vt 1.08274 14.7464
v 0.363307 0.590911 0.143353
vt 0.0659106 8.56686
vn 0.86032 -0.114595 0.496706
vt 0.977923 8.56686
f 36/63/36 37/64/37 35/65/34

v 0.432849 1.05204 0.183503
vt -0.0389019 14.7464
vn 0.853186 -0.171556 0.492587
f 37/64/37 36/63/36 38/66/38

vt 1.17919 14.7126
v 0.307787 0.590911 0.215707
vt 0.162368 8.53313
vn 0.702449 -0.114595 0.702449
vt 1.07438 8.53313
f 38/67/38 39/68/39 37/69/37

v 0.364568 1.05204 0.272488
vt 0.0575559 14.7126
vn 0.696623 -0.171556 0.696623
f 39/68/39 38/67/38 40/70/40

vt 1.23351 14.6745
v 0.235433 0.590911 0.271227
vt 0.216685 8.49495
vn 0.496706 -0.114595 0.86032
vt 1.1287 8.49495
f 40/71/40 41/72/41 39/73/39

v 0.275583 1.05204 0.340769
vt 0.111872 14.6745
vn 0.492587 -0.171556 0.853186
f 41/72/41 40/71/40 42/74/42

vt 1.24198 14.6344
v 0.151174 0.590911 0.306129
vt 0.225159 8.4549
vn 0.257114 -0.114595 0.959563
vt 1.13717 8.4549
f 42/75/42 43/76/43 41/77/41

v 0.171957 1.05204 0.383692
vt 0.120346 14.6344
vn 0.254982 -0.171556 0.951605
f 43/76/43 42/75/42 44/78/44

vt 1.20404 14.5952
v 0.0607526 0.590911 0.318033
vt 0.187212 8.41573
vn -3.29442e-016 -0.114595 0.993412
vt 1.09922 8.41573
f 44/79/44 45/80/45 43/81/43

v 0.0607526 1.05204 0.398333
vt 0.0823997 14.5952
vn -1.95916e-016 -0.171556 0.985174
f 45/80/45 44/79/44 46/82/46

vt 1.12226 14.5596
v -0.0296685 0.590911 0.306129
vt 0.105431 8.3801
vn -0.257114 -0.114595 0.959563
vt 1.01744 8.3801
vn -3.22433e-016 -0.114595 0.993412
f 46/83/46 47/84/47 45/85/48

v -0.0504516 1.05204 0.383692
vt 0.000618886 14.5596
vn -0.254982 -0.171556 0.951605
f 47/84/47 46/83/46 48/86/49

vt 1.00221 14.53
v -0.113927 0.590911 0.271227
vt -0.0146104 8.35044
vn -0.496706 -0.114595 0.86032
vt 0.897402 8.35044
f 48/87/49 49/88/50 47/89/47

v -0.154077 1.05204 0.340769
vt -0.119423 14.53
vn -0.492587 -0.171556 0.853186
f 49/88/50 48/87/49 50/90/51

vt 0.852092 14.5083
v -0.186282 0.590911 0.215707
vt -0.164733 8.32877
vn -0.702449 -0.114595 0.702449
vt 0.74728 8.32877
f 50/91/51 51/92/52 49/93/50

v -0.243063 1.05204 0.272488
vt -0.269545 14.5083
vn -0.696623 -0.171556 0.696623
f 51/92/52 50/91/51 52/94/53

v -0.311344 1.05204 0.183503
vt -0.439517 14.4961
vn -0.853186 -0.171556 0.492587
vt 0.577308 8.31656
vt 0.68212 14.4961
f 53/95/54 51/96/52 52/97/53

v -0.241802 0.590911 0.143353
vt -0.334705 8.31656
vn -0.86032 -0.114595 0.496706
f 51/96/52 53/95/54 54/98/55

v -0.354267 1.05204 0.0798768
vt -0.617756 14.4942
vn -0.951605 -0.171556 0.254982
vt 0.399069 8.31466
vt 0.503882 14.4942
f 55/99/56 54/100/55 53/101/54

v -0.276703 0.590911 0.0590937
vt -0.512943 8.31466
vn -0.959563 -0.114595 0.257114
f 54/100/55 55/99/56 56/102/57

v -0.368907 1.05204 -0.0313273
vt -0.792114 14.5027
vn -0.985174 -0.171556 -1.21748e-015
vt 0.224711 8.32319
vt 0.329523 14.5027
f 57/103/58 56/104/57 55/105/56

v -0.288607 0.590911 -0.0313273
vt -0.687302 8.32319
vn -0.993412 -0.114595 -2.13787e-015
f 56/104/57 57/103/58 58/106/59

vt -0.95071 14.5211
vt 0.0661149 8.34156
vn -0.993412 -0.114595 -2.14488e-015
vt 0.170927 14.5211
f 8/107/8 58/108/60 57/109/58

v -0.282086 0.590911 -0.0808612
vt -0.433497 8.34156
vn -0.985024 -0.113627 -0.129681
f 58/108/60 8/107/8 59/110/61

vt -0.845898 8.34156
f 59/110/61 8/107/8 6/111/6

vt -0.801675 0.192337
vt -0.433497 8.00821
vt -0.845898 8.00821
f 1/112/1 59/113/61 6/114/6

vt 0.0218927 0.192337
f 3/115/3 59/113/61 1/112/1

vt 0.0661149 8.00821
f 59/113/61 3/115/3 58/116/60

vt 0.180489 0.186208
vt -0.687302 8.00208
vt -0.643079 0.186208
f 2/117/2 58/118/59 3/119/3

vt 0.224711 8.00208
f 58/118/59 2/117/2 56/120/57

vt 0.354847 0.183364
vt -0.512943 7.99924
vt -0.468721 0.183364
f 4/121/4 56/122/57 2/123/2

vt 0.399069 7.99924
f 56/122/57 4/121/4 54/124/55

v -0.162325 -3.60956e-016 0.191751
vt 0.533086 0.183999
vn -0.616307 -0.490237 0.616307
vt -0.334705 7.99987
vt -0.290482 0.183999
f 60/125/62 54/126/55 4/127/4

vt 0.577308 7.99987
f 54/126/55 60/125/62 51/128/52

vt -0.12051 0.18807
vt 0.74728 8.00394
vt -0.164733 8.00394
f 60/129/62 49/130/50 51/131/52

v -0.0969874 -3.60956e-016 0.241886
vt 0.703058 0.18807
vn -0.435795 -0.490237 0.754818
f 49/130/50 60/129/62 61/132/63

vt 1.62325 -2.53216
v -0.0969874 -3.60956e-016 -0.304541
vt 0.969874 4.02162
vn -0.435795 -0.490237 -0.754818
vt 0.969874 -3.19423
f 60/133/62 62/134/64 61/135/63

v -0.162325 -3.60956e-016 -0.254405
vt 1.62325 3.35955
vn -0.616307 -0.490237 -0.616307
f 60/133/62 63/136/65 62/134/64

f 4/4/4 63/136/65 60/133/62

f 4/4/4 5/5/5 63/136/65

vt -0.162368 8.02846
vt -1.03016 0.212585
vt -0.206591 0.212585
f 9/137/9 63/138/65 5/139/5

vt -1.07438 8.02846
f 63/138/65 9/137/9 11/140/11

vt -0.216685 8.0412
vt -1.08448 0.225323
vt -0.260907 0.225323
f 11/141/11 62/142/64 63/143/65

vt -1.1287 8.0412
f 62/142/64 11/141/11 13/144/13

vt -0.225159 8.05455
v -0.0208997 -3.60956e-016 -0.336058
vt -1.09295 0.238682
vn -0.225584 -0.490237 -0.84189
vt -0.269381 0.238682
f 13/145/13 64/146/66 62/147/64

vt -1.13717 8.05455
f 64/146/66 13/145/13 15/148/15

vt -0.187212 8.06762
v 0.0607526 -3.60956e-016 -0.346807
vt -1.055 0.251749
vn 2.19956e-016 -0.490237 -0.871589
vt -0.231434 0.251749
f 15/149/15 65/150/67 64/151/66

vt -1.09922 8.06762
f 65/150/67 15/149/15 17/152/17

vt -0.105431 8.07951
v 0.142405 -3.60956e-016 -0.336058
vt -0.973222 0.263635
vn 0.225584 -0.490237 -0.84189
vt -0.149654 0.263635
f 17/153/17 66/154/68 65/155/67

vt -1.01744 8.07951
f 66/154/68 17/153/17 20/156/20

vt 0.0146104 8.0894
v 0.218493 -3.60956e-016 -0.304541
vt -0.85318 0.27353
vn 0.435795 -0.490237 -0.754818
vt -0.0296119 0.27353
f 20/157/20 67/158/69 66/159/68

vt -0.897402 8.0894
f 67/158/69 20/157/20 23/160/23

vt 0.164733 8.09663
v 0.283831 -3.60956e-016 -0.254405
vt -0.703058 0.280759
vn 0.616307 -0.490237 -0.616307
vt 0.12051 0.280759
f 23/161/23 68/162/70 67/163/69

vt -0.74728 8.09663
f 68/162/70 23/161/23 25/164/25

vt -0.577308 8.1007
vt 0.290482 0.284829
vt 0.334705 8.1007
f 30/165/29 68/166/70 25/167/25

v 0.333966 -3.60956e-016 -0.189067
vt -0.533086 0.284829
vn 0.754818 -0.490237 -0.435795
f 68/166/70 30/165/29 69/168/71

vt -0.399069 8.10134
vt 0.468721 0.285464
vt 0.512943 8.10134
f 32/169/31 69/170/71 30/171/29

v 0.365483 -3.60956e-016 -0.11298
vt -0.354847 0.285464
vn 0.84189 -0.490237 -0.225584
f 69/170/71 32/169/31 70/172/72

vt -0.224711 8.09849
vt 0.643079 0.282621
vt 0.687302 8.09849
f 34/173/33 70/174/72 32/175/31

v 0.376233 -3.60956e-016 -0.0313273
vt -0.180489 0.282621
vn 0.871589 -0.490237 -9.28705e-016
f 70/174/72 34/173/33 71/176/73

vt 0.845898 8.09236
v 0.365483 -3.60956e-016 0.0503249
vt -0.0218927 0.276491
vn 0.84189 -0.490237 0.225584
vt 0.801675 0.276491
f 34/177/35 72/178/74 71/179/73

vt -0.0661149 8.09236
f 72/178/74 34/177/35 35/180/34

vt 0.977923 8.08337
v 0.333966 -3.60956e-016 0.126413
vt 0.110133 0.267495
vn 0.754818 -0.490237 0.435795
vt 0.933701 0.267495
f 35/181/34 73/182/75 72/183/74

vt 0.0659106 8.08337
f 73/182/75 35/181/34 37/184/37

vt 1.07438 8.07212
v 0.283831 -3.60956e-016 0.191751
vt 0.206591 0.256244
vn 0.616307 -0.490237 0.616307
vt 1.03016 0.256244
f 37/185/37 74/186/76 73/187/75

vt 0.162368 8.07212
f 74/186/76 37/185/37 39/188/39

vt 1.1287 8.05938
v 0.218493 -3.60956e-016 0.241886
vt 0.260907 0.243505
vn 0.435795 -0.490237 0.754818
vt 1.08448 0.243505
f 39/189/39 75/190/77 74/191/76

vt 0.216685 8.05938
f 75/190/77 39/189/39 41/192/41

vt 1.13717 8.04602
v 0.142405 -3.60956e-016 0.273403
vt 0.269381 0.230147
vn 0.225584 -0.490237 0.84189
vt 1.09295 0.230147
f 41/193/41 76/194/78 75/195/77

vt 0.225159 8.04602
f 76/194/78 41/193/41 43/196/43

vt 1.09922 8.03295
v 0.0607526 -3.60956e-016 0.284153
vt 0.231434 0.21708
vn -4.03253e-016 -0.490237 0.871589
vt 1.055 0.21708
f 43/197/43 77/198/79 76/199/78

vt 0.187212 8.03295
f 77/198/79 43/197/43 45/200/45

vt 1.01744 8.02107
v -0.0208997 -3.60956e-016 0.273403
vt 0.149654 0.205194
vn -0.225584 -0.490237 0.84189
vt 0.973222 0.205194
f 45/201/48 78/202/80 77/203/79

vt 0.105431 8.02107
f 78/202/80 45/201/48 47/204/47

vt 0.897402 8.01117
vt 0.0296119 0.195299
vt 0.85318 0.195299
f 47/205/47 61/206/63 78/207/80

vt -0.0146104 8.01117
f 61/206/63 47/205/47 49/208/50

vt 0.208997 -3.61042
f 61/135/63 62/134/64 78/209/80

vt 0.208997 4.43781
f 78/209/80 62/134/64 64/210/66

vt -0.607526 4.57976
f 78/209/80 64/210/66 65/211/67

vt -0.607526 -3.75238
f 78/209/80 65/211/67 77/212/79

vt -1.42405 4.43781
f 77/212/79 65/211/67 66/213/68

vt -1.42405 -3.61042
f 77/212/79 66/213/68 76/214/78

vt -2.18493 4.02162
f 76/214/78 66/213/68 67/215/69

vt -2.18493 -3.19423
f 76/214/78 67/215/69 75/216/77

vt -2.83831 3.35955
f 75/216/77 67/215/69 68/217/70

vt -2.83831 -2.53216
f 75/216/77 68/217/70 74/218/76

vt -3.33966 2.49673
f 74/218/76 68/217/70 69/219/71

vt -3.33966 -1.66934
f 74/218/76 69/219/71 73/220/75

vt -3.65483 1.49195
f 73/220/75 69/219/71 70/221/72

vt -3.65483 -0.664565
f 73/220/75 70/221/72 72/222/74

vt -3.76233 0.413693
f 72/222/74 70/221/72 71/223/73

vt -0.977923 8.01721
f 5/7/5 7/9/7 9/224/9

