# Alias OBJ Model File
# Exported from SketchUp, (c) 2000-2012 Trimble Navigation Limited
# File units = meters

mtllib house.mtl

g Mesh1 Model

usemtl vertexColorS
v -5.47643 5.00048 -3.92135
vt -215.607 154.384
vn 1.76127e-016 1 2.97121e-014
v -3.50834 5.00048 -3.92135
vt -138.124 154.384
v -1.86014 5.00048 -3.92135
vt -73.2339 154.384
v -1.86014 5.00048 -4.05324
vt -73.2339 159.576
f 1/1/1 2/2/1 3/3/1 4/4/1 

usemtl M_0102_RoyalBlue
vt 73.2339 196.869
vn -4.99167e-011 1.90907e-007 -1
vt 138.124 196.869
vt 215.607 196.869
f 3/5/2 2/6/2 1/7/2

usemtl vertexColorS
v -1.86014 4.15403 -3.92135
vt 73.2339 163.544
vn -3.75425e-008 9.69756e-008 -1
f 5/8/3 2/6/3 3/5/3

vn 9.9418e-009 1.80047e-007 -1
v -1.86014 2.65511 -3.92135
vt 73.2339 104.532
v -5.47643 2.65511 -3.92135
vt 215.607 104.532
f 2/6/4 5/8/4 6/9/4 7/10/4 1/7/4 

vt 154.384 196.869
vn 1 5.56494e-017 1.4385e-015
vt 154.384 163.544
vt 154.384 104.532
v -1.86014 3.02156 -4.05324
vt 159.576 118.959
f 3/11/5 5/12/5 6/13/5 8/14/5 

usemtl M_0102_RoyalBlue
v -0.877087 4.22996 -3.92135
vt 34.531 166.534
f 9/15/2 5/8/2 3/5/2

v -0.877087 3.64917 -3.92135
vt 34.531 143.668
f 10/16/2 5/8/2 9/15/2

f 10/16/2 6/9/2 5/8/2

v -0.877087 0.973063 -3.92135
vt 34.531 38.3095
f 11/17/2 6/9/2 10/16/2

f 6/9/2 11/17/2 7/10/2

v -1.65293 0.973063 -3.92135
vt 65.0762 38.3095
f 12/18/2 7/10/2 11/17/2

v -1.65293 0.648213 -3.92135
vt 65.0762 25.5202
f 13/19/2 7/10/2 12/18/2

v -1.99059 0.648213 -3.92135
vt 78.3698 25.5202
f 14/20/2 7/10/2 13/19/2

v -1.99059 0.323466 -3.92135
vt 78.3698 12.7348
f 15/21/2 7/10/2 14/20/2

v -2.37211 0.323466 -3.92135
vt 93.3903 12.7348
f 16/22/2 7/10/2 15/21/2

v -2.37211 -0.00138404 -3.92135
vt 93.3903 -0.0545193
f 17/23/2 7/10/2 16/22/2

v -6.34041 -0.00138404 -3.92135
vt 249.622 -0.0545193
f 18/24/2 7/10/2 17/23/2

v -6.34041 6.45493 -3.92135
vt 249.622 254.131
f 7/10/2 18/24/2 19/25/2

vt -154.384 254.131
vn -1 0 -0
vt -154.384 -0.0544898
v -6.34041 -0.00138535 4.10356
vt 161.558 -0.0545413
v -6.34041 6.45493 4.10357
vt 161.558 254.131
f 19/26/6 18/27/6 20/28/6 21/29/6 

vt -249.622 254.131
vn 0 -1.77386e-007 1
vt -249.622 -0.0545127
v 6.23118 -0.00138535 4.10356
vt 245.322 -0.0545127
v 6.23118 6.45493 4.10357
vt 245.322 254.131
f 21/30/7 20/31/7 22/32/7 23/33/7 

v 6.23118 5.00048 -0.735981
vt 28.9756 196.869
vn 1 0 -0
vt -161.558 254.131
vt -161.558 -0.0545413
f 24/34/8 23/35/8 22/36/8

v 6.23118 6.45493 -3.92135
vt 154.384 254.131
f 23/35/8 24/34/8 25/37/8

v 6.23118 5.00048 -2.11354
vt 83.2102 196.869
f 25/37/8 24/34/8 26/38/8

usemtl vertexColorS
v 6.23118 5.00048 -2.54807
vt 245.322 100.318
vn -1.41325e-017 1 2.10671e-007
vt 245.322 83.2103
vt 245.322 28.9757
v 6.36307 5.00048 -0.735981
vt 250.515 28.9757
f 27/39/9 26/40/9 24/41/9 28/42/9 

usemtl M_0102_RoyalBlue
vt 100.318 196.869
f 25/37/8 26/38/8 27/43/8

usemtl vertexColorS
v 6.23118 3.89219 -0.735981
vt 28.9756 153.236
v 6.23118 2.83608 -0.735981
vt 28.9756 111.657
v 6.23118 2.83608 -2.54807
vt 100.318 111.657
f 26/38/8 29/44/8 30/45/8 31/46/8 27/43/8 

f 29/44/8 26/38/8 24/34/8

vt 245.322 196.869
vn 2.17047e-007 -1.54331e-007 1
vt 245.322 153.236
vt 245.322 111.657
v 6.36307 3.02156 -0.735981
vt 250.515 118.959
f 24/47/10 29/48/10 30/49/10 32/50/10 

usemtl M_0102_RoyalBlue
f 22/36/8 29/44/8 24/34/8

f 29/44/8 22/36/8 30/45/8

v 6.23118 -0.00138404 -3.92135
vt 154.384 -0.0544898
f 30/45/8 22/36/8 33/51/8

f 30/45/8 33/51/8 31/46/8

f 31/46/8 33/51/8 25/37/8

vt -245.322 -0.0545193
v 2.26289 0.323466 -3.92135
vt -89.0901 12.7348
vt -245.322 254.131
f 33/52/2 34/53/2 25/54/2

v 2.26289 -0.00138404 -3.92135
vt -89.0901 -0.0545193
f 34/53/2 33/52/2 35/55/2

usemtl vertexColorS
v 2.26289 -0.00138373 -5.84873
vt 230.265 -0.0544775
v 2.26289 0.323466 -5.84873
vt 230.265 12.7349
vt 154.384 12.7349
f 35/51/8 36/56/8 37/57/8 34/58/8 

vt -89.0901 12.7349
vn 0 0 -1
vt -89.0901 -0.0544775
v -2.37211 -0.00138373 -5.84873
vt 93.3903 -0.0544775
v -2.37211 0.323466 -5.84873
vt 93.3903 12.7349
f 37/59/11 36/60/11 38/61/11 39/62/11 

vt -154.384 12.7349
vt -230.265 12.7349
vt -230.265 -0.0544775
f 16/63/6 39/64/6 38/65/6 17/27/6 

vt -93.3903 154.384
vn -1.96593e-008 1 1.64395e-007
vt -78.3698 154.384
v -1.99059 0.323466 -5.46721
vt -78.3698 215.244
vt -93.3903 230.265
f 16/66/12 15/67/12 40/68/12 39/69/12 

vt 65.0762 38.3096
vt 34.531 38.3096
v 0.767863 0.973063 -3.92135
vt -30.2308 38.3096
v 1.54371 0.973063 -3.92135
vt -60.776 38.3096
v 1.54371 0.648213 -3.92135
vt -60.776 25.5202
v 1.88137 0.648213 -3.92135
vt -74.0697 25.5202
v 1.88137 0.323466 -3.92135
vt -74.0697 12.7349
vt -89.0901 -0.0544898
vt 93.3903 -0.0544898
vt 78.3698 12.7349
f 12/70/11 11/71/11 41/72/11 42/73/11 43/74/11 44/75/11 45/76/11 34/59/11 35/77/11 17/78/11 16/62/11 15/79/11 14/20/11 13/19/11 

vt 60.776 154.384
vn -2.32029e-024 1 1.6177e-007
v 1.54371 0.973063 -5.12955
vt 60.776 201.951
v -1.65293 0.973063 -5.12955
vt -65.0762 201.951
vt -65.0762 154.384
vt -34.531 154.384
v -0.877087 0.973063 -4.03623
vt -34.531 158.907
v 0.767863 0.973063 -4.03623
vt 30.2308 158.907
vt 30.2308 154.384
f 42/80/13 46/81/13 47/82/13 12/83/13 11/84/13 48/85/13 49/86/13 41/87/13 

vt 154.384 25.5202
v 1.54371 0.648213 -5.12955
vt 201.951 25.5202
vt 201.951 38.3096
vt 154.384 38.3096
f 43/88/8 50/89/8 46/90/8 42/91/8 

v 1.88137 0.648213 -5.46721
vt 74.0697 215.244
vn 2.42715e-008 1 1.89867e-007
vt 74.0697 154.384
f 51/92/14 50/81/14 43/80/14 44/93/14 

v -1.99059 0.648213 -5.46721
vn -8.57467e-026 1 1.41324e-007
v -1.65293 0.648213 -5.12955
f 52/68/15 53/82/15 50/81/15 51/92/15 

vn -2.42715e-008 1 1.89867e-007
f 14/67/16 13/83/16 53/82/16 52/68/16 

vt -154.384 38.3096
vt -201.951 38.3096
vt -201.951 25.5202
vt -154.384 25.5202
f 12/94/6 47/95/6 53/96/6 13/97/6 

f 46/73/11 50/74/11 53/19/11 47/70/11 

vt -215.244 25.5202
vt -215.244 12.7349
f 14/97/6 52/98/6 40/99/6 15/63/6 

v 1.88137 0.323466 -5.46721
f 51/75/11 54/76/11 40/79/11 52/20/11 

vt 215.244 12.7349
vt 215.244 25.5202
f 45/58/8 54/100/8 51/101/8 44/88/8 

vt 89.0901 230.265
vn 1.96593e-008 1 1.64395e-007
vt 89.0901 154.384
f 37/102/17 54/92/17 45/93/17 34/103/17 

vn 4.99842e-025 1 1.25077e-007
f 39/69/18 40/68/18 54/92/18 37/102/18 

usemtl M_0102_RoyalBlue
vt -74.0697 12.7348
f 44/75/2 34/53/2 45/104/2

f 25/54/2 34/53/2 44/75/2

vt -60.776 38.3095
f 25/54/2 44/75/2 42/105/2

f 42/105/2 44/75/2 43/74/2

v 0.767863 2.80438 -3.92135
vt -30.2308 110.409
f 25/54/2 42/105/2 55/106/2

vt -30.2308 38.3095
f 55/106/2 42/105/2 41/107/2

usemtl vertexColorS
v 0.767863 4.22996 -3.92135
vt 154.384 166.534
vn 1 2.74702e-017 2.73655e-015
vt 154.384 110.409
vt 158.907 38.3096
f 56/108/19 55/109/19 41/91/19 49/110/19 

usemtl M_0102_RoyalBlue
vt -30.2308 166.534
f 25/54/2 55/106/2 56/111/2

usemtl vertexColorS
vn 1.40503e-009 2.11379e-007 -1
f 55/106/20 10/16/20 9/15/20 56/111/20 

vn 9.51308e-009 2.42954e-007 -1
f 55/106/21 41/107/21 11/17/21 10/16/21 

vn 0 1 -0
f 11/84/22 41/87/22 49/86/22 48/85/22 

usemtl M_0043_SaddleBrown
v 0.767863 4.22996 -4.03623
vn 0 2.34428e-007 -1
v -0.877087 4.22996 -4.03623
f 57/111/23 49/107/23 48/17/23 58/15/23 

usemtl vertexColorS
vt 158.907 166.534
f 56/108/8 49/110/8 57/112/8

f 57/86/22 9/84/22 56/87/22

f 57/86/22 58/85/22 9/84/22

vt -158.907 166.534
vn -1 -8.35408e-017 -3.02506e-015
vt -154.384 143.668
vt -154.384 166.534
f 58/113/24 11/94/24 10/114/24 9/115/24 

vt -158.907 38.3096
f 58/113/6 48/116/6 11/94/6

usemtl M_0102_RoyalBlue
f 9/15/2 3/5/2 56/111/2

f 25/54/2 56/111/2 3/5/2

f 25/54/2 3/5/2 19/25/2

f 1/7/2 19/25/2 3/5/2

f 7/10/2 19/25/2 1/7/2

usemtl vertexColorS
vt -154.384 104.532
vt -154.384 196.869
v -5.47643 5.00048 -4.05324
vt -159.576 196.869
f 7/117/6 1/118/6 59/119/6

vt -215.607 159.576
f 1/1/22 4/4/22 59/120/22

v -1.97901 4.88171 -4.05324
vt 77.914 192.193
f 60/121/11 59/7/11 4/5/11

v -5.35756 4.88171 -4.05324
vt 210.927 192.193
f 60/121/11 61/122/11 59/7/11

usemtl M_0046_Gold
vn -4.13349e-024 2.05228e-007 -1
v -1.98055 3.02156 -4.05324
vt 77.9745 118.959
v -5.35756 3.02156 -4.05324
vt 210.927 118.959
f 60/121/25 62/123/25 63/124/25 61/122/25 

usemtl vertexColorS
vt 77.9744 118.959
vn -2.0522e-007 2.05397e-007 -1
vt 77.9139 192.193
f 62/125/26 60/126/26 4/5/26

vn 6.10417e-022 1.9291e-007 -1
vt 73.2339 118.959
f 62/123/27 4/5/27 8/127/27

vt 159.576 196.869
f 3/11/8 8/14/8 4/128/8

v -1.98055 2.8367 -4.05324
vt 77.9745 111.681
f 63/124/11 62/123/11 64/129/11

v -5.35602 2.8367 -4.05324
vt 210.867 111.681
f 63/124/11 64/129/11 65/130/11

vt -210.867 159.576
vn -4.44678e-024 1 3.26379e-007
vt -77.9745 159.576
v -1.98055 2.8367 -4.63807
vt -77.9745 182.601
f 65/131/28 64/132/28 66/133/28

vn -1.33404e-023 1 3.26379e-007
v -5.35602 2.8367 -4.63807
vt -210.867 182.601
f 65/131/29 66/133/29 67/134/29

v -1.98055 3.02156 -4.63807
vt -77.9745 118.959
vn 0 0 1
vt -210.867 111.681
vt -77.9745 111.681
f 68/135/30 67/136/30 66/137/30

v -5.35602 3.02156 -4.63807
vt -210.867 118.959
f 68/135/30 69/138/30 67/136/30

v -1.86014 3.02156 -4.75848
vt -73.2339 187.342
f 69/134/22 68/133/22 70/139/22

v -5.47643 3.02156 -4.75848
vt -215.607 187.342
f 69/134/22 70/139/22 71/140/22

v -1.86014 2.65511 -4.75848
v -5.47643 2.65511 -4.75848
vt 215.607 118.959
f 70/127/11 72/9/11 73/10/11 71/141/11 

vt 187.342 104.532
vt 187.342 118.959
f 8/14/8 72/142/8 70/143/8

f 8/14/8 6/13/8 72/142/8

vt 73.2339 154.384
vn 0 -1 -2.28014e-007
vt 215.607 187.342
vt 73.2339 187.342
f 6/144/31 73/145/31 72/146/31

vn 7.56356e-024 -1 -2.28014e-007
vt 215.607 154.384
f 6/144/32 7/147/32 73/145/32

v -5.47643 3.02156 -4.05324
vt -159.576 118.959
vt -187.342 118.959
vt -187.342 104.532
f 74/148/6 71/149/6 73/150/6 7/117/6 

f 7/117/6 59/119/6 74/148/6

vn 1.92745e-007 1.9291e-007 -1
f 61/122/33 74/141/33 59/7/33

vn 3.54422e-022 2.05228e-007 -1
f 61/122/34 63/124/34 74/141/34

v -7.04811 6.45493 -4.50906
vt 277.485 177.522
vn 0 -1 -0
vt -245.322 154.384
vt 249.622 154.384
f 75/151/35 25/152/35 19/153/35

v 6.93888 6.45493 -4.50906
vt -273.184 177.522
f 75/151/35 76/154/35 25/152/35

usemtl M_0020_Red
vt 277.485 30.6734
vn 1.79685e-018 0.759105 -0.650968
v -4.28073 10.1267 -0.22739
vt 168.533 252.737
v 4.17151 10.1267 -0.22739
vt -164.233 252.737
vt -273.184 30.6734
f 75/155/36 77/156/36 78/157/36 76/158/36 

v -7.04811 6.45493 4.56256
vt 179.628 35.9293
vn -0.79858 0.601888 1.00998e-007
v -4.28073 10.1267 0.280892
vt 11.0587 216.946
vt -8.95238 216.946
vt -177.522 35.9294
f 79/159/37 80/160/37 77/161/37 75/162/37 

v 6.93888 6.45493 4.56256
vt 273.184 29.0745
vn -1.82771e-018 0.759105 0.650968
v 4.17151 10.1267 0.280892
vt 164.233 251.138
vt -168.533 251.138
vt -277.485 29.0745
f 81/163/38 82/164/38 80/165/38 79/166/38 

vt 177.522 38.5177
vn 0.79858 0.601888 1.00998e-007
vt 8.95238 219.534
vt -11.0587 219.534
vt -179.628 38.5176
f 76/167/39 78/168/39 82/169/39 81/170/39 

vt 164.233 8.95236
vt -168.533 8.95236
vt -168.533 -11.0588
vt 164.233 -11.0588
f 78/171/22 77/172/22 80/173/22 82/174/22 

usemtl vertexColorS
vn 1.09173e-007 -1 -1.68329e-007
vt -273.184 -179.628
vt -245.322 -161.558
f 76/154/40 81/175/40 23/176/40

vt 249.622 -161.558
f 21/177/35 23/176/35 81/175/35

vt 277.485 -179.628
f 21/177/35 81/175/35 79/178/35

vn -1.23412e-007 -1 -1.90284e-007
f 19/153/41 21/177/41 79/178/41

vn 1.39787e-007 -1 -1.68329e-007
f 19/153/42 79/178/42 75/151/42

vn -1.58019e-007 -1 -1.90284e-007
f 76/154/43 23/176/43 25/152/43

usemtl M_0102_RoyalBlue
f 25/37/8 27/43/8 31/46/8

usemtl vertexColorS
vt -245.322 111.657
vn 0 1.76378e-007 -1
vt -245.322 196.869
v 6.36307 5.00048 -2.54807
vt -250.515 196.869
f 31/179/44 27/180/44 83/181/44

vn 6.06799e-022 1 2.10671e-007
vt 250.515 100.318
f 27/39/45 28/42/45 83/182/45

v 6.36307 4.88171 -0.854853
vt 33.6556 192.193
f 84/183/8 83/43/8 28/34/8

v 6.36307 4.88171 -2.4292
vt 95.6377 192.193
f 84/183/8 85/184/8 83/43/8

usemtl M_0046_Gold
v 6.36307 3.02156 -0.856391
vt 33.7162 118.959
v 6.36307 3.02156 -2.4292
vt 95.6377 118.959
f 84/183/8 86/185/8 87/186/8 85/184/8 

usemtl vertexColorS
f 86/185/8 84/183/8 28/34/8

vt 28.9756 118.959
f 86/185/8 28/34/8 32/187/8

vn 2.544e-022 -1.68796e-007 1
vt 250.515 196.869
f 24/47/46 32/50/46 28/188/46

v 6.52242 3.02156 -0.735981
vt 256.788 28.9756
vn -9.17037e-008 1 1.21361e-007
vt 250.515 95.6377
vt 250.515 33.7162
f 88/189/47 87/190/47 86/191/47

vn 7.85785e-008 1 1.05335e-007
v 6.52242 3.02156 -2.54807
vt 256.788 100.318
f 88/189/48 89/192/48 87/190/48

v 6.52242 2.83608 -2.54807
vt 100.318 118.959
f 90/46/8 89/193/8 88/187/8

v 6.52242 2.83608 -0.735981
f 90/46/8 88/187/8 91/45/8

vt -245.322 100.318
vn 6.22192e-023 -1 -1.05335e-007
vt -256.788 100.318
vt -256.788 28.9756
f 31/194/49 90/195/49 91/196/49

vn 1.86658e-022 -1 -1.05335e-007
vt -245.322 28.9756
f 31/194/50 91/196/50 30/197/50

v 6.36307 3.02156 -2.54807
f 85/184/8 87/186/8 92/193/8

f 85/184/8 92/193/8 83/43/8

vn 1.31163e-006 9.64551e-008 -1
vt -250.514 196.869
vt -250.514 118.959
f 31/179/51 83/198/51 92/199/51

g Mesh2 Model

v 2.13111 3.02156 -4.63807
vt 83.9018 182.601
v 5.62688 3.02156 -4.75848
vt 221.531 187.342
v 2.0107 3.02156 -4.75848
vt 79.1612 187.342
f 93/200/22 94/201/22 95/202/22

v 5.50647 3.02156 -4.63807
vt 216.79 182.601
f 93/200/22 96/203/22 94/201/22

vt 216.79 118.959
vt 83.9018 118.959
v 2.13111 2.8367 -4.63807
vt 83.9018 111.681
f 96/204/30 93/205/30 97/206/30

v 5.50647 2.8367 -4.63807
vt 216.79 111.681
f 96/204/30 97/206/30 98/207/30

v 2.13111 2.8367 -4.05324
vt 83.9018 159.576
vn 0 1 3.26379e-007
f 99/208/52 98/203/52 97/200/52

vn -4.44705e-024 1 3.26379e-007
v 5.50647 2.8367 -4.05324
vt 216.79 159.576
f 99/208/53 100/209/53 98/203/53

v 2.12947 3.02156 -4.05324
vt -83.8372 118.959
vt -216.79 111.681
vt -83.9018 111.681
f 101/210/11 100/211/11 99/212/11

v 5.50647 3.02156 -4.05324
vt -216.79 118.959
f 101/210/11 102/213/11 100/211/11

usemtl M_0046_Gold
v 5.50811 4.88171 -4.05324
vt -216.855 192.193
vn 8.64165e-025 2.05228e-007 -1
v 2.12947 4.88171 -4.05324
vt -83.8372 192.193
f 103/214/54 102/213/54 101/210/54 104/215/54 

usemtl vertexColorS
vn -2.05409e-007 2.05409e-007 -1
v 5.62688 5.00048 -4.05324
vt -221.531 196.869
f 102/213/55 103/214/55 105/216/55

v 2.0107 5.00048 -4.05324
vt -79.1612 196.869
f 103/214/11 106/217/11 105/216/11

f 103/214/11 104/215/11 106/217/11

vn 1.92911e-007 1.9291e-007 -1
v 2.0107 3.02156 -4.05324
vt -79.1612 118.959
f 104/215/56 107/218/56 106/217/56

vn 3.55033e-022 2.05228e-007 -1
f 104/215/57 101/210/57 107/218/57

v 2.0107 2.65511 -3.92135
f 108/117/6 106/119/6 107/148/6

v 2.0107 5.00048 -3.92135
f 108/117/6 109/118/6 106/119/6

vt 79.1612 154.384
vt 221.531 159.576
vt 79.1612 159.576
f 109/219/22 105/220/22 106/221/22

v 5.62688 5.00048 -3.92135
vt 221.531 154.384
f 109/219/22 110/222/22 105/220/22

v 5.62688 3.02156 -4.05324
f 110/11/8 111/14/8 105/128/8

v 5.62688 2.65511 -3.92135
f 110/11/8 112/13/8 111/14/8

v 5.62688 2.65511 -4.75848
f 111/14/8 112/13/8 113/142/8

vt -221.531 154.384
vn 1.5128e-023 -1 -2.28014e-007
v 2.0107 2.65511 -4.75848
vt -79.1612 187.342
vt -221.531 187.342
f 112/223/58 114/224/58 113/225/58

vt -79.1612 154.384
f 112/223/31 108/226/31 114/224/31

f 107/148/6 95/149/6 114/150/6 108/117/6 

vt -221.531 118.959
vt -221.531 104.532
vt -79.1612 104.532
f 94/227/11 113/228/11 114/229/11 95/218/11 

f 111/14/8 113/142/8 94/143/8

vn -3.05208e-022 1.9291e-007 -1
f 102/213/59 105/216/59 111/227/59

g Mesh3 Model

v 6.36953 2.93108 3.36481
vt -132.473 115.397
v 6.36953 4.79123 3.36635
vt -132.533 188.631
v 6.36953 4.91 3.48522
vt -137.213 193.307
f 115/230/8 116/231/8 117/232/8

usemtl M_0046_Gold
v 6.36953 2.93108 -0.012191
vt 0.47996 115.397
v 6.36953 4.79123 -0.0121907
vt 0.479948 188.631
f 116/231/8 115/230/8 118/233/8 119/234/8 

usemtl vertexColorS
v 6.52877 2.93108 3.48522
vt 257.038 -137.213
vn -1.28212e-007 1 1.69568e-007
vt 250.769 0.479979
vt 250.769 -132.473
f 120/235/60 118/236/60 115/237/60

vn 1.18201e-007 1 1.58348e-007
v 6.52877 2.93108 -0.131063
vt 257.038 5.16
vt 250.769 0.479978
f 120/235/61 121/238/61 118/239/61

v 6.52877 2.7456 -0.131064
vt 5.15998 108.094
vt 5.15998 115.397
vt -137.213 115.397
f 122/240/8 121/241/8 120/242/8

v 6.52877 2.74559 3.48522
vt -137.213 108.094
f 122/240/8 120/242/8 123/243/8

v 6.23753 2.7456 -0.131064
vt -245.572 5.16
vn -2.49961e-022 -1 -1.58348e-007
vt -257.038 5.16
vt -257.038 -137.213
f 124/244/62 122/245/62 123/246/62

v 6.23753 2.74559 3.48522
vt -245.572 -137.213
f 124/244/62 123/246/62 125/247/62

v 6.36953 2.93108 -0.131063
f 119/234/8 118/233/8 126/241/8

v 6.36953 4.91 -0.131063
vt 5.15997 193.307
f 119/234/8 126/241/8 127/248/8

vt -245.572 108.094
vn -4.79649e-008 1.62768e-007 -1
vt -250.769 193.307
vt -250.769 115.397
f 124/249/63 127/250/63 126/251/63

vn 4.24663e-022 1.59843e-007 -1
v 6.23753 4.91 -0.131063
vt -245.572 193.307
f 124/249/64 128/252/64 127/250/64

vt 245.572 5.15999
vn -6.08491e-022 1 1.05565e-007
vt 250.769 -137.213
vt 250.769 5.15999
f 128/253/65 117/254/65 127/255/65

vn -3.04246e-022 1 1.05565e-007
v 6.23753 4.91 3.48522
vt 245.572 -137.213
f 128/253/66 129/256/66 117/254/66

vt 245.572 193.307
vn 0 -1.9291e-007 1
v 6.36953 2.93108 3.48522
vt 250.769 115.397
vt 250.769 193.307
f 129/257/67 130/258/67 117/259/67

vn 2.47859e-007 -1.76378e-007 1
vt 245.572 108.094
f 129/257/68 125/260/68 130/258/68

f 115/230/8 117/232/8 130/242/8

f 116/231/8 127/248/8 117/232/8

f 116/231/8 119/234/8 127/248/8

g Mesh4 Model

v -2.20938 11.5993 1.1749
vt -86.9835 -46.2557
v -3.54567 11.5993 1.1749
vt -139.593 -46.2557
v -3.54567 11.5993 2.11399
vt -139.593 -83.2279
v -2.20938 11.5993 2.11399
vt -86.9835 -83.2279
f 131/261/22 132/262/22 133/263/22 134/264/22 

v -3.54567 9.34937 1.1749
vt 139.593 368.086
vn 1.39384e-023 1.69671e-007 -1
vt 139.593 456.667
vt 86.9835 456.667
v -2.20938 9.34937 1.1749
vt 86.9835 368.086
f 135/265/69 132/266/69 131/267/69 136/268/69 

v -3.54567 8.53223 2.11399
vt 83.2279 335.914
vt 83.2279 456.667
vt 46.2557 456.667
vt 46.2557 368.086
f 137/269/6 133/270/6 132/271/6 135/272/6 

v -2.20938 8.53223 2.11399
vt -86.9835 335.914
vn 0 -1.867e-007 1
vt -86.9835 456.667
vt -139.593 456.667
vt -139.593 335.914
f 138/273/70 134/274/70 133/275/70 137/276/70 

vt -46.2557 368.086
vt -46.2557 456.667
vt -83.2279 456.667
vt -83.2279 335.914
f 136/277/8 131/278/8 134/279/8 138/280/8 

g Mesh5 Model

v -6.3403 2.83608 2.73961
vt -249.618 111.657
vn 0 -1.76378e-007 1
v -6.3403 5.00048 2.73961
vt -249.618 196.869
v -6.47229 5.00048 2.73961
vt -254.815 196.869
f 139/281/71 140/282/71 141/283/71

vt -249.618 -107.858
vn 3.02929e-022 1 2.10671e-007
v -6.47229 5.00048 0.927517
vt -254.815 -36.5164
vt -254.815 -107.858
f 140/284/72 142/285/72 141/286/72

vn 0 1 2.10671e-007
v -6.3403 5.00048 0.927517
vt -249.618 -36.5164
f 140/284/73 143/287/73 142/285/73

vt 249.618 196.869
vn 2.54006e-022 1.9291e-007 -1
v -6.47229 3.02156 0.927517
vt 254.815 118.959
vt 254.815 196.869
f 143/288/74 144/289/74 142/290/74

vn 2.47862e-007 1.76378e-007 -1
v -6.3403 2.83608 0.927517
vt 249.618 111.657
f 143/288/75 145/291/75 144/289/75

v -6.47229 3.02156 1.04793
vt 41.2569 118.959
vt 36.5164 196.869
vt 36.5164 118.959
f 146/292/6 142/293/6 144/294/6

v -6.47229 4.88171 1.04639
vt 41.1964 192.193
f 146/292/6 147/295/6 142/293/6

usemtl M_0046_Gold
v -6.47229 3.02156 2.62073
vt 103.178 118.959
v -6.47229 4.88171 2.62073
vt 103.178 192.193
f 147/295/6 146/292/6 148/296/6 149/297/6 

usemtl vertexColorS
v -6.63154 3.02156 0.927517
vt -261.084 -36.5164
vn -9.17622e-008 1 1.21361e-007
vt -254.815 -103.178
vt -254.815 -41.2569
f 150/298/76 148/299/76 146/300/76

vn 7.86286e-008 1 1.05335e-007
v -6.63154 3.02156 2.73961
vt -261.084 -107.858
f 150/298/77 151/301/77 148/299/77

vt 107.858 118.959
v -6.63154 2.83608 0.927517
vt 36.5164 111.657
v -6.63154 2.83608 2.73961
vt 107.858 111.657
f 151/302/6 150/294/6 152/303/6 153/304/6 

vt 249.618 -107.858
vn 6.22189e-023 -1 -1.05335e-007
vt 261.084 -107.858
vt 261.084 -36.5164
f 139/305/78 153/306/78 152/307/78

vn -6.22189e-023 -1 -1.05335e-007
vt 249.618 -36.5164
f 139/305/79 152/307/79 145/308/79

v -6.47229 3.02156 2.73961
f 149/297/6 148/296/6 154/302/6

vt 107.858 196.869
f 149/297/6 154/302/6 141/309/6

vn 1.31061e-006 -9.64551e-008 1
vt -254.815 118.959
f 139/281/80 141/283/80 154/310/80

f 147/295/6 149/297/6 141/309/6

f 147/295/6 141/309/6 142/293/6

