# Blender v2.74 (sub 0) OBJ File: 'car1.blend'
# www.blender.org
mtllib car1.mtl
o vehicleSUV_GEO_Cube.074
v 0.144382 0.028299 0.000000
v 0.141711 0.024606 -0.055983
v 0.150278 0.035120 -0.052186
v 0.154116 0.035120 0.000000
v -0.131750 0.079470 -0.055298
v -0.073998 0.079813 -0.054182
v -0.011396 0.082057 -0.055298
v -0.130528 0.065195 -0.033806
v -0.130528 0.065578 -0.056420
v -0.130094 0.051331 -0.058167
v 0.148301 0.049206 -0.029742
v 0.149496 0.048392 0.000000
v 0.151844 0.045168 0.000000
v 0.147500 0.068313 -0.029742
v 0.077324 0.082183 0.000000
v 0.147333 0.068313 0.000000
v 0.146453 0.046680 -0.056589
v -0.121957 0.035877 -0.057350
v -0.064676 0.131829 -0.043552
v -0.114863 0.131326 -0.040796
v -0.115743 0.131326 0.000000
v -0.061612 0.132964 0.000000
v -0.121957 0.035877 0.000000
v 0.077324 0.080159 -0.055298
v 0.143914 0.068313 -0.055269
v 0.145070 0.050021 -0.056278
v -0.016447 0.129626 -0.040702
v 0.069812 0.082293 -0.054116
v 0.025801 0.126791 -0.040702
v -0.009448 0.083751 -0.054163
v 0.025153 0.125021 -0.041852
v -0.014137 0.127800 -0.041814
v -0.013619 0.083826 -0.054125
v -0.071701 0.081318 -0.053308
v -0.018308 0.127998 -0.041886
v -0.062319 0.130157 -0.044706
v 0.074397 0.081840 -0.050816
v 0.074397 0.083864 0.000000
v 0.028727 0.125113 -0.038159
v 0.028727 0.125113 0.000000
v 0.024647 0.127951 0.000000
v -0.015866 0.130817 0.000000
v 0.048757 0.080680 -0.063092
v 0.042723 0.083474 -0.063098
v 0.050077 0.089531 -0.062030
v 0.051438 0.079552 -0.054512
v 0.042531 0.083389 -0.054518
v 0.046692 0.092275 -0.051262
v 0.052340 0.089741 -0.051265
v 0.049301 0.080809 -0.049873
v 0.044963 0.082626 -0.049876
v 0.046906 0.085948 -0.049272
v 0.050923 0.084009 -0.049279
v -0.133822 0.079470 0.000000
v -0.131750 0.079470 -0.032058
v -0.132599 0.064811 0.000000
v 0.157894 0.042383 0.000000
v 0.153468 0.044413 -0.054402
v -0.132165 0.049920 0.000000
v 0.045331 0.091734 -0.062027
v -0.129890 0.084012 0.000000
v -0.127913 0.084084 -0.047138
v -0.118289 0.127787 -0.037112
v -0.118110 0.128592 0.000000
v -0.114012 0.129720 -0.041396
v -0.128271 0.081042 -0.054675
v -0.075582 0.081441 -0.053581
v -0.066543 0.130207 -0.044178
v 0.127413 0.036515 -0.039784
v 0.127413 0.012066 -0.039784
v 0.130688 0.024289 -0.039784
v 0.094016 0.045463 -0.039784
v 0.106239 -0.000160 -0.039784
v 0.106239 0.048738 -0.039784
v 0.118465 0.003115 -0.039784
v 0.118465 0.045463 -0.039784
v 0.094016 0.003115 -0.039784
v 0.085065 0.036515 -0.039784
v 0.085065 0.012066 -0.039784
v 0.081790 0.024289 -0.039784
v 0.085065 0.012066 -0.061829
v 0.127413 0.036515 -0.061829
v 0.130688 0.024289 -0.061829
v 0.127413 0.012066 -0.061829
v 0.081790 0.024289 -0.061829
v 0.094016 0.045463 -0.061829
v 0.106239 -0.000160 -0.061829
v 0.106239 0.048738 -0.061829
v 0.094016 0.003115 -0.061829
v 0.118465 0.045463 -0.061829
v 0.106239 0.024289 -0.060832
v 0.118465 0.003115 -0.061829
v 0.085065 0.036515 -0.061829
v -0.048641 0.037445 -0.040962
v -0.048641 0.011918 -0.040962
v -0.045221 0.024682 -0.040962
v -0.083515 0.046790 -0.040962
v -0.070752 -0.000845 -0.040962
v -0.070752 0.050209 -0.040962
v -0.057985 0.002574 -0.040962
v -0.057985 0.046790 -0.040962
v -0.083515 0.002574 -0.040962
v -0.092859 0.037445 -0.040962
v -0.092859 0.011918 -0.040962
v -0.096279 0.024682 -0.040962
v -0.092859 0.011918 -0.063982
v -0.048641 0.037445 -0.063982
v -0.096279 0.024682 -0.063982
v -0.045221 0.024682 -0.063982
v -0.048641 0.011918 -0.063982
v -0.057985 0.002574 -0.063982
v -0.092859 0.037445 -0.063982
v -0.070752 -0.000845 -0.063982
v -0.070752 0.050209 -0.063982
v -0.083515 0.002574 -0.063982
v -0.057985 0.046790 -0.063982
v -0.070752 0.024682 -0.062941
v -0.083515 0.046790 -0.063982
v -0.127913 0.084084 -0.047138
v -0.129890 0.084012 0.000000
v -0.118110 0.128592 0.000000
v -0.118289 0.127787 -0.037112
v 0.074397 0.083864 0.000000
v 0.074397 0.081840 -0.050816
v 0.028727 0.125113 -0.038159
v 0.069812 0.082293 -0.054116
v -0.009448 0.083751 -0.054163
v 0.025153 0.125021 -0.041852
v -0.018308 0.127998 -0.041886
v -0.013619 0.083826 -0.054125
v -0.062319 0.130157 -0.044706
v 0.028727 0.125113 0.000000
v -0.014137 0.127800 -0.041814
v -0.114012 0.129720 -0.041396
v -0.066543 0.130207 -0.044178
v -0.075582 0.081441 -0.053581
v -0.128271 0.081042 -0.054675
v -0.071701 0.081318 -0.053308
v -0.113927 0.099654 -0.022752
v -0.113927 0.074127 -0.022752
v -0.113927 0.086891 -0.026172
v -0.113927 0.061364 0.000000
v -0.113927 0.064783 -0.013408
v -0.113927 0.112421 0.000000
v -0.113927 0.108998 -0.013408
v -0.136946 0.099654 -0.022752
v -0.136946 0.086891 -0.026175
v -0.136946 0.074127 -0.022752
v -0.136946 0.064783 -0.013408
v -0.136946 0.061364 0.000000
v -0.136946 0.108998 -0.013408
v -0.135906 0.086891 0.000000
v -0.136946 0.112421 0.000000
v -0.000500 0.130751 -0.033539
v -0.039114 0.133020 -0.033539
v -0.039114 0.133020 -0.036298
v -0.000500 0.130751 -0.036298
v 0.011070 0.130371 -0.033539
v 0.011070 0.130371 -0.036298
v 0.011733 0.129136 -0.036792
v 0.011733 0.129136 -0.033045
v 0.011368 0.133115 -0.036298
v -0.038734 0.135752 -0.036298
v -0.038734 0.135752 -0.033539
v 0.011368 0.133115 -0.033539
v -0.051617 0.133617 -0.036298
v -0.051617 0.133617 -0.033539
v -0.053104 0.131499 -0.033539
v -0.053104 0.131499 -0.036298
v -0.041820 0.133228 -0.036298
v -0.041820 0.133228 -0.033539
v -0.051944 0.136358 -0.036298
v -0.051944 0.136358 -0.033539
v -0.039334 0.130148 -0.036298
v -0.042044 0.130355 -0.036298
v -0.042044 0.130355 -0.033539
v -0.037716 0.134485 -0.033539
v -0.037562 0.136390 0.000000
v -0.031741 0.135915 0.000000
v -0.031898 0.134010 -0.033539
v -0.037766 0.133878 -0.033539
v -0.031948 0.133404 -0.033539
v -0.031791 0.135305 0.000000
v -0.037612 0.135780 0.000000
v -0.039334 0.130148 -0.033539
v -0.000717 0.132539 -0.033539
v -0.000613 0.134447 0.000000
v -0.000644 0.133837 0.000000
v -0.000751 0.131930 -0.033539
v 0.015357 0.130078 -0.036792
v 0.015357 0.130078 -0.033045
v 0.017682 0.126803 -0.033045
v 0.017682 0.126803 -0.036792
v 0.010730 0.127319 -0.036792
v 0.010730 0.127319 -0.033045
v 0.001681 0.130512 -0.033539
v 0.001681 0.130512 -0.036298
v -0.008341 0.134878 0.000000
v -0.008448 0.132970 -0.033539
v -0.008480 0.132360 -0.033539
v -0.008376 0.134268 0.000000
v -0.000833 0.127690 -0.036298
v -0.000833 0.127690 -0.033539
v 0.001351 0.127454 -0.033539
v 0.001351 0.127454 -0.036298
v -0.058155 0.131552 -0.033539
v -0.058155 0.131552 -0.036298
v -0.121957 0.035877 -0.057350
v -0.121957 0.035877 0.000000
v -0.138445 0.038354 -0.057350
v -0.130094 0.051331 -0.058167
v -0.142817 0.048392 0.000000
v -0.140746 0.050423 -0.058167
v -0.132165 0.049920 0.000000
v 0.042531 0.083389 -0.054518
v 0.046692 0.092275 -0.051262
v 0.045331 0.091734 -0.062027
v 0.143914 0.068313 -0.055269
v 0.147500 0.068313 -0.029742
v 0.148301 0.049206 -0.029742
v -0.140516 0.038354 0.000000
v 0.042723 0.083474 -0.063098
v 0.145070 0.050021 -0.056278
v -0.131750 0.079470 -0.032058
v -0.131750 0.079470 -0.055298
v -0.130528 0.065195 -0.033806
v -0.130528 0.065578 -0.056420
v 0.150278 0.035120 0.052186
v 0.141711 0.024606 0.055983
v -0.131750 0.079470 0.055298
v -0.011396 0.082057 0.055298
v -0.073998 0.079813 0.054182
v -0.130528 0.065195 0.033806
v -0.130094 0.051331 0.058167
v -0.130528 0.065578 0.056420
v 0.148301 0.049206 0.029742
v 0.147500 0.068313 0.029742
v -0.121957 0.035877 0.057350
v 0.146453 0.046680 0.056589
v -0.064676 0.131829 0.043552
v -0.114863 0.131326 0.040796
v 0.077324 0.080159 0.055298
v 0.145070 0.050020 0.056278
v 0.143914 0.068313 0.055269
v -0.016447 0.129626 0.040702
v 0.025801 0.126791 0.040702
v 0.069812 0.082293 0.054116
v -0.009448 0.083751 0.054163
v 0.025153 0.125021 0.041852
v -0.014137 0.127800 0.041814
v -0.013619 0.083826 0.054125
v -0.071701 0.081318 0.053308
v -0.018308 0.127998 0.041886
v -0.062319 0.130157 0.044706
v 0.074397 0.081840 0.050816
v 0.028727 0.125113 0.038159
v 0.048757 0.080680 0.063092
v 0.050077 0.089531 0.062030
v 0.042723 0.083474 0.063098
v 0.051438 0.079552 0.054512
v 0.042531 0.083389 0.054518
v 0.046692 0.092275 0.051262
v 0.052340 0.089741 0.051265
v 0.049301 0.080809 0.049873
v 0.044963 0.082626 0.049876
v 0.046906 0.085948 0.049272
v 0.050923 0.084009 0.049279
v -0.131750 0.079470 0.032058
v 0.153468 0.044413 0.054402
v 0.045331 0.091734 0.062027
v -0.127913 0.084084 0.047138
v -0.118289 0.127787 0.037112
v -0.114012 0.129720 0.041396
v -0.128271 0.081042 0.054675
v -0.075582 0.081441 0.053582
v -0.066543 0.130207 0.044178
v 0.127413 0.036515 0.039784
v 0.130688 0.024289 0.039784
v 0.127413 0.012066 0.039784
v 0.094016 0.045463 0.039784
v 0.106239 0.048738 0.039784
v 0.106239 -0.000160 0.039784
v 0.118465 0.003115 0.039784
v 0.118465 0.045463 0.039784
v 0.094016 0.003115 0.039784
v 0.085065 0.036515 0.039784
v 0.085065 0.012066 0.039784
v 0.081790 0.024289 0.039784
v 0.085065 0.012066 0.061829
v 0.127413 0.036515 0.061829
v 0.130688 0.024289 0.061829
v 0.127413 0.012066 0.061829
v 0.081790 0.024289 0.061829
v 0.094016 0.045463 0.061829
v 0.106239 -0.000160 0.061829
v 0.106239 0.048738 0.061829
v 0.094016 0.003115 0.061829
v 0.118465 0.045463 0.061829
v 0.106239 0.024289 0.060832
v 0.118465 0.003115 0.061829
v 0.085065 0.036515 0.061829
v -0.048641 0.037445 0.040962
v -0.045221 0.024682 0.040962
v -0.048641 0.011918 0.040962
v -0.083515 0.046790 0.040962
v -0.070752 0.050209 0.040962
v -0.070752 -0.000845 0.040962
v -0.057985 0.002574 0.040962
v -0.057985 0.046790 0.040962
v -0.083515 0.002574 0.040962
v -0.092859 0.037445 0.040962
v -0.092859 0.011918 0.040962
v -0.096279 0.024682 0.040962
v -0.092859 0.011918 0.063982
v -0.048641 0.037445 0.063982
v -0.096279 0.024682 0.063982
v -0.045221 0.024682 0.063982
v -0.048641 0.011918 0.063982
v -0.057985 0.002574 0.063982
v -0.092859 0.037445 0.063982
v -0.070752 -0.000845 0.063982
v -0.070752 0.050209 0.063982
v -0.083515 0.002574 0.063982
v -0.057985 0.046790 0.063982
v -0.070752 0.024682 0.062941
v -0.083515 0.046790 0.063982
v -0.127913 0.084084 0.047138
v -0.118289 0.127787 0.037112
v 0.028727 0.125113 0.038159
v 0.074397 0.081840 0.050816
v 0.069812 0.082293 0.054116
v 0.025153 0.125021 0.041852
v -0.009448 0.083751 0.054163
v -0.018308 0.127998 0.041886
v -0.062319 0.130157 0.044706
v -0.013619 0.083826 0.054125
v -0.014137 0.127800 0.041814
v -0.114012 0.129720 0.041396
v -0.128271 0.081042 0.054675
v -0.075582 0.081441 0.053582
v -0.066543 0.130207 0.044178
v -0.071701 0.081318 0.053308
v -0.113927 0.099654 0.022752
v -0.113927 0.086891 0.026172
v -0.113927 0.074127 0.022752
v -0.113927 0.064783 0.013408
v -0.113927 0.108998 0.013408
v -0.136946 0.099654 0.022752
v -0.136946 0.086891 0.026172
v -0.136946 0.074127 0.022752
v -0.136946 0.064783 0.013408
v -0.136946 0.108998 0.013408
v -0.000500 0.130751 0.033539
v -0.000500 0.130751 0.036298
v -0.039114 0.133020 0.036298
v -0.039114 0.133020 0.033539
v 0.011070 0.130371 0.033539
v 0.011733 0.129136 0.033045
v 0.011733 0.129136 0.036792
v 0.011070 0.130371 0.036298
v 0.011368 0.133115 0.036298
v 0.011368 0.133115 0.033539
v -0.038734 0.135752 0.033539
v -0.038734 0.135752 0.036298
v -0.051617 0.133617 0.036298
v -0.053104 0.131499 0.036298
v -0.053104 0.131499 0.033539
v -0.051617 0.133617 0.033539
v -0.041820 0.133228 0.036298
v -0.041820 0.133228 0.033539
v -0.051944 0.136358 0.033539
v -0.051944 0.136358 0.036298
v -0.042044 0.130355 0.036298
v -0.039334 0.130148 0.036298
v -0.042044 0.130355 0.033539
v -0.037716 0.134485 0.033539
v -0.031898 0.134010 0.033539
v -0.037766 0.133878 0.033539
v -0.031948 0.133404 0.033539
v -0.039334 0.130148 0.033539
v -0.000717 0.132539 0.033539
v -0.000751 0.131930 0.033539
v 0.015357 0.130078 0.036792
v 0.017682 0.126803 0.036792
v 0.017682 0.126803 0.033045
v 0.015357 0.130078 0.033045
v 0.010730 0.127319 0.033045
v 0.010730 0.127319 0.036792
v 0.001681 0.130512 0.036298
v 0.001681 0.130512 0.033539
v -0.008480 0.132360 0.033539
v -0.008448 0.132970 0.033539
v -0.000833 0.127690 0.033539
v -0.000833 0.127690 0.036298
v 0.001351 0.127454 0.036298
v 0.001351 0.127454 0.033539
v -0.058155 0.131552 0.033539
v -0.058155 0.131552 0.036298
v -0.121957 0.035877 0.057350
v -0.138445 0.038354 0.057350
v -0.130094 0.051331 0.058167
v -0.140746 0.050423 0.058167
v 0.042531 0.083389 0.054518
v 0.045331 0.091734 0.062027
v 0.046692 0.092275 0.051262
v 0.143914 0.068313 0.055269
v 0.148301 0.049206 0.029742
v 0.147500 0.068313 0.029742
v 0.042723 0.083474 0.063098
v 0.145070 0.050020 0.056278
v -0.131750 0.079470 0.032058
v -0.130528 0.065195 0.033806
v -0.131750 0.079470 0.055298
v -0.130528 0.065578 0.056420
vt 0.906546 0.724647
vt 0.914557 0.841760
vt 0.891671 0.833817
vt 0.891349 0.724647
vt 0.003412 0.804861
vt 0.001058 0.685211
vt 0.003412 0.556035
vt 0.100826 0.748438
vt 0.101633 0.795745
vt 0.071672 0.799400
vt 0.028232 0.612198
vt 0.026616 0.674417
vt 0.020014 0.674417
vt 0.295954 0.563321
vt 0.358713 0.413962
vt 0.358713 0.562976
vt 0.861989 0.593312
vt 0.846893 0.014892
vt 0.893624 0.574913
vt 0.266813 0.105744
vt 0.272629 0.001825
vt 0.358713 0.000000
vt 0.358713 0.111783
vt 0.121015 0.000000
vt 0.121015 0.556035
vt 0.000000 0.556035
vt 0.782462 0.162352
vt 0.801431 0.022118
vt 0.839943 0.018077
vt 0.272828 0.206355
vt 0.778457 0.178228
vt 0.686709 0.274025
vt 0.782457 0.344011
vt 0.786371 0.347947
vt 0.690668 0.275234
vt 0.688320 0.357599
vt 0.782664 0.352735
vt 0.796487 0.478570
vt 0.792979 0.473892
vt 0.688286 0.366335
vt 0.688111 0.458546
vt 0.684624 0.463608
vt 0.684511 0.362577
vt 0.251487 0.407991
vt 0.358713 0.407428
vt 0.278194 0.301274
vt 0.272828 0.294741
vt 0.358713 0.301274
vt 0.358713 0.292027
vt 0.358713 0.207230
vt 0.939688 0.749174
vt 0.953601 0.750950
vt 0.942655 0.767777
vt 0.000377 0.897704
vt 0.019876 0.897697
vt 0.006259 0.915647
vt 0.015848 0.877978
vt 0.003412 0.879434
vt 0.005377 0.856526
vt 0.959966 0.488868
vt 0.982184 0.493088
vt 0.963279 0.511156
vt 0.005116 0.887994
vt 0.014600 0.887991
vt 0.947287 0.161455
vt 0.947023 0.152130
vt 0.959554 0.154404
vt 0.339302 0.900238
vt 0.340538 0.893061
vt 0.348969 0.902278
vt 0.971591 0.483312
vt 0.978574 0.483740
vt 0.068449 0.612198
vt 0.068435 0.674417
vt 0.029677 0.556686
vt 0.022749 0.556035
vt 0.242029 0.414525
vt 0.242089 0.555886
vt 0.130502 0.677718
vt 0.130752 0.744782
vt 0.099768 0.677718
vt 0.939688 0.607533
vt 0.927991 0.725916
vt 0.914557 0.725916
vt 0.924381 0.612110
vt 0.802526 0.599256
vt 0.068449 0.677718
vt 0.893624 0.022822
vt 0.002885 0.004803
vt 0.000844 0.556035
vt 0.000844 0.614398
vt 0.000000 0.584945
vt 0.953601 0.769186
vt 0.019509 0.915647
vt 0.015848 0.855301
vt 0.982184 0.511164
vt 0.959554 0.167350
vt 0.348969 0.882043
vt 0.871808 0.838453
vt 0.875717 0.724647
vt 0.850687 0.000000
vt 0.870159 0.005808
vt 0.140544 0.677718
vt 0.140934 0.776329
vt 0.234161 0.755355
vt 0.235878 0.677718
vt 0.241923 0.677718
vt 0.242029 0.763061
vt 0.130752 0.793397
vt 0.693110 0.566504
vt 0.798814 0.592117
vt 0.689714 0.568420
vt 0.793110 0.482019
vt 0.688298 0.467373
vt 0.885702 0.936315
vt 0.935397 0.949513
vt 0.908769 0.949533
vt 0.885703 0.863989
vt 0.971779 0.913320
vt 0.872389 0.886924
vt 0.958464 0.936261
vt 0.872388 0.913401
vt 0.971779 0.886849
vt 0.908765 0.850729
vt 0.958460 0.863927
vt 0.935399 0.850710
vt 0.161483 0.953488
vt 0.161483 0.973961
vt 0.114966 0.973961
vt 0.068449 0.923627
vt 0.068449 0.902588
vt 0.114966 0.902588
vt 0.939688 0.678354
vt 0.939688 0.653217
vt 0.986205 0.678354
vt 0.942197 0.599256
vt 0.942197 0.573972
vt 0.988714 0.573972
vt 0.942197 0.548149
vt 0.988714 0.548149
vt 0.939688 0.627291
vt 0.986205 0.653217
vt 0.942197 0.528694
vt 0.986205 0.607533
vt 0.161483 0.902588
vt 0.161483 0.927369
vt 0.114966 0.927369
vt 0.068449 0.974321
vt 0.068449 0.949887
vt 0.114966 0.949887
vt 0.114966 0.953488
vt 0.114966 0.923627
vt 0.573813 0.892846
vt 0.596880 0.879627
vt 0.610039 0.929061
vt 0.646571 0.965234
vt 0.623510 0.978450
vt 0.560499 0.915760
vt 0.659890 0.942311
vt 0.560500 0.942237
vt 0.659890 0.915841
vt 0.573814 0.965171
vt 0.646575 0.892900
vt 0.596876 0.978431
vt 0.623508 0.879648
vt 0.470629 0.865827
vt 0.522515 0.879606
vt 0.494710 0.879627
vt 0.470627 0.790302
vt 0.560499 0.841809
vt 0.456726 0.814251
vt 0.546596 0.865765
vt 0.456724 0.841899
vt 0.560499 0.814168
vt 0.494708 0.776461
vt 0.546595 0.790240
vt 0.522514 0.776439
vt 0.220796 0.927456
vt 0.220796 0.948828
vt 0.172223 0.948828
vt 0.893624 0.546320
vt 0.893624 0.524350
vt 0.942197 0.524350
vt 0.339302 0.882043
vt 0.339302 0.908292
vt 0.290729 0.908292
vt 0.981683 0.000000
vt 0.981683 0.026395
vt 0.933110 0.026395
vt 0.981683 0.053360
vt 0.933110 0.053360
vt 0.339302 0.935358
vt 0.981683 0.073669
vt 0.933110 0.073669
vt 0.339302 0.955989
vt 0.290729 0.935358
vt 0.220796 0.874306
vt 0.220796 0.900182
vt 0.172223 0.900182
vt 0.893624 0.599256
vt 0.893624 0.573741
vt 0.942197 0.573741
vt 0.172223 0.927456
vt 0.942197 0.546320
vt 0.082353 0.813201
vt 0.106434 0.799400
vt 0.120174 0.851020
vt 0.158319 0.888788
vt 0.134238 0.902588
vt 0.068449 0.837129
vt 0.172223 0.864860
vt 0.068451 0.864776
vt 0.172223 0.837219
vt 0.082352 0.888726
vt 0.158321 0.813263
vt 0.106433 0.902566
vt 0.134240 0.799422
vt 0.445005 0.563321
vt 0.445005 0.661933
vt 0.349672 0.661562
vt 0.351696 0.583932
vt 0.349105 0.669625
vt 0.349672 0.775929
vt 0.242029 0.749452
vt 0.664273 0.599256
vt 0.664273 0.765087
vt 0.574169 0.694154
vt 0.986205 0.627291
vt 0.988714 0.599256
vt 0.988714 0.528694
vt 0.114966 0.974321
vt 0.290729 0.882043
vt 0.933110 0.000000
vt 0.290729 0.955989
vt 0.172223 0.874306
vt 0.776611 0.613215
vt 0.871808 0.607533
vt 0.768613 0.705086
vt 0.242029 0.669625
vt 0.569835 0.776439
vt 0.768613 0.759742
vt 0.768613 0.858988
vt 0.664632 0.839364
vt 0.664273 0.729122
vt 0.871808 0.729122
vt 0.439773 0.774068
vt 0.387621 0.760880
vt 0.415480 0.760542
vt 0.349678 0.800405
vt 0.363657 0.774993
vt 0.453990 0.826783
vt 0.453990 0.797836
vt 0.505425 0.879627
vt 0.505295 0.900578
vt 0.456725 0.900661
vt 0.505295 0.927738
vt 0.456724 0.927821
vt 0.505425 0.953831
vt 0.456854 0.953914
vt 0.020111 0.887991
vt 0.018175 0.868444
vt 0.066514 0.868444
vt 0.017467 0.840395
vt 0.065806 0.840395
vt 0.992950 0.338557
vt 0.993909 0.366606
vt 0.945766 0.366606
vt 0.308347 0.881688
vt 0.280507 0.882043
vt 0.294269 0.829014
vt 0.332291 0.867566
vt 0.346266 0.842151
vt 0.242029 0.844760
vt 0.242036 0.815816
vt 0.256235 0.868521
vt 0.456854 0.879710
vt 0.068449 0.887991
vt 0.944807 0.338557
vt 0.449063 0.947500
vt 0.449063 0.866645
vt 0.454886 0.866645
vt 0.454886 0.947500
vt 0.768613 0.606501
vt 0.768614 0.600728
vt 0.771136 0.599696
vt 0.771136 0.607533
vt 0.240663 0.808514
vt 0.240663 0.913129
vt 0.234840 0.913129
vt 0.234840 0.808514
vt 0.837320 0.601100
vt 0.837320 0.606873
vt 0.832728 0.606873
vt 0.832728 0.601100
vt 0.453179 0.742740
vt 0.447356 0.742740
vt 0.447356 0.722264
vt 0.453179 0.722264
vt 0.240663 0.940688
vt 0.234840 0.940688
vt 0.469616 0.682652
vt 0.475397 0.682160
vt 0.475211 0.709823
vt 0.469753 0.688328
vt 0.233798 0.839504
vt 0.228017 0.839013
vt 0.228154 0.833337
vt 0.233612 0.811842
vt 0.221957 0.838871
vt 0.222093 0.833189
vt 0.804845 0.601100
vt 0.810668 0.601100
vt 0.810668 0.607126
vt 0.804845 0.607126
vt 0.985222 0.506929
vt 0.985011 0.436767
vt 0.997317 0.436767
vt 0.997522 0.506929
vt 0.986275 0.749174
vt 0.998590 0.749174
vt 0.998527 0.819336
vt 0.986205 0.819336
vt 0.463692 0.688476
vt 0.463555 0.682794
vt 0.979596 0.984621
vt 0.975565 0.914459
vt 0.976853 0.914459
vt 0.980885 0.984621
vt 0.828137 0.607123
vt 0.822314 0.607123
vt 0.822314 0.601100
vt 0.828137 0.601100
vt 0.453179 0.750577
vt 0.446469 0.750577
vt 0.446469 0.742740
vt 0.775084 0.599696
vt 0.775084 0.607533
vt 0.225400 0.945657
vt 0.227782 0.953122
vt 0.221158 0.958344
vt 0.221472 0.943763
vt 0.469380 0.568542
vt 0.466998 0.576008
vt 0.463070 0.577901
vt 0.462756 0.563321
vt 0.475397 0.577205
vt 0.469118 0.601735
vt 0.161483 0.922162
vt 0.167306 0.902588
vt 0.167306 0.922162
vt 1.000000 0.143831
vt 0.995969 0.213992
vt 0.994685 0.213992
vt 0.998709 0.143831
vt 0.998714 0.354315
vt 0.994685 0.284154
vt 0.995975 0.284154
vt 0.999997 0.354315
vt 0.980885 0.914459
vt 0.984917 0.844298
vt 0.986205 0.844298
vt 0.982174 0.914459
vt 0.445183 0.563321
vt 0.461501 0.563321
vt 0.461331 0.633483
vt 0.445005 0.633483
vt 0.003723 0.696358
vt 0.003412 0.626196
vt 0.019697 0.626196
vt 0.020014 0.696358
vt 0.781554 0.601100
vt 0.787377 0.601100
vt 0.787377 0.607533
vt 0.781554 0.607533
vt 0.233798 0.944460
vt 0.227520 0.919929
vt 0.799022 0.607520
vt 0.793200 0.607520
vt 0.793200 0.601100
vt 0.799022 0.601100
vt 0.468857 0.597152
vt 0.462649 0.602092
vt 0.462395 0.597503
vt 0.227259 0.924512
vt 0.220796 0.924162
vt 0.221050 0.919573
vt 0.469488 0.708837
vt 0.227889 0.812828
vt 0.464426 0.722264
vt 0.464872 0.711708
vt 0.240663 0.952230
vt 0.234840 0.952230
vt 0.223274 0.809957
vt 0.222827 0.799400
vt 0.233798 0.799400
vt 0.241704 0.799400
vt 0.469599 0.577525
vt 0.228000 0.944140
vt 0.893624 0.239947
vt 0.893624 0.119973
vt 0.928761 0.239947
vt 0.937538 0.518079
vt 0.926795 0.483312
vt 0.959966 0.494936
vt 0.940280 0.361630
vt 0.944807 0.483313
vt 0.919659 0.481603
vt 0.915473 0.361630
vt 0.919409 0.483312
vt 0.897387 0.483312
vt 0.475397 0.768067
vt 0.456102 0.774665
vt 0.457658 0.752162
vt 0.946498 0.421011
vt 0.944807 0.367635
vt 0.985011 0.366606
vt 0.933110 0.119973
vt 0.959966 0.520450
vt 0.919409 0.361630
vt 0.893624 0.361630
vt 0.475397 0.750116
vt 0.985011 0.422137
vt 0.190812 0.999295
vt 0.191642 0.950686
vt 0.220796 0.996142
vt 0.891671 0.615476
vt 0.914557 0.607533
vt 0.999877 0.366606
vt 0.999877 0.615432
vt 0.997522 0.486256
vt 0.100826 0.606997
vt 0.071672 0.556035
vt 0.101633 0.559690
vt 0.028232 0.736636
vt 0.421472 0.563321
vt 0.652875 0.005943
vt 0.684511 0.024343
vt 0.637780 0.584364
vt 0.450613 0.105744
vt 0.444797 0.001825
vt 0.242029 0.556035
vt 0.573348 0.436904
vt 0.630830 0.581179
vt 0.592318 0.577138
vt 0.444598 0.206355
vt 0.477595 0.325230
vt 0.569344 0.421028
vt 0.573343 0.255244
vt 0.577258 0.251309
vt 0.481554 0.324021
vt 0.479206 0.241656
vt 0.573550 0.246521
vt 0.583866 0.125364
vt 0.587373 0.120686
vt 0.479173 0.232921
vt 0.475510 0.135647
vt 0.478998 0.140709
vt 0.475397 0.236679
vt 0.465940 0.407990
vt 0.439233 0.301274
vt 0.444598 0.294741
vt 0.933110 0.167350
vt 0.936077 0.148748
vt 0.947023 0.165575
vt 0.019876 0.925360
vt 0.013995 0.943303
vt 0.000377 0.925353
vt 0.184659 0.950284
vt 0.174189 0.971736
vt 0.453179 0.744560
vt 0.456492 0.722273
vt 0.475397 0.740341
vt 0.015138 0.915650
vt 0.005653 0.915648
vt 0.449234 0.709540
vt 0.461501 0.716590
vt 0.448970 0.718864
vt 0.339302 0.904319
vt 0.340538 0.911496
vt 0.464805 0.750116
vt 0.471787 0.749688
vt 0.068449 0.736636
vt 0.029677 0.792148
vt 0.022749 0.792799
vt 0.475397 0.414525
vt 0.475337 0.555885
vt 0.130752 0.610653
vt 0.939688 0.844298
vt 0.924381 0.839722
vt 0.593412 0.000000
vt 0.684511 0.576434
vt 0.239144 0.004803
vt 0.462395 0.621684
vt 0.461551 0.592774
vt 0.462395 0.563321
vt 0.947023 0.147338
vt 0.000744 0.943303
vt 0.184659 0.972961
vt 0.475397 0.722264
vt 0.461501 0.703644
vt 0.348969 0.922513
vt 0.871808 0.610841
vt 0.661046 0.593447
vt 0.641573 0.599256
vt 0.140934 0.579106
vt 0.234161 0.600080
vt 0.242029 0.592374
vt 0.130752 0.562038
vt 0.483996 0.032752
vt 0.480601 0.030835
vt 0.589701 0.007139
vt 0.583997 0.117237
vt 0.479185 0.131883
vt 0.362986 0.879863
vt 0.386053 0.866645
vt 0.412681 0.866665
vt 0.362987 0.952189
vt 0.349674 0.929254
vt 0.449063 0.902858
vt 0.435748 0.879917
vt 0.349672 0.902777
vt 0.449063 0.929329
vt 0.386049 0.965449
vt 0.435744 0.952251
vt 0.412683 0.965468
vt 0.939688 0.823825
vt 0.933110 0.218908
vt 0.979627 0.239947
vt 0.933110 0.239947
vt 0.939688 0.703491
vt 0.944807 0.239947
vt 0.991324 0.265231
vt 0.944807 0.265231
vt 0.991324 0.291053
vt 0.944807 0.291053
vt 0.986205 0.703491
vt 0.939688 0.729417
vt 0.944807 0.310508
vt 0.986205 0.749174
vt 0.939688 0.772925
vt 0.986205 0.797706
vt 0.939688 0.797706
vt 0.933110 0.168214
vt 0.979627 0.192648
vt 0.933110 0.192648
vt 0.986205 0.823825
vt 0.979627 0.218908
vt 0.682537 0.944593
vt 0.718762 0.908378
vt 0.705604 0.957811
vt 0.755294 0.872204
vt 0.732234 0.858988
vt 0.669222 0.921678
vt 0.768613 0.895127
vt 0.669224 0.895202
vt 0.768613 0.921597
vt 0.682537 0.872267
vt 0.755298 0.944538
vt 0.705599 0.859007
vt 0.732231 0.957790
vt 0.782518 0.864510
vt 0.806599 0.850710
vt 0.834404 0.850732
vt 0.782516 0.940035
vt 0.768615 0.916086
vt 0.872388 0.888528
vt 0.858485 0.864572
vt 0.768613 0.888438
vt 0.872388 0.916169
vt 0.806597 0.953876
vt 0.858484 0.940097
vt 0.834403 0.953898
vt 0.511926 0.932778
vt 0.560499 0.954149
vt 0.511926 0.954149
vt 0.220796 0.821371
vt 0.172223 0.799400
vt 0.220796 0.799400
vt 0.019876 0.887991
vt 0.068449 0.914240
vt 0.019876 0.914240
vt 0.981683 0.100064
vt 0.933110 0.100064
vt 0.981683 0.127029
vt 0.933110 0.127029
vt 0.019876 0.941306
vt 0.981683 0.147338
vt 0.933110 0.147338
vt 0.068449 0.941306
vt 0.019876 0.961937
vt 0.511926 0.879627
vt 0.560499 0.905504
vt 0.511926 0.905504
vt 0.172223 0.848791
vt 0.220796 0.848791
vt 0.560499 0.932778
vt 0.172223 0.821371
vt 0.574403 0.865827
vt 0.612224 0.828007
vt 0.598484 0.879627
vt 0.650369 0.790240
vt 0.626288 0.776439
vt 0.560499 0.841899
vt 0.664273 0.814168
vt 0.560500 0.814251
vt 0.664273 0.841809
vt 0.574402 0.790302
vt 0.650370 0.865765
vt 0.598483 0.776461
vt 0.626289 0.879606
vt 0.444224 0.760542
vt 0.351081 0.739205
vt 0.242029 0.589799
vt 0.349672 0.563321
vt 0.479731 0.681542
vt 0.569835 0.610608
vt 0.986205 0.729417
vt 0.991324 0.239947
vt 0.991324 0.310508
vt 0.986205 0.772925
vt 0.979627 0.168214
vt 0.068449 0.961937
vt 0.560499 0.879627
vt 0.776611 0.845028
vt 0.768613 0.753158
vt 0.871808 0.850710
vt 0.475397 0.599256
vt 0.768614 0.698501
vt 0.664632 0.618879
vt 0.768614 0.599256
vt 0.416042 0.866307
vt 0.388182 0.866645
vt 0.363889 0.853119
vt 0.349672 0.829350
vt 0.440005 0.852194
vt 0.290729 0.956330
vt 0.242029 0.935296
vt 0.290600 0.935379
vt 0.242029 0.908136
vt 0.290600 0.908220
vt 0.242159 0.882043
vt 0.290729 0.882126
vt 0.020111 0.792799
vt 0.066514 0.812346
vt 0.018175 0.812346
vt 0.945766 0.310508
vt 0.993909 0.310508
vt 0.332060 0.789445
vt 0.307786 0.775929
vt 0.346266 0.813206
vt 0.256004 0.790400
vt 0.279948 0.776278
vt 0.242159 0.956247
vt 0.068449 0.792799
vt 0.511926 0.960483
vt 0.506103 0.960483
vt 0.506103 0.879627
vt 0.781554 0.606501
vt 0.779031 0.607533
vt 0.779031 0.599696
vt 0.781554 0.600728
vt 0.995578 0.672410
vt 0.989755 0.672410
vt 0.989755 0.567794
vt 0.995578 0.567794
vt 0.828137 0.606873
vt 0.659890 0.900102
vt 0.659890 0.879627
vt 0.665713 0.879627
vt 0.665713 0.900102
vt 0.989755 0.540236
vt 0.995578 0.540236
vt 0.988904 0.113281
vt 0.989040 0.107605
vt 0.994499 0.086111
vt 0.994685 0.113773
vt 0.016414 0.815197
vt 0.016228 0.842859
vt 0.010770 0.821365
vt 0.010633 0.815689
vt 0.004709 0.821513
vt 0.004572 0.815830
vt 0.816491 0.601100
vt 0.816491 0.607126
vt 0.985222 0.366606
vt 0.997522 0.366606
vt 0.986275 0.889497
vt 0.998590 0.889497
vt 0.982843 0.113140
vt 0.982979 0.107457
vt 0.979596 0.844298
vt 0.980885 0.844298
vt 0.453179 0.758414
vt 0.446469 0.758414
vt 0.008016 0.709045
vt 0.004087 0.710938
vt 0.003773 0.696358
vt 0.010398 0.701579
vt 0.988668 0.227391
vt 0.982044 0.232613
vt 0.982358 0.218032
vt 0.986286 0.219925
vt 0.994685 0.218728
vt 0.988406 0.194198
vt 0.665713 0.919676
vt 0.659890 0.919676
vt 0.994685 0.073669
vt 0.995969 0.073669
vt 0.998714 0.213992
vt 0.999997 0.213992
vt 0.986205 0.984621
vt 0.984917 0.984621
vt 0.445183 0.703644
vt 0.003723 0.556035
vt 0.020014 0.556035
vt 0.010135 0.734772
vt 0.016414 0.710242
vt 0.804845 0.607520
vt 0.988145 0.198781
vt 0.981683 0.198431
vt 0.981937 0.193841
vt 0.003666 0.735129
vt 0.003412 0.730539
vt 0.009875 0.730189
vt 0.988776 0.087097
vt 0.010505 0.841873
vt 0.984160 0.084226
vt 0.983714 0.073669
vt 0.989755 0.528694
vt 0.995578 0.528694
vt 0.005443 0.855301
vt 0.005889 0.844744
vt 0.996619 0.681523
vt 0.988714 0.681523
vt 0.988886 0.218409
vt 0.010616 0.710561
vt 0.893624 0.000000
vt 0.928761 0.000000
vt 0.904367 0.485683
vt 0.926795 0.508827
vt 0.893624 0.520450
vt 0.919659 0.241656
vt 0.897387 0.239947
vt 0.919409 0.239947
vt 0.019672 0.949902
vt 0.001933 0.965807
vt 0.000377 0.943303
vt 0.946498 0.428907
vt 0.985011 0.483313
vt 0.944807 0.482284
vt 0.019672 0.967853
vt 0.985011 0.427782
vt 0.872388 0.949533
vt 0.902372 0.952686
vt 0.873218 0.998142
vt 0.902372 1.000000
vn 0.689400 -0.724200 -0.016800
vn -0.016800 0.779000 0.626800
vn -0.999500 -0.030400 -0.000500
vn 0.808300 0.588500 -0.016400
vn 0.194300 0.980900 0.001100
vn 0.004900 -0.050300 -0.998700
vn -0.020900 0.999700 -0.012900
vn -0.028400 -0.999600 -0.000000
vn 0.010300 0.055700 -0.998400
vn 0.047100 0.998500 -0.029600
vn 0.047300 0.998400 -0.029300
vn -0.097500 0.197600 -0.975400
vn 0.010600 0.548000 -0.836400
vn 0.037000 0.535100 -0.844000
vn 0.283500 0.286700 -0.915100
vn -0.034500 0.530700 -0.846900
vn 0.080400 0.640600 -0.763600
vn 0.325900 0.284400 -0.901600
vn 0.497700 0.866700 -0.034500
vn 0.631700 0.737000 -0.240400
vn 0.571100 0.820900 0.000000
vn 0.066900 0.997300 -0.030100
vn 0.052600 0.111300 -0.992400
vn -0.395700 -0.918400 0.002900
vn 0.407000 0.907600 -0.103300
vn 0.978500 -0.021200 -0.205300
vn -0.385400 -0.920000 0.071800
vn 0.142600 0.292400 0.945600
vn -0.793400 0.377100 0.477800
vn 0.748300 -0.466800 0.471300
vn 0.999100 0.041900 0.005600
vn 0.916100 0.388500 -0.099600
vn 0.973200 0.212700 -0.087000
vn 0.179100 0.983200 -0.036000
vn 0.175100 0.984200 -0.024600
vn -0.994500 -0.082900 -0.064300
vn 0.014100 0.099000 -0.995000
vn 0.360900 0.932600 -0.002200
vn -0.002200 0.101300 -0.994900
vn -0.997700 -0.029100 -0.061500
vn -0.998900 0.030000 -0.034800
vn 0.004000 -0.028300 -0.999600
vn 0.006800 0.066800 -0.997700
vn 0.219600 0.474200 -0.852600
vn -0.043000 -0.996800 0.067800
vn 0.046900 0.998500 -0.029900
vn 0.011000 0.514500 -0.857400
vn 0.037200 0.554400 -0.831400
vn -0.244300 0.260700 -0.934000
vn 0.074100 0.530000 -0.844700
vn -0.287000 0.253100 -0.923900
vn -0.583700 -0.116300 0.803600
vn 0.460100 0.887300 -0.032500
vn 0.687800 0.701700 0.186100
vn 0.504200 0.863500 -0.010300
vn 0.070600 0.997200 -0.026400
vn 0.051600 0.112500 -0.992300
vn -0.420100 -0.907300 -0.018700
vn 0.419000 0.902700 -0.098300
vn 0.945400 -0.103600 -0.309100
vn -0.395100 -0.916900 0.056200
vn 0.135700 0.301400 0.943800
vn -0.794800 0.157500 0.586100
vn 0.960500 -0.158100 0.229200
vn 0.993500 0.107800 -0.036900
vn -0.995100 -0.077700 -0.061800
vn -0.051800 0.196300 -0.979200
vn 0.935400 -0.342300 -0.088900
vn 0.885300 -0.460500 -0.065100
vn 0.437900 -0.189800 -0.878700
vn -0.793400 0.607400 -0.040000
vn -0.738600 0.674000 -0.013600
vn -0.768500 0.639800 0.000000
vn -0.964200 0.265100 0.009500
vn 0.007500 0.264100 -0.964500
vn 0.007400 0.264200 -0.964500
vn 0.016400 0.348900 -0.937000
vn 0.008300 0.193500 -0.981100
vn -0.056300 0.369900 -0.927400
vn 0.000700 0.034200 -0.999400
vn 0.000000 -0.000000 1.000000
vn -0.707100 -0.707100 -0.000000
vn 0.707100 0.707100 0.000000
vn -0.965900 -0.258800 0.000000
vn 0.965900 0.258700 0.000000
vn 0.965900 -0.258800 -0.000000
vn -0.965900 0.258700 0.000000
vn 0.707200 -0.707000 -0.000000
vn -0.707000 0.707200 0.000000
vn 0.258700 -0.965900 -0.000000
vn -0.258800 0.965900 0.000000
vn -0.258800 -0.965900 -0.000000
vn 0.258700 0.965900 0.000000
vn -0.040700 -0.010900 -0.999100
vn 0.040700 0.010900 -0.999100
vn -0.029800 -0.029800 -0.999100
vn 0.029800 0.029800 -0.999100
vn -0.010900 -0.040700 -0.999100
vn 0.010900 0.040700 -0.999100
vn 0.010900 -0.040700 -0.999100
vn -0.010900 0.040700 -0.999100
vn 0.029800 -0.029800 -0.999100
vn -0.029800 0.029800 -0.999100
vn -0.040700 0.010900 -0.999100
vn 0.040700 -0.010900 -0.999100
vn 0.965900 0.258800 0.000000
vn -0.965900 0.258800 0.000000
vn 0.707100 -0.707100 -0.000000
vn -0.707100 0.707100 0.000000
vn 0.258700 -0.966000 -0.000000
vn 0.258700 0.966000 0.000000
vn -0.971000 0.238000 -0.022800
vn 0.683200 0.729600 -0.029100
vn 0.005700 0.281400 -0.959600
vn 0.074900 0.273600 -0.958900
vn 0.670300 0.742100 0.000000
vn 0.018300 0.271700 -0.962200
vn -0.018400 0.230900 -0.972800
vn -0.021500 0.177400 -0.983900
vn 1.000000 -0.000000 0.000000
vn 0.000000 0.707100 -0.707100
vn 0.000100 0.258900 -0.965900
vn 0.000100 0.258800 -0.965900
vn 0.000000 0.258900 -0.965900
vn 0.000000 -0.258900 -0.965900
vn 0.000000 -0.258800 -0.965900
vn 0.000100 -0.258900 -0.965900
vn 0.000000 -0.707100 -0.707100
vn 0.000000 -0.969000 -0.247100
vn 0.000000 0.968900 -0.247300
vn -0.999200 -0.010600 0.039700
vn -0.999100 -0.029300 0.029300
vn -0.999100 -0.040700 0.010400
vn -0.999100 0.040700 0.010400
vn -0.999100 0.029300 0.029300
vn -0.999200 0.010700 0.039700
vn 0.000000 0.259000 -0.965900
vn 0.000100 -0.259000 -0.965900
vn -0.058700 -0.998300 0.000000
vn -0.881700 -0.471800 -0.000000
vn 0.052600 0.998600 0.000000
vn 0.818500 -0.574400 0.000000
vn -0.039800 -0.999200 0.000000
vn 0.045900 0.998900 0.000000
vn -0.000000 0.000000 -1.000000
vn -0.997000 0.077400 0.000000
vn 0.081200 0.995100 -0.056900
vn -0.081200 -0.995100 0.056800
vn 0.998500 -0.055500 0.000000
vn 0.997000 -0.077100 -0.000000
vn 0.815300 0.579000 0.000000
vn -0.875900 0.482500 0.000000
vn -0.015100 -0.999900 0.000000
vn -0.996700 0.081200 -0.000000
vn -0.996700 0.081100 0.000000
vn 0.996700 -0.081200 0.000000
vn 0.996700 -0.081100 0.000000
vn -0.998500 0.055500 -0.000000
vn -0.055200 -0.996900 0.056700
vn 0.055200 0.996900 -0.056700
vn -0.994200 0.107900 0.000000
vn 0.994200 -0.108000 -0.000000
vn -0.612000 0.790900 0.000000
vn 0.605700 0.795700 0.000000
vn -0.106000 0.112800 0.987900
vn -0.106000 0.112800 -0.987900
vn -0.148500 -0.988900 -0.000000
vn -0.008600 -0.057300 -0.998300
vn -0.980900 -0.189800 -0.041600
vn -0.084900 0.996200 0.021100
vn -0.914500 0.393100 0.095900
vn 0.989400 0.041500 -0.139000
vn -0.132300 -0.991200 -0.004800
vn 0.005700 -0.066500 -0.997800
vn -0.974100 -0.223200 -0.035200
vn -0.141900 0.989400 0.029500
vn -0.952700 0.303200 -0.018600
vn 0.990500 0.069200 -0.118500
vn -0.996400 -0.085300 0.000000
vn -0.996200 -0.087600 -0.001500
vn 0.689400 -0.724200 0.016800
vn -0.016800 0.779000 -0.626800
vn -0.999500 -0.030400 0.000500
vn 0.808300 0.588500 0.016400
vn 0.194300 0.980900 -0.001100
vn 0.004900 -0.050300 0.998700
vn -0.020900 0.999700 0.012900
vn 0.010300 0.055700 0.998400
vn 0.047100 0.998500 0.029600
vn 0.047300 0.998400 0.029300
vn -0.097500 0.197600 0.975400
vn 0.010600 0.548000 0.836400
vn 0.037000 0.535100 0.844000
vn 0.283600 0.286700 0.915100
vn -0.034500 0.530700 0.846900
vn 0.080400 0.640600 0.763600
vn 0.325900 0.284400 0.901600
vn 0.497700 0.866700 0.034500
vn 0.631700 0.737000 0.240400
vn 0.066900 0.997300 0.030100
vn 0.052600 0.111300 0.992400
vn -0.395700 -0.918400 -0.002900
vn 0.407000 0.907600 0.103300
vn 0.978500 -0.021200 0.205300
vn -0.385400 -0.920000 -0.071800
vn 0.142600 0.292400 -0.945600
vn -0.793400 0.377100 -0.477800
vn 0.748300 -0.466800 -0.471300
vn 0.999100 0.041900 -0.005600
vn 0.916100 0.388500 0.099600
vn 0.973200 0.212700 0.087000
vn 0.179100 0.983200 0.036000
vn 0.175100 0.984200 0.024600
vn -0.994500 -0.082900 0.064300
vn 0.014100 0.099000 0.995000
vn 0.360900 0.932600 0.002200
vn -0.002200 0.101300 0.994900
vn -0.997700 -0.029100 0.061500
vn -0.998900 0.030000 0.034800
vn 0.004000 -0.028300 0.999600
vn 0.006800 0.066800 0.997700
vn 0.219600 0.474200 0.852600
vn -0.043000 -0.996800 -0.067800
vn 0.046900 0.998500 0.029900
vn 0.011000 0.514500 0.857400
vn 0.037200 0.554400 0.831400
vn -0.244300 0.260700 0.934000
vn 0.074100 0.530000 0.844700
vn -0.287000 0.253100 0.923900
vn -0.583700 -0.116300 -0.803600
vn 0.460100 0.887300 0.032500
vn 0.687800 0.701700 -0.186100
vn 0.504200 0.863500 0.010300
vn 0.070600 0.997200 0.026400
vn 0.051600 0.112500 0.992300
vn -0.420100 -0.907300 0.018700
vn 0.419000 0.902700 0.098300
vn 0.945400 -0.103600 0.309100
vn -0.395100 -0.916900 -0.056200
vn 0.135700 0.301400 -0.943800
vn -0.794800 0.157500 -0.586100
vn 0.960500 -0.158100 -0.229200
vn 0.993500 0.107800 0.036900
vn -0.995100 -0.077700 0.061800
vn -0.051800 0.196300 0.979200
vn 0.935400 -0.342300 0.088900
vn 0.885300 -0.460500 0.065100
vn 0.437900 -0.189800 0.878700
vn -0.793400 0.607400 0.040000
vn -0.738600 0.674000 0.013600
vn -0.964200 0.264900 -0.009800
vn 0.007600 0.264100 0.964500
vn 0.007500 0.264100 0.964500
vn 0.016400 0.348400 0.937200
vn 0.008300 0.193500 0.981100
vn -0.056300 0.369900 0.927400
vn 0.000700 0.034200 0.999400
vn -0.040700 -0.010900 0.999100
vn 0.040700 0.010900 0.999100
vn -0.029800 -0.029800 0.999100
vn 0.029800 0.029800 0.999100
vn -0.010900 -0.040700 0.999100
vn 0.010900 0.040700 0.999100
vn 0.010900 -0.040700 0.999100
vn -0.010900 0.040700 0.999100
vn 0.029800 -0.029800 0.999100
vn -0.029800 0.029800 0.999100
vn -0.040700 0.010900 0.999100
vn 0.040700 -0.010900 0.999100
vn -0.971000 0.238000 0.022800
vn 0.683200 0.729600 0.029100
vn 0.005700 0.281400 0.959600
vn 0.074900 0.273600 0.958900
vn 0.018300 0.271700 0.962200
vn -0.018400 0.230900 0.972800
vn -0.021500 0.177400 0.983900
vn 0.000000 0.707100 0.707100
vn 0.000000 0.258800 0.965900
vn 0.000000 -0.258800 0.965900
vn 0.000000 -0.707100 0.707100
vn 0.000000 -0.969000 0.247100
vn 0.000000 0.968900 0.247300
vn -0.999200 -0.010600 -0.039700
vn -0.999100 -0.029300 -0.029300
vn -0.999100 -0.040700 -0.010400
vn -0.999100 0.040700 -0.010400
vn -0.999100 0.029300 -0.029300
vn -0.999200 0.010600 -0.039700
vn -0.881800 -0.471700 0.000000
vn 0.081200 0.995100 0.056900
vn -0.081200 -0.995100 -0.056800
vn -0.055200 -0.996900 -0.056700
vn 0.055200 0.996900 0.056700
vn -0.008600 -0.057300 0.998300
vn -0.980900 -0.189800 0.041600
vn -0.084900 0.996200 -0.021100
vn -0.914500 0.393100 -0.095900
vn 0.989400 0.041500 0.139000
vn -0.132300 -0.991200 0.004800
vn 0.005700 -0.066500 0.997800
vn -0.974100 -0.223200 0.035200
vn -0.141900 0.989400 -0.029500
vn -0.952700 0.303200 0.018600
vn 0.990500 0.069200 0.118500
vn -0.996200 -0.087600 0.001500
usemtl vertexColorShader
s 1
f 1/1/1 2/2/1 3/3/1 4/4/1
f 5/5/2 6/6/2 7/7/2
f 8/8/3 9/9/3 10/10/3
f 11/11/4 12/12/4 13/13/4
f 14/14/5 15/15/5 16/16/5
f 10/17/6 17/18/6 18/19/6
f 19/20/7 20/21/7 21/22/7 22/23/7
f 1/24/8 23/25/8 18/26/8
f 24/27/9 25/28/9 26/29/9
f 27/30/10 19/20/11 22/23/10
f 24/27/12 28/31/12 29/32/12
f 30/33/13 28/31/13 7/34/13
f 31/35/14 32/36/14 29/32/14
f 32/36/15 30/33/15 7/34/15
f 33/37/16 7/34/16 6/38/16 34/39/16
f 35/40/17 36/41/17 19/42/17
f 33/37/18 35/40/18 27/43/18
f 37/44/19 38/45/19 15/15/19
f 39/46/20 37/44/20 29/47/20
f 40/48/21 39/46/21 41/49/21
f 29/47/22 27/30/22 42/50/22
f 43/51/23 44/52/23 45/53/23
f 46/54/24 47/55/24 43/56/24
f 48/57/25 49/58/25 45/59/25
f 49/60/26 46/61/26 45/62/26
f 50/63/27 51/64/27 46/54/27
f 52/65/28 53/66/28 49/67/28
f 51/68/29 52/69/29 47/70/29
f 53/71/30 50/72/30 46/61/30
f 14/73/31 16/74/31 11/11/31
f 26/75/32 11/11/32 17/76/32
f 17/76/33 11/11/33 13/13/33
f 24/77/34 15/15/34 14/14/34
f 25/78/35 24/77/35 14/14/35
f 54/79/36 55/80/36 56/81/36
f 17/18/37 7/34/37 26/29/37
f 17/82/38 13/83/38 57/84/38 58/85/38
f 5/86/39 7/34/39 10/17/39
f 56/81/40 8/8/40 59/87/40
f 8/8/41 10/10/41 59/87/41
f 17/18/42 2/88/42 18/19/42
f 10/17/43 7/34/43 17/18/43
f 28/31/44 31/35/44 29/32/44
f 2/89/45 1/24/45 18/26/45
f 42/50/46 27/30/10 22/23/10
f 28/31/47 24/27/47 7/34/47
f 32/36/48 27/43/48 29/32/48
f 27/43/49 32/36/49 7/34/49
f 27/43/50 35/40/50 19/42/50
f 7/34/51 33/37/51 27/43/51
f 5/90/52 10/91/52 9/92/52
f 24/77/53 37/44/53 15/15/53
f 37/44/54 24/77/54 29/47/54
f 39/46/55 29/47/55 41/49/55
f 41/49/56 29/47/56 42/50/56
f 44/52/57 60/93/57 45/53/57
f 47/55/58 44/94/58 43/56/58
f 60/95/59 48/57/59 45/59/59
f 46/61/60 43/96/60 45/62/60
f 51/64/61 47/55/61 46/54/61
f 48/97/62 52/65/62 49/67/62
f 52/69/63 48/98/63 47/70/63
f 49/60/64 53/71/64 46/61/64
f 16/74/65 12/12/65 11/11/65
f 55/80/66 8/8/66 56/81/66
f 36/41/67 34/39/67 6/38/67 19/42/67
f 58/99/68 57/100/68 3/3/68
f 57/100/69 4/4/69 3/3/69
f 2/88/70 17/18/70 58/101/70 3/102/70
f 61/103/71 62/104/71 55/80/71 54/79/71
f 63/105/72 64/106/72 21/107/72 20/108/72
f 62/104/73 5/109/73 55/80/73
f 62/104/74 63/105/74 20/108/74 5/109/74
f 65/110/75 66/111/76 5/86/75 20/112/76
f 66/111/77 67/113/77 6/38/77 5/86/77
f 67/113/78 68/114/78 19/42/78 6/38/78
f 68/114/79 65/110/79 20/112/79 19/42/79
f 7/34/80 24/27/80 26/29/80
f 69/115/81 70/116/81 71/117/81
f 72/118/81 73/119/81 74/120/81
f 73/119/81 75/121/81 74/120/81
f 74/120/81 75/121/81 76/122/81
f 75/121/81 70/116/81 76/122/81
f 76/122/81 70/116/81 69/115/81
f 72/118/81 77/123/81 73/119/81
f 78/124/81 77/123/81 72/118/81
f 78/124/81 79/125/81 77/123/81
f 80/126/81 79/125/81 78/124/81
f 77/127/82 79/128/82 81/129/82
f 76/130/83 69/131/83 82/132/83
f 79/133/84 80/134/84 81/135/84
f 69/136/85 71/137/85 83/138/85
f 71/137/86 70/139/86 84/140/86
f 80/134/87 78/141/87 85/142/87
f 70/139/88 75/143/88 84/140/88
f 78/141/89 72/82/89 86/144/89
f 75/145/90 73/146/90 87/147/90
f 72/148/91 74/149/91 88/150/91
f 73/146/92 77/127/92 89/151/92
f 74/149/93 76/130/93 90/152/93
f 82/153/94 83/154/94 91/155/94
f 81/156/95 85/157/95 91/155/95
f 90/158/96 82/153/96 91/155/96
f 89/159/97 81/156/97 91/155/97
f 88/160/98 90/158/98 91/155/98
f 87/161/99 89/159/99 91/155/99
f 86/162/100 88/160/100 91/155/100
f 92/163/101 87/161/101 91/155/101
f 93/164/102 86/162/102 91/155/102
f 84/165/103 92/163/103 91/155/103
f 83/154/104 84/165/104 91/155/104
f 85/157/105 93/164/105 91/155/105
f 94/166/81 95/167/81 96/168/81
f 97/169/81 98/170/81 99/171/81
f 98/170/81 100/172/81 99/171/81
f 99/171/81 100/172/81 101/173/81
f 100/172/81 95/167/81 101/173/81
f 101/173/81 95/167/81 94/166/81
f 97/169/81 102/174/81 98/170/81
f 103/175/81 102/174/81 97/169/81
f 103/175/81 104/176/81 102/174/81
f 105/177/81 104/176/81 103/175/81
f 102/178/82 104/179/82 106/180/82
f 101/181/83 94/182/83 107/183/83
f 104/184/84 105/185/84 108/186/84
f 94/187/106 96/188/106 109/189/106
f 96/188/86 95/190/86 110/191/86
f 105/185/107 103/192/107 108/186/107
f 95/190/108 100/193/108 111/194/108
f 103/192/109 97/195/109 112/196/109
f 100/197/110 98/198/110 113/199/110
f 97/200/91 99/201/91 114/202/91
f 98/198/92 102/178/92 115/203/92
f 99/201/111 101/181/111 116/204/111
f 107/205/94 109/206/94 117/207/94
f 106/208/95 108/209/95 117/207/95
f 116/210/96 107/205/96 117/207/96
f 115/211/97 106/208/97 117/207/97
f 114/212/98 116/210/98 117/207/98
f 113/213/99 115/211/99 117/207/99
f 118/214/100 114/212/100 117/207/100
f 111/215/101 113/213/101 117/207/101
f 112/216/102 118/214/102 117/207/102
f 110/217/103 111/215/103 117/207/103
f 109/206/104 110/217/104 117/207/104
f 108/209/105 112/216/105 117/207/105
f 119/218/112 120/219/112 121/220/112 122/221/112
f 123/222/113 124/223/113 125/224/113
f 126/225/114 127/226/114 128/227/114
f 89/151/82 77/127/82 81/129/82
f 90/152/83 76/130/83 82/132/83
f 78/141/87 93/228/87 85/142/87
f 82/229/85 69/136/85 83/138/85
f 83/138/86 71/137/86 84/140/86
f 75/143/88 92/230/88 84/140/88
f 103/192/107 112/196/107 108/186/107
f 93/228/89 78/141/89 86/144/89
f 92/132/90 75/145/90 87/147/90
f 86/231/91 72/148/91 88/150/91
f 87/147/92 73/146/92 89/151/92
f 88/150/93 74/149/93 90/152/93
f 115/203/82 102/178/82 106/180/82
f 116/204/83 101/181/83 107/183/83
f 106/232/84 104/184/84 108/186/84
f 107/233/106 94/187/106 109/189/106
f 109/189/86 96/188/86 110/191/86
f 97/195/109 118/234/109 112/196/109
f 110/191/108 95/190/108 111/194/108
f 111/235/110 100/197/110 113/199/110
f 118/136/91 97/200/91 114/202/91
f 113/199/92 98/198/92 115/203/92
f 114/202/111 99/201/111 116/204/111
f 129/236/115 130/237/115 131/238/115
f 132/239/116 123/222/116 125/224/116
f 127/226/117 133/240/117 128/227/117
f 80/134/84 85/142/84 81/135/84
f 134/241/118 135/242/118 136/243/118 137/244/118
f 131/238/119 130/237/119 138/245/119
f 139/246/120 140/247/120 141/248/120
f 142/249/120 143/250/120 144/251/120
f 144/251/120 143/250/120 145/252/120
f 143/250/120 140/247/120 145/252/120
f 145/252/120 140/247/120 139/246/120
f 145/253/121 139/254/121 146/255/121
f 139/254/122 141/256/123 147/257/124
f 141/256/125 140/258/126 148/259/127
f 140/260/128 143/261/128 149/262/128
f 143/261/129 142/263/129 150/264/129
f 144/265/130 145/266/130 151/267/130
f 146/268/131 147/269/131 152/270/131
f 151/271/132 146/268/132 152/270/132
f 153/272/133 151/271/133 152/270/133
f 149/273/134 150/274/134 152/270/134
f 148/275/135 149/273/135 152/270/135
f 147/269/136 148/275/136 152/270/136
f 151/276/121 145/253/121 146/255/121
f 146/255/137 139/254/122 147/257/124
f 147/257/138 141/256/125 148/259/127
f 148/277/128 140/260/128 149/262/128
f 149/262/129 143/261/129 150/264/129
f 153/278/130 144/265/130 151/267/130
f 154/279/139 155/280/139 156/281/139 157/282/139
f 158/283/140 159/284/140 160/285/140 161/286/140
f 162/287/141 163/288/141 164/289/141 165/290/141
f 166/291/142 167/292/142 168/293/142 169/294/142
f 170/295/143 171/296/143 167/297/143 166/298/143
f 164/289/144 163/288/144 172/299/144 173/300/144
f 155/301/81 164/302/81 173/303/81 171/304/81
f 163/305/145 156/306/145 170/307/145 172/308/145
f 170/307/145 156/306/145 174/309/145 175/310/145
f 171/311/146 170/312/146 175/313/146 176/314/146
f 177/315/147 178/316/147 179/317/147 180/318/147
f 181/319/148 182/320/148 183/321/148 184/322/148
f 155/301/81 171/304/81 176/323/81 185/324/81
f 186/325/149 187/326/149 188/327/149 189/328/149
f 156/329/150 155/330/150 185/331/150 174/332/150
f 190/295/151 191/333/151 192/334/151 193/335/151
f 161/286/152 160/285/152 194/336/152 195/337/152
f 160/338/145 190/339/145 193/340/145 194/341/145
f 191/342/81 161/343/81 195/344/81 192/345/81
f 165/346/81 164/302/81 155/301/81 154/347/81
f 158/348/153 196/145/153 197/349/153 159/350/153
f 178/351/154 177/352/155 181/353/155 184/354/154
f 180/355/156 179/356/156 183/357/157 182/358/156
f 198/359/158 199/360/158 200/361/158 201/362/158
f 200/363/159 189/364/159 188/365/159 201/366/159
f 199/367/160 198/368/160 187/369/160 186/370/160
f 154/371/161 157/372/161 202/373/161 203/374/161
f 163/305/145 162/375/145 157/376/145 156/306/145
f 197/377/162 196/378/162 204/379/162 205/380/162
f 196/381/81 154/347/81 203/382/81 204/383/81
f 157/376/145 197/384/145 205/385/145 202/386/145
f 171/304/81 173/303/81 167/387/81
f 172/308/145 170/307/145 166/388/145
f 167/387/81 173/303/81 206/389/81 168/390/81
f 173/300/163 172/299/163 207/391/163 206/392/163
f 172/308/145 166/388/145 169/393/145 207/394/145
f 162/287/164 165/290/164 191/395/164 190/396/164
f 165/346/165 158/397/165 161/343/165 191/342/165
f 159/398/166 162/375/166 190/339/166 160/338/166
f 162/375/145 159/398/145 197/384/145
f 165/346/81 196/381/81 158/397/81
f 162/375/145 197/384/145 157/376/145
f 165/346/81 154/347/81 196/381/81
f 208/399/167 209/400/167 210/401/167
f 211/402/168 208/403/168 210/404/168
f 212/405/169 213/406/169 210/407/169
f 214/408/170 211/409/170 213/410/170
f 215/411/171 216/412/171 217/413/171
f 218/414/172 219/415/172 220/416/172
f 209/400/173 221/417/173 210/401/173
f 213/418/174 211/402/174 210/404/174
f 221/419/175 212/405/175 210/407/175
f 212/420/176 214/408/176 213/410/176
f 222/421/177 215/411/177 217/413/177
f 223/422/178 218/414/178 220/416/178
f 224/423/179 225/424/179 226/425/179
f 225/424/180 227/179/180 226/425/180
f 1/1/181 4/4/181 228/426/181 229/427/181
f 230/428/182 231/429/182 232/430/182
f 233/431/183 234/432/183 235/433/183
f 236/434/184 13/13/184 12/12/184
f 237/435/185 16/16/185 15/15/185
f 234/436/186 238/437/186 239/438/186
f 240/439/187 22/23/187 21/22/187 241/440/187
f 1/24/8 238/441/8 23/25/8
f 242/442/188 243/443/188 244/444/188
f 245/445/189 22/23/189 240/439/190
f 242/442/191 246/446/191 247/447/191
f 248/448/192 231/449/192 247/447/192
f 249/450/193 246/446/193 250/451/193
f 250/451/194 231/449/194 248/448/194
f 251/452/195 252/453/195 232/454/195 231/449/195
f 253/455/196 240/456/196 254/457/196
f 251/452/197 245/458/197 253/455/197
f 255/459/198 15/15/198 38/45/198
f 256/460/199 246/461/199 255/459/199
f 40/48/21 41/49/21 256/460/21
f 246/461/200 42/50/200 245/445/200
f 257/462/201 258/463/201 259/464/201
f 260/465/202 257/466/202 261/467/202
f 262/468/203 258/469/203 263/180/203
f 263/470/204 258/471/204 260/472/204
f 264/473/205 260/465/205 265/474/205
f 266/475/206 263/476/206 267/477/206
f 265/478/207 261/70/207 266/479/207
f 267/480/208 260/472/208 264/481/208
f 237/482/209 236/434/209 16/74/209
f 243/483/210 239/484/210 236/434/210
f 239/484/211 13/13/211 236/434/211
f 242/485/212 237/435/212 15/15/212
f 244/486/213 237/435/213 242/485/213
f 54/79/214 56/81/214 268/487/214
f 239/438/215 243/443/215 231/449/215
f 239/488/216 269/489/216 57/84/216 13/83/216
f 230/490/217 234/436/217 231/449/217
f 56/81/218 59/87/218 233/431/218
f 233/431/219 59/87/219 234/432/219
f 239/438/220 238/437/220 229/491/220
f 234/436/221 239/438/221 231/449/221
f 247/447/222 246/446/222 249/450/222
f 229/492/223 238/441/223 1/24/223
f 42/50/224 22/23/189 245/445/189
f 247/447/225 231/449/225 242/442/225
f 250/451/226 246/446/226 245/458/226
f 245/458/227 231/449/227 250/451/227
f 245/458/228 240/456/228 253/455/228
f 231/449/229 245/458/229 251/452/229
f 230/493/230 235/494/230 234/495/230
f 242/485/231 15/15/231 255/459/231
f 255/459/232 246/461/232 242/485/232
f 256/460/233 41/49/233 246/461/233
f 41/49/234 42/50/234 246/461/234
f 259/464/235 258/463/235 270/496/235
f 261/467/236 257/466/236 259/497/236
f 270/498/237 258/469/237 262/468/237
f 260/472/238 258/471/238 257/499/238
f 265/474/239 260/465/239 261/467/239
f 262/500/240 263/476/240 266/475/240
f 266/479/241 261/70/241 262/501/241
f 263/470/242 260/472/242 267/480/242
f 16/74/243 236/434/243 12/12/243
f 268/487/244 56/81/244 233/431/244
f 254/457/245 240/456/245 232/454/245 252/453/245
f 269/502/246 228/426/246 57/100/246
f 57/100/247 228/426/247 4/4/247
f 229/491/248 228/503/248 269/504/248 239/438/248
f 61/103/249 54/79/249 268/487/249 271/505/249
f 272/506/250 241/507/250 21/107/250 64/106/250
f 271/505/73 268/487/73 230/508/73
f 271/505/251 230/508/251 241/507/251 272/506/251
f 273/509/252 241/510/252 230/490/253 274/511/252
f 274/511/254 230/490/254 232/454/254 275/512/254
f 275/512/255 232/454/255 240/456/255 276/513/255
f 276/513/256 240/456/256 241/510/256 273/509/256
f 231/449/257 243/443/257 242/442/257
f 277/514/145 278/515/145 279/516/145
f 280/517/145 281/518/145 282/519/145
f 282/519/145 281/518/145 283/520/145
f 281/518/145 284/521/145 283/520/145
f 283/520/145 284/521/145 279/516/145
f 284/521/145 277/514/145 279/516/145
f 280/517/145 282/519/145 285/522/145
f 286/523/145 280/517/145 285/522/145
f 286/523/145 285/522/145 287/524/145
f 288/525/145 286/523/145 287/524/145
f 285/526/82 289/361/82 287/488/82
f 284/527/83 290/528/83 277/529/83
f 287/133/84 289/135/84 288/530/84
f 277/531/85 291/532/85 278/533/85
f 278/533/86 292/534/86 279/535/86
f 288/530/87 293/536/87 286/537/87
f 279/535/88 292/534/88 283/538/88
f 286/537/89 294/539/89 280/51/89
f 283/540/90 295/541/90 282/542/90
f 280/543/91 296/544/91 281/545/91
f 282/542/92 297/546/92 285/526/92
f 281/545/93 298/547/93 284/527/93
f 290/548/258 299/549/258 291/550/258
f 289/551/259 299/549/259 293/552/259
f 298/553/260 299/549/260 290/548/260
f 297/554/261 299/549/261 289/551/261
f 296/555/262 299/549/262 298/553/262
f 295/556/263 299/549/263 297/554/263
f 294/557/264 299/549/264 296/555/264
f 300/558/265 299/549/265 295/556/265
f 301/559/266 299/549/266 294/557/266
f 292/560/267 299/549/267 300/558/267
f 291/550/268 299/549/268 292/560/268
f 293/552/269 299/549/269 301/559/269
f 302/561/145 303/562/145 304/563/145
f 305/564/145 306/565/145 307/566/145
f 307/566/145 306/565/145 308/567/145
f 306/565/145 309/568/145 308/567/145
f 308/567/145 309/568/145 304/563/145
f 309/568/145 302/561/145 304/563/145
f 305/564/145 307/566/145 310/569/145
f 311/570/145 305/564/145 310/569/145
f 311/570/145 310/569/145 312/571/145
f 313/572/145 311/570/145 312/571/145
f 310/573/82 314/574/82 312/575/82
f 309/576/83 315/577/83 302/578/83
f 312/579/84 316/580/84 313/581/84
f 302/194/106 317/582/106 303/583/106
f 303/583/86 318/584/86 304/585/86
f 313/581/107 316/580/107 311/586/107
f 304/585/108 319/587/108 308/588/108
f 311/586/109 320/589/109 305/590/109
f 308/591/110 321/592/110 307/593/110
f 305/197/91 322/594/91 306/595/91
f 307/593/92 323/596/92 310/573/92
f 306/595/111 324/597/111 309/576/111
f 315/598/258 325/599/258 317/600/258
f 314/601/259 325/599/259 316/602/259
f 324/603/260 325/599/260 315/598/260
f 323/604/261 325/599/261 314/601/261
f 322/605/262 325/599/262 324/603/262
f 321/606/263 325/599/263 323/604/263
f 326/607/264 325/599/264 322/605/264
f 319/608/265 325/599/265 321/606/265
f 320/609/266 325/599/266 326/607/266
f 318/610/267 325/599/267 319/608/267
f 317/600/268 325/599/268 318/610/268
f 316/602/269 325/599/269 320/609/269
f 327/611/270 328/612/270 121/220/270 120/219/270
f 123/222/271 329/613/271 330/614/271
f 331/240/272 332/615/272 333/616/272
f 297/546/82 289/361/82 285/526/82
f 298/547/83 290/528/83 284/527/83
f 286/537/87 293/536/87 301/617/87
f 290/618/85 291/532/85 277/531/85
f 291/532/86 292/534/86 278/533/86
f 283/538/88 292/534/88 300/619/88
f 311/586/107 316/580/107 320/589/107
f 301/617/89 294/539/89 286/537/89
f 300/620/90 295/541/90 283/540/90
f 294/621/91 296/544/91 280/543/91
f 295/541/92 297/546/92 282/542/92
f 296/544/93 298/547/93 281/545/93
f 323/596/82 314/574/82 310/573/82
f 324/597/83 315/577/83 309/576/83
f 314/277/84 316/580/84 312/579/84
f 315/193/106 317/582/106 302/194/106
f 317/582/86 318/584/86 303/583/86
f 305/590/109 320/589/109 326/622/109
f 318/584/108 319/587/108 304/585/108
f 319/623/110 321/592/110 308/591/110
f 326/235/91 322/594/91 305/197/91
f 321/592/92 323/596/92 307/593/92
f 322/594/111 324/597/111 306/595/111
f 334/624/273 335/625/273 336/626/273
f 132/239/116 329/613/116 123/222/116
f 333/616/274 332/615/274 337/627/274
f 288/530/84 289/135/84 293/536/84
f 338/628/275 339/244/275 340/629/275 341/630/275
f 335/625/276 342/245/276 336/626/276
f 343/631/120 344/632/120 345/633/120
f 142/249/120 144/251/120 346/634/120
f 144/251/120 347/635/120 346/634/120
f 346/634/120 347/635/120 345/633/120
f 347/635/120 343/631/120 345/633/120
f 347/636/277 348/637/277 343/638/277
f 343/638/278 349/639/278 344/640/278
f 344/640/279 350/641/279 345/642/279
f 345/643/280 351/644/280 346/645/280
f 346/645/281 150/264/281 142/263/281
f 144/265/282 352/646/282 347/647/282
f 348/648/283 152/270/283 349/649/283
f 352/650/284 152/270/284 348/648/284
f 153/272/285 152/270/285 352/650/285
f 351/651/286 152/270/286 150/274/286
f 350/652/287 152/270/287 351/651/287
f 349/649/288 152/270/288 350/652/288
f 352/653/277 348/637/277 347/636/277
f 348/637/278 349/639/278 343/638/278
f 349/639/279 350/641/279 344/640/279
f 350/654/280 351/644/280 345/643/280
f 351/644/281 150/264/281 346/645/281
f 153/278/282 352/646/282 144/265/282
f 353/655/139 354/656/139 355/657/139 356/591/139
f 357/658/289 358/659/289 359/660/289 360/661/289
f 361/662/141 362/663/141 363/664/141 364/665/141
f 365/332/142 366/294/142 367/293/142 368/666/142
f 369/667/143 365/668/143 368/669/143 370/670/143
f 363/664/144 371/671/144 372/672/144 364/665/144
f 356/673/145 370/674/145 371/675/145 363/676/145
f 364/677/81 372/678/81 369/679/81 355/680/81
f 369/679/81 373/681/81 374/682/81 355/680/81
f 370/683/146 375/684/146 373/313/146 369/312/146
f 376/685/290 377/686/290 179/317/290 178/316/290
f 378/687/291 184/322/291 183/321/291 379/688/291
f 356/673/145 380/689/145 375/690/145 370/674/145
f 381/691/149 382/692/149 188/327/149 187/326/149
f 355/684/150 374/683/150 380/331/150 356/330/150
f 383/334/151 384/333/151 385/693/151 386/694/151
f 358/659/152 387/337/152 388/336/152 359/660/152
f 359/695/81 388/696/81 384/697/81 383/698/81
f 386/699/145 385/700/145 387/701/145 358/702/145
f 362/703/145 353/704/145 356/673/145 363/676/145
f 357/705/153 360/706/153 389/667/153 390/670/153
f 178/351/154 184/354/154 378/707/155 376/708/155
f 377/709/156 379/710/156 183/357/157 179/356/156
f 198/359/158 201/362/158 391/711/158 392/712/158
f 391/713/292 201/366/292 188/365/292 382/500/292
f 392/714/293 381/715/293 187/369/293 198/368/293
f 353/379/161 393/378/161 394/373/161 354/372/161
f 364/677/81 355/680/81 354/716/81 361/717/81
f 389/377/162 395/380/162 396/311/162 390/718/162
f 390/719/145 396/720/145 393/721/145 353/704/145
f 354/716/81 394/722/81 395/723/81 389/724/81
f 370/674/145 368/725/145 371/675/145
f 372/678/81 365/726/81 369/679/81
f 368/725/145 367/727/145 397/728/145 371/675/145
f 371/671/163 397/729/163 398/730/163 372/672/163
f 372/678/81 398/731/81 366/732/81 365/726/81
f 361/662/164 383/733/164 386/734/164 362/663/164
f 362/703/166 386/699/166 358/702/166 357/735/166
f 360/736/165 359/695/165 383/698/165 361/717/165
f 361/717/81 389/724/81 360/736/81
f 362/703/145 357/735/145 390/719/145
f 361/717/81 354/716/81 389/724/81
f 362/703/145 390/719/145 353/704/145
f 399/737/167 400/738/167 209/400/167
f 401/739/294 400/740/294 399/741/294
f 212/405/295 400/742/295 402/531/295
f 214/408/296 402/743/296 401/744/296
f 403/745/297 404/746/297 405/747/297
f 406/748/298 407/749/298 408/750/298
f 209/400/299 400/738/299 221/417/299
f 402/403/300 400/740/300 401/739/300
f 221/419/301 400/742/301 212/405/301
f 212/420/302 402/743/302 214/408/302
f 409/751/303 404/746/303 403/745/303
f 410/752/304 407/749/304 406/748/304
f 411/753/179 412/754/179 413/755/179
f 413/755/305 412/754/305 414/756/305
